<svg width="42" height="42" viewBox="0 0 42 42" fill="none" xmlns="http://www.w3.org/2000/svg">
<g clip-path="url(#clip0_828_1844)">
<path d="M2.94171 0.318294C3.27673 0.259231 3.6184 0.2822 3.95675 0.279739C15.5129 0.278919 27.0681 0.280559 38.6243 0.278919C40.0566 0.292044 41.4083 1.28872 41.8306 2.63814C42.0593 3.29357 41.9869 3.99329 41.9969 4.67333C41.9977 15.9116 41.9961 27.1499 41.9977 38.3882C41.9803 39.352 41.5214 40.2962 40.7699 40.9131C40.1148 41.4783 39.2303 41.7498 38.3665 41.7186C26.6766 41.7145 14.9866 41.7195 3.29668 41.7162C2.02228 41.6694 0.82435 40.859 0.306441 39.7122C0.085311 39.2208 -0.0152782 38.6794 0.00217946 38.1437C0.00633603 26.6027 0.000516822 15.0626 0.0046734 3.52243C0.0570463 1.94661 1.35473 0.52009 2.94171 0.318294ZM3.12876 2.2124C2.56429 2.342 2.08795 2.80138 1.96325 3.36247C1.90839 3.65943 1.93166 3.96376 1.92751 4.264C1.92834 15.5843 1.92751 26.9038 1.92834 38.2241C1.88095 38.9394 2.41881 39.6318 3.12626 39.7827C3.45629 39.841 3.79298 39.8131 4.1255 39.8188C15.5952 39.8172 27.064 39.8213 38.5328 39.8163C39.3458 39.8393 40.094 39.1158 40.0707 38.3103C40.0749 26.798 40.0724 15.2857 40.0724 3.77263C40.1331 2.94247 39.3899 2.15661 38.542 2.17958C26.9867 2.17548 15.4314 2.1804 3.87611 2.17794C3.62671 2.1804 3.37483 2.16646 3.12876 2.2124Z" fill="#006BE5"/>
<path d="M19.553 5.41457C25.1394 5.03968 30.8423 6.73199 35.2856 10.0969C35.6639 10.4177 35.6988 11.0214 35.3846 11.3971C33.2655 14.1755 31.1482 16.9555 29.0325 19.7356C28.8679 19.9489 28.7183 20.2023 28.4506 20.3C28.1305 20.4583 27.734 20.4009 27.4547 20.1868C25.6973 18.8841 23.5259 18.1253 21.3262 18.0786C18.9062 17.985 16.478 18.7561 14.5435 20.1876C14.1395 20.5157 13.4844 20.4329 13.1793 20.0129C11.101 17.282 9.02023 14.5529 6.94195 11.8229C6.73661 11.539 6.45396 11.2749 6.40907 10.9123C6.35919 10.5719 6.52213 10.2249 6.80312 10.0264C10.4709 7.29965 14.9641 5.65164 19.553 5.41457ZM13.8053 8.46449C12.0055 9.07398 10.3113 9.95582 8.72844 10.9919C10.4576 13.2822 12.205 15.5594 13.9425 17.8439C14.0031 17.9276 14.058 18.0154 14.1079 18.1056C14.4737 18.0072 14.7704 17.7447 15.1129 17.5856C16.5411 16.8678 18.1015 16.3641 19.7076 16.2591C20.11 16.2091 20.514 16.1672 20.9189 16.1385C21.4775 16.1303 22.0295 16.2411 22.5873 16.2681C24.3597 16.4814 26.088 17.0696 27.6084 17.9965C27.6949 18.0515 27.7897 18.0884 27.8928 18.1073C27.9401 18.0187 27.9933 17.9334 28.0524 17.8522C29.7923 15.5651 31.5406 13.2838 33.2722 10.9911C32.4251 10.4521 31.568 9.92465 30.6594 9.49152C25.4878 6.92722 19.2595 6.56383 13.8053 8.46449Z" fill="#006BE5"/>
<line x1="1.29" y1="-1.29" x2="3.96" y2="-1.29" transform="matrix(-0.605859 0.795572 -0.795573 -0.605858 27.0903 11.0352)" stroke="#006BE5" stroke-width="2.58" stroke-linecap="round"/>
</g>
<defs>
<clipPath id="clip0_828_1844">
<rect width="42" height="42" fill="white"/>
</clipPath>
</defs>
</svg>
