<svg width="43" height="43" viewBox="0 0 43 43" fill="none" xmlns="http://www.w3.org/2000/svg">
<g clip-path="url(#clip0_828_1885)">
<path d="M19.9454 0.742715L19.9454 0.742793L19.9511 0.736864C20.5017 0.156142 21.5406 0.154369 22.0962 0.731632L22.0962 0.731673L22.1004 0.735902C24.8438 3.47477 27.5881 6.21444 30.3231 8.95977L30.3231 8.95981L30.3275 8.96406C30.873 9.48973 30.9162 10.4407 30.4202 11.0101L30.4201 11.01L30.4137 11.0178C30.0124 11.5109 29.2739 11.7008 28.6886 11.4595L28.6887 11.4594L28.6804 11.4562C28.5065 11.3905 28.3504 11.2806 28.1911 11.1379C28.0867 11.0444 27.9956 10.9515 27.898 10.8519C27.8375 10.79 27.7744 10.7257 27.7041 10.6571C26.1598 9.10931 24.6144 7.56387 23.0691 6.01857L22.5573 5.50685L22.5569 6.23052C22.5528 13.3914 22.5535 20.5516 22.5541 27.7121C22.5544 30.3979 22.5546 33.0838 22.5546 35.7697V36.494L23.0668 35.9819C23.462 35.5867 23.8571 35.1916 24.2523 34.7965C25.4428 33.6062 26.6333 32.4159 27.823 31.2245L27.8232 31.2246L27.8301 31.2172C28.1864 30.8354 28.5234 30.5332 28.9428 30.4789L28.9532 30.4775L28.9635 30.4754C29.706 30.3258 30.5173 30.8284 30.6939 31.559L30.6936 31.5591L30.6969 31.5707C30.8487 32.1039 30.6792 32.7125 30.2738 33.0914L30.2736 33.0913L30.2665 33.0984C29.3598 34.0048 28.4535 34.9116 27.5473 35.8183C25.7342 37.6324 23.9213 39.4463 22.1051 41.2564L22.1051 41.2563L22.0991 41.2626C21.5467 41.846 20.5108 41.8452 19.9548 41.2638L19.9548 41.2637L19.95 41.259C18.8614 40.1708 17.7731 39.0822 16.6847 37.9936C15.0522 36.3607 13.4197 34.7277 11.786 33.0961L11.7861 33.096L11.7794 33.0897C11.4033 32.7364 11.2258 32.1863 11.329 31.6823L11.3291 31.6824L11.3303 31.6755C11.4296 31.1262 11.8675 30.6509 12.4065 30.5105L12.4066 30.5106L12.4143 30.5084C12.9444 30.355 13.5525 30.5229 13.9341 30.9255L13.934 30.9255L13.9396 30.9311C14.9483 31.9405 15.958 32.9496 16.9676 33.9587C17.6412 34.6319 18.3148 35.3051 18.9881 35.9784L19.5003 36.4907L19.5002 35.7663C19.4997 31.5472 19.4999 27.3279 19.5 23.1087C19.5002 17.4834 19.5004 11.8581 19.4991 6.23291L19.4989 5.51026L18.9872 6.02056C18.2935 6.71248 17.6012 7.40499 16.909 8.09737C15.9027 9.10402 14.8966 10.1104 13.8867 11.1142L13.8867 11.1142L13.884 11.1169C13.3446 11.6667 12.3572 11.6839 11.799 11.153L11.7992 11.1528L11.7896 11.1444C11.2507 10.6739 11.1456 9.78176 11.5456 9.18479C11.6772 9.00035 11.8372 8.84381 12.019 8.66595C12.0544 8.63137 12.0905 8.59598 12.1275 8.55943L12.1286 8.55835C13.1708 7.51654 14.2128 6.47429 15.2549 5.43198C16.8178 3.86863 18.3809 2.30513 19.9454 0.742715Z" fill="#EA6BFF" stroke="white" stroke-width="0.6"/>
</g>
<defs>
<clipPath id="clip0_828_1885">
<rect width="42.25" height="42.25" fill="white"/>
</clipPath>
</defs>
</svg>
