<svg width="42" height="42" viewBox="0 0 42 42" fill="none" xmlns="http://www.w3.org/2000/svg">
<g clip-path="url(#clip0_828_2564)">
<path d="M35.1126 15.1178C33.8584 12.4245 32.1066 9.79754 29.906 7.30994C29.4449 6.78846 28.649 6.75688 28.1469 7.22561L22.3567 12.6297L22.3567 1.31238C22.3567 0.365003 21.2144 -0.342845 20.359 0.174608C15.6564 3.01913 9.94414 8.72489 7.01874 14.8174C5.35679 18.2786 4.51416 21.8657 4.51416 25.4793C4.51408 34.5889 11.9073 42 20.9948 42C32.413 42 42.1334 30.1948 35.1126 15.1178ZM17.1927 35.7217C17.1927 32.5385 19.7555 30.2021 20.9968 29.2572C22.2326 30.2609 24.7969 32.707 24.7969 35.7217C24.7969 37.8233 23.0913 39.5331 20.9947 39.5331C18.8982 39.5331 17.1927 37.8233 17.1927 35.7217ZM26.695 38.3178C28.5763 34.1837 25.4632 29.1872 21.7007 26.706C21.3066 26.4463 20.7993 26.435 20.394 26.6773C16.4738 29.022 13.4095 34.1755 15.2945 38.3178C10.3969 36.1242 6.97502 31.1951 6.97502 25.4794C6.97502 16.5349 12.8001 8.74516 19.8958 3.48424L19.8958 15.4637C19.8958 16.5386 21.1789 17.0997 21.9648 16.3664L28.8853 9.90721C32.9536 14.8409 35.0145 20.0743 35.0145 25.4795C35.0145 31.1951 31.5927 36.1242 26.695 38.3178Z" fill="#FDB952"/>
</g>
<defs>
<clipPath id="clip0_828_2564">
<rect width="42" height="42" fill="white"/>
</clipPath>
</defs>
</svg>
