<svg width="38" height="42" viewBox="0 0 38 42" fill="none" xmlns="http://www.w3.org/2000/svg">
<path d="M37.9442 22.7525C37.9442 20.1182 37.0145 17.5571 35.3259 15.539L26.6962 4.67476L23.2867 8.96706L16.1641 9.76784e-10L3.8093 15.5537C1.38783 18.4451 0.0546875 22.1152 0.0546875 25.8907C0.0546875 34.7734 7.28128 42 16.164 42C22.3518 42 27.7347 38.4926 30.432 33.3619C34.8032 31.8181 37.9442 27.6456 37.9442 22.7525ZM16.1641 39.5388C8.63846 39.5388 2.51595 33.4163 2.51595 25.8907C2.51595 22.6875 3.64866 19.5737 5.70539 17.1231L5.71605 17.1104L16.1641 3.957L21.7152 10.9455L18.0667 15.5388C16.378 17.557 15.4483 20.1182 15.4483 22.7525C15.4483 28.9547 20.4941 34.0004 26.6962 34.0004C26.8445 34.0004 26.9919 33.9967 27.1388 33.9909C24.6507 37.3535 20.6587 39.5388 16.1641 39.5388ZM26.6962 31.5393C21.8511 31.5393 17.9095 27.5976 17.9095 22.7526C17.9095 20.6903 18.6386 18.6858 19.9628 17.1081L26.6963 8.63184L33.4087 17.0824L33.4297 17.1081C34.7539 18.6857 35.483 20.6903 35.483 22.7525C35.483 27.5976 31.5413 31.5393 26.6962 31.5393Z" fill="#FE9954"/>
</svg>
