<svg width="43" height="43" viewBox="0 0 43 43" fill="none" xmlns="http://www.w3.org/2000/svg">
<g clip-path="url(#clip0_828_2283)">
<path d="M2.95922 0.322444C3.29623 0.26303 3.63994 0.286135 3.9803 0.283659C15.6052 0.282834 27.2293 0.284485 38.8542 0.282834C40.295 0.296037 41.6548 1.29865 42.0796 2.6561C42.3096 3.31543 42.2369 4.01932 42.2469 4.70341C42.2477 16.0086 42.246 27.3138 42.2477 38.6189C42.2302 39.5885 41.7685 40.5383 41.0126 41.1589C40.3536 41.7275 39.4638 42.0006 38.5949 41.9692C26.8354 41.9651 15.0758 41.9701 3.3163 41.9668C2.03431 41.9197 0.829256 41.1044 0.308263 39.9508C0.0858174 39.4565 -0.0153706 38.9119 0.00219098 38.373C0.00637229 26.7634 0.000518445 15.1545 0.00469976 3.54566C0.0573844 1.96046 1.36279 0.525442 2.95922 0.322444ZM3.14738 2.22782C2.57956 2.3582 2.10038 2.82031 1.97494 3.38474C1.91974 3.68346 1.94316 3.98961 1.93898 4.29163C1.93981 15.6793 1.93898 27.0662 1.93981 38.4539C1.89215 39.1735 2.43321 39.8699 3.14487 40.0218C3.47687 40.0804 3.81555 40.0523 4.15006 40.0581C15.688 40.0564 27.2251 40.0606 38.7622 40.0556C39.58 40.0787 40.3327 39.3509 40.3093 38.5405C40.3134 26.9598 40.3109 15.379 40.3109 3.79734C40.372 2.96224 39.6244 2.17171 38.7714 2.19481C27.1473 2.19069 15.5232 2.19564 3.89918 2.19316C3.6483 2.19564 3.39491 2.18161 3.14738 2.22782Z" fill="#006BE5"/>
<path d="M19.6694 5.45003C25.2891 5.07291 31.0258 6.77529 35.4957 10.1602C35.8762 10.4829 35.9113 11.0902 35.5952 11.4682C33.4636 14.2631 31.3336 17.0597 29.2053 19.8563C29.0397 20.0708 28.8892 20.3258 28.6199 20.424C28.2979 20.5833 27.8991 20.5255 27.6181 20.3102C25.8502 18.9997 23.6659 18.2364 21.4531 18.1894C19.0188 18.0953 16.576 18.871 14.6301 20.311C14.2236 20.6411 13.5647 20.5577 13.2577 20.1352C11.1671 17.3881 9.07392 14.6427 6.98326 11.8965C6.7767 11.6109 6.49237 11.3452 6.44721 10.9805C6.39704 10.638 6.56094 10.289 6.8436 10.0893C10.5332 7.34633 15.0532 5.68851 19.6694 5.45003ZM13.8875 8.51811C12.0769 9.13123 10.3726 10.0183 8.78039 11.0605C10.5198 13.3645 12.2776 15.6552 14.0254 17.9534C14.0865 18.0376 14.1417 18.1259 14.1919 18.2166C14.5598 18.1176 14.8584 17.8535 15.2029 17.6935C16.6396 16.9714 18.2093 16.4647 19.8249 16.3591C20.2297 16.3088 20.6361 16.2667 21.0434 16.2378C21.6053 16.2296 22.1606 16.341 22.7217 16.3682C24.5047 16.5827 26.2432 17.1744 27.7728 18.1069C27.8597 18.1622 27.9551 18.1993 28.0588 18.2183C28.1064 18.1292 28.16 18.0433 28.2193 17.9616C29.9696 15.661 31.7283 13.3661 33.4702 11.0597C32.6181 10.5176 31.7559 9.98696 30.8419 9.55125C25.6395 6.97169 19.3742 6.60613 13.8875 8.51811Z" fill="#006BE5"/>
<line x1="1.29" y1="-1.29" x2="3.99125" y2="-1.29" transform="matrix(0.605859 0.795572 0.795573 -0.605858 15.052 10.1016)" stroke="#006BE5" stroke-width="2.58" stroke-linecap="round"/>
</g>
<defs>
<clipPath id="clip0_828_2283">
<rect width="42.25" height="42.25" fill="white"/>
</clipPath>
</defs>
</svg>
