<svg width="43" height="43" viewBox="0 0 43 43" fill="none" xmlns="http://www.w3.org/2000/svg">
<g clip-path="url(#clip0_828_2301)">
<path d="M13.9492 0L27.4073 0C28.5606 0.0278906 29.7099 0.530742 30.4523 1.42488C31.2192 2.30672 31.5342 3.53145 31.3669 4.6807C31.0142 7.35574 30.6549 10.0291 30.2997 12.7034C33.7212 14.9289 36.3741 18.3381 37.5873 22.2428C38.7957 26.0654 38.666 30.3023 37.1944 34.0339C36.009 37.0748 33.9558 39.7671 31.3505 41.7293C31.1339 41.8925 30.869 41.9738 30.6016 42H10.7861C10.2324 41.9697 9.8378 41.5521 9.42765 41.233C7.92811 39.9886 6.62956 38.4997 5.61073 36.8378C3.67725 33.7173 2.77819 29.9816 3.04643 26.3222C3.26382 23.1353 4.36796 20.014 6.21858 17.4087C7.52698 15.5449 9.2078 13.9535 11.1076 12.7017C10.7746 10.217 10.4457 7.73145 10.1134 5.2459C10.0478 4.75617 9.96987 4.26316 10.0084 3.7677C10.0658 2.82352 10.4711 1.90477 11.1339 1.22801C11.8623 0.464297 12.9017 0.0434766 13.9492 0ZM12.8172 3.0368C12.4981 3.41496 12.4144 3.9375 12.485 4.41656C12.7958 6.75855 13.1092 9.10055 13.4226 11.4425C17.9835 9.37453 23.423 9.37207 27.9839 11.4425C28.3006 9.07758 28.6189 6.71344 28.9289 4.34766C29.011 3.79477 28.8297 3.18773 28.3851 2.83172C28.0356 2.53641 27.5648 2.45027 27.1201 2.46012C22.7971 2.4634 18.4749 2.45766 14.1518 2.46258C13.6539 2.45848 13.1363 2.64059 12.8172 3.0368ZM13.8065 14.0126C10.316 15.7771 7.55405 18.9394 6.29815 22.6464C4.86507 26.7627 5.29983 31.4967 7.51796 35.2579C8.47034 36.9009 9.75003 38.3455 11.2274 39.535C17.5405 39.5456 23.8537 39.5341 30.1668 39.5407C33.1552 37.1921 35.2183 33.6943 35.7671 29.9283C36.3167 26.3263 35.5464 22.5274 33.5744 19.457C31.5941 16.3004 28.4097 13.9182 24.8167 12.9248C21.1835 11.8921 17.1657 12.2817 13.8065 14.0126Z" fill="#EA6BFF"/>
</g>
<defs>
<clipPath id="clip0_828_2301">
<rect width="42.25" height="42.25" fill="white"/>
</clipPath>
</defs>
</svg>
