<svg width="28" height="43" viewBox="0 0 28 43" fill="none" xmlns="http://www.w3.org/2000/svg">
<path d="M8.94273 42C8.85302 42 8.76121 41.9832 8.67431 41.9467C8.37505 41.8227 8.20054 41.5108 8.251 41.1912L10.9009 24.2316L1.82919 25.9199C1.54325 25.9732 1.25941 25.847 1.10733 25.6038C0.954543 25.3599 0.965756 25.0481 1.13536 24.8161L19.1232 0.286625C19.3131 0.0273138 19.6558 -0.0694023 19.9536 0.0518432C20.2515 0.17379 20.4281 0.481459 20.3826 0.799641L17.8392 18.7166L26.1932 16.837C26.4792 16.7725 26.7728 16.8924 26.9333 17.137C27.0938 17.3808 27.0854 17.6997 26.913 17.9352L9.50831 41.7134C9.37305 41.8977 9.16069 42 8.94273 42ZM11.7468 22.6603C11.9276 22.6603 12.1028 22.7304 12.2346 22.8579C12.3979 23.017 12.4736 23.2448 12.4385 23.4691L10.0809 38.5575L24.678 18.615L17.1566 20.3069C16.9323 20.358 16.6968 20.2942 16.5279 20.1387C16.359 19.9831 16.277 19.7525 16.3093 19.5247L18.6024 3.36682L3.31287 24.2169L11.6185 22.6722C11.6606 22.6645 11.7033 22.6603 11.7468 22.6603Z" fill="#FDB952" stroke="#FDB952" stroke-width="0.6"/>
</svg>
