<svg width="42" height="42" viewBox="0 0 42 42" fill="none" xmlns="http://www.w3.org/2000/svg">
<g clip-path="url(#clip0_828_2337)">
<path d="M20.7812 37.0994C29.5675 37.0994 36.6903 29.9767 36.6903 21.1903C36.6903 12.404 29.5675 5.28125 20.7812 5.28125C11.9948 5.28125 4.87207 12.404 4.87207 21.1903C4.87207 29.9767 11.9948 37.0994 20.7812 37.0994Z" stroke="#1ED487" stroke-width="1.9"/>
<path d="M20.7814 30.3803C25.8538 30.3803 29.9657 26.2683 29.9657 21.196C29.9657 16.1237 25.8538 12.0117 20.7814 12.0117C15.7091 12.0117 11.5972 16.1237 11.5972 21.196C11.5972 26.2683 15.7091 30.3803 20.7814 30.3803Z" stroke="#1ED487" stroke-width="1.9"/>
<path d="M-2.38574 21.1908H16.43M20.7813 -2.40625V16.5127V-2.40625ZM20.7813 25.4906V44.4095V25.4906ZM25.0811 21.1908H44H25.0811Z" stroke="#1ED487" stroke-width="1.9" stroke-linecap="round"/>
</g>
<defs>
<clipPath id="clip0_828_2337">
<rect width="42" height="42" fill="white"/>
</clipPath>
</defs>
</svg>
