<svg width="56" height="56" viewBox="0 0 56 56" fill="none" xmlns="http://www.w3.org/2000/svg">
<path d="M31.6532 40.5131L22.5182 21.4128C23.2166 21.3377 23.9283 21.419 24.6102 21.6595C25.8104 22.0831 26.7738 22.9487 27.3228 24.0969L30.1884 22.7264C29.0548 20.3562 30.0609 17.5057 32.4311 16.3722C33.5792 15.8232 34.8725 15.7538 36.0727 16.1775C37.2721 16.6008 38.2352 17.4659 38.7845 18.6131L38.7853 18.6149L40.2181 17.9295L41.6509 17.2443V17.2442L40.2804 14.3787C35.5988 4.59019 24.1594 0.17099 14.2046 4.02997L12.8081 1.10974L9.94238 2.48028L11.3387 5.40019C7.06386 7.85676 3.84219 11.717 2.18397 16.4152C0.3485 21.6158 0.648041 27.22 3.02753 32.1952L4.39743 35.0594C4.39765 35.0598 4.39786 35.0604 4.39817 35.061L5.83097 34.3756L7.26377 33.6903L7.26366 33.6902H7.26377C6.71456 32.5421 6.64542 31.2489 7.06905 30.0487C7.49258 28.8486 8.35827 27.8852 9.50635 27.3361C10.6546 26.787 11.9479 26.718 13.148 27.1414C14.3481 27.565 15.3114 28.4306 15.8606 29.5788L18.7261 28.2084C17.8327 26.3404 18.2692 24.1748 19.6539 22.7859L28.5619 41.4117C27.6421 41.7142 26.7291 42.0458 25.8245 42.4077C20.7437 44.44 15.3928 45.4706 9.92035 45.4706H1.00253V54.9999H55.0024V39.1176H42.9083C39.0869 39.1176 35.3206 39.5859 31.6532 40.5131ZM35.64 12.8162C34.1293 12.5921 32.5389 12.7996 31.0606 13.5066C29.4153 14.2936 28.1662 15.5776 27.4031 17.0927C25.348 13.3224 22.1972 8.63415 18.771 6.05476C25.1563 4.98916 31.7188 7.57491 35.64 12.8162ZM8.13571 24.4705C6.65548 25.1787 5.49458 26.2883 4.7208 27.6073C3.86548 24.2835 4.01149 20.7814 5.17937 17.4723C6.18091 14.6344 7.85745 12.1585 10.0504 10.2173C9.90468 14.5027 11.5721 19.8938 13.2231 23.8741C11.5647 23.5174 9.78112 23.6837 8.13571 24.4705ZM16.0429 22.378C14.6479 18.9637 13.7122 15.6667 13.3628 12.8705C12.8978 9.15054 13.6523 7.74813 14.1161 7.5262C14.5801 7.30448 16.1453 7.59714 18.7494 10.2943C20.706 12.3209 22.6854 15.1156 24.4672 18.3432C22.8253 18.0363 21.134 18.2543 19.5983 18.9887C18.0246 19.7412 16.8133 20.9488 16.0429 22.378ZM51.826 51.8235H4.179V48.647H9.92025C15.7986 48.647 21.5464 47.5401 27.0041 45.3569C32.0852 43.3246 37.4362 42.2941 42.9084 42.2941H51.8261V51.8235H51.826Z" fill="#006BE5" stroke="#EEEEEE" stroke-width="1.22"/>
<path d="M48.6498 13.7059C52.1528 13.7059 55.0027 10.8559 55.0027 7.35293C55.0027 3.84992 52.1528 1 48.6498 1C45.1468 1 42.2969 3.84992 42.2969 7.35293C42.2969 10.8559 45.1468 13.7059 48.6498 13.7059ZM48.6498 4.17646C50.4013 4.17646 51.8263 5.60143 51.8263 7.35293C51.8263 9.10443 50.4013 10.5294 48.6498 10.5294C46.8983 10.5294 45.4733 9.10443 45.4733 7.35293C45.4733 5.60143 46.8983 4.17646 48.6498 4.17646Z" fill="#006BE5" stroke="#EEEEEE" stroke-width="1.22"/>
</svg>
