<svg width="56" height="56" viewBox="0 0 56 56" fill="none" xmlns="http://www.w3.org/2000/svg">
<g clip-path="url(#clip0_113_1441)">
<path d="M37.3161 18.3382C36.2789 18.3382 35.2616 18.4246 34.2699 18.5879C32.039 15.2157 28.854 12.7211 25.1883 11.3665L25.8351 10.3075C26.4467 9.30616 26.336 8.04244 25.5596 7.16296L23.3601 4.67063C22.8559 4.09915 22.1293 3.77124 21.3671 3.77124H15.9233C15.1611 3.77124 14.4348 4.09904 13.9302 4.67052L11.7308 7.16285C10.9545 8.04244 10.8437 9.30616 11.4552 10.3075L12.1216 11.3985C5.04711 14.0612 0 20.8977 0 28.8917C0 39.1941 8.38152 47.5756 18.6839 47.5756C19.7245 47.5756 20.745 47.4886 21.7398 47.3243C25.0883 52.3708 30.8188 55.706 37.316 55.706C47.6184 55.706 55.9999 47.3245 55.9999 37.0221C56 26.7199 47.6185 18.3382 37.3161 18.3382ZM13.3359 9.15872C13.2313 8.98755 13.2502 8.77154 13.383 8.62104L15.5824 6.12882C15.6687 6.03104 15.7929 5.97504 15.9233 5.97504H21.3671C21.4973 5.97504 21.6216 6.03104 21.7078 6.12871L23.9074 8.62126C24.0401 8.77154 24.059 8.98755 23.9544 9.15872L23.0069 10.7099C21.6095 10.3808 20.1613 10.2078 18.684 10.2078C17.1729 10.2078 15.7036 10.3894 14.2955 10.7297L13.3359 9.15872ZM2.2038 28.8917C2.2038 19.8045 9.59678 12.4115 18.684 12.4115C23.9761 12.4115 28.8522 14.9 31.9562 19.123C30.9646 19.4205 30.0074 19.7981 29.0922 20.2486C26.5114 17.1357 22.7532 15.362 18.684 15.362C11.2236 15.362 5.1543 21.4315 5.1543 28.8917C5.1543 36.352 11.2236 42.4213 18.684 42.4213C26.1443 42.4213 32.2137 36.3519 32.2137 28.8917C32.2137 28.2525 32.1678 27.6123 32.0789 26.9823C32.9585 26.5216 33.9057 26.1733 34.9013 25.9562C35.0747 26.9208 35.1642 27.9045 35.1642 28.8917C35.1642 37.9789 27.7712 45.3718 18.684 45.3718C9.59678 45.3718 2.2038 37.9789 2.2038 28.8917ZM27.142 21.359C22.0233 24.6952 18.6321 30.4697 18.6321 37.0221C18.6321 38.1105 18.727 39.177 18.9068 40.2148C18.8326 40.2162 18.7585 40.2176 18.684 40.2176C12.4388 40.2176 7.35809 35.1368 7.35809 28.8917C7.35809 22.6465 12.4389 17.5658 18.684 17.5658C21.9582 17.5658 24.9923 18.9378 27.142 21.359ZM25.9901 37.0221C25.9901 33.565 27.5476 30.4652 29.9972 28.3861C30.0046 28.5545 30.0099 28.7231 30.0099 28.8917C30.0099 32.3492 28.452 35.4492 26.002 37.5283C25.9946 37.3605 25.9901 37.1919 25.9901 37.0221ZM37.0956 25.6991C37.169 25.6976 37.2423 25.6963 37.316 25.6963C43.5612 25.6963 48.6419 30.7771 48.6419 37.0222C48.6419 43.2673 43.5611 48.3481 37.316 48.3481C33.9591 48.3481 30.9405 46.8784 28.865 44.5504C33.9798 41.2135 37.3678 35.4412 37.3678 28.8918C37.3679 27.8193 37.2764 26.7495 37.0956 25.6991ZM37.3161 53.5023C31.882 53.5023 27.0562 50.8571 24.0528 46.7883C25.0441 46.4904 26.0011 46.1123 26.9161 45.6613C29.3995 48.6465 33.1384 50.5519 37.3161 50.5519C44.7765 50.5519 50.8458 44.4825 50.8458 37.0223C50.8458 29.5621 44.7765 23.4926 37.3161 23.4926C29.8558 23.4926 23.7864 29.5621 23.7864 37.0223C23.7864 37.6703 23.834 38.3072 23.9227 38.9309C23.043 39.3918 22.0957 39.7403 21.0998 39.9576C20.9277 39.0046 20.8359 38.0241 20.8359 37.0223C20.8359 27.9352 28.2289 20.5423 37.3161 20.5423C46.4033 20.5423 53.7963 27.9352 53.7963 37.0223C53.7963 46.1093 46.4033 53.5023 37.3161 53.5023Z" fill="#006BE5" stroke="#EEEEEE" stroke-width="0.2"/>
</g>
<defs>
<clipPath id="clip0_113_1441">
<rect width="56" height="56" fill="white"/>
</clipPath>
</defs>
</svg>
