<svg width="56" height="56" viewBox="0 0 56 56" fill="none" xmlns="http://www.w3.org/2000/svg">
<path d="M51.7834 22.2526C51.2067 20.4873 49.6326 19.3466 47.7732 19.3466H35.7825L32.0066 7.89505C31.4262 6.13467 29.8553 5 28.0013 5C27.9954 5 27.9893 5 27.9834 5.00009C26.1218 5.0074 24.5516 6.15611 23.9833 7.9266L20.3174 19.3466H8.22689C6.36283 19.3466 4.78748 20.4911 4.21362 22.2623C3.63967 24.0334 4.24503 25.8826 5.75588 26.9732L15.5384 34.0348L11.773 45.4546C11.1902 47.222 11.7854 49.0738 13.2894 50.1723C14.0447 50.724 14.9117 51 15.7792 51C16.6389 50.9999 17.499 50.7288 18.2506 50.1862L28.0501 43.1126L37.7331 50.1743C39.2353 51.27 41.1809 51.2752 42.6893 50.1881C44.1977 49.101 44.8054 47.2554 44.2376 45.4862L40.5614 34.0348L50.2608 26.9611C51.7625 25.8661 52.3601 24.0179 51.7834 22.2526ZM48.6024 24.6931L37.264 32.9621L41.5596 46.3435C41.8487 47.2442 41.2376 47.7708 41.0434 47.9108C40.8493 48.0507 40.1562 48.464 39.3913 47.9061L28.0584 39.6412L16.6032 47.9102C15.8344 48.4651 15.1431 48.047 14.9494 47.9056C14.7559 47.7641 14.1472 47.2328 14.444 46.3329L18.8528 32.962L7.40322 24.6972C6.63401 24.1419 6.8153 23.3548 6.88917 23.1269C6.96303 22.8989 7.2778 22.155 8.22689 22.155H22.369L26.6612 8.7839C26.9506 7.88251 27.755 7.8094 27.9947 7.80837H27.9995C28.2451 7.80837 29.0412 7.88035 29.3358 8.77341L33.748 22.155H47.7733C48.7201 22.155 49.0359 22.8964 49.1101 23.1237C49.1843 23.351 49.3669 24.1356 48.6024 24.6931Z" fill="#006BE5" stroke="#EEEEEE" stroke-width="0.4"/>
</svg>
