<svg width="56" height="56" viewBox="0 0 56 56" fill="none" xmlns="http://www.w3.org/2000/svg">
<g clip-path="url(#clip0_113_1483)">
<path d="M27.9969 46.7444C26.9415 46.7444 26.0859 47.6 26.0859 48.6553V54.0885C26.0859 55.1439 26.9415 55.9995 27.9969 55.9995C29.0525 55.9995 29.9078 55.1439 29.9078 54.0885V48.6553C29.9078 47.5997 29.0522 46.7444 27.9969 46.7444Z" fill="#006BE5" stroke="#EEEEEE" stroke-width="1.1"/>
<path d="M27.9969 9.2566C29.0525 9.2566 29.9078 8.401 29.9078 7.34565V1.91193C29.9078 0.856573 29.0525 0.000976562 27.9969 0.000976562C26.9415 0.000976562 26.0859 0.856573 26.0859 1.91193V7.34565C26.0859 8.401 26.9415 9.2566 27.9969 9.2566Z" fill="#006BE5" stroke="#EEEEEE" stroke-width="1.1"/>
<path d="M12.044 41.2533L8.20072 45.0946C7.45418 45.8406 7.45392 47.0506 8.19996 47.7969C8.57323 48.1702 9.06244 48.357 9.55164 48.357C10.0406 48.357 10.5293 48.1705 10.9026 47.7977L14.7459 43.9564C15.4924 43.2104 15.4927 42.0004 14.7466 41.2541C14.0001 40.5076 12.7903 40.5076 12.044 41.2533Z" fill="#006BE5" stroke="#EEEEEE" stroke-width="1.1"/>
<path d="M42.6041 15.3048C43.0931 15.3048 43.582 15.1183 43.9553 14.7452L47.7981 10.904C48.5444 10.1577 48.5446 8.94794 47.7986 8.20139C47.0523 7.45485 45.8426 7.45459 45.096 8.20114L41.2532 12.0424C40.5069 12.7884 40.5067 13.9984 41.2527 14.7447C41.6257 15.1183 42.1149 15.3048 42.6041 15.3048Z" fill="#006BE5" stroke="#EEEEEE" stroke-width="1.1"/>
<path d="M9.25511 28.0005C9.25511 26.9452 8.39952 26.0896 7.34416 26.0896H1.91095C0.855596 26.0896 0 26.9452 0 28.0005C0 29.0559 0.855596 29.9115 1.91095 29.9115H7.34416C8.39952 29.9115 9.25511 29.0559 9.25511 28.0005Z" fill="#006BE5" stroke="#EEEEEE" stroke-width="1.1"/>
<path d="M54.0889 26.0896H48.6531C47.5975 26.0896 46.7422 26.9452 46.7422 28.0005C46.7422 29.0559 47.5975 29.9115 48.6531 29.9115H54.0889C55.1445 29.9115 55.9999 29.0559 55.9999 28.0005C55.9999 26.9455 55.1445 26.0896 54.0889 26.0896Z" fill="#006BE5" stroke="#EEEEEE" stroke-width="1.1"/>
<path d="M12.0436 14.7452C12.4166 15.1182 12.9058 15.3047 13.3947 15.3047C13.8837 15.3047 14.3729 15.1182 14.7459 14.7452C15.4922 13.9989 15.4922 12.7889 14.7459 12.0426L10.9046 8.20132C10.1583 7.45503 8.94833 7.45503 8.2023 8.20132C7.45601 8.94761 7.45601 10.1576 8.2023 10.9037L12.0436 14.7452Z" fill="#006BE5" stroke="#EEEEEE" stroke-width="1.1"/>
<path d="M43.9559 41.2539C43.2096 40.5076 41.9996 40.5074 41.2533 41.2537C40.5068 42 40.5068 43.21 41.253 43.956L45.0938 47.7973C45.4671 48.1706 45.956 48.3571 46.4452 48.3571C46.9342 48.3571 47.4234 48.1706 47.7964 47.7975C48.5429 47.0512 48.5429 45.8412 47.7966 45.0952L43.9559 41.2539Z" fill="#006BE5" stroke="#EEEEEE" stroke-width="1.1"/>
<path d="M28 13.1267C19.799 13.1267 13.127 19.7992 13.127 28.0008C13.127 36.2021 19.799 42.8743 28 42.8743C36.2018 42.8743 42.8743 36.2021 42.8743 28.0008C42.8743 19.7992 36.2015 13.1267 28 13.1267ZM28 39.0524C21.9064 39.0524 16.9489 34.0947 16.9489 28.0008C16.9489 21.9066 21.9064 16.9486 28 16.9486C34.0944 16.9486 39.0524 21.9066 39.0524 28.0008C39.0524 34.0947 34.0944 39.0524 28 39.0524Z" fill="#006BE5" stroke="#EEEEEE" stroke-width="1.1"/>
</g>
<defs>
<clipPath id="clip0_113_1483">
<rect width="56" height="56" fill="white"/>
</clipPath>
</defs>
</svg>
