<svg width="56" height="56" viewBox="0 0 56 56" fill="none" xmlns="http://www.w3.org/2000/svg">
<g clip-path="url(#clip0_113_1548)">
<path d="M47.2632 21.5178H44.7174C46.873 19.2307 48.1962 16.151 48.1962 12.7678C48.1962 5.72759 42.4685 0 35.4284 0C33.1277 0 30.9216 0.60375 28.97 1.75446C27.0754 0.640312 24.87 0 22.5177 0C15.4775 0 9.7499 5.72772 9.7499 12.7678C9.7499 16.1511 11.0731 19.2308 13.2287 21.5178H8.53102C4.45704 21.5178 1.14258 24.8321 1.14258 28.9061C1.14258 31.8792 2.90869 34.446 5.4461 35.6171V39.6651C5.4461 43.7391 8.76057 47.0535 12.8345 47.0535H14.0533V53.6517C14.0533 54.7611 14.9528 55.6606 16.0622 55.6606H46.1873C47.2968 55.6606 48.1962 54.7611 48.1962 53.6517V36.2336C51.8311 35.7731 54.6516 32.664 54.6516 28.9062C54.6515 24.8321 51.3371 21.5178 47.2632 21.5178ZM32.3233 4.5833C33.3046 4.21018 34.3514 4.01772 35.4283 4.01772C40.2531 4.01772 44.1782 7.94304 44.1782 12.7677C44.1782 17.5923 40.2531 21.5178 35.4283 21.5178C34.3514 21.5178 33.3046 21.3253 32.3233 20.9522C34.2302 18.6824 35.2854 15.8183 35.2854 12.7678C35.2854 9.71732 34.2302 6.85313 32.3233 4.5833ZM22.5176 4.01772C27.3424 4.01772 31.2675 7.94304 31.2675 12.7677C31.2675 17.5923 27.3424 21.5176 22.5176 21.5176C17.6928 21.5176 13.7676 17.5923 13.7676 12.7677C13.7676 7.94304 17.6928 4.01772 22.5176 4.01772ZM12.8345 43.0355C10.976 43.0355 9.46396 41.5235 9.46396 39.665V36.2945H19.2899C21.1484 36.2945 22.6605 37.8066 22.6605 39.6651C22.6605 41.5236 21.1484 43.0357 19.2899 43.0357H12.8345V43.0355ZM44.1782 51.6427H18.0711V47.0534H19.2899C23.3706 47.0534 26.6783 43.7522 26.6783 39.665C26.6783 35.591 23.3639 32.2765 19.2899 32.2765H8.53102C6.67249 32.2767 5.16044 30.7646 5.16044 28.9061C5.16044 27.0475 6.67249 25.5355 8.53102 25.5355H38.5376C38.017 26.5467 37.723 27.6925 37.723 28.9061C37.723 32.664 40.5434 35.7757 44.1784 36.2359V51.6427H44.1782ZM47.2632 32.2767H45.1113C43.2528 32.2767 41.7407 30.7646 41.7407 28.9061C41.7407 27.0475 43.2528 25.5355 45.1113 25.5355H47.2632C49.1217 25.5355 50.6337 27.0475 50.6337 28.9061C50.6337 30.7646 49.1217 32.2767 47.2632 32.2767Z" fill="#006BE5" stroke="#EEEEEE" stroke-width="1.8"/>
</g>
<defs>
<clipPath id="clip0_113_1548">
<rect width="56" height="56" fill="white"/>
</clipPath>
</defs>
</svg>
