<svg width="56" height="56" viewBox="0 0 56 56" fill="none" xmlns="http://www.w3.org/2000/svg">
<g clip-path="url(#clip0_113_1511)">
<path d="M54.3594 52.2557H51.5215V39.6818C52.3913 38.9639 52.8866 37.9458 52.8866 36.859V32.6291C52.8866 30.3246 50.8333 28.4495 48.3094 28.4495H46.1676V18.1671C46.1676 16.4482 44.7695 15.0497 43.0509 15.0497H42.8564V13.9245C44.795 13.2449 46.1895 11.3973 46.1895 9.22897C46.1895 8.50097 45.9779 7.27137 44.3277 4.19936C43.4771 2.61583 42.6389 1.28419 42.6034 1.22819C42.303 0.751859 41.7791 0.462891 41.2158 0.462891C40.6525 0.462891 40.1287 0.751859 39.8281 1.22819C39.7928 1.28419 38.9546 2.61594 38.1038 4.19936C36.4536 7.27137 36.2421 8.50097 36.2421 9.22897C36.2421 11.3972 37.6366 13.2449 39.5752 13.9245V15.0497H39.3807C37.6621 15.0497 36.2639 16.4482 36.2639 18.1671V28.4495H32.952V18.1671C32.952 16.4482 31.5537 15.0497 29.8351 15.0497H29.6406V13.9245C31.5791 13.2449 32.9736 11.3973 32.9736 9.22897C32.9736 8.50097 32.762 7.27137 31.1118 4.19936C30.2613 2.61583 29.4231 1.28419 29.3877 1.2283C29.0872 0.751859 28.5633 0.462891 28 0.462891C27.4367 0.462891 26.9129 0.751859 26.6124 1.22819C26.577 1.28419 25.7388 2.61594 24.8881 4.19936C23.2378 7.27137 23.0263 8.50097 23.0263 9.22897C23.0263 11.3972 24.4208 13.2449 26.3594 13.9245V15.0497H26.1649C24.4463 15.0497 23.048 16.4482 23.048 18.1671V28.4495H19.7361V18.1671C19.7361 16.4482 18.3379 15.0497 16.6193 15.0497H16.4248V13.9245C18.3634 13.2449 19.7579 11.3973 19.7579 9.22897C19.7579 8.50097 19.5463 7.27137 17.8962 4.19936C17.0455 2.61583 16.2073 1.28419 16.1719 1.22819C15.8714 0.751859 15.3475 0.462891 14.7842 0.462891C14.2209 0.462891 13.6971 0.751859 13.3966 1.22819C13.3612 1.28419 12.523 2.61594 11.6723 4.19936C10.022 7.27137 9.81039 8.50097 9.81039 9.22897C9.81039 11.3972 11.2049 13.2449 13.1435 13.9245V15.0497H12.949C11.2304 15.0497 9.83226 16.4482 9.83226 18.1671V28.4495H7.69049C5.16666 28.4495 3.11325 30.3246 3.11325 32.6291V36.859C3.11325 37.9458 3.60861 38.9639 4.47836 39.6818V52.2557H1.64062C0.734562 52.2557 0 52.9902 0 53.8963C0 54.8024 0.734562 55.5369 1.64062 55.5369H54.3594C55.2654 55.5369 56 54.8024 56 53.8963C56 52.9902 55.2654 52.2557 54.3594 52.2557ZM39.5233 9.23017C39.5335 8.70616 40.2381 7.12405 41.2161 5.33883C42.1936 7.12306 42.8977 8.70451 42.9082 9.22984C42.9078 10.1634 42.1488 10.9227 41.2158 10.9227C40.2826 10.9227 39.5233 10.1629 39.5233 9.23017ZM39.5452 18.3309H42.8865V28.4401H39.5452V18.3309ZM26.3075 9.23017C26.3177 8.70616 27.0223 7.12416 28.0002 5.33894C28.9777 7.12306 29.6819 8.70451 29.6924 9.22984C29.6919 10.1634 28.933 10.9227 28 10.9227C27.0668 10.9227 26.3075 10.1629 26.3075 9.23017ZM26.3293 18.3309H29.6707V28.4401H26.3293V18.3309ZM13.0916 9.23017C13.1018 8.70616 13.8064 7.12405 14.7844 5.33883C15.7619 7.12306 16.4661 8.70451 16.4766 9.22984C16.4761 10.1634 15.7171 10.9227 14.7841 10.9227C13.8509 10.9227 13.0916 10.1629 13.0916 9.23017ZM13.1135 18.3309H16.4548V28.4401H13.1135V18.3309ZM48.2403 52.2557H7.75961V40.6294C8.0162 40.5999 8.27203 40.5482 8.52392 40.4736L12.6655 39.2476C15.059 38.5393 17.6949 38.5393 20.0881 39.2476L23.3571 40.2153C24.8542 40.6585 26.427 40.88 27.9998 40.88C29.5727 40.88 31.1456 40.6585 32.6425 40.2153L35.9115 39.2476C38.3047 38.5392 40.9408 38.5392 43.3342 39.2476L47.4756 40.4736C47.7275 40.5482 47.9835 40.5999 48.2401 40.6294V52.2557H48.2403ZM49.6054 36.859C49.6054 36.9956 49.4949 37.1068 49.4024 37.1758C49.1954 37.3302 48.8254 37.4511 48.4073 37.3274L44.2657 36.1014C41.2718 35.215 37.9742 35.215 34.9802 36.1014L31.7112 37.0692C29.3181 37.7775 26.6819 37.7777 24.2886 37.0692L21.0196 36.1014C19.5225 35.6581 17.95 35.4366 16.3768 35.4366C14.8041 35.4366 13.2309 35.6582 11.7342 36.1014L7.59248 37.3274C7.17445 37.4512 6.80433 37.3301 6.5975 37.1758C6.50486 37.1067 6.3945 36.9956 6.3945 36.859V32.6291C6.3945 32.2042 6.92672 31.7308 7.69049 31.7308H48.3095C49.0732 31.7308 49.6055 32.2042 49.6055 32.6291V36.859H49.6054Z" fill="#006BE5" stroke="#EEEEEE" stroke-width="1.22"/>
</g>
<defs>
<clipPath id="clip0_113_1511">
<rect width="56" height="56" fill="white"/>
</clipPath>
</defs>
</svg>
