<svg width="56" height="56" viewBox="0 0 56 56" fill="none" xmlns="http://www.w3.org/2000/svg">
<path d="M39.7686 34.3974C39.2671 33.9482 38.4965 33.992 38.0497 34.4924C35.5102 37.3301 31.8483 38.9566 28.0001 38.9566C24.1531 38.9566 20.49 37.3301 17.9505 34.4924C17.5013 33.992 16.7331 33.9482 16.2316 34.3974C15.73 34.8454 15.6886 35.6148 16.1366 36.1164C19.1375 39.4691 23.4617 41.3913 28.0001 41.3913C32.5398 41.3913 36.8639 39.4679 39.8636 36.1164C40.3116 35.6148 40.269 34.8454 39.7686 34.3974Z" fill="#006BE5"/>
<path d="M28 0C12.561 0 0 12.561 0 28C0 43.439 12.561 56 28 56C43.439 56 56 43.439 56 28C56 12.561 43.439 0 28 0ZM28 53.5652C13.9026 53.5652 2.43478 42.0974 2.43478 28C2.43478 13.9026 13.9026 2.43478 28 2.43478C42.0974 2.43478 53.5652 13.9026 53.5652 28C53.5652 42.0974 42.0974 53.5652 28 53.5652Z" fill="#006BE5"/>
<path d="M37.7393 19.4783C34.383 19.4783 31.6523 22.2089 31.6523 25.5652C31.6523 26.2372 32.1977 26.7826 32.8697 26.7826C33.5417 26.7826 34.0871 26.2372 34.0871 25.5652C34.0871 23.5517 35.7257 21.9131 37.7393 21.9131C39.7529 21.9131 41.3915 23.5517 41.3915 25.5652C41.3915 26.2372 41.9369 26.7826 42.6089 26.7826C43.2809 26.7826 43.8263 26.2372 43.8263 25.5652C43.8263 22.2089 41.0957 19.4783 37.7393 19.4783Z" fill="#006BE5"/>
<path d="M21.913 25.5652C21.913 26.2372 22.4583 26.7826 23.1303 26.7826C23.8023 26.7826 24.3477 26.2372 24.3477 25.5652C24.3477 22.2089 21.6171 19.4783 18.2608 19.4783C14.9044 19.4783 12.1738 22.2089 12.1738 25.5652C12.1738 26.2372 12.7192 26.7826 13.3912 26.7826C14.0632 26.7826 14.6086 26.2372 14.6086 25.5652C14.6086 23.5517 16.2472 21.9131 18.2608 21.9131C20.2743 21.9131 21.913 23.5517 21.913 25.5652Z" fill="#006BE5"/>
</svg>
