<svg width="56" height="56" viewBox="0 0 56 56" fill="none" xmlns="http://www.w3.org/2000/svg">
<path d="M39.4182 50C38.8827 50 38.3694 49.7874 37.991 49.4089L28 39.418L18.0092 49.4087C17.6307 49.7873 17.1173 49.9999 16.582 49.9999C16.0467 49.9999 15.5334 49.7873 15.1549 49.4087L6.59127 40.8452C6.21274 40.4666 6 39.9533 6 39.4179C6 38.8824 6.21274 38.3692 6.59127 37.9905L16.582 27.9998L6.59127 18.0092C6.21274 17.6307 6 17.1173 6 16.5819C6 16.0465 6.21274 15.5331 6.59127 15.1546L15.1549 6.591C15.5332 6.21261 16.0467 6 16.582 6C17.1173 6 17.6307 6.21261 18.0092 6.59113L28 16.582L37.9909 6.59127C38.3694 6.21261 38.8827 6 39.4182 6C39.9536 6 40.467 6.21261 40.8453 6.59127L49.4088 15.1548C50.1971 15.9431 50.1971 17.2211 49.4088 18.0093L39.418 28.0001L49.4088 37.9908C50.1971 38.7791 50.1971 40.057 49.4088 40.8453L40.8453 49.4089C40.467 49.7874 39.9535 50 39.4182 50ZM10.8731 39.418L16.582 45.1271L26.5728 35.1363C27.3609 34.3482 28.639 34.3481 29.4273 35.1363L39.4182 45.1271L45.1271 39.418L35.1364 29.4272C34.3481 28.639 34.3481 27.361 35.1364 26.5728L45.1271 16.582L39.4182 10.8731L29.4273 20.8638C28.639 21.6521 27.3611 21.6521 26.5728 20.8638L16.582 10.8731L10.8731 16.582L20.8638 26.5728C21.2423 26.9513 21.4551 27.4646 21.4551 28.0001C21.4551 28.5355 21.2423 29.0489 20.8638 29.4274L10.8731 39.418Z" fill="#006BE5" stroke="#EEEEEE" stroke-width="1.4"/>
</svg>
