<svg width="151" height="155" viewBox="0 0 151 155" fill="none" xmlns="http://www.w3.org/2000/svg">
<g clip-path="url(#clip0_104_385)">
<path d="M24.3433 8.84865C30.8994 4.16856 38.6795 1.3595 46.6352 0.331179C50.2719 0.421471 54.0441 -0.145358 57.5554 1.08862C60.6053 2.06176 64.2119 1.74574 66.7651 3.94785C68.8218 6.77196 69.2782 10.3435 69.835 13.6943C69.7598 13.7344 69.6043 13.8197 69.524 13.8648C68.9422 16.5134 68.9422 20.125 66.1431 21.4794C64.3774 21.8155 62.5114 21.971 60.7106 21.8857C58.5888 21.4944 58.6138 18.9613 58.3781 17.2859C57.8263 17.1805 57.2745 17.0802 56.7227 16.9799C55.6292 16.719 54.2999 16.5987 53.6227 15.5804C53.071 14.1859 53.0158 12.4453 51.7617 11.442C50.5227 10.5291 49.1232 9.81176 47.6434 9.40043C46.8559 9.49574 46.4245 10.2482 45.9329 10.7749C44.1522 13.1676 41.8197 15.1339 40.39 17.7825C39.1912 19.9444 37.9271 22.1566 35.8905 23.6364C36.7784 24.2634 37.7716 24.7048 38.7498 25.1763C40.365 26.2999 41.7745 27.7145 42.8279 29.3799C44.8695 29.6608 47.0014 29.8865 48.7972 30.98C50.8889 32.2441 53.2816 33.0216 55.1176 34.687C58.4032 37.5813 61.3477 40.887 63.6501 44.619C66.5896 44.1074 70.2614 44.8147 72.4585 42.3417C73.4868 41.2181 74.3546 39.954 75.4983 38.9407C76.3912 35.1585 77.9462 31.2208 81.2168 28.8833C83.2333 27.3383 85.6561 26.5357 88.0137 25.693C90.9532 23.5762 94.6501 25.1563 97.7802 25.9187C100.604 26.4454 102.33 28.8883 104.587 30.4132C105.796 31.2359 106.207 32.7508 107.206 33.7841C108.63 35.3491 109.408 37.3556 110.17 39.3019C109.99 39.4624 109.628 39.7885 109.448 39.949C109.684 39.9139 110.155 39.8386 110.391 39.8035C111.259 41.2732 111.725 42.9537 111.625 44.6692C112.377 44.9902 112.131 45.7878 112.172 46.4198C110.581 46.1289 108.986 45.8029 107.361 45.7828C107.276 48.01 107.165 50.6987 105.385 52.2787C104.577 52.4142 103.383 52.5747 103.328 53.6231C103.443 55.6797 105.069 57.4805 104.647 59.5773C103.469 60.4601 101.883 60.0287 100.529 60.1241C100.599 60.9818 100.74 61.8396 100.9 62.6923C99.8569 63.1037 99.0443 63.826 99.0493 65.0249C97.9658 65.3459 96.8923 65.697 95.9041 66.2488C95.6433 66.7705 95.6132 67.6985 94.8558 67.7486C92.9145 68.3054 90.8779 68.1198 88.9617 67.5982C89.0721 67.9643 89.2978 68.6967 89.4082 69.0629C93.4913 69.2936 98.0812 67.6283 101.683 70.332C105.184 72.0676 107.346 75.3833 109.463 78.5134C110.531 80.0734 110.622 81.9896 110.988 83.7753C113.707 84.5679 116.46 85.6263 118.582 87.5826C120.157 89.0925 120.9 91.2143 121.251 93.3262C122.595 92.6038 123.684 91.4601 125.133 90.9334C127.175 90.1108 129.377 89.4637 130.977 87.8635C134.724 84.7184 137.017 80.1537 137.864 75.3833C136.475 74.8265 135.216 74.0239 134.168 72.9504C132.823 71.5559 130.631 72.5993 129.136 71.4957C128.048 70.8386 126.964 69.4592 127.501 68.1349C128.369 65.3258 131.203 63.6554 133.917 62.9933C135.311 62.6271 136.826 61.4935 138.236 62.4415C140.679 63.9113 142.319 66.3341 144.085 68.5011C145.273 69.9809 147.335 70.7834 147.857 72.7498C148.494 74.9619 148.785 77.6054 147.305 79.5618C144.536 83.3139 143.167 87.8485 141.983 92.2978C140.342 96.1804 139.595 100.379 137.834 104.216C136.57 106.995 135.527 109.995 133.32 112.192C131.048 114.509 129.026 117.304 125.926 118.573C124.241 118.076 122.926 116.887 121.416 116.059C118.663 115.533 115.773 115.673 113.12 114.65C110.265 113.486 107.105 113.06 104.582 111.189C99.9522 108.947 95.2972 106.644 91.3394 103.308C88.8012 106.534 84.5425 107.336 80.7001 107.788C80.6549 110.14 80.4844 112.503 79.9627 114.8C79.2705 118.216 77.7656 121.422 77.3242 124.893C80.4142 128.966 80.3891 134.67 77.9562 139.049C79.3758 141.085 80.7703 143.177 81.618 145.53C82.5912 148.63 84.3468 151.504 84.6328 154.799C85.335 154.734 86.0423 154.669 86.7496 154.619L87.3214 155H73.0303C71.4854 154.524 69.8601 154.468 68.265 154.233C58.3179 152.658 48.6667 149.026 40.2646 143.458C38.0074 139.234 36.648 134.203 37.9522 129.468C39.1862 125.254 40.2897 121.005 41.5287 116.797C42.1507 113.918 41.1826 111.043 40.4452 108.284C40.1593 106.554 40.2947 104.768 39.7881 103.073C38.1729 97.3541 37.8218 91.3648 36.2316 85.6464C35.0027 82.426 33.8289 79.1404 33.4878 75.6893C33.0714 73.2614 33.543 70.6681 32.3541 68.4108C30.2724 63.53 28.3161 57.626 31.0499 52.5998C27.2677 49.9462 24.0323 46.6305 21.0025 43.1593C19.2569 41.2582 17.7821 39.0812 16.8692 36.6584C15.9412 34.381 15.3192 31.8478 13.4832 30.0922C12.0887 28.2262 10.4334 25.994 11.1156 23.526C11.6624 20.0247 15.2941 18.3493 16.9294 15.46C18.7653 12.6309 21.4339 10.494 24.3433 8.84865Z" fill="#131313"/>
<path d="M69.8353 13.6942C78.6587 12.4853 87.718 12.9819 96.3659 15.1138C112.488 19.0063 127.055 28.823 136.826 42.2112C145.269 53.638 150.014 67.6633 150.485 81.844V85.7466C150.114 101.743 144.14 117.534 133.761 129.723C122.059 143.663 104.858 152.778 86.7498 154.619C86.0426 154.669 85.3353 154.734 84.633 154.799C84.3471 151.504 82.5914 148.629 81.6183 145.529C80.7706 143.177 79.3761 141.085 77.9565 139.049C80.3893 134.669 80.4144 128.966 77.3244 124.893C77.7659 121.422 79.2707 118.216 79.9629 114.8C80.4846 112.503 80.6552 110.14 80.7003 107.788C84.5427 107.336 88.8015 106.534 91.3396 103.308C95.2974 106.644 99.9524 108.946 104.582 111.189C107.106 113.06 110.266 113.486 113.12 114.65C115.773 115.673 118.663 115.533 121.417 116.059C122.927 116.887 124.241 118.076 125.926 118.573C129.026 117.303 131.048 114.509 133.32 112.192C135.527 109.995 136.571 106.995 137.835 104.216C139.595 100.379 140.343 96.1803 141.983 92.2977C143.167 87.8484 144.536 83.3138 147.305 79.5617C148.785 77.6053 148.494 74.9618 147.857 72.7497C147.335 70.7833 145.274 69.9807 144.085 68.501C142.319 66.334 140.679 63.9112 138.236 62.4414C136.826 61.4934 135.311 62.627 133.917 62.9932C131.203 63.6553 128.369 65.3257 127.501 68.1348C126.965 69.4591 128.048 70.8385 129.137 71.4956C130.631 72.5992 132.823 71.5558 134.168 72.9503C135.216 74.0238 136.475 74.8264 137.865 75.3832C137.017 80.1536 134.725 84.7183 130.978 87.8634C129.377 89.4636 127.175 90.1107 125.134 90.9333C123.684 91.46 122.595 92.6037 121.251 93.3261C120.9 91.2142 120.158 89.0924 118.583 87.5825C116.461 85.6262 113.707 84.5678 110.988 83.7752C110.622 81.9895 110.532 80.0733 109.463 78.5133C107.346 75.3832 105.184 72.0675 101.683 70.3319C98.0814 67.6282 93.4916 69.2935 89.4084 69.0628C89.2981 68.6966 89.0723 67.9642 88.962 67.5981C90.8782 68.1197 92.9147 68.3053 94.856 67.7485C95.6134 67.6984 95.6435 66.7704 95.9044 66.2487C96.8926 65.6969 97.966 65.3458 99.0495 65.0248C99.0445 63.8259 99.8571 63.1036 100.9 62.6922C100.74 61.8395 100.6 60.9817 100.529 60.124C101.884 60.0286 103.469 60.46 104.648 59.5772C105.069 57.4804 103.444 55.6796 103.328 53.623C103.383 52.5746 104.577 52.4141 105.385 52.2786C107.166 50.6985 107.276 48.0099 107.361 45.7827C108.987 45.8027 110.582 46.1288 112.172 46.4197C112.132 45.7877 112.378 44.9901 111.625 44.6691C111.725 42.9536 111.259 41.2731 110.391 39.8034C110.155 39.8385 109.684 39.9138 109.448 39.9489C109.629 39.7883 109.99 39.4623 110.17 39.3018C109.408 37.3555 108.63 35.349 107.206 33.784C106.208 32.7506 105.796 31.2358 104.587 30.4131C102.33 28.8882 100.605 26.4453 97.7804 25.9186C94.6503 25.1561 90.9534 23.5761 88.0139 25.6929C85.6563 26.5356 83.2335 27.3382 81.217 28.8832C77.9464 31.2207 76.3914 35.1584 75.4985 38.9406C74.3549 39.9539 73.4871 41.218 72.4587 42.3416C70.2617 44.8146 66.5898 44.1073 63.6503 44.6189C61.3479 40.8869 58.4034 37.5812 55.1178 34.6869C53.2819 33.0215 50.8892 32.244 48.7974 30.9799C47.0016 29.8864 44.8697 29.6607 42.8282 29.3798C41.7748 27.7144 40.3652 26.2998 38.75 25.1762L39.1563 25.3217C43.4451 22.4725 47.9948 19.9995 52.7953 18.1184C54.0744 17.6519 55.3184 16.9095 56.723 16.9798C57.2748 17.0801 57.8265 17.1804 58.3783 17.2858C58.6141 18.9612 58.589 21.4943 60.7108 21.8856C62.5117 21.9709 64.3777 21.8154 66.1434 21.4793C68.9424 20.1249 68.9424 16.5133 69.5243 13.8647C69.6045 13.8196 69.76 13.7343 69.8353 13.6942Z" fill="#EEEEEE"/>
<path d="M21.0028 43.1592C24.0325 46.6304 27.268 49.9461 31.0502 52.5996C28.3164 57.6258 30.2727 63.5299 32.3544 68.4106C33.5432 70.6679 33.0717 73.2613 33.488 75.6891C33.8291 79.1402 35.0029 82.4258 36.2319 85.6462C37.822 91.3647 38.1732 97.354 39.7884 103.072C40.295 104.768 40.1596 106.554 40.4455 108.284C41.1829 111.043 42.151 113.917 41.529 116.797C40.29 121.005 39.1864 125.254 37.9524 129.468C36.6482 134.203 38.0076 139.234 40.2649 143.458C32.9212 138.552 26.36 132.422 21.2536 125.199C13.5136 114.459 8.90875 101.487 8.16635 88.2647C7.13804 72.3483 11.768 56.1611 21.0028 43.1592Z" fill="#EEEEEE"/>
</g>
<defs>
<clipPath id="clip0_104_385">
<rect width="150.485" height="155" fill="white"/>
</clipPath>
</defs>
</svg>
