<svg width="143" height="155" viewBox="0 0 143 155" fill="none" xmlns="http://www.w3.org/2000/svg">
<g clip-path="url(#clip0_104_409)">
<path d="M63.3594 3.13511C66.008 0.757444 69.73 -0.160517 73.2062 0.346117C75.6039 1.27411 78.3026 2.24725 79.667 4.59482C81.3876 7.39385 82.9276 10.4186 83.5546 13.6641C83.9157 13.8948 84.2769 14.1256 84.6381 14.3563C84.3873 14.4265 83.8806 14.567 83.6298 14.6372C83.9458 17.0951 83.9157 19.6133 83.0178 21.9608C83.8907 21.8956 85.3754 21.1382 85.5861 22.5126C85.0444 25.1913 84.2217 27.8749 82.5764 30.1021C82.2855 30.1372 81.7086 30.2074 81.4177 30.2426C81.1518 32.54 80.4546 34.8273 80.8007 37.1549C81.0214 38.8754 80.8709 40.6913 81.6133 42.3065C82.0598 43.4853 83.2887 44.0521 84.2769 44.7092C86.4589 45.9432 88.8216 46.9515 91.3096 47.3377C93.4966 47.6888 95.2674 46.0184 97.2588 45.4115C101.909 43.6458 107 45.3914 110.933 48.05C113.351 49.6201 115.021 52.0128 116.847 54.1898C118.141 55.7498 119.405 57.5055 121.351 58.288C124.181 59.4819 127.13 60.6205 129.438 62.7173C131.233 64.3375 132.136 66.645 133.571 68.5461C134.996 70.4773 136.245 72.539 137.629 74.5003C139.174 76.3663 140.664 78.3678 141.361 80.7154C141.833 82.5212 140.318 83.8505 139.139 84.939C136.51 87.6277 135.046 91.1841 132.643 94.0484C129.819 97.6149 125.976 100.158 122.395 102.887C118.547 105.726 114.795 108.696 110.767 111.284C109.102 112.408 107.296 113.536 106.308 115.357C104.552 118.467 101.156 120.042 98.3122 121.978C97.1835 122.841 95.764 122.881 94.535 122.214C94.9564 125.119 95.1369 128.073 95.8392 130.932C96.1703 132.392 95.8242 133.977 96.5013 135.362C97.2287 136.55 96.0148 137.739 96.406 138.993C96.3609 141.065 97.7654 143.001 97.1886 145.058C96.7421 146.272 97.4996 147.441 97.936 148.544C97.8708 148.86 97.7504 149.482 97.6852 149.798C97.4444 149.919 96.9628 150.169 96.7221 150.29C90.808 152.612 84.5327 154.137 78.1923 154.594L78.724 155H66.4745C59.6023 154.177 52.695 153.049 46.2342 150.465C45.7627 150.24 45.2912 150.009 44.8246 149.778C44.9601 148.012 45.0203 146.242 45.4115 144.511C45.4065 141.682 45.2059 138.793 45.9683 136.029C45.4216 135.156 45.7376 134.318 46.48 133.696C46.8863 131.068 47.8895 128.565 48.0852 125.896C45.3263 125.761 43.0138 124.161 40.6512 122.927C38.5996 121.863 37.3455 119.852 35.7403 118.272C32.7407 114.414 28.0656 112.543 24.3335 109.538C20.5513 106.499 16.7491 103.469 13.1926 100.168C8.93889 96.0047 5.563 91.0587 1.535 86.7097C0.762512 85.4306 1.13873 83.8505 1.9062 82.6667C3.43112 80.1887 4.69018 77.5451 6.46591 75.2277C8.49245 72.4186 11.1611 70.1413 13.1525 67.3021C14.873 64.8241 17.3109 62.8929 20.0497 61.6539C22.2067 60.6406 24.6145 59.6374 25.713 57.355C28.5873 52.1683 32.4999 46.7709 38.5745 45.271C43.7111 43.6257 49.0031 46.2743 54.1848 45.1256C56.8233 44.6139 59.7227 44.0672 61.5837 41.9353C62.3963 41.2079 62.0853 40.0291 62.0251 39.0811C61.5687 35.946 61.3229 32.7707 60.5454 29.6958C60.2444 29.6807 59.6324 29.6557 59.3264 29.6406C57.2146 27.7244 56.081 24.8652 56.1261 22.0361C56.4622 20.8773 57.8366 21.2887 58.7245 21.2134C58.0172 18.9712 57.967 16.6086 58.1526 14.2861C58.7797 10.2129 59.8581 5.72346 63.3594 3.13511ZM37.3756 71.305C36.0664 73.9235 34.406 76.4717 31.8979 78.0919C28.7378 80.6802 25.0258 82.456 21.1483 83.695C22.909 87.0207 24.5392 90.4919 25.8183 94.0634C26.9269 97.4493 29.7259 99.837 32.1789 102.26C34.6217 104.893 37.4458 107.141 40.2047 109.418C42.8031 110.532 45.7125 110.522 48.4463 111.103C49.4897 111.47 50.3123 112.312 51.4259 112.528C51.0598 108.746 50.3424 105.004 49.59 101.282C49.0533 97.7002 47.2876 94.4848 46.3897 90.9985C45.7777 88.2647 44.0622 86.0074 42.9335 83.4893C41.85 81.2571 40.7214 79.045 39.7633 76.7576C39.0159 74.9819 38.6648 73.0657 37.8772 71.305C37.7518 71.305 37.501 71.305 37.3756 71.305ZM105.159 78.0668C103.017 82.0146 101.523 86.2833 99.0947 90.0705C96.1 96.3709 95.0767 103.358 93.0101 109.97C94.7758 109.388 96.6017 109.012 98.3774 108.46C100.675 107.823 102.295 105.967 104.051 104.477C106.654 102.25 108.646 99.4257 111.189 97.1383C112.337 96.0799 113.195 94.7707 114.193 93.5819C115.568 91.9115 115.784 89.6793 116.636 87.7531C117.77 85.1196 118.838 82.4309 120.444 80.0332C117.354 79.1353 114.364 77.7307 111.861 75.6992C110.321 74.5405 109.368 72.6794 107.773 71.6662C106.719 73.7228 106.323 76.0553 105.159 78.0668Z" fill="#131313"/>
<path d="M21.6599 33.1971C31.5969 23.4557 44.4985 16.8895 58.1526 14.2861C57.967 16.6086 58.0172 18.9712 58.7244 21.2135C57.8366 21.2887 56.4621 20.8774 56.1261 22.0361C56.0809 24.8653 57.2146 27.7245 59.3264 29.6407C59.6324 29.6557 60.2443 29.6808 60.5453 29.6958C61.3228 32.7708 61.5686 35.946 62.0251 39.0811C62.0853 40.0292 62.3963 41.208 61.5837 41.9353C59.7227 44.0672 56.8233 44.614 54.1848 45.1256C49.0031 46.2743 43.711 43.6258 38.5744 45.2711C32.4998 46.7709 28.5872 52.1683 25.7129 57.3551C24.6144 59.6374 22.2066 60.6407 20.0497 61.6539C17.3108 62.8929 14.873 64.8242 13.1524 67.3022C11.161 70.1413 8.4924 72.4187 6.46586 75.2277C4.69013 77.5452 3.43107 80.1887 1.90615 82.6667C1.13867 83.8505 0.76246 85.4306 1.53495 86.7098C5.56294 91.0588 8.93884 96.0047 13.1926 100.168C16.749 103.469 20.5513 106.499 24.3335 109.538C28.0655 112.543 32.7406 114.414 35.7403 118.272C37.3455 119.852 38.5995 121.863 40.6511 122.927C43.0138 124.161 45.3262 125.761 48.0851 125.896C47.8895 128.565 46.8862 131.068 46.4799 133.696C45.7375 134.318 45.4215 135.156 45.9683 136.029C45.2058 138.793 45.4065 141.682 45.4115 144.511C45.0202 146.242 44.96 148.012 44.8246 149.778C45.2911 150.009 45.7626 150.24 46.2341 150.465C34.6769 146.041 24.2482 138.687 16.3578 129.137C7.58948 118.588 1.98641 105.445 0.506634 91.8062C0.376214 89.589 0.135437 87.3819 0 85.1648V82.8423C0.115372 80.8057 0.356149 78.7842 0.466505 76.7476C2.08673 60.3347 9.75647 44.6089 21.6599 33.1971Z" fill="#EEEEEE"/>
<path d="M83.6296 14.6374C83.8804 14.5671 84.387 14.4267 84.6378 14.3564C92.423 15.9014 99.9723 18.6603 106.849 22.6331C120.975 30.7694 132.186 43.8767 137.88 59.161C140.714 66.5699 142.053 74.4603 142.459 82.3608V85.6916C142.028 94.3094 140.433 102.922 137.082 110.908C130.757 126.378 118.733 139.4 103.87 147.029C101.547 148.243 99.1196 149.232 96.7218 150.29C96.9626 150.17 97.4442 149.919 97.6849 149.798C97.7501 149.482 97.8705 148.86 97.9357 148.544C97.4993 147.441 96.7419 146.272 97.1883 145.058C97.7652 143.001 96.3607 141.065 96.4058 138.993C96.0145 137.739 97.2285 136.551 96.5011 135.362C95.8239 133.977 96.17 132.392 95.839 130.932C95.1367 128.073 94.9561 125.119 94.5348 122.214C95.7637 122.882 97.1833 122.841 98.312 121.979C101.156 120.042 104.552 118.467 106.308 115.357C107.296 113.536 109.102 112.408 110.767 111.284C114.795 108.696 118.547 105.726 122.395 102.887C125.976 100.158 129.819 97.615 132.643 94.0485C135.045 91.1843 136.51 87.6278 139.139 84.9391C140.317 83.8506 141.832 82.5213 141.361 80.7155C140.664 78.3679 139.174 76.3665 137.629 74.5005C136.244 72.5391 134.995 70.4775 133.571 68.5462C132.136 66.6451 131.233 64.3377 129.437 62.7174C127.13 60.6207 124.18 59.482 121.351 58.2882C119.405 57.5056 118.141 55.75 116.847 54.1899C115.021 52.0129 113.35 49.6202 110.933 48.0501C107 45.3916 101.909 43.6459 97.2586 45.4116C95.2671 46.0186 93.4964 47.689 91.3094 47.3378C88.8213 46.9516 86.4587 45.9433 84.2767 44.7094C83.2885 44.0522 82.0595 43.4854 81.6131 42.3066C80.8707 40.6914 81.0212 38.8755 80.8005 37.155C80.4544 34.8275 81.1516 32.5401 81.4175 30.2427C81.7084 30.2076 82.2853 30.1373 82.5762 30.1022C84.2215 27.8751 85.0442 25.1914 85.5859 22.5128C85.3752 21.1383 83.8904 21.8958 83.0176 21.961C83.9155 19.6134 83.9456 17.0953 83.6296 14.6374Z" fill="#EEEEEE"/>
<path d="M37.3758 71.3052C37.5012 71.3052 37.752 71.3052 37.8774 71.3052C38.6649 73.0659 39.0161 74.982 39.7635 76.7578C40.7216 79.0451 41.8502 81.2573 42.9337 83.4895C44.0624 86.0076 45.7779 88.2649 46.3899 90.9987C47.2878 94.485 49.0535 97.7003 49.5902 101.282C50.3426 105.004 51.0599 108.746 51.4261 112.528C50.3125 112.312 49.4899 111.47 48.4465 111.104C45.7127 110.522 42.8033 110.532 40.2049 109.418C37.446 107.141 34.6219 104.894 32.179 102.26C29.7261 99.8372 26.9271 97.4495 25.8185 94.0636C24.5394 90.4921 22.9091 87.0209 21.1484 83.6951C25.0259 82.4562 28.7379 80.6804 31.8981 78.0921C34.4062 76.4718 36.0666 73.9236 37.3758 71.3052Z" fill="#EEEEEE"/>
<path d="M105.159 78.0669C106.323 76.0554 106.719 73.7229 107.772 71.6663C109.368 72.6795 110.321 74.5405 111.861 75.6993C114.364 77.7308 117.353 79.1354 120.443 80.0333C118.838 82.431 117.77 85.1197 116.636 87.7531C115.783 89.6794 115.568 91.9116 114.193 93.5819C113.195 94.7708 112.337 96.08 111.188 97.1384C108.645 99.4258 106.654 102.25 104.05 104.477C102.295 105.967 100.674 107.823 98.3771 108.46C96.6013 109.012 94.7755 109.388 93.0098 109.97C95.0764 103.358 96.0997 96.3709 99.0944 90.0706C101.522 86.2834 103.017 82.0146 105.159 78.0669Z" fill="#EEEEEE"/>
</g>
<defs>
<clipPath id="clip0_104_409">
<rect width="142.46" height="155" fill="white"/>
</clipPath>
</defs>
</svg>
