<svg width="143" height="155" viewBox="0 0 143 155" fill="none" xmlns="http://www.w3.org/2000/svg">
<g clip-path="url(#clip0_274_539)">
<path d="M82.351 2.4227C79.8981 1.54486 77.3148 0.993085 74.7264 0.702146C70.9191 0.200528 67.2824 2.41266 64.9348 5.24681C63.0086 7.57933 63.5153 10.7345 63.2594 13.5235C62.6826 14.1656 62.0706 14.7625 61.4586 15.3695C61.4085 17.8826 61.0724 20.511 61.9853 22.9188C62.3766 23.9973 62.9986 24.9805 63.2996 26.089C63.5102 28.256 63.3598 30.4381 63.3648 32.6101C61.8198 33.3123 60.335 34.14 58.775 34.8072C56.6531 35.7 54.2052 35.4944 52.1586 36.628C50.0919 37.7918 47.7795 38.464 45.8432 39.8635C43.3452 41.584 40.3405 42.5221 38.1133 44.6339C33.5837 48.9979 29.0491 53.4874 25.8437 58.9551C21.4746 66.3238 16.4484 73.2913 12.2398 80.7554C13.825 81.4476 15.4101 82.1549 16.8698 83.0829C17.0554 84.9991 16.1073 86.7698 15.7612 88.6208C14.3717 94.0784 14.7279 99.7567 14.7279 105.335C14.7229 109.328 15.4251 113.411 14.3416 117.323C13.7648 119.731 13.228 122.154 12.8619 124.602C13.2581 128.705 13.825 132.848 15.2245 136.741C16.4735 139.691 20.1303 139.826 22.8691 139.565C23.5614 140.528 24.4542 141.311 25.5277 141.822C25.4224 140.463 25.1866 139.119 24.9458 137.779C24.8355 136.666 24.8505 135.547 24.9107 134.439C26.0544 135.281 26.9774 136.37 27.9254 137.413C28.5123 134.444 28.3017 131.394 28.2314 128.384C28.0358 124.532 25.0863 121.592 24.3589 117.905C23.4109 109.117 27.9305 101.116 29.656 92.729C29.967 91.7258 30.0272 90.4015 31.0806 89.8648C33.3178 88.5355 35.5099 87.136 37.5013 85.4556C37.5415 89.2578 36.7188 93.03 36.9847 96.8322C37.2254 99.6564 38.4695 102.245 39.4476 104.863C39.8138 105.776 39.9542 106.774 39.7586 107.747C38.8507 112.267 37.8274 116.772 37.3007 121.356C37.08 126.674 37.4662 132.011 36.9546 137.323C37.4361 137.769 37.9428 138.191 38.3541 138.702C37.6769 141.095 36.8141 143.438 36.3777 145.896C42.2667 149.352 48.7576 151.714 55.3941 153.264C58.4539 154.007 61.6041 154.258 64.664 155H77.7411C80.6555 154.283 83.6602 154.027 86.5847 153.35C94.5002 151.579 102.175 148.539 109.002 144.135C108.571 141.772 107.683 139.465 107.602 137.057C108.505 133.576 107.989 129.954 108.129 126.403C108.229 121.422 105.832 116.797 105.501 111.906C107.427 107.135 108.836 102.014 108.591 96.8172C108.661 93.4363 107.793 90.1106 108.069 86.7246C109.694 88.1743 111.234 89.7394 112.639 91.4047C113.226 92.5986 112.89 94.0332 113.06 95.3224C113.828 103.539 117.053 111.54 116.175 119.882C115.307 122.911 112.458 125.113 112.252 128.404C112.192 131.414 111.962 134.479 112.558 137.453C113.481 136.37 114.349 135.181 115.613 134.469C115.789 136.51 115.227 138.492 114.465 140.358C114.806 140.869 115.152 141.376 115.498 141.883C116.18 141.095 116.867 140.318 117.59 139.57C120.118 139.796 123.253 139.696 124.848 137.393C126.584 134.79 126.092 131.499 126.559 128.55C126.694 126.418 126.218 124.321 125.781 122.244C125.094 118.251 126.102 114.268 126.594 110.321C127.256 105.229 128.063 100.088 127.532 94.9411C127.05 91.7258 126.032 88.6258 124.979 85.5559C127.161 84.7733 129.292 83.8704 131.369 82.8421C126.122 72.7094 120.76 62.5968 114.294 53.1764C111.906 49.65 109.097 46.3494 105.767 43.6808C99.7321 40.345 93.1408 38.163 86.8856 35.2937C88.0193 30.9748 87.5929 26.4853 87.603 22.0711C87.5076 19.6984 87.7835 17.2907 87.3271 14.9381C86.5947 12.1942 86.2185 9.37512 86.1182 6.53597C86.0831 4.4392 84.1318 3.07982 82.351 2.4227Z" fill="#131313"/>
<path d="M63.2594 13.5237C57.1948 14.3012 51.1954 15.6706 45.5021 17.9179C28.7179 24.3235 14.6175 37.4007 6.93266 53.6331C2.5736 62.6221 0.436703 72.5591 0.000297546 82.5062V86.484C0.557091 94.3293 1.90644 102.18 4.82084 109.518C6.86242 114.861 9.63639 119.892 12.8618 124.602C13.228 122.154 13.7647 119.731 14.3416 117.324C15.4251 113.411 14.7228 109.328 14.7278 105.335C14.7278 99.7568 14.3717 94.0785 15.7611 88.6209C16.1073 86.77 17.0553 84.9993 16.8697 83.0831C15.41 82.1551 13.8249 81.4478 12.2398 80.7556C16.4484 73.2915 21.4746 66.324 25.8437 58.9552C29.049 53.4876 33.5836 48.9981 38.1132 44.634C40.3404 42.5222 43.3451 41.5842 45.8432 39.8636C47.7794 38.4641 50.0919 37.792 52.1585 36.6282C54.2051 35.4946 56.653 35.7002 58.7749 34.8073C60.3349 34.1402 61.8197 33.3125 63.3647 32.6103C63.3597 30.4382 63.5102 28.2562 63.2995 26.0892C62.9985 24.9806 62.3765 23.9975 61.9853 22.919C61.0723 20.5112 61.4084 17.8827 61.4586 15.3696C62.0705 14.7627 62.6825 14.1658 63.2594 13.5237Z" fill="#EEEEEE"/>
<path d="M128.751 42.3115C118.809 28.6174 103.82 18.7254 87.3271 14.9382C87.7836 17.2908 87.5077 19.6986 87.603 22.0712C87.593 26.4855 88.0193 30.975 86.8857 35.2939C93.1409 38.1632 99.7321 40.3452 105.767 43.681C109.097 46.3496 111.906 49.6502 114.294 53.1766C120.76 62.597 126.122 72.7096 131.369 82.8423C129.292 83.8706 127.161 84.7735 124.979 85.556C126.032 88.6259 127.05 91.7259 127.532 94.9413C128.064 100.088 127.256 105.229 126.594 110.321C126.102 114.269 125.094 118.251 125.781 122.244C126.218 124.321 126.694 126.418 126.559 128.55C135.096 118.126 140.489 105.189 141.953 91.8012C142.074 89.8649 142.244 87.9387 142.46 86.0125V82.9978C142.34 80.7405 142.089 78.4932 141.953 76.241C140.614 64.0416 136.029 52.2034 128.751 42.3115Z" fill="#EEEEEE"/>
<path d="M37.5011 85.4558C35.5096 87.1362 33.3176 88.5357 31.0803 89.865C30.0269 90.4018 29.9667 91.726 29.6557 92.7293C27.9302 101.116 23.4106 109.117 24.3587 117.906C25.086 121.592 28.0355 124.532 28.2312 128.384C28.3014 131.394 28.5121 134.444 27.9252 137.413C26.9771 136.37 26.0541 135.282 24.9104 134.439C24.8502 135.547 24.8352 136.666 24.9455 137.78C28.4117 140.935 32.3645 143.493 36.3774 145.896C36.8138 143.438 37.6766 141.095 38.3538 138.703C37.9425 138.191 37.4358 137.77 36.9543 137.323C37.4659 132.011 37.0797 126.674 37.3004 121.357C37.8271 116.772 38.8504 112.267 39.7583 107.748C39.954 106.775 39.8135 105.776 39.4473 104.863C38.4692 102.245 37.2252 99.6566 36.9844 96.8325C36.7185 93.0302 37.5412 89.2581 37.5011 85.4558Z" fill="#EEEEEE"/>
<path d="M112.639 91.405C111.234 89.7396 109.694 88.1745 108.069 86.7249C107.793 90.1108 108.661 93.4365 108.591 96.8174C108.836 102.014 107.427 107.136 105.501 111.906C105.832 116.797 108.229 121.422 108.129 126.403C107.989 129.954 108.505 133.576 107.602 137.057C107.683 139.465 108.571 141.772 109.002 144.135C110.858 142.931 112.654 141.637 114.465 140.358C115.227 138.492 115.789 136.51 115.613 134.469C114.349 135.181 113.481 136.37 112.558 137.453C111.961 134.479 112.192 131.414 112.252 128.404C112.458 125.114 115.307 122.912 116.175 119.882C117.053 111.54 113.827 103.539 113.06 95.3226C112.889 94.0334 113.226 92.5988 112.639 91.405Z" fill="#EEEEEE"/>
</g>
<defs>
<clipPath id="clip0_274_539">
<rect width="142.46" height="155" fill="white" transform="matrix(-1 0 0 1 142.46 0)"/>
</clipPath>
</defs>
</svg>
