<svg width="143" height="155" viewBox="0 0 143 155" fill="none" xmlns="http://www.w3.org/2000/svg">
<g clip-path="url(#clip0_133_86)">
<path d="M63.9869 3.75701C65.6322 1.76057 68.075 0.210568 70.7436 0.315908C73.7182 0.476426 77.0089 -0.255937 79.5972 1.64018C83.9011 4.66494 85.6969 9.95701 86.8757 14.8628C88.0244 19.9141 88.2903 25.151 89.8653 30.107C90.5425 32.4345 91.9471 34.4711 92.6142 36.8086C95.0571 38.3636 98.0718 38.1931 100.66 39.3769C102.491 40.009 104.001 41.273 105.762 42.0455C109.273 41.8248 113.025 40.9921 116.346 42.6124C117.73 43.3547 119.295 43.4902 120.83 43.5102C120.499 40.1795 120.89 36.8437 121.131 33.523C121.362 29.8763 120.409 26.1041 118.297 23.0994C117.329 21.6196 115.418 21.7149 113.873 21.4892C112.258 21.3287 110.828 20.491 109.273 20.1198C107.934 20.2402 106.328 20.6114 105.511 19.2169C105.772 18.9009 106.298 18.2738 106.564 17.9578C105.737 16.9044 105.004 15.7808 104.467 14.5518C106.333 13.4182 108.124 12.109 110.151 11.2512C111.545 10.589 112.89 11.6926 113.893 12.5554C116.271 14.7174 118.899 16.5683 121.517 18.4193C123.158 19.5229 123.273 21.6848 124.166 23.295C125.761 26.37 127.672 29.2743 129.167 32.4044C131.555 37.24 132.864 42.497 134.349 47.6536C134.735 48.8224 134.61 50.0564 134.404 51.2452C132.558 52.5695 130.291 53.0109 128.189 53.7583C121.527 55.9504 114.364 58.2779 107.327 56.4971C104.914 56.0708 102.747 54.596 100.259 54.601C98.0568 54.8318 96.6773 56.7429 95.4283 58.3481C91.5809 63.1386 89.0477 68.8721 87.5328 74.7962C87.0513 76.8478 86.6098 79.2606 87.9542 81.0915C90.377 84.4022 91.3652 88.4903 93.7178 91.8361C98.2173 97.9559 102.22 104.798 103.409 112.397C103.961 119.902 103.369 127.426 103.143 134.93C103.088 139.144 103.093 143.357 102.922 147.566C98.6788 149.748 94.1742 151.489 89.5242 152.577C86.9008 146.472 86.9258 139.701 84.7739 133.46C83.5199 129.673 82.3762 125.846 81.2927 122.003C79.7778 122.711 78.1927 123.428 76.9938 124.632C72.8204 130.365 69.0632 136.405 64.9249 142.169C61.9703 146.352 57.4508 148.95 53.9545 152.597C53.7438 152.612 53.3174 152.637 53.1068 152.647C48.1106 151.403 43.2901 149.482 38.7053 147.155C39.0163 142.404 40.8271 137.945 42.9038 133.716C45.4922 128.419 48.853 123.438 53.172 119.4C55.8055 116.827 58.6747 114.073 59.4623 110.326C60.4203 105.48 58.5894 100.72 57.5611 96.0497C57.0545 92.3879 57.3153 88.6308 56.3522 85.0292C55.2186 79.8324 52.1236 75.3429 50.8695 70.1863C50.2676 68.1297 50.1322 65.9827 49.8864 63.8659C48.9283 62.0952 47.308 60.7157 46.6208 58.7795C45.8835 57.0138 46.7161 54.897 45.5825 53.2717C44.9555 52.2434 43.9823 51.195 42.658 51.3104C40.2402 51.3957 38.008 52.5143 35.6003 52.735C30.6443 53.5526 25.6582 52.2735 21.0233 50.5831C18.9917 49.8206 16.8749 49.334 14.758 48.8575C13.3234 48.5716 12.3754 47.3627 11.337 46.4397C10.6799 45.4615 9.83717 44.4081 10.5444 43.2093C12.0242 39.4371 13.0826 35.5044 14.7681 31.8175C16.5288 27.8999 19.7491 24.84 21.3744 20.8572C22.0365 19.252 21.9763 17.2154 23.5715 16.152C26.4156 14.2458 29.611 12.8915 32.3949 10.8649C33.5587 10.1526 35.0034 8.79325 36.4079 9.76138C38.294 11.3365 40.0045 13.1975 41.2334 15.3344C40.8221 15.7256 40.4108 16.1169 39.9995 16.5081C40.3707 17.2455 40.7469 17.9829 41.1281 18.7153C40.8873 18.9109 40.4058 19.2921 40.16 19.4827C36.8242 18.941 33.4283 19.1667 30.1025 19.6884C28.8686 19.8489 27.8804 20.7368 27.2534 21.7651C25.6231 24.3886 24.8907 27.4334 24.2788 30.423L24.7603 30.3077C24.67 30.403 24.4995 30.5886 24.4142 30.6839C23.9377 33.5632 24.1082 36.4976 24.344 39.397C27.2834 40.0541 29.7765 37.9373 32.6457 37.857C34.6773 37.6865 36.6788 38.1831 38.61 38.77C41.5244 37.1598 44.825 36.0161 48.2009 36.312C50.7391 36.4675 53.0967 37.5159 55.339 38.6395C55.3891 36.4324 55.8807 34.2755 56.1466 32.0934C56.3221 30.8494 55.2838 29.8562 55.2537 28.6423C55.1684 26.3298 55.981 24.1227 56.5679 21.9206C57.3103 19.3473 57.9223 16.7289 58.8152 14.2057C60.0592 10.5238 61.4637 6.77675 63.9869 3.75701Z" fill="#131313"/>
<path d="M24.76 30.3078C34.4262 22.0561 46.2794 16.3778 58.8148 14.2058C57.922 16.7289 57.31 19.3474 56.5676 21.9207C55.9807 24.1228 55.1681 26.3299 55.2534 28.6424C55.2835 29.8563 56.3218 30.8495 56.1462 32.0935C55.8804 34.2756 55.3888 36.4325 55.3386 38.6396C53.0964 37.516 50.7388 36.4676 48.2006 36.3121C44.8247 36.0162 41.5241 37.1599 38.6097 38.77C36.6784 38.1832 34.677 37.6866 32.6454 37.8571C29.7762 37.9374 27.2831 40.0542 24.3437 39.3971C24.1079 36.4977 23.9373 33.5633 24.4139 30.684C24.4992 30.5887 24.6697 30.4031 24.76 30.3078Z" fill="#EEEEEE"/>
<path d="M86.875 14.8628C99.7365 17.717 111.78 24.238 121.131 33.523C120.89 36.8437 120.498 40.1795 120.83 43.5102C119.295 43.4901 117.73 43.3547 116.345 42.6123C113.024 40.9921 109.272 41.8248 105.761 42.0455C104 41.273 102.49 40.0089 100.659 39.3769C98.0711 38.1931 95.0564 38.3636 92.6135 36.8086C91.9464 34.471 90.5418 32.4345 89.8646 30.107C88.2896 25.151 88.0237 19.9141 86.875 14.8628Z" fill="#EEEEEE"/>
<path d="M10.2681 47.4379C10.5039 46.9814 10.86 46.6454 11.3366 46.4397C12.3749 47.3627 13.323 48.5716 14.7576 48.8575C16.8744 49.334 18.9913 49.8206 21.0228 50.5831C25.6578 52.2735 30.6439 53.5526 35.5998 52.735C38.0076 52.5143 40.2398 51.3957 42.6576 51.3104C43.9819 51.195 44.955 52.2434 45.582 53.2717C46.7157 54.897 45.883 57.0138 46.6204 58.7795C47.3076 60.7158 48.9278 62.0952 49.8859 63.8659C50.1317 65.9827 50.2672 68.1297 50.8691 70.1863C52.1231 75.3429 55.2181 79.8324 56.3518 85.0292C57.3149 88.6308 57.054 92.3879 57.5607 96.0497C58.589 100.72 60.4199 105.48 59.4618 110.326C58.6743 114.073 55.805 116.827 53.1715 119.4C48.8526 123.438 45.4917 128.419 42.9034 133.716C40.8267 137.945 39.0159 142.404 38.7049 147.155C24.8903 139.921 13.3681 128.249 6.79191 114.068C2.45793 105.049 0.376214 95.0967 0 85.1345V82.9174C0.130421 80.6802 0.376214 78.448 0.506634 76.2107C1.62023 66.063 5.00113 56.1811 10.2681 47.4379Z" fill="#EEEEEE"/>
<path d="M128.189 53.7585C130.291 53.0111 132.558 52.5696 134.404 51.2454C139.365 60.8865 142.038 71.601 142.46 82.4209V85.6463C142.008 95.5583 139.876 105.46 135.522 114.414C128.766 128.715 117.018 140.463 102.922 147.566C103.093 143.357 103.088 139.144 103.143 134.93C103.369 127.426 103.961 119.902 103.409 112.398C102.22 104.798 98.2171 97.956 93.7176 91.8363C91.365 88.4905 90.3768 84.4023 87.954 81.0916C86.6097 79.2607 87.0511 76.8479 87.5326 74.7963C89.0475 68.8722 91.5807 63.1387 95.4281 58.3483C96.6771 56.7431 98.0566 54.8319 100.259 54.6012C102.747 54.5962 104.914 56.0709 107.326 56.4973C114.364 58.278 121.527 55.9505 128.189 53.7585Z" fill="#EEEEEE"/>
<path d="M76.9935 124.632C78.1924 123.428 79.7775 122.711 81.2924 122.004C82.3759 125.846 83.5196 129.673 84.7736 133.461C86.9255 139.701 86.9005 146.473 89.5239 152.577C83.67 154.102 77.6456 154.764 71.6111 155H70.8537C64.8744 154.774 58.9152 154.087 53.1064 152.648C53.3171 152.637 53.7435 152.612 53.9542 152.597C57.4505 148.951 61.97 146.352 64.9246 142.169C69.0629 136.405 72.82 130.366 76.9935 124.632Z" fill="#EEEEEE"/>
</g>
<defs>
<clipPath id="clip0_133_86">
<rect width="142.46" height="155" fill="white"/>
</clipPath>
</defs>
</svg>
