<svg width="143" height="155" viewBox="0 0 143 155" fill="none" xmlns="http://www.w3.org/2000/svg">
<g clip-path="url(#clip0_133_95)">
<path d="M58.4884 1.26915C61.4731 -0.571784 64.9342 0.712358 68.1145 1.13873C70.3417 2.23728 72.6842 3.08501 74.8562 4.29893C75.8545 4.69521 77.0383 5.13161 77.3744 6.28032C77.9763 8.61786 78.0415 11.0507 78.493 13.4183C79.0748 21.0128 77.0282 28.5421 77.5549 36.1416C77.4998 36.9894 78.0816 37.6465 78.4579 38.3438C79.7019 38.5293 80.976 38.5243 82.1598 38.0378C85.4705 37.1048 88.8213 38.5594 91.5049 40.4405C94.1635 42.4119 97.0127 44.2277 99.0242 46.9164C100.143 48.5517 102.099 49.1085 103.81 49.891C107.798 51.5614 110.787 54.7717 113.932 57.6209C116.144 59.4769 117.634 61.995 119.059 64.473C119.942 65.8475 118.422 67.0564 117.82 68.19C114.72 73.3015 111.489 78.423 107.16 82.6065C105.244 84.3772 103.614 86.4389 101.592 88.0892C99.902 89.4135 98.4825 91.0136 97.2033 92.7242C94.7805 94.5601 91.6655 94.7156 88.8062 95.2924C86.5439 96.7221 85.9219 99.5211 84.6278 101.698C84.3368 102.435 83.5192 102.365 82.8771 102.476C81.7836 104.663 81.924 107.216 80.7503 109.353C80.4041 110.191 80.364 111.339 81.1616 111.951C85.1595 115.814 90.6221 117.7 94.5548 121.647C98.1715 125.239 102.24 128.359 105.62 132.191C108.289 135.116 112.001 137.298 113.381 141.206C108.731 144.732 103.564 147.616 98.1163 149.723C98.2016 149.086 99.0744 148.138 98.2617 147.636C94.941 145.168 91.2642 143.132 87.3465 141.792C82.5862 140.067 78.2622 137.373 74.1239 134.504C73.9533 136.335 73.8329 138.196 73.2561 139.962C72.3431 142.976 70.6828 145.775 70.3015 148.946C70.0206 150.967 69.7899 153.004 69.3435 155H65.3857C60.8761 154.077 56.2111 153.756 51.8069 152.281C50.3271 146.954 49.2837 141.466 49.1985 135.929C48.9376 131.625 49.2236 127.12 47.3776 123.102C45.2909 118.879 44.1171 113.953 45.326 109.298C46.6252 103.895 49.6499 98.6583 54.4604 95.6837C56.4519 94.1738 58.363 92.5085 59.9381 90.5522C61.8242 88.2247 61.3778 84.8538 60.1087 82.3407C58.8446 79.1403 56.6726 76.4266 55.0524 73.4169C54.0541 71.897 53.402 70.1162 52.0477 68.8572C50.3422 67.2771 49.2386 65.2054 47.8441 63.3745C47.5381 65.2606 47.2873 67.2169 46.3142 68.9023C44.2977 72.1628 43.6656 76.0052 42.3414 79.5517C41.6291 83.7903 41.5287 88.1293 40.671 92.348C39.4922 97.1234 38.815 102.004 37.8017 106.81C37.3653 108.786 39.2514 110.04 39.763 111.776C40.7914 114.088 39.5975 116.571 39.9035 118.979C40.5255 118.678 41.1425 118.382 41.7645 118.081C41.5739 118.708 41.3883 119.34 41.2127 119.977C41.7294 119.641 42.226 119.275 42.7025 118.889C43.159 118.838 44.0719 118.738 44.5284 118.693C43.2392 121.146 40.8215 122.626 38.3786 123.739C40.3198 125.164 43.2894 125.003 44.3278 127.506C41.9501 127.396 39.7981 126.292 37.5609 125.6C38.5943 126.884 39.4621 128.334 39.3266 130.05C37.4857 128.801 36.3169 126.839 34.7318 125.309C33.8891 124.562 33.8339 123.378 33.548 122.365C33.3473 120.895 31.8626 120.143 31.2656 118.868C33.3122 111.871 33.558 104.382 32.2036 97.2287C31.1753 90.5371 31.4914 83.4342 34.3706 77.2192C36.2417 72.3685 36.1213 67.0764 37.4807 62.1054C37.8569 60.6557 38.4438 59.181 38.1177 57.6661C37.7315 55.0075 37.5258 52.2636 38.208 49.6352C38.6996 47.6989 39.9135 46.0737 40.7562 44.2879C41.5337 42.5473 43.1189 41.3685 44.1472 39.8135C44.8444 35.6099 44.092 31.2408 45.3661 27.1225C46.2339 23.5661 47.4227 20.0999 48.6517 16.6588C49.6449 13.9651 50.3572 11.1611 51.7969 8.64294C52.9807 5.4075 55.7897 3.21543 58.4884 1.26915ZM88.3598 52.9709C89.2828 54.235 90.2659 55.484 90.9482 56.9036C92.1119 59.5321 91.9464 62.6171 90.8829 65.2505C90.1305 67.3824 87.8582 68.4659 87.191 70.663C87.5923 73.2764 86.7496 75.8949 86.3684 78.4732C85.2598 81.4679 85.2899 84.6882 85.3551 87.8384C88.5605 87.2766 92.142 88.3551 95.0564 86.5091C96.17 85.5611 96.7117 84.1615 97.5294 82.9827C99.5359 80.1034 102.049 77.5251 103.443 74.2596C104.763 71.0844 106.915 68.2151 107.366 64.7289C104.627 63.3996 102.039 61.7543 99.6813 59.8331C97.2635 57.8968 94.4595 56.412 92.463 53.9942C91.4799 52.7653 89.8045 51.8423 88.3598 52.9709ZM36.4373 118.352C36.6931 118.889 36.9289 119.46 37.3202 119.922C37.3854 118.959 37.3854 117.991 37.3302 117.028C36.8386 117.313 36.6781 117.87 36.4373 118.352Z" fill="#131313"/>
<path d="M78.4933 13.4182C85.5712 14.291 92.5738 15.9614 99.1349 18.7956C115.412 25.6477 128.901 38.8302 136.134 54.9422C140.087 63.5399 142.013 72.9503 142.46 82.3706V85.6713C141.998 95.824 139.756 105.952 135.206 115.076C130.205 125.409 122.53 134.318 113.381 141.205C112.001 137.298 108.289 135.116 105.621 132.191C102.24 128.359 98.1718 125.239 94.5551 121.647C90.6225 117.7 85.1598 115.814 81.1619 111.951C80.3644 111.339 80.4045 110.19 80.7506 109.353C81.9244 107.216 81.7839 104.663 82.8775 102.475C83.5195 102.365 84.3372 102.435 84.6281 101.698C85.9223 99.521 86.5443 96.7219 88.8066 95.2923C91.6658 94.7155 94.7809 94.56 97.2037 92.724C98.4828 91.0135 99.9024 89.4134 101.593 88.0891C103.614 86.4388 105.245 84.3771 107.161 82.6064C111.49 78.4229 114.72 73.3014 117.82 68.1899C118.422 67.0562 119.942 65.8473 119.059 64.4729C117.635 61.9949 116.145 59.4768 113.933 57.6208C110.788 54.7716 107.798 51.5613 103.81 49.8909C102.099 49.1083 100.143 48.5515 99.0246 46.9163C97.0131 44.2276 94.1639 42.4117 91.5053 40.4404C88.8216 38.5593 85.4708 37.1046 82.1602 38.0376C80.9763 38.5242 79.7022 38.5292 78.4582 38.3436C78.082 37.6464 77.5001 36.9893 77.5553 36.1415C77.0286 28.542 79.0752 21.0127 78.4933 13.4182Z" fill="#EEEEEE"/>
<path d="M45.1858 18.0482C46.3495 17.5967 47.5233 17.1854 48.6519 16.6587C47.423 20.0998 46.2341 23.566 45.3663 27.1224C44.0922 31.2407 44.8447 35.6098 44.1474 39.8134C43.1191 41.3684 41.534 42.5472 40.7565 44.2878C39.9138 46.0736 38.6998 47.6988 38.2083 49.6351C37.5261 52.2635 37.7317 55.0074 38.118 57.666C38.444 59.1809 37.8571 60.6556 37.4809 62.1053C36.1215 67.0763 36.2419 72.3684 34.3709 77.2191C31.4916 83.4341 31.1756 90.537 32.2039 97.2286C33.5583 104.382 33.3125 111.871 31.2659 118.868C31.8628 120.143 33.3476 120.895 33.5482 122.365C33.8341 123.378 33.8893 124.562 34.732 125.309C36.3172 126.839 37.4859 128.8 39.3269 130.049C39.4623 128.334 38.5945 126.884 37.5612 125.6C39.7984 126.292 41.9503 127.396 44.328 127.506C43.2896 125.003 40.3201 125.164 38.3788 123.739C40.8217 122.626 43.2395 121.146 44.5286 118.693C44.0722 118.738 43.1592 118.838 42.7028 118.888C42.2262 119.275 41.7296 119.641 41.2129 119.977C41.3885 119.34 41.5741 118.708 41.7647 118.081C41.1427 118.382 40.5257 118.678 39.9037 118.979C39.5977 116.571 40.7916 114.088 39.7633 111.776C39.2516 110.04 37.3655 108.786 37.8019 106.81C38.8152 102.004 39.4924 97.1233 40.6712 92.3479C41.529 88.1292 41.6293 83.7902 42.3416 79.5516C43.6659 76.0051 44.2979 72.1627 46.3144 68.9022C47.2875 67.2168 47.5383 65.2605 47.8443 63.3744C49.2388 65.2053 50.3424 67.277 52.0479 68.8571C53.4023 70.1161 54.0544 71.8969 55.0526 73.4168C56.6728 76.4265 58.8448 79.1402 60.1089 82.3406C61.378 84.8537 61.8244 88.2245 59.9384 90.5521C58.3633 92.5084 56.4521 94.1737 54.4607 95.6836C49.6502 98.6582 46.6254 103.895 45.3262 109.298C44.1173 113.953 45.2911 118.878 47.3778 123.102C49.2238 127.12 48.9379 131.625 49.1987 135.928C49.284 141.466 50.3273 146.954 51.8071 152.281C36.6282 147.927 22.944 138.482 13.6741 125.675C5.7335 114.84 0.953074 101.683 0.240777 88.2597C0.145469 87.2263 0.0501618 86.198 0 85.1647V82.8472C0.38123 73.2763 2.29239 63.7055 6.3254 54.9773C13.8045 38.2333 28.0856 24.6645 45.1858 18.0482Z" fill="#EEEEEE"/>
<path d="M88.36 52.9709C89.8047 51.8423 91.4801 52.7652 92.4633 53.9942C94.4597 56.412 97.2637 57.8968 99.6815 59.833C102.039 61.7542 104.627 63.3995 107.366 64.7288C106.915 68.2151 104.763 71.0843 103.444 74.2596C102.049 77.5251 99.5361 80.1034 97.5296 82.9827C96.712 84.1615 96.1702 85.561 95.0566 86.5091C92.1422 88.3551 88.5607 87.2766 85.3553 87.8384C85.2901 84.6882 85.26 81.4678 86.3686 78.4732C86.7498 75.8949 87.5925 73.2764 87.1913 70.663C87.8584 68.4659 90.1307 67.3824 90.8832 65.2505C91.9466 62.617 92.1121 59.5321 90.9484 56.9036C90.2662 55.484 89.283 54.235 88.36 52.9709Z" fill="#EEEEEE"/>
<path d="M36.4375 118.352C36.6783 117.87 36.8388 117.313 37.3304 117.027C37.3855 117.99 37.3855 118.959 37.3203 119.922C36.9291 119.46 36.6933 118.888 36.4375 118.352Z" fill="#EEEEEE"/>
<path d="M74.1242 134.504C78.2625 137.373 82.5865 140.067 87.3468 141.792C91.2645 143.131 94.9413 145.168 98.262 147.636C99.0746 148.138 98.2018 149.086 98.1166 149.723C89.6944 153.074 80.6954 154.774 71.6412 155H69.3438C69.7902 153.003 70.0209 150.967 70.3018 148.945C70.6831 145.775 72.3434 142.976 73.2564 139.961C73.8332 138.196 73.9536 136.335 74.1242 134.504Z" fill="#EEEEEE"/>
</g>
<defs>
<clipPath id="clip0_133_95">
<rect width="142.46" height="155" fill="white"/>
</clipPath>
</defs>
</svg>
