<svg width="142" height="155" viewBox="0 0 142 155" fill="none" xmlns="http://www.w3.org/2000/svg">
<g clip-path="url(#clip0_274_547)">
<path d="M63.8748 3.84993C66.8748 0.724931 71.8048 -0.0400683 75.8348 1.22993C78.7298 2.22993 79.8498 5.29993 81.3598 7.66993C82.7948 9.78493 83.2298 12.3399 83.9098 14.7499C84.4398 17.9899 84.1398 21.3099 83.2598 24.4599C82.0098 29.7449 82.1898 36.1549 86.3848 40.1449C89.8598 39.7899 92.7648 42.3049 94.2798 45.2099C95.7648 47.7149 96.2398 50.6349 97.0398 53.3699C99.5998 56.1199 102 59.2799 102.625 63.0849C103.94 68.0599 102.235 73.2149 99.7798 77.5349C99.5848 82.0249 100.115 86.5799 99.4048 91.0599C98.9748 95.4499 98.2198 99.8249 96.6298 103.96C95.8548 106.415 94.5448 108.66 93.7498 111.105C96.8998 115.35 99.1698 120.175 101.57 124.87C103.05 128.38 104.71 131.83 105.83 135.48C106.745 138.43 108.035 141.32 108.315 144.425C101.395 148.82 93.6048 151.91 85.5548 153.475C83.5898 150.85 82.0748 147.925 80.5098 145.055C80.2548 145.1 79.7398 145.19 79.4848 145.235C78.3098 148.65 76.3898 151.735 74.7298 154.93C74.6398 154.945 74.4648 154.98 74.3748 155H65.7798C61.6648 154.285 57.4548 154.015 53.4398 152.79C53.3398 152.57 53.1448 152.135 53.0448 151.915C51.9848 144.95 51.0248 137.965 50.0848 130.98C49.8148 128.38 47.8798 126.435 46.9848 124.065C44.0798 117.96 43.3848 110.705 45.6848 104.295C47.1748 101.05 47.4648 97.3549 49.4248 94.3099C43.9098 92.6449 37.8998 91.8699 33.1348 88.3799C30.8498 86.7899 28.0648 85.3549 26.9948 82.6149C26.4898 81.5349 26.7448 80.3099 27.2748 79.2999C31.2148 70.4899 35.1498 61.4449 41.5448 54.0949C44.2098 50.6349 47.0248 47.1399 50.8098 44.8499C51.6198 44.3049 52.5748 43.8899 53.1448 43.0599C56.2098 37.8249 58.5548 32.0799 59.2348 26.0099C59.4998 22.1699 58.7898 18.2899 59.4398 14.4649C60.2248 10.7149 61.0398 6.64993 63.8748 3.84993ZM42.1498 78.0099C42.1398 78.2549 42.1198 78.7399 42.1098 78.9849C43.8998 80.1449 45.6248 81.4049 47.2898 82.7399C49.6548 84.5549 52.9748 85.0099 55.7148 83.7949C56.3348 83.4849 57.2898 83.3549 57.3898 82.5149C57.3498 81.3149 57.1948 80.1199 57.1448 78.9199C54.8098 77.1149 53.1098 74.6199 51.7298 72.0399C51.0598 70.9199 51.0798 69.4199 50.0098 68.5549C47.6148 71.8899 45.1498 75.1949 42.1498 78.0099Z" fill="#131313"/>
<path d="M30.06 26.5551C38.76 20.3351 48.93 16.3151 59.44 14.4651C58.79 18.2901 59.5 22.1701 59.235 26.0101C58.555 32.0801 56.21 37.8251 53.145 43.0601C52.575 43.8901 51.62 44.3051 50.81 44.8501C47.025 47.1401 44.21 50.6351 41.545 54.0951C35.15 61.4451 31.215 70.4901 27.275 79.3001C26.745 80.3101 26.49 81.5351 26.995 82.6151C28.065 85.3551 30.85 86.7901 33.135 88.3801C37.9 91.8701 43.91 92.6451 49.425 94.3101C47.465 97.3551 47.175 101.05 45.685 104.295C43.385 110.705 44.08 117.96 46.985 124.065C47.88 126.435 49.815 128.38 50.085 130.98C51.025 137.965 51.985 144.95 53.045 151.915C53.145 152.135 53.34 152.57 53.44 152.79C41.085 149.52 29.555 143.06 20.59 133.92C9.295 122.645 2.035 107.4 0.47 91.5101C0.35 89.4801 0.115 87.4501 0 85.4201V83.0651C0.335 78.3401 0.64 73.5951 1.76 68.9751C5.45 51.9551 15.81 36.5401 30.06 26.5551Z" fill="#EEEEEE"/>
<path d="M83.9097 14.75C103.965 18.33 122.095 31.09 132.305 48.7C138.385 58.94 141.51 70.755 142 82.615V85.935C141.53 96.055 139.29 106.155 134.745 115.245C128.935 127.23 119.545 137.32 108.315 144.425C108.035 141.32 106.745 138.43 105.83 135.48C104.71 131.83 103.05 128.38 101.57 124.87C99.1697 120.175 96.8997 115.35 93.7497 111.105C94.5447 108.66 95.8546 106.415 96.6296 103.96C98.2196 99.825 98.9746 95.45 99.4046 91.06C100.115 86.58 99.5847 82.025 99.7796 77.535C102.235 73.215 103.94 68.06 102.625 63.085C102 59.28 99.5997 56.12 97.0397 53.37C96.2397 50.635 95.7646 47.715 94.2796 45.21C92.7646 42.305 89.8597 39.79 86.3847 40.145C82.1897 36.155 82.0097 29.745 83.2597 24.46C84.1397 21.31 84.4397 17.99 83.9097 14.75Z" fill="#EEEEEE"/>
<path d="M42.1504 78.0102C45.1504 75.1952 47.6153 71.8902 50.0103 68.5552C51.0803 69.4202 51.0603 70.9202 51.7303 72.0402C53.1103 74.6202 54.8103 77.1152 57.1453 78.9202C57.1953 80.1202 57.3503 81.3152 57.3903 82.5152C57.2903 83.3552 56.3353 83.4852 55.7153 83.7952C52.9753 85.0102 49.6554 84.5552 47.2904 82.7402C45.6254 81.4052 43.9004 80.1452 42.1104 78.9852C42.1204 78.7402 42.1404 78.2552 42.1504 78.0102Z" fill="#EEEEEE"/>
<path d="M79.4855 145.235C79.7405 145.19 80.2555 145.1 80.5105 145.055C82.0755 147.925 83.5905 150.85 85.5555 153.475C81.9755 154.195 78.3405 154.46 74.7305 154.93C76.3905 151.735 78.3105 148.65 79.4855 145.235Z" fill="#EEEEEE"/>
</g>
<defs>
<clipPath id="clip0_274_547">
<rect width="142" height="155" fill="white"/>
</clipPath>
</defs>
</svg>
