<svg width="6" height="14" viewBox="0 0 6 14" fill="none" xmlns="http://www.w3.org/2000/svg">
<path d="M1.72825 10.5H4.27371C4.4461 10.5 4.59526 10.5631 4.72126 10.6889C4.84716 10.8149 4.91016 10.9639 4.91016 11.1363V13.3636C4.91016 13.5359 4.84716 13.6851 4.72126 13.8112C4.59516 13.9369 4.44614 14 4.27371 14H1.72804C1.55593 14 1.4067 13.9369 1.28059 13.8112C1.15487 13.6851 1.09184 13.5359 1.09184 13.3636V11.1363C1.09184 10.964 1.15498 10.8149 1.28084 10.6889C1.4068 10.563 1.55603 10.5 1.72825 10.5Z" fill="white"/>
<path d="M0.965946 0.188897C1.08857 0.0631049 1.23602 0 1.40848 0H4.59014C4.76246 0 4.90984 0.0631049 5.03253 0.188897C5.15515 0.314863 5.21314 0.464092 5.20652 0.636412L4.92819 8.27255C4.92158 8.44487 4.8537 8.59421 4.72439 8.71996C4.59515 8.84607 4.44436 8.90911 4.27197 8.90911H1.7263C1.55419 8.90911 1.40343 8.84607 1.27388 8.71996C1.14467 8.59424 1.07701 8.44491 1.07008 8.27255L0.791921 0.636412C0.785025 0.464092 0.843289 0.315002 0.965946 0.188897Z" fill="white"/>
</svg>
