<svg width="52" height="43" viewBox="0 0 52 43" fill="none" xmlns="http://www.w3.org/2000/svg">
<path d="M35.0091 19.4873C36.2772 19.1222 37.5454 18.937 38.779 18.937C40.6839 18.937 42.2734 19.3723 43.5059 19.9054C42.3176 15.5554 39.4633 8.04964 33.7771 7.20438C33.2506 7.12607 32.819 6.7453 32.6754 6.23275L31.4326 1.78773C31.3278 1.41182 31.3899 1.00945 31.6043 0.683226C31.8188 0.357006 32.1633 0.139346 32.5495 0.0864158C32.9692 0.0291653 33.3969 0 33.8209 0C40.6461 0 47.4053 7.12391 50.2576 17.3242C51.9318 23.3085 52.4228 32.3055 48.2986 37.9684C45.9908 41.1372 42.6239 42.8293 38.2912 42.9984C38.2734 42.9989 38.2561 42.9995 38.2383 42.9995C32.8925 42.9995 28.1521 39.3992 26.71 34.245C25.8486 31.1637 26.238 27.9323 27.8075 25.1438C29.3603 22.3866 31.9176 20.3769 35.0091 19.4873Z" fill="#E9E9EB"/>
<path d="M1.54626 25.1443C3.09903 22.3866 5.65637 20.3769 8.74787 19.4873C10.016 19.1222 11.2841 18.937 12.5172 18.937C14.4221 18.937 16.0121 19.3723 17.2446 19.9054C16.0564 15.5554 13.202 8.04964 7.51538 7.20438C6.98878 7.12607 6.55779 6.7453 6.41359 6.23275L5.17083 1.78773C5.06605 1.41182 5.12816 1.00945 5.34258 0.683226C5.55646 0.357006 5.90104 0.139346 6.28774 0.0864158C6.70686 0.0291653 7.13461 0 7.55912 0C14.3843 0 21.1436 7.12391 23.9963 17.3242C25.6701 23.3085 26.161 32.3055 22.0363 37.9695C19.729 41.1377 16.3616 42.8304 12.0295 42.9989C12.0117 42.9995 11.9944 43 11.976 43C6.6307 43 1.88976 39.3997 0.447714 34.2455C-0.412655 31.1643 -0.0227089 27.9323 1.54626 25.1443Z" fill="#E9E9EB"/>
</svg>
