<svg width="16" height="14" viewBox="0 0 16 14" fill="none" xmlns="http://www.w3.org/2000/svg">
<path d="M7.90241 0.119815C8.08587 -0.0391207 8.39691 -0.0298081 8.56267 0.151168C8.63562 0.240879 8.67567 0.351389 8.72875 0.453207C9.36853 1.74704 10.0021 3.0446 10.6472 4.33596C12.0838 4.54332 13.5201 4.75378 14.9564 4.96115C15.1175 4.98412 15.3007 4.99405 15.4177 5.12288C15.5928 5.29205 15.5872 5.59875 15.4099 5.76421C14.3229 6.82398 13.237 7.88531 12.1487 8.94385C12.2104 9.40948 12.3048 9.87077 12.3793 10.3345C12.5246 11.1826 12.6702 12.0307 12.8154 12.8788C12.848 13.0607 12.8719 13.2444 12.9188 13.4235C12.9899 13.6635 12.8071 13.9367 12.5618 13.9733C12.46 13.987 12.3526 13.9792 12.2601 13.9314C10.9116 13.2249 9.56658 12.5115 8.21686 11.8075C6.95562 12.465 5.69904 13.1311 4.43966 13.792C4.27048 13.8758 4.10285 14.0081 3.90201 13.9755C3.65119 13.9513 3.46866 13.6862 3.52298 13.4422C3.75145 12.0872 3.98737 10.7334 4.21771 9.37906C4.24223 9.23409 4.27389 9.09068 4.28507 8.94385C3.20635 7.89649 2.13323 6.84323 1.05451 5.79587C0.953627 5.70336 0.880057 5.57237 0.887197 5.43205C0.884403 5.2129 1.06569 5.01454 1.28267 4.99032C2.78356 4.77148 4.28507 4.55325 5.78658 4.33596C6.43815 3.03095 7.07886 1.71973 7.72516 0.411611C7.77762 0.311035 7.81611 0.197731 7.90241 0.119815ZM6.48347 4.97356C6.41394 5.10735 6.27145 5.18589 6.12494 5.20234C4.85655 5.38456 3.58879 5.57143 2.32041 5.75334C2.68329 6.13112 3.06946 6.48625 3.44134 6.85503C3.98365 7.38926 4.53247 7.91667 5.0754 8.45028C5.17349 8.54123 5.23837 8.67316 5.23341 8.80851C5.01953 10.1042 4.78205 11.3965 4.57531 12.6931C5.72667 12.0962 6.87057 11.484 8.02099 10.8852C8.15851 10.8117 8.32272 10.8297 8.45496 10.9054C9.58955 11.5011 10.7213 12.1021 11.8584 12.6931C11.8066 12.3082 11.729 11.9267 11.6672 11.5433C11.5126 10.6403 11.3577 9.73729 11.2028 8.83427C11.1746 8.62877 11.327 8.46766 11.4682 8.34225C11.886 7.93219 12.3079 7.52647 12.7257 7.11609C13.1848 6.65853 13.6617 6.21835 14.1133 5.75365C12.8449 5.57143 11.5772 5.38456 10.3085 5.20203C10.1623 5.18589 10.0195 5.10704 9.95026 4.97356C9.36604 3.81135 8.80511 2.63671 8.21686 1.47636C7.62831 2.63671 7.06769 3.81135 6.48347 4.97356Z" fill="#006BE5"/>
</svg>
