<svg width="15" height="14" viewBox="0 0 15 14" fill="none" xmlns="http://www.w3.org/2000/svg">
<path d="M6.9484 0.245544C7.07846 -0.0325935 7.50374 -0.0695337 7.70303 0.151176C7.75301 0.209535 7.78405 0.281242 7.81851 0.349535C8.47288 1.67907 9.12849 3.00829 9.78534 4.33721C11.285 4.55047 12.7837 4.77149 14.2827 4.98909C14.5028 5.00989 14.69 5.20949 14.6869 5.43206C14.6937 5.57237 14.6208 5.70368 14.5196 5.79588C13.4539 6.83082 12.3929 7.87073 11.3281 8.9063C11.2741 8.94262 11.2946 9.00967 11.3008 9.06337C11.4483 9.91082 11.5914 10.7589 11.7379 11.6067C11.845 12.2039 11.9328 12.8049 12.0533 13.3993C12.148 13.6651 11.9235 13.9804 11.6417 13.9789C11.4678 13.996 11.3222 13.8882 11.1754 13.8137C9.90299 13.1439 8.63026 12.4746 7.35722 11.8053C6.01589 12.5103 4.67487 13.2156 3.33447 13.9218C3.15536 14.0211 2.9092 13.9922 2.77261 13.8349C2.66458 13.724 2.6382 13.5595 2.66738 13.4118C2.9154 11.9624 3.16312 10.5127 3.41363 9.06337C3.41922 9.00998 3.44064 8.94231 3.386 8.9063C2.31629 7.86546 1.24937 6.8212 0.179351 5.78036C0.0163803 5.63632 -0.0242849 5.37401 0.100194 5.19304C0.175316 5.07384 0.308487 5.00089 0.446935 4.98568C1.9413 4.77118 3.43474 4.54922 4.92911 4.33721C5.60365 2.97384 6.27416 1.60891 6.9484 0.245544Z" fill="#006BE5"/>
</svg>
