<svg width="48" height="56" viewBox="0 0 48 56" fill="none" xmlns="http://www.w3.org/2000/svg">
<path d="M29.3263 8.51599C32.8627 7.78658 36.5113 7.692 40.1006 8.03025C38.7685 8.30919 37.4924 8.96485 36.6219 10.0309C35.5286 11.331 34.9483 12.9549 34.3888 14.534C33.5584 16.945 32.7633 19.4138 31.3286 21.5491C29.772 23.9393 27.4234 25.7395 24.8104 26.8424C25.9214 27.2641 26.9794 27.8043 28.0519 28.3125C30.1423 29.2022 31.8544 30.7973 33.2186 32.5831C35.1455 35.1047 36.5097 37.9951 37.7489 40.9015C38.6755 43.0336 39.4033 45.2795 40.7515 47.1984C42.369 49.6255 44.8842 51.4546 47.704 52.2161C41.7181 52.7964 35.5623 52.4597 29.8152 50.5937C28.5296 50.2346 27.2423 49.8467 26.0336 49.2744C23.9496 48.2757 22.215 46.6518 20.9005 44.7665C19.4577 43.0031 18.5696 40.8229 18.257 38.5738C17.9957 37.0044 17.7713 35.3725 18.1576 33.8046C18.3484 33.1987 18.4285 32.5671 18.576 31.9515C20.8444 32.6296 22.6799 34.2423 24.2878 35.9191C25.62 37.3394 26.8014 38.9008 27.821 40.56C28.2955 41.3231 28.6883 42.1375 29.2093 42.8717C30.325 44.4812 31.8367 45.8614 33.6658 46.6069C32.4186 45.7348 31.6187 44.3962 30.9037 43.0881C29.9178 41.3023 29.3231 39.3401 28.4687 37.4949C27.3289 35.0711 25.6088 32.8604 23.2955 31.4609C20.6328 29.8146 17.4507 29.2871 14.3663 29.1878C15.3186 28.0896 16.5465 27.2256 17.9172 26.7398C19.0345 26.3759 20.2144 26.2285 21.3141 25.8117C22.7681 25.0197 23.5889 23.4808 24.2157 22.014C25.107 19.9155 25.4805 17.6375 26.4391 15.5663C26.8928 14.5949 27.4234 13.601 28.3115 12.9581C26.7517 13.6314 25.5318 14.9347 24.7816 16.4416C23.7796 18.5497 22.7328 20.6978 21.1185 22.4147C20.3538 23.2034 19.3375 23.9585 18.1753 23.8142C17.2663 22.0043 16.9457 19.8754 17.4907 17.9069C18.1208 15.5776 19.6084 13.5352 21.4488 12.0043C23.7059 10.1624 26.5017 9.11233 29.3263 8.51599Z" fill="#006BE5"/>
<path d="M3.09354 2.14377C4.05378 0.967109 5.44526 0.00846251 7.01308 0.000447087C8.58731 -0.0235992 10.0012 0.925428 10.9727 2.10049C12.6078 4.08992 13.3869 6.70776 13.3308 9.26468C13.302 11.0088 13.1593 12.7947 12.4812 14.4218C12.1141 15.3259 11.553 16.1323 10.9727 16.9114C10.9807 19.5677 10.9727 22.2256 10.9775 24.8819C7.43309 25.6226 4.63891 28.4247 3.1272 31.6165C3.11277 26.7062 3.15766 21.7928 3.10476 16.8857C2.6575 16.2509 2.1894 15.6273 1.85114 14.9252C0.979066 13.1778 0.802727 11.1884 0.772269 9.26468C0.716161 6.72699 1.48564 4.13 3.09354 2.14377Z" fill="#006BE5"/>
<path d="M10.3989 25.9753C13.4752 25.0359 16.7134 25.5312 19.8683 25.3405C18.6596 25.5841 17.422 25.8278 16.3399 26.4514C14.1693 27.5992 12.5759 29.6495 11.7455 31.9371C11.2806 33.2517 10.9183 34.6367 10.976 36.041C10.9808 36.7416 10.9712 37.4421 10.9744 38.1443C10.9343 38.3783 11.0978 38.5579 11.2165 38.739C11.909 39.7281 12.414 40.9 12.4108 42.1247C12.4124 46.647 12.4124 51.1693 12.4108 55.6932C12.0757 55.6916 11.7407 55.6916 11.4072 55.6916C11.2613 52.8269 11.1603 49.9574 10.992 47.0943C10.9247 46.6775 10.9119 45.9609 10.3556 45.9273C9.89712 46.0988 9.8859 46.6775 9.82338 47.0895C9.66628 49.9558 9.55566 52.8253 9.41138 55.6932C8.99298 55.6916 8.57457 55.6916 8.15777 55.6932C8.03113 53.0417 7.90769 50.3902 7.78585 47.7387C7.74097 47.1264 7.77784 46.429 7.3418 45.9401C7.10775 45.9705 6.79194 45.8615 6.63484 46.1004C6.40079 46.4499 6.38155 46.8875 6.34148 47.2947C6.20682 50.0937 6.08017 52.8926 5.94872 55.69C5.52871 55.6932 5.11031 55.6932 4.6919 55.6916C4.56686 53.0385 4.44182 50.3854 4.32159 47.7323C4.27831 47.1841 4.30556 46.5893 4.00899 46.1052C3.88394 45.8952 3.56333 45.8663 3.41424 46.0635C3.13691 46.4499 3.12889 46.9516 3.08721 47.4085C2.94935 50.169 2.83072 52.9295 2.69606 55.69C2.35621 55.7013 2.01635 55.6932 1.6781 55.6708C1.71337 51.1084 1.6781 46.5428 1.69573 41.9789C1.731 40.6563 2.35621 39.4348 3.12729 38.388C3.14172 37.2353 3.10164 36.0811 3.14653 34.9301C3.33249 32.8653 4.33441 30.9512 5.61848 29.3546C6.87049 27.8333 8.48961 26.546 10.3989 25.9753Z" fill="#666666"/>
</svg>
