<svg width="103" height="70" viewBox="0 0 103 70" fill="none" xmlns="http://www.w3.org/2000/svg">
<path d="M32.4693 60.8229C34.0499 60.3868 35.8518 60.7154 37.1022 61.7975C38.9153 63.2868 39.2295 66.1932 37.814 68.0543C36.3391 70.1143 33.2163 70.5968 31.1227 69.2214C29.5789 68.2643 28.7469 66.339 29.0691 64.5564C29.3304 62.777 30.746 61.2813 32.4693 60.8229ZM33.0769 63.011C31.9274 63.3862 31.3407 64.7264 31.6084 65.8629C31.82 67.0845 33.0993 67.9934 34.3241 67.7065C35.7059 67.4724 36.469 65.8629 36.0538 64.5869C35.7396 63.3397 34.2904 62.551 33.0769 63.011Z" fill="#006BE5"/>
<path d="M0.000400906 60.8199C0.830799 60.8167 1.6628 60.8183 2.4932 60.8199C2.4948 62.035 2.4932 63.2501 2.4948 64.4669C3.532 63.2517 4.55958 62.0302 5.59677 60.8167C6.57947 60.8199 7.56376 60.8167 8.54645 60.8199C7.41628 62.1119 6.27488 63.3976 5.1431 64.6897C6.31656 66.4002 7.49162 68.1075 8.66508 69.818C7.66796 69.8196 6.67084 69.8164 5.67372 69.8196C4.91386 68.7086 4.16522 67.5897 3.40696 66.4771C3.10077 66.8138 2.79779 67.152 2.4948 67.4903C2.4932 68.2662 2.4948 69.0405 2.4948 69.8164C1.6628 69.8196 0.832402 69.818 0.00200372 69.818C-0.00120245 66.8186 0.000400906 63.8192 0.000400906 60.8199Z" fill="#006BE5"/>
<path d="M10.3418 69.8178C10.3434 66.8169 10.3402 63.8175 10.3434 60.8181C12.7513 60.8197 15.1591 60.8165 17.5669 60.8197C17.5685 61.5251 17.5685 62.232 17.5669 62.9406C15.9783 62.9406 14.388 62.939 12.7994 62.9406C12.7978 63.3943 12.7961 63.8479 12.7994 64.3016C14.2389 64.3048 15.6785 64.3016 17.1181 64.3032C17.1181 64.9589 17.1181 65.6145 17.1165 66.2702C15.6769 66.2702 14.2373 66.2686 12.7994 66.2702C12.7978 66.7447 12.7978 67.2208 12.7994 67.6969C14.4089 67.6969 16.02 67.6969 17.6311 67.6969C17.6327 68.4039 17.6327 69.1109 17.6311 69.8178C15.2008 69.8178 12.7721 69.8194 10.3418 69.8178Z" fill="#006BE5"/>
<path d="M19.3736 60.8198C22.0043 60.8182 24.635 60.8182 27.2672 60.8198C27.2672 61.5476 27.2688 62.2754 27.2656 63.0048C26.3647 63.0048 25.4654 63.0016 24.566 63.0048C24.5676 65.2764 24.5676 67.5463 24.566 69.8179C23.734 69.8179 22.9036 69.8195 22.0716 69.8163C22.0732 67.5463 22.0716 65.2748 22.0732 63.0048C21.1739 63.0016 20.273 63.0048 19.3736 63.0032C19.372 62.2754 19.372 61.5476 19.3736 60.8198Z" fill="#006BE5"/>
<path d="M75.557 60.7525C76.0492 60.7525 76.5429 60.7461 77.0367 60.7669C78.3304 63.792 79.6689 66.7978 80.977 69.818C80.4192 69.818 79.8629 69.8196 79.305 69.8164C79.0036 69.0918 78.7007 68.3672 78.3929 67.6458C76.9741 67.6474 75.5554 67.6426 74.1367 67.6474C73.8305 68.3704 73.5227 69.0934 73.2149 69.8164C72.6747 69.8196 72.1345 69.818 71.5942 69.818C72.9152 66.7962 74.2313 63.7727 75.557 60.7525ZM76.2576 62.6474C75.7494 63.8481 75.2284 65.044 74.7202 66.2431C75.751 66.2431 76.7834 66.2447 77.8142 66.2431C77.2964 65.044 76.785 63.8417 76.2576 62.6474Z" fill="#666666"/>
<path d="M42.0542 60.8199C43.4328 60.8199 44.8099 60.8135 46.1885 60.8215C47.059 60.8312 47.9679 61.0748 48.6204 61.6792C49.7201 62.7468 49.68 64.7699 48.5066 65.7703C48.1539 66.0861 47.7082 66.2656 47.269 66.4227C48.077 67.5545 48.8849 68.6847 49.6913 69.8181C49.0709 69.8197 48.4521 69.8165 47.8333 69.8197C47.1007 68.7825 46.3504 67.7565 45.6419 66.7017C44.9702 66.6584 44.2969 66.6888 43.6236 66.6824C43.622 67.7276 43.6268 68.7728 43.622 69.8181C43.0994 69.8181 42.5784 69.8181 42.0558 69.8181C42.0526 66.8187 42.0558 63.8193 42.0542 60.8199ZM43.6252 62.2451C43.622 63.2566 43.6236 64.2682 43.6252 65.2797C44.5325 65.2637 45.4415 65.315 46.3488 65.2525C47.1039 65.198 47.8461 64.584 47.8028 63.7792C47.8766 63.037 47.277 62.3926 46.5604 62.3028C45.5874 62.181 44.6031 62.2739 43.6252 62.2451Z" fill="#666666"/>
<path d="M52.2706 60.8198C54.4893 60.8182 56.7096 60.8166 58.9283 60.8198C58.9299 61.2944 58.9299 61.7689 58.9283 62.245C57.2322 62.2482 55.5345 62.2418 53.8385 62.2466C53.8385 63.0177 53.8369 63.7888 53.8385 64.5598C55.3422 64.5614 56.8459 64.5582 58.3512 64.5614C58.3512 65.0359 58.3512 65.5105 58.3512 65.9866C56.8475 65.9882 55.3422 65.985 53.8385 65.9882C53.8369 66.7881 53.8369 67.5897 53.8401 68.3896C55.557 68.3912 57.2755 68.388 58.994 68.3912C58.9956 68.8673 58.994 69.3418 58.994 69.8179C56.7529 69.8179 54.5118 69.8195 52.2706 69.8179C52.2674 66.8186 52.269 63.8192 52.2706 60.8198Z" fill="#666666"/>
<path d="M61.0331 60.82C61.6134 60.8168 62.1953 60.8184 62.7773 60.8168C63.6878 63.1204 64.5839 65.4289 65.4945 67.7325C66.3938 65.4289 67.2931 63.1236 68.1925 60.82C68.7616 60.8168 69.3307 60.8168 69.9014 60.8184C68.6606 63.8386 67.407 66.8524 66.1694 69.8742C65.7029 69.8838 65.2396 69.8854 64.7747 69.8806C63.5243 66.862 62.2787 63.8402 61.0331 60.82Z" fill="#666666"/>
<path d="M83.4426 69.8182C83.4426 66.8172 83.4378 63.8178 83.4442 60.8185C84.0037 60.8169 84.5647 60.8185 85.1258 60.8185C86.0396 62.2356 86.9485 63.6559 87.8639 65.073C88.7809 63.6559 89.6882 62.234 90.6052 60.8185C91.1647 60.8185 91.7241 60.8169 92.2852 60.8185C92.29 63.8178 92.2852 66.8172 92.2868 69.8182C91.7594 69.8166 91.2336 69.831 90.7078 69.8021C90.7318 67.6572 90.7126 65.5123 90.7174 63.3674C89.7603 64.7893 88.8113 66.2176 87.8527 67.6396C86.8972 66.2289 85.961 64.8069 85.012 63.3946C85.0072 65.5347 85.0136 67.6764 85.0088 69.8182C84.4862 69.8182 83.9636 69.8182 83.4426 69.8182Z" fill="#666666"/>
<path d="M95.5218 60.8199C96.7626 60.8215 98.005 60.8103 99.2474 60.8231C100.18 60.8424 101.165 61.1469 101.795 61.8683C102.5 62.6618 102.641 63.8337 102.349 64.8292C102.082 65.6837 101.363 66.3457 100.53 66.6439C99.4318 67.0655 98.2358 66.886 97.0896 66.926C97.088 67.8895 97.0896 68.8529 97.0896 69.818C96.5686 69.818 96.0476 69.8148 95.5282 69.8244C95.5122 66.8218 95.525 63.8209 95.5218 60.8199ZM97.0896 62.2466C97.088 63.3287 97.0896 64.414 97.0896 65.4977C98.1092 65.4191 99.2362 65.7221 100.169 65.1867C101.152 64.6304 101.131 62.9392 100.073 62.4775C99.1336 62.0703 98.0804 62.3092 97.0896 62.2466Z" fill="#666666"/>
<path d="M56.3263 8.51599C59.8627 7.78658 63.5114 7.692 67.1007 8.03025C65.7685 8.30919 64.4924 8.96485 63.622 10.0309C62.5287 11.331 61.9483 12.9549 61.3889 14.534C60.5585 16.945 59.7633 19.4138 58.3286 21.5491C56.772 23.9393 54.4235 25.7395 51.8104 26.8424C52.9214 27.2641 53.9794 27.8043 55.0519 28.3125C57.1423 29.2022 58.8544 30.7973 60.2186 32.5831C62.1455 35.1047 63.5097 37.9951 64.7489 40.9015C65.6755 43.0336 66.4033 45.2795 67.7515 47.1984C69.369 49.6255 71.8843 51.4546 74.7041 52.2161C68.7182 52.7964 62.5623 52.4597 56.8153 50.5937C55.5296 50.2346 54.2423 49.8467 53.0336 49.2744C50.9496 48.2757 49.2151 46.6518 47.9005 44.7665C46.4578 43.0031 45.5696 40.8229 45.257 38.5738C44.9957 37.0044 44.7713 35.3725 45.1577 33.8046C45.3484 33.1987 45.4286 32.5671 45.5761 31.9515C47.8444 32.6296 49.6799 34.2423 51.2878 35.9191C52.62 37.3394 53.8015 38.9008 54.821 40.56C55.2955 41.3231 55.6883 42.1375 56.2093 42.8717C57.3251 44.4812 58.8368 45.8614 60.6659 46.6069C59.4187 45.7348 58.6187 44.3962 57.9038 43.0881C56.9179 41.3023 56.3231 39.3401 55.4687 37.4949C54.3289 35.0711 52.6088 32.8604 50.2955 31.4609C47.6328 29.8146 44.4507 29.2871 41.3664 29.1878C42.3186 28.0896 43.5466 27.2256 44.9172 26.7398C46.0345 26.3759 47.2144 26.2285 48.3141 25.8117C49.7681 25.0197 50.5889 23.4808 51.2157 22.014C52.107 19.9155 52.4805 17.6375 53.4392 15.5663C53.8929 14.5949 54.4235 13.601 55.3116 12.9581C53.7518 13.6314 52.5318 14.9347 51.7816 16.4416C50.7797 18.5497 49.7329 20.6978 48.1185 22.4147C47.3539 23.2034 46.3375 23.9585 45.1753 23.8142C44.2663 22.0043 43.9457 19.8754 44.4908 17.9069C45.1208 15.5776 46.6084 13.5352 48.4488 12.0043C50.7059 10.1624 53.5017 9.11233 56.3263 8.51599Z" fill="#006BE5"/>
<path d="M30.0935 2.14377C31.0538 0.967109 32.4453 0.00846251 34.0131 0.000447087C35.5873 -0.0235992 37.0012 0.925428 37.9727 2.10049C39.6078 4.08992 40.3869 6.70776 40.3308 9.26468C40.302 11.0088 40.1593 12.7947 39.4812 14.4218C39.1141 15.3259 38.553 16.1323 37.9727 16.9114C37.9807 19.5677 37.9727 22.2256 37.9775 24.8819C34.4331 25.6226 31.6389 28.4247 30.1272 31.6165C30.1128 26.7062 30.1577 21.7928 30.1048 16.8857C29.6575 16.2509 29.1894 15.6273 28.8511 14.9252C27.9791 13.1778 27.8027 11.1884 27.7723 9.26468C27.7162 6.72699 28.4856 4.13 30.0935 2.14377Z" fill="#006BE5"/>
<path d="M37.3988 25.9753C40.4751 25.0359 43.7134 25.5312 46.8682 25.3405C45.6595 25.5841 44.4219 25.8278 43.3399 26.4514C41.1693 27.5992 39.5758 29.6495 38.7454 31.9371C38.2805 33.2517 37.9182 34.6367 37.9759 36.041C37.9807 36.7416 37.9711 37.4421 37.9743 38.1443C37.9343 38.3783 38.0978 38.5579 38.2164 38.739C38.9089 39.7281 39.4139 40.9 39.4107 42.1247C39.4123 46.647 39.4123 51.1693 39.4107 55.6932C39.0757 55.6916 38.7406 55.6916 38.4072 55.6916C38.2613 52.8269 38.1603 49.9574 37.992 47.0943C37.9246 46.6775 37.9118 45.9609 37.3555 45.9273C36.8971 46.0988 36.8858 46.6775 36.8233 47.0895C36.6662 49.9558 36.5556 52.8253 36.4113 55.6932C35.9929 55.6916 35.5745 55.6916 35.1577 55.6932C35.0311 53.0417 34.9076 50.3902 34.7858 47.7387C34.7409 47.1264 34.7778 46.429 34.3417 45.9401C34.1077 45.9705 33.7919 45.8615 33.6348 46.1004C33.4007 46.4499 33.3815 46.8875 33.3414 47.2947C33.2068 50.0937 33.0801 52.8926 32.9487 55.69C32.5287 55.6932 32.1102 55.6932 31.6918 55.6916C31.5668 53.0385 31.4418 50.3854 31.3215 47.7323C31.2782 47.1841 31.3055 46.5893 31.0089 46.1052C30.8839 45.8952 30.5633 45.8663 30.4142 46.0635C30.1368 46.4499 30.1288 46.9516 30.0872 47.4085C29.9493 50.169 29.8307 52.9295 29.696 55.69C29.3561 55.7013 29.0163 55.6932 28.678 55.6708C28.7133 51.1084 28.678 46.5428 28.6957 41.9789C28.7309 40.6563 29.3561 39.4348 30.1272 38.388C30.1417 37.2353 30.1016 36.0811 30.1465 34.9301C30.3324 32.8653 31.3344 30.9512 32.6184 29.3546C33.8704 27.8333 35.4896 26.546 37.3988 25.9753Z" fill="#666666"/>
</svg>
