<svg width="56" height="56" viewBox="0 0 56 56" fill="none" xmlns="http://www.w3.org/2000/svg">
<g clip-path="url(#clip0_94_332)">
<path d="M41.6997 52.2667V52.5667H41.9997H43.6798C44.1717 52.5667 44.5582 52.7293 44.8211 52.9922C45.0839 53.255 45.2466 53.6417 45.2466 54.1337C45.2466 54.6256 45.0839 55.0121 44.8211 55.275C44.5582 55.5378 44.1717 55.7004 43.6798 55.7004H12.3198C11.828 55.7004 11.4414 55.5378 11.1786 55.2749C10.9157 55.0121 10.7531 54.6255 10.7531 54.1337C10.7531 53.6418 10.9158 53.2553 11.1786 52.9924C11.4415 52.7296 11.828 52.567 12.3198 52.567H13.9998H14.2998V52.267V41.2536C14.2998 39.9097 14.7043 38.4155 15.3881 37.0477C16.072 35.6799 17.0246 34.4599 18.0997 33.6536L18.0998 33.6537L18.1071 33.6479L24.6405 28.4211L24.9333 28.1868L24.6405 27.9526L18.1071 22.7258L18.1072 22.7257L18.0997 22.72C17.0246 21.9136 16.072 20.6936 15.3881 19.3259C14.7043 17.9582 14.2998 16.4641 14.2998 15.1201V3.73344V3.43344H13.9998H12.3198C11.828 3.43344 11.4414 3.27079 11.1786 3.00795C10.9157 2.7451 10.7531 2.35854 10.7531 1.86672C10.7531 1.37484 10.9158 0.988283 11.1786 0.725453C11.4415 0.46262 11.828 0.3 12.3198 0.3H43.6798C44.1717 0.3 44.5582 0.46262 44.8211 0.72544C45.0839 0.988256 45.2466 1.37477 45.2466 1.86657C45.2466 2.35846 45.0839 2.74501 44.8211 3.00784C44.5582 3.27067 44.1717 3.43329 43.6798 3.43329H41.9997H41.6997V3.73329V15.1198C41.6997 16.4637 41.2953 17.9579 40.6114 19.3256C39.9276 20.6934 38.975 21.9135 37.8998 22.7197L37.8997 22.7196L37.8924 22.7255L31.359 27.9523L31.0662 28.1865L31.359 28.4208L37.8924 33.6476L37.8923 33.6477L37.8998 33.6533C38.975 34.4597 39.9276 35.6798 40.6114 37.0475C41.2953 38.4152 41.6997 39.9093 41.6997 41.2533V52.2667ZM17.7333 3.43329H17.4333V3.73329V15.1201C17.4333 16.0196 17.7307 17.0459 18.1882 17.9608C18.6433 18.8713 19.2746 19.7067 19.9771 20.2115L27.2381 26.1689C27.3927 26.3251 27.545 26.5153 27.6635 26.7208L27.9892 27.2851L28.2062 26.6708C28.2952 26.4191 28.4553 26.1902 28.7263 26.0094L28.7368 26.0025L28.7466 25.9947L36.0208 20.2127C36.7286 19.7045 37.3601 18.8175 37.813 17.8879C38.2676 16.9547 38.5666 15.9284 38.5666 15.1199V3.73329V3.43329H38.2666H17.7333ZM38.2663 52.5667H38.5663V52.2667V41.2533C38.5663 40.3538 38.2688 39.3275 37.8114 38.4125C37.3562 37.5021 36.7249 36.6667 36.0224 36.1619L28.7616 30.2044C28.607 30.0482 28.4547 29.858 28.3362 29.6525L28.0106 29.0884L27.7935 29.7025C27.7045 29.9541 27.5444 30.183 27.2733 30.3638L27.2629 30.3707L27.2531 30.3785L19.9789 36.1604C19.2757 36.6651 18.6437 37.5012 18.1881 38.4124C17.7306 39.3274 17.4331 40.3537 17.4331 41.2533V52.2667V52.5667H17.7331H38.2663Z" fill="#006BE5" stroke="#EEEEEE" stroke-width="0.6"/>
<rect x="26" y="46" width="4" height="4" rx="2" fill="#006BE5"/>
</g>
<defs>
<clipPath id="clip0_94_332">
<rect width="56" height="56" fill="white"/>
</clipPath>
</defs>
</svg>
