<svg width="54" height="54" viewBox="0 0 54 54" fill="none" xmlns="http://www.w3.org/2000/svg">
<g clip-path="url(#clip0_94_352)">
<path d="M40.1284 50.2764V50.5764H40.4284H42.04C42.5089 50.5764 42.8764 50.7314 43.1259 50.9809C43.3754 51.2305 43.5305 51.598 43.5305 52.0672C43.5305 52.5363 43.3755 52.9038 43.1259 53.1533C42.8764 53.4028 42.5089 53.5578 42.04 53.5578H11.96C11.4909 53.5578 11.1234 53.4027 10.8739 53.1532C10.6244 52.9037 10.4694 52.5362 10.4694 52.0672C10.4694 51.5982 10.6245 51.2307 10.874 50.9812C11.1235 50.7317 11.491 50.5767 11.96 50.5767H13.5714H13.8714V50.2767V39.7128C13.8714 38.4261 14.2587 36.9947 14.9139 35.6841C15.5692 34.3735 16.4818 33.2049 17.5113 32.4329L17.5113 32.433L17.5187 32.4271L23.7854 27.4137L24.0782 27.1794L23.7854 26.9452L17.5187 21.9317L17.5188 21.9316L17.5113 21.926C16.4818 21.1538 15.5692 19.9852 14.9139 18.6747C14.2587 17.3641 13.8714 15.9328 13.8714 14.646V3.72412V3.42412H13.5714H11.96C11.4909 3.42412 11.1234 3.26909 10.8739 3.01958C10.6244 2.77007 10.4694 2.40256 10.4694 1.9336C10.4694 1.46457 10.6245 1.09706 10.874 0.847567C11.1235 0.598068 11.491 0.443066 11.96 0.443066H42.04C42.5089 0.443066 42.8764 0.598069 43.126 0.847556C43.3755 1.09704 43.5305 1.46451 43.5305 1.93345C43.5305 2.40248 43.3755 2.76998 43.1259 3.01948C42.8764 3.26898 42.5089 3.42398 42.04 3.42398H40.4284H40.1284V3.72398V14.6457C40.1284 15.9325 39.7411 17.3638 39.0858 18.6744C38.4306 19.9851 37.5179 21.1537 36.4885 21.9257L36.4884 21.9255L36.4811 21.9314L30.2144 26.9449L29.9216 27.1791L30.2144 27.4134L36.4811 32.4268L36.481 32.4269L36.4885 32.4326C37.5179 33.2047 38.4306 34.3733 39.0858 35.6839C39.7411 36.9944 40.1284 38.4257 40.1284 39.7125V50.2764ZM17.1524 3.42398H16.8524V3.72398V14.646C16.8524 15.5112 17.1385 16.4975 17.5778 17.3763C18.0149 18.2505 18.6214 19.0536 19.2972 19.5393L26.2611 25.2529C26.4086 25.4021 26.5537 25.5835 26.6668 25.7794L26.9924 26.3437L27.2095 25.7294C27.294 25.4902 27.4459 25.2729 27.7036 25.1011L27.714 25.0941L27.7238 25.0863L34.701 19.5405C35.382 19.0514 35.9888 18.1987 36.4236 17.3062C36.8601 16.4102 37.1477 15.4238 37.1477 14.6459V3.72398V3.42398H36.8477H17.1524ZM36.8474 50.5764H37.1474V50.2764V39.7125C37.1474 38.8473 36.8613 37.861 36.422 36.9822C35.9849 36.108 35.3784 35.305 34.7026 34.8192L27.7389 29.1056C27.5913 28.9565 27.4462 28.775 27.3331 28.5792L27.0076 28.015L26.7905 28.6291C26.706 28.8681 26.554 29.0855 26.2963 29.2573L26.2859 29.2643L26.2761 29.2721L19.299 34.8178C18.6225 35.3034 18.0153 36.1071 17.5777 36.9822C17.1384 37.8609 16.8523 38.8473 16.8523 39.7125V50.2764V50.5764H17.1523H36.8474Z" fill="#006BE5" stroke="#EEEEEE" stroke-width="0.6"/>
<rect x="22.2041" y="44.2656" width="3.83673" height="3.83673" rx="1.91837" fill="#006BE5"/>
<rect x="27.959" y="44.2656" width="3.83674" height="3.83673" rx="1.91837" fill="#006BE5"/>
<rect x="25.0815" y="38.5105" width="3.83673" height="3.83673" rx="1.91837" fill="#006BE5"/>
</g>
<defs>
<clipPath id="clip0_94_352">
<rect width="53.7143" height="53.7143" fill="white" transform="translate(0.143066 0.143066)"/>
</clipPath>
</defs>
</svg>
