<svg width="18" height="22" viewBox="0 0 18 22" fill="none" xmlns="http://www.w3.org/2000/svg">
<path d="M16.3915 7.91883C15.7346 6.50807 14.817 5.13204 13.6642 3.82901C13.4227 3.55586 13.0058 3.53932 12.7428 3.78484L9.70986 6.61558L9.70986 0.687438C9.70986 0.191192 9.11152 -0.179586 8.66344 0.0914614C6.20017 1.58145 3.20804 4.57018 1.67569 7.76152C0.805145 9.5745 0.36377 11.4535 0.36377 13.3463C0.363727 18.118 4.23637 22 8.99649 22C14.9774 22 20.0691 15.8163 16.3915 7.91883ZM7.00489 18.7114C7.00489 17.044 8.34732 15.8201 8.99753 15.3252C9.64485 15.8509 10.9881 17.1322 10.9881 18.7114C10.9881 19.8122 10.0946 20.7078 8.99645 20.7078C7.89826 20.7078 7.00489 19.8122 7.00489 18.7114ZM11.9823 20.0713C12.9678 17.9058 11.3371 15.2885 9.36624 13.9889C9.15982 13.8528 8.8941 13.8469 8.68179 13.9738C6.62836 15.202 5.02322 17.9015 6.01064 20.0713C3.44519 18.9222 1.65279 16.3403 1.65279 13.3463C1.65279 8.66115 4.704 4.5808 8.4208 1.82508L8.4208 8.10002C8.4208 8.66309 9.09292 8.95699 9.50456 8.5729L13.1296 5.18949C15.2606 7.77381 16.3402 10.5151 16.3402 13.3464C16.3402 16.3403 14.5478 18.9222 11.9823 20.0713Z" fill="#FDB952"/>
</svg>
