<svg width="46" height="40" viewBox="0 0 46 40" fill="none" xmlns="http://www.w3.org/2000/svg">
<g clip-path="url(#clip0_447_903)">
<path d="M0 0.000171661H3.75313L3.79316 0.0417709C2.52877 0.0509148 1.26439 0.0431442 0 0.045887V0.000171661Z" fill="#006BE5"/>
<path d="M17.4365 0.000171661H32.991L32.9892 0.0449715C30.4742 0.0358276 27.9592 0.0600548 25.4443 0.0472565C22.7756 0.0417709 20.1065 0.050457 17.4378 0.0454292L17.4365 0.000171661Z" fill="#006BE5"/>
<path d="M3.75313 0.000171661H17.4376L17.439 0.0454292C15.8134 0.0440559 14.1874 0.0440559 12.5618 0.0454292C12.0249 0.0600586 11.4884 0.0536575 10.9514 0.0545731C8.77372 0.0550308 6.59555 0.0541115 4.41785 0.055027C4.20988 0.0536537 4.00067 0.0614281 3.79316 0.0417709L3.75313 0.000171661Z" fill="#006BE5"/>
<path d="M32.991 0.000171661H45.0897V0.0390282C44.0006 0.0330849 42.912 0.0390282 41.8229 0.0358276C41.6476 0.0349121 41.4704 0.0253143 41.2988 0.0650864L41.2703 0.0664558C40.2433 0.0472565 39.2159 0.0669174 38.1885 0.0518303C36.4552 0.0376587 34.7229 0.0435982 32.9892 0.0449715L32.991 0.000171661Z" fill="#006BE5"/>
<path d="M3.79316 0.0417709C4.00067 0.0614281 4.20988 0.0536537 4.41785 0.055027C6.59555 0.0541115 8.77372 0.0550308 10.9514 0.0545731C11.4884 0.0536575 12.0249 0.0600586 12.5618 0.0454292C14.1874 0.0440559 15.8134 0.0440559 17.439 0.0454292L17.439 0.0919609C13.1135 0.0915031 8.78843 0.0919609 4.46293 0.0919609C4.22919 0.0905876 3.995 0.0974464 3.76172 0.0832748L3.79316 0.0417709Z" fill="#006BE5"/>
<path d="M32.9892 0.0449715C34.7229 0.0435982 36.4552 0.0376587 38.1885 0.0518303C39.2159 0.0669174 40.2433 0.0472565 41.2703 0.0664558C38.5101 0.111256 35.749 0.0839157 32.9883 0.092144L32.9892 0.0449715Z" fill="#006BE5"/>
<path d="M3.30268 0.490257C3.44853 0.347172 3.62046 0.231846 3.76172 0.0832748C3.995 0.0974464 4.22919 0.0905876 4.46293 0.0919609C8.78843 0.0919609 13.1135 0.0915031 17.439 0.0919609C17.6934 0.0878448 17.9485 0.0788269 18.2029 0.101227C18.4399 0.160656 18.6837 0.135513 18.9253 0.12957C18.9948 0.135513 19.0647 0.140541 19.1346 0.145569C19.1871 0.197227 19.2626 0.208199 19.3307 0.182598C19.3624 0.182598 19.425 0.182598 19.4567 0.182598C19.482 0.194942 19.5326 0.219627 19.5584 0.231972C19.5787 0.230598 19.6196 0.227402 19.6399 0.226028C19.6656 0.237 19.7171 0.258484 19.7429 0.269455C20.0563 0.349457 20.3641 0.453682 20.6567 0.592197C20.6811 0.604084 20.7308 0.627853 20.7556 0.640198C20.9162 0.73711 21.0754 0.836315 21.2282 0.945114C21.7223 1.30123 22.1116 1.77574 22.5777 2.16386C22.9655 1.73368 23.3483 1.28888 23.8305 0.957912C24.2755 0.634254 24.7867 0.41711 25.3015 0.22694C25.3264 0.215054 25.3761 0.191284 25.4009 0.179398C25.4543 0.161568 25.5077 0.143284 25.5629 0.129112C26.6888 0.15517 27.8156 0.128197 28.9419 0.134598C29.0542 0.135056 29.166 0.118141 29.2778 0.102142C29.426 0.091629 29.5741 0.085228 29.7232 0.0861435C30.8118 0.0930023 31.8997 0.0811729 32.9883 0.092144C35.7489 0.0839157 38.5113 0.111286 41.2715 0.0664864L41.3001 0.0651131C41.4629 0.206371 41.6304 0.342598 41.7887 0.488884C41.7634 0.710598 41.7749 0.934597 41.8117 1.15448C41.8181 1.32866 41.8269 1.50237 41.8352 1.67654C41.826 1.93117 41.7956 2.18991 41.8572 2.44088C41.8651 2.61277 41.8678 2.78511 41.8779 2.95745C41.877 3.06808 41.8724 3.17871 41.8701 3.28934C42.2125 3.29346 42.5552 3.29757 42.8976 3.28157C43.1336 3.29574 43.3701 3.29345 43.6066 3.30305C43.8615 3.34328 44.1196 3.34694 44.3768 3.32866C44.4049 3.3314 44.461 3.33643 44.4891 3.33917C44.5282 3.39448 44.5779 3.40591 44.6382 3.37346C44.8006 3.48134 44.9358 3.6226 45.0582 3.77254C45.0302 4.00751 45.0486 4.24431 45.0449 4.4802C45.044 6.58305 45.0431 8.68591 45.0546 10.7888C45.0532 11.4777 45.0684 12.1666 45.0527 12.8555C45.0233 13.6441 45.0481 14.434 45.0403 15.2231C45.0343 17.1737 45.0734 19.1239 45.061 21.0745C45.0734 21.4493 45.0316 21.8274 45.0909 22.2V27.4471C45.0385 27.789 45.072 28.1355 45.0624 28.4802C45.0702 30.0285 45.0205 31.5778 45.0518 33.1266C45.0467 33.2994 45.0431 33.4731 45.0444 33.6464C45.044 33.794 45.0426 33.9417 45.0352 34.0889C44.9791 34.3065 44.9984 34.53 45.0044 34.7517C44.9699 34.8473 44.9156 34.9337 44.8627 35.0196C44.7872 35.0073 44.704 35.0402 44.6754 35.1143L44.6294 35.1028C44.5636 35.0781 44.5199 35.0978 44.4974 35.1609C44.4343 35.1591 44.3722 35.1586 44.3101 35.1595C44.2011 35.1307 44.0865 35.1362 43.9862 35.1888C43.9296 35.1952 43.8735 35.2025 43.8173 35.2093C43.4998 35.2084 43.1768 35.1632 42.864 35.2345C42.2621 35.2555 41.6594 35.2313 41.058 35.2569C39.8567 35.2331 38.6544 35.2528 37.4531 35.2464C35.0605 35.2464 32.6679 35.2473 30.2753 35.2445C29.9942 35.2546 29.7117 35.2395 29.4329 35.2825C29.1356 35.2962 28.8379 35.2807 28.5412 35.3012C28.301 35.2884 28.059 35.2733 27.8225 35.3255C27.7051 35.3332 27.5883 35.3396 27.4719 35.3465C27.3771 35.3113 27.2736 35.3191 27.1875 35.3721C27.1558 35.3767 27.0927 35.3858 27.061 35.3904C26.9782 35.3584 26.8861 35.3666 26.8167 35.4219C26.7969 35.4247 26.7578 35.4301 26.7384 35.4329C26.6745 35.4114 26.5728 35.3977 26.5489 35.4809C26.5273 35.4777 26.4835 35.4722 26.4615 35.4695C26.4366 35.4823 26.3874 35.5083 26.3625 35.5211C26.3409 35.5202 26.2981 35.5188 26.277 35.5179C26.2521 35.5303 26.2033 35.5554 26.1785 35.5682L26.1394 35.5636C26.1141 35.5751 26.0639 35.5979 26.0386 35.6093C25.9935 35.6244 25.9494 35.64 25.9052 35.656C25.8803 35.6679 25.8311 35.6916 25.8063 35.704L25.775 35.7044C25.6958 35.6893 25.6241 35.7291 25.5785 35.7917C25.4216 35.8562 25.2707 35.9339 25.1248 36.0203C25.1 36.0317 25.0498 36.0541 25.025 36.0656C24.4315 36.4413 23.9193 36.9666 23.6465 37.6185C23.635 37.6432 23.612 37.6935 23.601 37.7181C23.5858 37.7611 23.571 37.8045 23.5568 37.8489C23.5448 37.8736 23.5204 37.9239 23.5085 37.9485C23.5098 37.9691 23.5126 38.0103 23.514 38.0308C23.5011 38.0555 23.4749 38.1044 23.462 38.1287L23.4643 38.1657C23.4059 38.2141 23.3934 38.2928 23.4229 38.3613L23.4151 38.3929C23.3594 38.4436 23.3493 38.5209 23.3778 38.5895C23.3727 38.6475 23.3677 38.7056 23.3631 38.7645C23.3065 38.8647 23.3037 38.9808 23.3378 39.0896C23.3341 39.1088 23.3272 39.1476 23.324 39.1668C23.2687 39.2185 23.2577 39.2953 23.2839 39.3648L23.2807 39.3986C23.225 39.437 23.2117 39.4864 23.2416 39.5481C23.1822 39.6925 23.0902 39.8205 22.9701 39.9216C22.9435 39.928 22.8901 39.9412 22.8634 39.9476C22.8445 39.9513 22.8073 39.9581 22.7889 39.9618C22.626 39.9636 22.4636 39.9636 22.3011 39.9618C22.2827 39.9581 22.2455 39.9513 22.2271 39.9476C22.2004 39.9412 22.147 39.9284 22.1203 39.922C22.0301 39.8397 21.9524 39.746 21.8893 39.6423C21.8806 39.6162 21.8626 39.5641 21.8539 39.5376L21.858 39.4987C21.8452 39.474 21.8194 39.4251 21.8065 39.4004L21.8038 39.3648C21.8332 39.2825 21.8258 39.1915 21.7706 39.1225C21.7665 39.1033 21.7577 39.0649 21.7536 39.0457C21.7872 38.936 21.7821 38.8199 21.7288 38.7184C21.7246 38.6868 21.7168 38.6233 21.7127 38.5917C21.7412 38.5227 21.7315 38.4436 21.6745 38.3938C21.674 38.3741 21.6731 38.3348 21.6726 38.3152C21.6947 38.2521 21.6786 38.2027 21.6234 38.1666L21.6285 38.1305C21.6487 38.0701 21.6331 38.0212 21.5815 37.9842C21.5512 37.8978 21.5208 37.8119 21.4867 37.7273C21.4513 37.624 21.4062 37.5252 21.3496 37.4324C21.0372 36.8423 20.5458 36.3636 19.9739 36.0212C19.949 36.0093 19.8994 35.9851 19.8745 35.9732C19.7857 35.9271 19.6969 35.8813 19.6076 35.8375C19.4866 35.7625 19.3583 35.7003 19.2221 35.6583C19.1797 35.6418 19.1379 35.6258 19.0965 35.6107C19.0716 35.5984 19.0215 35.5746 18.9966 35.5627L18.9566 35.5664C18.9317 35.554 18.8825 35.5284 18.8581 35.5161C18.8379 35.517 18.7974 35.5193 18.7771 35.5202C18.739 35.4663 18.6893 35.4512 18.6271 35.474C18.6078 35.4736 18.5687 35.4722 18.5494 35.4717C18.4997 35.4146 18.4219 35.4036 18.3543 35.432C18.3258 35.4292 18.2683 35.4228 18.2393 35.4196C18.1068 35.3867 17.9706 35.3812 17.8348 35.3913C17.7838 35.384 17.7332 35.3771 17.683 35.3707C17.5201 35.3351 17.3531 35.33 17.1884 35.3488C17.0135 35.3442 16.8392 35.3341 16.6652 35.3273C15.9553 35.2642 15.2407 35.293 14.5294 35.3008C13.9855 35.2747 13.4408 35.3021 12.8969 35.2816C12.7704 35.2642 12.6434 35.2473 12.5155 35.2487C11.2217 35.2514 9.92782 35.229 8.63445 35.2573C7.72435 35.2299 6.81425 35.256 5.90415 35.2336C5.79234 35.2185 5.68053 35.2029 5.56781 35.2034C4.74973 35.2039 3.93119 35.1837 3.11357 35.2107C2.81496 35.1975 2.51589 35.2029 2.21728 35.1901C1.81146 35.1463 1.40196 35.1417 0.994761 35.1645C0.893536 35.1581 0.792772 35.1517 0.691547 35.1449C0.605506 35.0996 0.500601 35.0708 0.410419 35.1243C0.268245 35.0352 0.155058 34.9063 0.0814397 34.7568C0.102145 34.5794 0.099384 34.3993 0.0565937 34.2256C0.0492319 34.0939 0.0469314 33.9618 0.0464712 33.8301C0.0598145 32.0162 0.0151837 30.2027 0.028987 28.3883C0.0326679 28.2416 0.016564 28.0953 0 27.9495V21.4681C0.0197848 21.3223 0.0377291 21.176 0.033128 21.0288C0.0138033 19.0937 0.0616549 17.1581 0.0515325 15.2231C0.0450909 14.7344 0.0648757 14.2457 0.0404898 13.7579C0.0170241 12.5099 0.0427904 11.2605 0.04141 10.0116C0.0506122 8.09163 0.0441707 6.17163 0.0469314 4.25163C0.0478516 4.09209 0.0533729 3.93163 0.0335881 3.773C0.157358 3.62169 0.298612 3.485 0.456891 3.36934C0.516705 3.41414 0.562716 3.40271 0.594464 3.33506C0.624371 3.33414 0.684646 3.33231 0.714553 3.33094C0.91102 3.34465 1.10795 3.3378 1.30211 3.30534C1.59935 3.29208 1.8975 3.30854 2.19427 3.28249C2.53613 3.2962 2.878 3.29254 3.22032 3.28888C3.21802 3.17871 3.21388 3.06808 3.21434 2.95791C3.2263 2.78557 3.2286 2.61277 3.23412 2.44043C3.29394 2.18945 3.26403 1.93163 3.25713 1.67746C3.26817 1.50328 3.27645 1.32866 3.28059 1.15448C3.31418 0.934597 3.32706 0.711971 3.30268 0.490257ZM4.82657 1.64134C4.82565 11.2413 4.82197 20.8409 4.82841 30.4409C5.79234 30.4564 6.75581 30.4523 7.71975 30.4523C7.73631 30.4587 7.76944 30.4724 7.786 30.4793C8.77892 30.4985 9.77322 30.4925 10.7666 30.4925C11.4779 30.4816 12.1902 30.5108 12.9001 30.477C13.7527 30.5136 14.6076 30.4948 15.4607 30.4957L15.457 30.5328C15.9534 30.5332 16.4508 30.552 16.9468 30.5268C17.06 30.5442 17.1746 30.5483 17.2891 30.5433C17.423 30.6205 17.5864 30.5721 17.7332 30.5725C17.7911 30.584 17.85 30.5872 17.9098 30.5817C17.9154 30.669 18.0778 30.6631 18.1275 30.61C18.1523 30.6137 18.2015 30.621 18.2264 30.6247C18.2245 30.7065 18.3663 30.7143 18.4072 30.6576L18.4514 30.6685C18.4776 30.744 18.5227 30.7563 18.5867 30.7056C18.6626 30.7385 18.7445 30.7623 18.8282 30.7609C18.8498 30.8359 18.8935 30.8491 18.9589 30.8002L19.0012 30.8107C19.0159 30.8249 19.0463 30.8537 19.061 30.8679L19.0955 30.845C19.1701 30.8756 19.2501 30.8962 19.3316 30.9003L19.3389 30.941L19.384 30.9629L19.4208 30.9433L19.465 30.9469C19.4793 30.962 19.5073 30.9927 19.5211 31.0082L19.5575 30.9881L19.6026 30.9931C19.6164 31.0082 19.6449 31.0388 19.6592 31.0539L19.6951 31.0333L19.7383 31.0388L19.7489 31.0791L19.7954 31.0978L19.8303 31.0754C19.8736 31.1042 19.9219 31.1216 19.9744 31.1284L19.9831 31.1691L20.0291 31.1879L20.0641 31.1645C20.2072 31.2427 20.3618 31.298 20.5067 31.3735C20.9369 31.5787 21.3243 31.8603 21.6929 32.1593L21.6827 32.2045C21.8134 32.1693 21.7458 32.0066 21.7614 31.9088C21.7651 27.4439 21.7637 22.9794 21.7642 18.5145C21.7665 15.9865 21.7472 13.4585 21.7416 10.9309C21.738 10.9049 21.7311 10.8532 21.7278 10.8272C21.7209 8.60408 21.726 6.38054 21.7131 4.15746C21.7145 3.98831 21.61 3.8466 21.5424 3.69848C21.3841 3.36751 21.2052 3.04248 20.9608 2.76546C20.5343 2.25666 19.938 1.93163 19.3288 1.68797C19.2557 1.65368 19.1738 1.66145 19.0955 1.66237C15.8559 1.63494 12.6153 1.64088 9.37569 1.65597C7.86008 1.63037 6.34309 1.6418 4.82657 1.64134ZM26.3644 1.65551L26.3662 1.68934C26.2719 1.68797 26.1762 1.68568 26.0851 1.7122C26.0368 1.65597 25.8721 1.65003 25.8684 1.73871C25.8311 1.74009 25.7575 1.74329 25.7207 1.74511L25.6848 1.72454C25.671 1.73963 25.6438 1.77071 25.63 1.7858L25.5863 1.78946L25.55 1.76934L25.5044 1.79037L25.4966 1.83105C25.4488 1.83608 25.4055 1.853 25.3669 1.8818C25.2574 1.89871 25.1373 1.92386 25.0733 2.02397C24.7227 2.17666 24.4319 2.43905 24.1715 2.71288C23.8618 3.03974 23.6543 3.44386 23.4712 3.8498C23.4468 3.9074 23.422 3.96637 23.4187 4.02946L23.3861 3.99105C23.3704 4.3874 23.3691 4.78557 23.3888 5.18191C23.3585 5.40363 23.3815 5.62854 23.375 5.85163C23.3663 7.03837 23.3783 8.22557 23.3663 9.41231C23.3295 9.6098 23.3608 9.81186 23.3516 10.0116C23.3488 12.541 23.3235 15.0704 23.3263 17.6002C23.3267 22.4605 23.3253 27.3209 23.3281 32.1808C23.3488 32.184 23.3893 32.1895 23.4095 32.1922L23.4008 32.1556C23.5563 32.0203 23.7335 31.9106 23.8835 31.7698L23.9221 31.7867L23.9635 31.7602L23.9644 31.7181C24.0689 31.6756 24.1641 31.6098 24.2456 31.5325L24.2805 31.5549L24.3261 31.5339L24.3334 31.4923C24.4641 31.4429 24.5916 31.3794 24.7034 31.2957C24.7531 31.3543 24.9063 31.2962 24.8759 31.2167C24.9307 31.2103 24.9817 31.1943 25.0296 31.1677L25.0646 31.1901L25.1097 31.17L25.1179 31.1289C25.1708 31.1266 25.2187 31.1088 25.261 31.0768L25.296 31.0992L25.3429 31.08L25.3531 31.0393L25.3958 31.0329L25.4317 31.0535C25.446 31.0384 25.475 31.0082 25.4892 30.9936L25.5339 30.9885L25.5707 31.0082L25.6158 30.9863L25.6231 30.9456C25.7037 30.9433 25.7828 30.9209 25.8578 30.8907L25.8914 30.9145C25.9066 30.9003 25.9369 30.872 25.9521 30.8578L25.9944 30.8455C26.0593 30.8939 26.1053 30.8811 26.132 30.8071L26.1771 30.7988C26.2415 30.8482 26.2866 30.8363 26.3119 30.7632C26.3358 30.7618 26.3842 30.7591 26.4081 30.7577L26.4435 30.7792C26.4578 30.7645 26.4863 30.7348 26.5006 30.7202C26.524 30.717 26.571 30.7101 26.5944 30.7069C26.6575 30.7572 26.7021 30.7453 26.7279 30.6708C26.7523 30.6676 26.8006 30.6603 26.8249 30.6571C26.8608 30.7156 27.0044 30.7079 26.9998 30.6265C27.0371 30.6224 27.1116 30.6146 27.1493 30.6105C27.1848 30.6681 27.3292 30.6617 27.3219 30.5799C27.3591 30.5757 27.4337 30.5675 27.4705 30.5634C27.5188 30.6183 27.6844 30.6237 27.6886 30.5355C27.7479 30.5383 27.8068 30.5351 27.8662 30.5264C28.1464 30.5515 28.428 30.5341 28.7086 30.5323L28.7105 30.4939C29.0109 30.4907 29.3137 30.5085 29.6132 30.4775C30.4005 30.5104 31.19 30.488 31.9787 30.4866C32.0587 30.4834 32.1471 30.498 32.2184 30.45C34.899 30.4459 37.5801 30.4505 40.2611 30.4473C40.2625 20.8464 40.263 11.2455 40.2611 1.64454C39.1711 1.6418 38.0816 1.64271 36.9916 1.64408C36.9897 5.181 36.9897 8.71791 36.9916 12.2548C36.9856 12.3152 37.0022 12.392 36.9446 12.4336C36.7937 12.5799 36.6152 12.6928 36.4454 12.8148L36.4104 12.7911L36.364 12.8089L36.3543 12.8496C36.2743 12.8441 36.1942 12.8441 36.1155 12.8496L36.1063 12.8089L36.0603 12.7906L36.0258 12.813C35.8164 12.6544 35.6214 12.4775 35.4534 12.2749C35.0425 11.7808 34.6593 11.2647 34.2649 10.7568C34.1301 10.5876 34.0087 10.4057 33.8518 10.2548C33.7266 10.2896 33.6571 10.4468 33.5647 10.5383C33.2067 10.9771 32.8676 11.4301 32.5193 11.8768C32.2487 12.2169 31.9759 12.5657 31.6119 12.8125L31.5774 12.7888L31.5314 12.8066L31.5213 12.8473C31.4385 12.8404 31.3557 12.845 31.2738 12.8473C31.2968 12.7709 31.1514 12.7234 31.1012 12.7705C30.9669 12.6397 30.8118 12.5328 30.6756 12.4043C30.7 12.1556 30.6867 11.906 30.689 11.6573C30.6894 8.3202 30.6894 4.98306 30.689 1.64637L30.6434 1.645C29.7577 1.64912 28.8711 1.62763 27.9858 1.65734C27.4456 1.64363 26.9045 1.63723 26.3644 1.65551ZM32.1167 1.64637C32.1135 3.42831 32.1162 5.2098 32.1199 6.99128L32.1567 6.99357C32.1609 7.53666 32.1369 8.08111 32.177 8.62283C32.1553 8.9346 32.1356 9.25505 32.2023 9.56271L32.2018 9.61666C32.315 9.5394 32.4015 9.43288 32.4834 9.325C32.7424 9.00271 32.9638 8.65026 33.2527 8.35266C33.3677 8.22968 33.5265 8.16431 33.6847 8.11585C33.7782 8.16568 33.9065 8.15974 34.0031 8.11905L34.0455 8.13231L34.0584 8.173L34.1071 8.19037L34.1421 8.1666C34.7048 8.52043 34.9344 9.19334 35.4272 9.61574C35.4281 9.59197 35.43 9.54534 35.4309 9.52203C35.4405 9.50511 35.4599 9.47174 35.4695 9.45528C35.4838 9.23951 35.4769 9.02237 35.4612 8.80705C35.4976 8.49345 35.4829 8.1762 35.481 7.86123L35.5105 7.85757C35.5289 5.78717 35.5178 3.71631 35.5206 1.64591L35.4755 1.64225C34.3708 1.63723 33.2665 1.63677 32.1622 1.64225L32.1167 1.64637ZM42.5078 4.797C42.4006 4.79745 42.292 4.79654 42.1881 4.82077C42.1384 4.76866 41.9833 4.76088 41.9723 4.84363L41.9157 4.82854C41.8536 4.91311 41.8734 5.02191 41.8683 5.1202C41.8724 5.50511 41.8628 5.89003 41.8816 6.27448C41.8549 7.0018 41.8775 7.73094 41.8701 8.45871L41.8333 8.46283C41.8444 8.81163 41.8195 9.15997 41.8227 9.50877C41.8214 14.0496 41.8246 18.5908 41.8232 23.1316C41.8338 23.6711 41.8007 24.2123 41.8407 24.7504C41.8016 25.7767 41.8388 26.8052 41.82 27.832C41.7721 27.9668 41.797 28.1113 41.7924 28.2512C41.7781 29.1239 41.7597 29.997 41.7887 30.8692C41.7772 31.0018 41.7758 31.1348 41.7804 31.2679L41.7353 31.2665C41.7312 31.3949 41.7298 31.5243 41.7445 31.6528C41.6976 31.7762 41.566 31.8247 41.4602 31.885L41.4266 31.8589L41.3769 31.8731L41.3617 31.9129L41.3198 31.9243C41.266 31.8736 41.1036 31.8667 41.0981 31.9563C41.0382 31.9545 40.9789 31.9577 40.9205 31.9659C40.7309 31.9463 40.5404 31.949 40.3508 31.9522C40.2685 31.9559 40.1788 31.9431 40.1111 31.9984C39.8728 32.002 39.6349 31.997 39.3975 32.0125C38.3047 31.9851 37.2115 32.0061 36.1187 31.9993C34.3087 32.0052 32.4986 31.9828 30.689 32.0185C30.5785 32.0185 30.4672 32.0139 30.3604 32.0413C30.0002 32.0546 29.6385 32.0322 29.2792 32.0615C28.8973 32.034 28.5126 32.0386 28.1303 32.0578L28.168 32.0898C28.0097 32.0925 27.8487 32.0765 27.6936 32.1122C27.6297 32.0601 27.4539 32.0455 27.4332 32.1392C27.3955 32.1433 27.3196 32.1511 27.2818 32.1552C27.245 32.0939 27.1024 32.1044 27.107 32.1863C27.0822 32.189 27.0325 32.1945 27.0076 32.1972C26.9437 32.1469 26.899 32.1584 26.8746 32.2329C26.8503 32.2352 26.8019 32.2402 26.7776 32.2429C26.7131 32.1922 26.6681 32.2045 26.6423 32.28L26.5977 32.2873C26.5314 32.2379 26.4854 32.2507 26.4592 32.3261L26.4136 32.333C26.3478 32.2836 26.3023 32.2964 26.2765 32.3709L26.2296 32.3737L26.1932 32.3531C26.179 32.3682 26.15 32.3979 26.1357 32.413L26.0906 32.4189L26.0543 32.3988C26.04 32.4139 26.0115 32.4441 25.9977 32.4596L25.9521 32.4651L25.9162 32.4445C25.9015 32.4596 25.8721 32.4893 25.8573 32.5044L25.8168 32.5177C25.7644 32.4528 25.6034 32.5117 25.6397 32.5981C25.5684 32.6187 25.498 32.6439 25.4313 32.6768C24.7664 33.0036 24.1683 33.4983 23.7988 34.1442C23.6916 34.2018 23.6617 34.3216 23.6529 34.4336C23.6272 34.4733 23.6115 34.5168 23.6051 34.5634L23.5641 34.573L23.5467 34.6192L23.5706 34.6535C23.5379 34.7266 23.5098 34.8057 23.5149 34.8884C23.4399 34.9117 23.4275 34.9556 23.4781 35.0205L23.4698 35.0663C23.393 35.0928 23.3829 35.1376 23.439 35.2002C23.4344 35.2253 23.4247 35.2765 23.4201 35.3017C23.4298 35.3053 23.4487 35.3127 23.4583 35.3163L23.4477 35.2907C23.6101 35.2317 23.733 35.1056 23.8724 35.0087C24.0049 34.9063 24.1581 34.8345 24.2907 34.7321L24.3261 34.7545L24.3712 34.733L24.3781 34.6909C24.5934 34.5799 24.8147 34.4793 25.0282 34.365L25.0632 34.3888L25.1097 34.3709L25.1189 34.3303C25.1713 34.328 25.2182 34.3097 25.2597 34.2759L25.2946 34.2983L25.3402 34.2791L25.3485 34.2379C25.4023 34.237 25.4497 34.2187 25.4911 34.184L25.5261 34.2068L25.573 34.1881L25.5836 34.1474L25.6264 34.1419L25.6622 34.1625C25.677 34.1474 25.706 34.1177 25.7207 34.1026L25.7639 34.0921C25.8288 34.1396 25.8744 34.1264 25.9001 34.0523L25.9471 34.0496L25.9834 34.0701C25.9981 34.0551 26.0276 34.0253 26.0423 34.0107L26.086 33.9997C26.1513 34.0477 26.1974 34.0349 26.224 33.9613L26.2696 33.954C26.3349 34.002 26.3809 33.9892 26.4086 33.9156L26.4541 33.9069C26.5194 33.9559 26.5641 33.944 26.588 33.8708C26.6248 33.8667 26.6975 33.8589 26.7338 33.8548C26.7688 33.9143 26.9147 33.9074 26.9078 33.8256C26.946 33.8215 27.0223 33.8137 27.0605 33.81C27.141 33.8557 27.3246 33.8795 27.3651 33.7826C27.4249 33.7844 27.4847 33.7808 27.5441 33.7712C27.7327 33.7913 27.9223 33.7881 28.1119 33.7826L28.1137 33.7364C28.307 33.7383 28.5011 33.7424 28.6944 33.7241C29.2976 33.7588 29.9036 33.7341 30.5077 33.7264C30.5868 33.7255 30.6669 33.72 30.7433 33.6957C31.4265 33.6779 32.1112 33.7108 32.794 33.6793C33.5338 33.6971 34.2746 33.6816 35.0145 33.6871C37.8515 33.6889 40.689 33.6825 43.5261 33.6903C43.5256 25.9495 43.5261 18.2091 43.5261 10.4688C43.521 8.57071 43.5357 6.67174 43.5187 4.77369C43.1824 4.79974 42.8423 4.75631 42.5078 4.797ZM1.67435 4.81117L1.71299 4.84363H1.66514L1.61315 4.84546C1.60993 5.00271 1.60717 5.16088 1.62419 5.31768C1.5906 5.8722 1.62327 6.429 1.60717 6.98443C1.59935 7.00089 1.58324 7.0338 1.57496 7.05071C1.5584 8.19037 1.55794 9.33094 1.56484 10.4715C1.563 18.1657 1.57358 25.8603 1.56714 33.5549C1.56852 33.6153 1.56024 33.6939 1.63984 33.7049C1.73692 33.693 1.83446 33.6889 1.93247 33.6903C5.70262 33.6948 9.47323 33.6848 13.2434 33.6962C13.3497 33.7305 13.4624 33.7241 13.5728 33.7245C14.4516 33.7364 15.3314 33.7561 16.2093 33.725C16.4955 33.7469 16.7826 33.7341 17.0697 33.7369L17.0683 33.7826C17.274 33.7867 17.4796 33.7922 17.6848 33.7712C17.7175 33.773 17.7828 33.7771 17.816 33.7789C17.8081 33.8612 17.9526 33.8704 17.9894 33.8109C18.0143 33.8141 18.0635 33.821 18.0879 33.8247C18.0851 33.9056 18.2268 33.9161 18.2646 33.8562C18.289 33.8599 18.3377 33.8663 18.3621 33.8695C18.3865 33.9435 18.4307 33.9559 18.4956 33.9065C18.5199 33.9092 18.5692 33.9143 18.5936 33.917C18.6193 33.9901 18.6649 34.002 18.7293 33.9531L18.7748 33.9613C18.8011 34.0354 18.8471 34.0487 18.9129 34.0002L18.9566 34.0103C18.9708 34.0249 18.9998 34.0551 19.0141 34.0697L19.05 34.0487C19.0735 34.0505 19.1199 34.0541 19.1434 34.056C19.1572 34.0711 19.1853 34.1012 19.1995 34.1163L19.2354 34.0957L19.2814 34.0989C19.3058 34.1744 19.35 34.1863 19.4135 34.1351C19.4724 34.1629 19.5359 34.1922 19.6035 34.1913L19.6113 34.2324L19.6564 34.2525L19.6918 34.2301C19.7337 34.2631 19.7811 34.2813 19.8345 34.285L19.8451 34.3257L19.892 34.3421L19.926 34.317C20.2822 34.4765 20.6443 34.6292 20.9719 34.8441C21.2217 34.9949 21.4361 35.1952 21.6841 35.3483C21.6781 35.3113 21.6657 35.2368 21.6593 35.1997L21.6827 35.165L21.6653 35.1188L21.6248 35.1083C21.6215 35.0859 21.6151 35.0407 21.6119 35.0178C21.663 34.9543 21.651 34.9108 21.576 34.888C21.5811 34.8061 21.5553 34.7266 21.5222 34.6535L21.5452 34.6187L21.5258 34.5735L21.4849 34.5648C21.4743 34.5204 21.4564 34.4788 21.4306 34.4409C21.4177 34.3312 21.392 34.21 21.2889 34.1488C20.9677 33.5577 20.4303 33.0928 19.8345 32.7879C19.7333 32.6823 19.5888 32.6288 19.4484 32.6013C19.4103 32.5707 19.3679 32.5538 19.3215 32.5501L19.3127 32.5095L19.2672 32.4903L19.2322 32.5127C19.1724 32.4788 19.1029 32.4692 19.0362 32.461C19.0527 32.3869 18.9175 32.3339 18.8618 32.3741C18.8379 32.3728 18.7905 32.3709 18.767 32.37L18.7583 32.3284L18.7127 32.3069L18.6768 32.3275L18.6308 32.3243C18.6046 32.2498 18.559 32.237 18.4937 32.2864L18.4482 32.2795C18.4224 32.2036 18.3773 32.1917 18.3138 32.2434C18.2779 32.2407 18.2057 32.2356 18.1698 32.2329C18.1468 32.1579 18.1035 32.146 18.0396 32.1977C18.0019 32.1945 17.9259 32.1881 17.8877 32.1844C17.8661 32.0912 17.6899 32.1058 17.6259 32.1579C17.5919 32.1538 17.5233 32.146 17.4888 32.1419L17.4851 32.0903C17.3563 32.0889 17.2275 32.0912 17.0996 32.1053C16.9868 32.0898 16.8723 32.088 16.7586 32.0875C16.5479 32.0061 16.304 32.0473 16.0823 32.0642C15.7404 32.0299 15.3962 32.0551 15.0535 32.0418C14.8091 31.992 14.557 32.024 14.3099 32.0066C12.8679 31.9906 11.4264 32.0039 9.98442 31.9993C8.81527 32.0057 7.64613 31.9888 6.47699 32.0112C5.97501 31.9874 5.4721 32.0057 4.97012 32.0007V31.9568C4.64298 31.9554 4.31492 31.9421 3.98824 31.9664C3.91187 31.9545 3.83457 31.9549 3.75727 31.9572C3.75497 31.8781 3.60911 31.8407 3.54562 31.8754C3.47614 31.7945 3.40574 31.7145 3.34409 31.6285C3.38872 31.5618 3.397 31.3981 3.31096 31.3735C3.3197 31.2221 3.31694 31.0699 3.299 30.9195C3.33305 30.4423 3.30866 29.9627 3.30452 29.4845C3.30176 29.4045 3.30774 29.3209 3.27047 29.2477C3.25483 28.6621 3.28519 28.0756 3.25299 27.4905C3.28519 26.77 3.25897 26.0473 3.26725 25.3259C3.27277 23.7858 3.26679 22.2452 3.26127 20.7051L3.22078 20.7092C3.22078 18.7737 3.22078 16.8386 3.22078 14.9031C3.21434 13.6724 3.23458 12.4413 3.20882 11.2116C3.2332 9.18146 3.21388 7.15037 3.22262 5.1202C3.22262 5.03288 3.22446 4.94511 3.21342 4.85826C3.14854 4.78054 3.03351 4.81117 2.94471 4.79837C2.52141 4.80843 2.09765 4.797 1.67435 4.81117Z" fill="#006BE5"/>
<path d="M12.1419 6.51532C12.2606 6.49063 12.383 6.48743 12.5045 6.48698C13.063 6.49566 13.6225 6.49338 14.1816 6.48652C14.2713 6.48835 14.3624 6.49155 14.4507 6.51029C14.4899 6.54046 14.5331 6.55052 14.5814 6.54046C14.6173 6.54184 14.6891 6.54457 14.7245 6.54595C14.7471 6.55646 14.7921 6.57703 14.8147 6.58755L14.8566 6.59029C14.8791 6.60035 14.9237 6.62092 14.9463 6.63144C15.0595 6.67212 15.1676 6.78869 15.1768 6.91258C15.1699 6.95966 15.1819 7.00172 15.2132 7.03875C15.2329 7.17543 15.2325 7.31623 15.2132 7.45338C15.1814 7.48995 15.169 7.53155 15.1759 7.57909C15.1658 7.70023 15.0622 7.8232 14.9458 7.85749C14.9237 7.86846 14.8796 7.8904 14.8575 7.90137L14.8142 7.90503C14.7912 7.91463 14.7452 7.93475 14.7222 7.94481C14.6974 7.94618 14.6481 7.94846 14.6233 7.94983C14.5635 7.94389 14.505 7.9576 14.4503 7.97818C14.3923 7.99235 14.3334 8.00103 14.2745 8.00332C13.5301 7.9992 12.7861 7.9992 12.0416 8.00332C12.0103 7.99829 11.9468 7.98915 11.9155 7.98412C11.8783 7.95349 11.8364 7.94024 11.7885 7.94526C11.5438 7.88401 11.3694 7.62846 11.3174 7.39166C11.3178 7.32401 11.3178 7.25681 11.3169 7.18915C11.3385 6.96789 11.4628 6.764 11.6261 6.61589C11.6928 6.54961 11.789 6.52903 11.8806 6.53864C11.9684 6.54595 12.0568 6.53818 12.1419 6.51532Z" fill="#006BE5"/>
<path d="M9.95687 11.3096C10.5026 11.2899 11.0492 11.2977 11.5953 11.2895C13.7252 11.2963 15.8559 11.2794 17.9853 11.2977C18.1864 11.4623 18.4211 11.6666 18.4519 11.94C18.4505 12.0255 18.4501 12.111 18.4501 12.1969C18.4303 12.4451 18.2163 12.6092 18.0741 12.7944C17.8648 12.8012 17.6554 12.8008 17.4461 12.8063C15.9866 12.799 14.5271 12.7967 13.0677 12.8017C12.6784 12.815 12.2882 12.7944 11.9004 12.8291C10.9857 12.8456 10.071 12.8332 9.15627 12.8492C8.97867 12.8433 8.79554 12.873 8.62162 12.8291C8.46979 12.7089 8.31749 12.5832 8.19418 12.4332C8.09112 12.2888 8.08974 12.0977 8.11412 11.929C8.14541 11.892 8.15783 11.8495 8.15093 11.8019C8.16197 11.6076 8.34142 11.4358 8.525 11.39C8.58251 11.3914 8.63911 11.38 8.69294 11.3599C8.79601 11.337 8.90275 11.3356 9.00812 11.3343C9.32467 11.3347 9.64307 11.3594 9.95687 11.3096Z" fill="#006BE5"/>
<path d="M8.52278 16.099C10.5896 16.0958 12.6569 16.0985 14.7242 16.0976C15.4392 16.1027 16.1551 16.0862 16.8697 16.1091C17.1011 16.1378 17.3348 16.1529 17.5672 16.1301C17.679 16.1287 17.7926 16.1296 17.9026 16.1534C17.9399 16.1845 17.9827 16.1968 18.0314 16.1904C18.262 16.2142 18.3885 16.4761 18.4547 16.6741C18.457 16.8025 18.4552 16.9314 18.4506 17.0604C18.3655 17.3004 18.1511 17.5125 17.8948 17.5527C17.8722 17.5618 17.8276 17.5797 17.8051 17.5884C17.7485 17.5966 17.6919 17.6007 17.6353 17.6012C17.5 17.5984 17.3647 17.6053 17.2313 17.6249C16.243 17.6565 15.2528 17.6322 14.264 17.64C13.6088 17.6368 12.9537 17.6473 12.2989 17.6304C11.0543 17.5815 9.80787 17.6071 8.56235 17.5966C8.38429 17.4791 8.1915 17.3132 8.15009 17.0951C8.13951 17.0732 8.11881 17.0297 8.10822 17.0082C8.0912 16.9017 8.09166 16.7929 8.10822 16.6869C8.11835 16.6649 8.13905 16.621 8.14917 16.5996C8.18552 16.3833 8.39165 16.2581 8.52278 16.099Z" fill="#006BE5"/>
<path d="M28.1762 16.109C28.8903 16.0834 29.6062 16.0984 30.3212 16.0939C32.4042 16.0952 34.4875 16.0916 36.5705 16.0957C36.7021 16.2557 36.9128 16.3842 36.9409 16.6036C36.934 16.6511 36.9464 16.6937 36.9786 16.7307C36.9988 16.7929 36.9984 16.855 36.9777 16.9172C36.9459 16.9556 36.9335 16.9995 36.9418 17.0484L36.9404 17.0923C36.9298 17.1147 36.9087 17.159 36.8981 17.1814C36.8442 17.3405 36.7016 17.4511 36.6119 17.5906L36.5723 17.5919C35.1754 17.6089 33.7776 17.5819 32.3816 17.6331C31.4807 17.6569 30.5785 17.6367 29.6771 17.6436C29.159 17.6367 28.6405 17.6573 28.1233 17.6331C27.8698 17.6029 27.6149 17.5924 27.36 17.6025C27.3402 17.5979 27.3015 17.5887 27.2822 17.5842C27.2426 17.554 27.1985 17.5421 27.1502 17.5494L27.1046 17.5476C27.0825 17.5362 27.0388 17.5133 27.0167 17.5019C26.8796 17.4411 26.7535 17.3181 26.6933 17.1819C26.6818 17.1613 26.6583 17.1202 26.6468 17.0996L26.6371 17.0653C26.6362 16.9195 26.6376 16.7741 26.6417 16.6287C26.6887 16.471 26.7963 16.3334 26.9293 16.2379C26.9505 16.2255 26.9928 16.1999 27.014 16.1876H27.0577C27.1065 16.1954 27.1506 16.1839 27.1902 16.1524C27.2472 16.1387 27.3052 16.1323 27.3646 16.1323C27.6351 16.1419 27.907 16.1492 28.1762 16.109Z" fill="#006BE5"/>
<path d="M8.10236 21.6221C8.0927 21.3373 8.30159 21.101 8.51784 20.9428C9.9879 20.9232 11.4593 20.9401 12.9298 20.9346C14.2978 20.93 15.6661 20.9506 17.034 20.9319C17.3083 20.9437 17.5853 20.9241 17.8572 20.9607C17.9276 20.9812 18.0003 20.9922 18.0744 20.9899C18.1779 20.9716 18.2382 21.0713 18.2901 21.143C18.3684 21.277 18.4549 21.4219 18.4461 21.5828C18.4378 21.6313 18.4493 21.6756 18.4802 21.7154L18.4829 21.7574C18.4516 21.7945 18.4378 21.8374 18.4415 21.8864C18.3941 22.072 18.2317 22.1981 18.1167 22.3435L18.0753 22.3458C17.2807 22.3682 16.4856 22.3494 15.6905 22.3554C13.2998 22.3508 10.9086 22.3654 8.5183 22.3481C8.28687 22.1844 8.07337 21.9238 8.10236 21.6221Z" fill="#006BE5"/>
<path d="M26.9734 20.948L27.0139 20.9462C27.7629 20.9256 28.5134 20.9425 29.2629 20.937C31.6992 20.943 34.1359 20.9256 36.5722 20.9457L36.6122 20.948C36.7231 21.0957 36.9099 21.2095 36.9435 21.4006C36.9536 21.4225 36.9744 21.4659 36.9849 21.4874C36.9978 21.5779 37.0006 21.6726 36.978 21.7622C36.9458 21.7987 36.9334 21.8408 36.9412 21.8888C36.8975 22.0781 36.7323 22.2467 36.5722 22.3482C33.8907 22.3642 31.2082 22.3505 28.5267 22.3551C28.0229 22.3496 27.5191 22.3656 27.0157 22.3464L26.9752 22.3441C26.8841 22.2225 26.7401 22.1311 26.6909 21.9839C26.6803 21.9629 26.6582 21.9208 26.6472 21.8998L26.637 21.8655C26.6352 21.7201 26.6361 21.5747 26.6398 21.4294C26.701 21.2392 26.8574 21.1043 26.9734 20.948Z" fill="#006BE5"/>
<path d="M8.82971 25.7148C9.13155 25.6755 9.4389 25.7079 9.74304 25.6864C11.0382 25.6892 12.3339 25.6883 13.6291 25.6869C14.6013 25.7098 15.5745 25.6819 16.5458 25.7088C16.8596 25.7582 17.178 25.7344 17.4941 25.7331C17.5994 25.7344 17.7053 25.7372 17.8092 25.7555C17.847 25.7856 17.8902 25.7971 17.9385 25.7902C18.1948 25.7696 18.3913 26.0028 18.4506 26.2304C18.4539 26.3584 18.4543 26.4864 18.4511 26.6149C18.3839 26.8138 18.268 27.0794 18.0324 27.1054C18.0099 27.1146 17.9652 27.1333 17.9427 27.1424C17.9119 27.1456 17.8497 27.1525 17.8189 27.1557C17.5175 27.1575 17.2139 27.1342 16.9143 27.1831C16.2002 27.2087 15.4838 27.1868 14.7688 27.1941C12.6859 27.1936 10.603 27.1955 8.5196 27.1932C8.36868 27.0378 8.18924 26.8842 8.14001 26.6634C8.13725 26.5194 8.13909 26.3749 8.14323 26.2314C8.19752 26.011 8.35626 25.7436 8.61116 25.7431C8.68524 25.7472 8.7584 25.7349 8.82971 25.7148Z" fill="#006BE5"/>
<path d="M28.1768 25.7084C28.9364 25.6759 29.6988 25.7024 30.4599 25.6937C31.9934 25.6937 33.527 25.6937 35.061 25.6951C35.2694 25.6992 35.4797 25.68 35.6876 25.707C35.9945 25.7669 36.3079 25.7189 36.6175 25.7472L36.6539 25.749C36.7183 25.8409 36.7965 25.9246 36.8467 26.0256C36.8692 26.0855 36.8982 26.1431 36.9318 26.1989L36.9447 26.2373C36.9543 26.2601 36.9737 26.3063 36.9833 26.3296C36.9957 26.4055 36.999 26.4864 36.9778 26.5623C36.946 26.6007 36.9341 26.6446 36.9419 26.6935L36.9405 26.7383C36.929 26.7603 36.9065 26.8037 36.895 26.8256C36.8292 26.9779 36.6769 27.0711 36.5724 27.1964C34.3814 27.1987 32.1908 27.1982 29.9998 27.1968C29.7605 27.1913 29.5203 27.206 29.282 27.1831C28.7878 27.1241 28.2881 27.1635 27.7922 27.1557C27.6219 27.1566 27.4498 27.1648 27.2823 27.131C27.211 27.1109 27.1374 27.0999 27.0643 27.1059C26.8733 27.1123 26.7348 26.9001 26.6906 26.7383C26.6796 26.7173 26.6584 26.6748 26.6479 26.6537L26.6377 26.6195C26.6359 26.4896 26.6359 26.3598 26.6382 26.23C26.6962 26.016 26.8682 25.7929 27.1089 25.7888C27.1567 25.7957 27.1991 25.7838 27.2368 25.7527C27.2561 25.7481 27.2948 25.7385 27.3141 25.734C27.6017 25.7344 27.8911 25.7573 28.1768 25.7084Z" fill="#006BE5"/>
<path d="M18.2029 0.101227C18.444 0.0884285 18.6874 0.0760841 18.9253 0.12957C18.6837 0.135513 18.4399 0.160656 18.2029 0.101227Z" fill="#006BE5"/>
<path d="M25.5629 0.129112C25.6738 0.0971107 25.7889 0.0896606 25.9044 0.0905762C27.0284 0.0992622 28.1533 0.0838585 29.2778 0.102142C29.166 0.118141 29.0542 0.135056 28.9419 0.134598C27.8156 0.128197 26.6888 0.15517 25.5629 0.129112Z" fill="#006BE5"/>
<path d="M32.1167 1.64637L32.1622 1.64225C32.1581 3.42603 32.1659 5.2098 32.1567 6.99357L32.1199 6.99128C32.1162 5.2098 32.1135 3.42831 32.1167 1.64637Z" fill="#006BE5"/>
<path d="M19.1346 0.145569C19.2018 0.113567 19.2819 0.123627 19.3307 0.182598C19.2626 0.208199 19.1871 0.197227 19.1346 0.145569Z" fill="#006BE5"/>
<path d="M18.2264 30.6247C18.288 30.6205 18.3497 30.6333 18.4072 30.6576C18.3663 30.7143 18.2245 30.7065 18.2264 30.6247Z" fill="#006BE5"/>
<path d="M18.4534 16.6744C18.5237 16.7841 18.5233 16.9528 18.4492 17.0606C18.4538 16.9317 18.4557 16.8028 18.4534 16.6744Z" fill="#006BE5"/>
<path d="M3.28059 1.15448C3.27921 0.933685 3.22722 0.704659 3.30268 0.490257C3.32706 0.711971 3.31418 0.934597 3.28059 1.15448Z" fill="#006BE5"/>
<path d="M41.7887 0.488884C41.8614 0.703739 41.8122 0.933228 41.8117 1.15448C41.7749 0.934597 41.7634 0.710598 41.7887 0.488884Z" fill="#006BE5"/>
<path d="M8.1071 16.6065L8.14917 16.5996C8.13905 16.621 8.11835 16.6649 8.10822 16.6869L8.08594 16.6508L8.1071 16.6065Z" fill="#006BE5"/>
<path d="M9.37569 1.65597C12.6153 1.64088 15.8559 1.63494 19.0955 1.66237C19.1738 1.66145 19.2557 1.65368 19.3288 1.68797C16.4135 1.6962 13.4971 1.70215 10.5814 1.67472C10.1793 1.65873 9.77691 1.6898 9.37569 1.65597Z" fill="#006BE5"/>
<path d="M26.3633 1.65549C26.9035 1.63721 27.4445 1.64361 27.9847 1.65732C27.4464 1.69664 26.9048 1.70075 26.3651 1.68932L26.3633 1.65549Z" fill="#006BE5"/>
<path d="M30.6434 1.645L30.689 1.64637C30.6894 4.98306 30.6894 8.3202 30.689 11.6573C30.6867 11.906 30.7 12.1556 30.6756 12.4043C30.6572 12.3403 30.6444 12.2751 30.6426 12.2088C30.644 8.68793 30.6453 5.16637 30.6434 1.645Z" fill="#006BE5"/>
<path d="M35.4755 1.64225L35.5206 1.64591C35.5178 3.71631 35.5289 5.78717 35.5105 7.85757L35.481 7.86123C35.4649 5.78854 35.4819 3.71494 35.4755 1.64225Z" fill="#006BE5"/>
<path d="M3.23531 2.44039C3.21644 2.18576 3.20264 1.92885 3.25831 1.67742C3.26522 1.93159 3.29512 2.18941 3.23531 2.44039Z" fill="#006BE5"/>
<path d="M25.8672 1.73846C25.8709 1.64977 26.0356 1.65572 26.0839 1.71194C26.014 1.73526 25.9403 1.74669 25.8672 1.73846Z" fill="#006BE5"/>
<path d="M41.8352 1.67654C41.8895 1.92842 41.8743 2.1858 41.8572 2.44088C41.7956 2.18991 41.826 1.93117 41.8352 1.67654Z" fill="#006BE5"/>
<path d="M23.4151 38.3929C23.3594 38.4436 23.3493 38.5209 23.3778 38.5895C23.433 38.5378 23.444 38.4601 23.4151 38.3929Z" fill="#006BE5"/>
<path d="M25.63 1.7858C25.6438 1.77071 25.671 1.73963 25.6848 1.72454L25.7207 1.74511C25.6977 1.75517 25.6526 1.77574 25.63 1.7858Z" fill="#006BE5"/>
<path d="M25.5044 1.79037L25.55 1.76934L25.5863 1.78946C25.5642 1.79997 25.5192 1.821 25.4966 1.83105L25.5044 1.79037Z" fill="#006BE5"/>
<path d="M25.3669 1.8818C25.2574 1.89871 25.1373 1.92386 25.0733 2.02397C25.1768 1.98969 25.2758 1.94214 25.3669 1.8818Z" fill="#006BE5"/>
<path d="M3.16476 3.24112C3.17857 3.14603 3.19743 3.05186 3.21538 2.95769C3.21492 3.06786 3.21906 3.17849 3.22136 3.28866C2.87904 3.29232 2.53717 3.29597 2.19531 3.28226C2.51463 3.21872 2.84131 3.25757 3.16476 3.24112Z" fill="#006BE5"/>
<path d="M41.877 2.9572C41.8944 3.05183 41.9124 3.14646 41.9262 3.242C42.2492 3.25754 42.5768 3.21732 42.8966 3.28131C42.5542 3.29731 42.2115 3.2932 41.8691 3.28909C41.8714 3.17846 41.876 3.06783 41.877 2.9572Z" fill="#006BE5"/>
<path d="M0.714553 3.33094C0.905499 3.2706 1.10565 3.29208 1.30211 3.30534C1.10795 3.3378 0.91102 3.34465 0.714553 3.33094Z" fill="#006BE5"/>
<path d="M43.6055 3.30284C43.8622 3.30009 44.124 3.25895 44.3757 3.32843C44.1185 3.34672 43.8604 3.34306 43.6055 3.30284Z" fill="#006BE5"/>
<path d="M0.456891 3.36934C0.49554 3.33094 0.541091 3.31952 0.594464 3.33506C0.562716 3.40271 0.516705 3.41414 0.456891 3.36934Z" fill="#006BE5"/>
<path d="M44.4891 3.33917C44.5461 3.3154 44.5958 3.32683 44.6382 3.37346C44.5779 3.40591 44.5282 3.39448 44.4891 3.33917Z" fill="#006BE5"/>
<path d="M36.978 21.7622C36.9458 21.7987 36.9334 21.8408 36.9412 21.8888C37.0181 21.8669 37.0305 21.8248 36.978 21.7622Z" fill="#006BE5"/>
<path d="M0 3.81564L0.0335881 3.773C0.0533729 3.93163 0.0478516 4.09209 0.0469314 4.25163C0.0441707 6.17163 0.0506122 8.09163 0.04141 10.0116C0.0427904 11.2605 0.0170241 12.5099 0.0404898 13.7579L0 13.7603V3.81564Z" fill="#006BE5"/>
<path d="M45.0582 3.77254L45.0915 3.81652V12.8163L45.0527 12.8555C45.0684 12.1666 45.0532 11.4777 45.0546 10.7888C45.0431 8.68591 45.044 6.58305 45.0449 4.4802C45.0486 4.24431 45.0302 4.00751 45.0582 3.77254Z" fill="#006BE5"/>
<path d="M23.385 3.99089L23.4176 4.02929C23.4172 4.41283 23.4494 4.80141 23.3877 5.18175C23.3679 4.78541 23.3693 4.38723 23.385 3.99089Z" fill="#006BE5"/>
<path d="M42.5068 4.79692C42.8413 4.75624 43.1814 4.79967 43.5177 4.77361C43.5347 6.67167 43.52 8.57064 43.5251 10.4687C43.5251 18.209 43.5246 25.9494 43.5251 33.6902C40.688 33.6824 37.8505 33.6888 35.0135 33.687C34.2736 33.6815 33.5328 33.697 32.793 33.6792C33.2706 33.6271 33.7518 33.6692 34.2313 33.6559C37.084 33.6559 39.9366 33.6559 42.7893 33.6559C43.0171 33.6596 43.2453 33.6568 43.4735 33.6468C43.4772 24.0326 43.4731 14.4184 43.4754 4.80424C43.1524 4.80378 42.8294 4.80972 42.5068 4.79692Z" fill="#006BE5"/>
<path d="M1.67435 4.81117C2.09765 4.797 2.52141 4.80843 2.94471 4.79837C3.03351 4.81117 3.14854 4.78054 3.21342 4.85826C3.22446 4.94511 3.22262 5.03288 3.22262 5.1202C3.21388 7.15037 3.2332 9.18146 3.20882 11.2116C3.17063 10.7975 3.20784 10.3811 3.17517 9.96697C3.16183 8.2632 3.18253 6.55897 3.16505 4.8552C2.68055 4.84925 2.19703 4.81894 1.71299 4.84363L1.67435 4.81117Z" fill="#006BE5"/>
<path d="M42.1881 4.82077C42.1384 4.76866 41.9833 4.76088 41.9723 4.84363C42.0436 4.87106 42.1181 4.83997 42.1881 4.82077Z" fill="#006BE5"/>
<path d="M1.61315 4.84546L1.66514 4.84363C1.66146 5.00226 1.64904 5.16043 1.62419 5.31768C1.60717 5.16088 1.60993 5.00271 1.61315 4.84546Z" fill="#006BE5"/>
<path d="M41.8672 5.11995C41.8722 5.02167 41.8525 4.91287 41.9146 4.8283C41.9132 5.31013 41.9353 5.79424 41.8805 6.27425C41.8617 5.88979 41.8713 5.50487 41.8672 5.11995Z" fill="#006BE5"/>
<path d="M12.5059 6.48713C12.5772 6.44094 12.6637 6.4478 12.7447 6.44598C13.1601 6.44415 13.5756 6.44231 13.9906 6.44689C14.0569 6.44597 14.1241 6.45375 14.183 6.48667C13.6239 6.49353 13.0644 6.49581 12.5059 6.48713Z" fill="#006BE5"/>
<path d="M11.8806 6.53864C11.9003 6.44491 12.0793 6.46091 12.1419 6.51532C12.0568 6.53818 11.9684 6.54595 11.8806 6.53864Z" fill="#006BE5"/>
<path d="M14.4507 6.51029C14.5133 6.45589 14.557 6.46595 14.5814 6.54046C14.5331 6.55052 14.4899 6.54046 14.4507 6.51029Z" fill="#006BE5"/>
<path d="M14.7245 6.54595L14.7605 6.52605C14.7743 6.54159 14.8014 6.57201 14.8147 6.58755C14.7921 6.57703 14.7471 6.55646 14.7245 6.54595Z" fill="#006BE5"/>
<path d="M14.8566 6.59029L14.8938 6.56902L14.9393 6.59005L14.9463 6.63144C14.9237 6.62092 14.8791 6.60035 14.8566 6.59029Z" fill="#006BE5"/>
<path d="M15.1768 6.91258C15.2546 6.93315 15.2665 6.97521 15.2132 7.03875C15.1819 7.00172 15.1699 6.95966 15.1768 6.91258Z" fill="#006BE5"/>
<path d="M18.4514 30.6685C18.5011 30.6631 18.5462 30.6754 18.5867 30.7056C18.5227 30.7563 18.4776 30.744 18.4514 30.6685Z" fill="#006BE5"/>
<path d="M1.57496 7.05071C1.58324 7.0338 1.59935 7.00089 1.60717 6.98443C1.61637 8.14649 1.60477 9.30912 1.61352 10.4712L1.56484 10.4715C1.55794 9.33094 1.5584 8.19037 1.57496 7.05071Z" fill="#006BE5"/>
<path d="M11.3184 7.39165C11.2296 7.39211 11.2301 7.19005 11.318 7.18914C11.3189 7.25679 11.3189 7.32399 11.3184 7.39165Z" fill="#006BE5"/>
<path d="M15.2132 7.45338C15.1814 7.48995 15.169 7.53155 15.1759 7.57909C15.2536 7.55852 15.2661 7.51692 15.2132 7.45338Z" fill="#006BE5"/>
<path d="M14.8575 7.90137C14.8796 7.8904 14.9237 7.86846 14.9458 7.85749L14.9389 7.89874L14.8938 7.92113L14.8575 7.90137Z" fill="#006BE5"/>
<path d="M14.7222 7.94481C14.7452 7.93475 14.7912 7.91463 14.8142 7.90503C14.8 7.92012 14.7723 7.95021 14.7585 7.96576L14.7222 7.94481Z" fill="#006BE5"/>
<path d="M11.9155 7.98412C11.8783 7.95349 11.8364 7.94024 11.7885 7.94526C11.8083 8.02343 11.8507 8.03669 11.9155 7.98412Z" fill="#006BE5"/>
<path d="M14.6233 7.94983C14.5635 7.94389 14.505 7.9576 14.4503 7.97818C14.4839 8.0408 14.6307 8.03348 14.6233 7.94983Z" fill="#006BE5"/>
<path d="M12.0416 8.00332C12.7861 7.9992 13.5301 7.9992 14.2745 8.00332C14.2018 8.04721 14.1147 8.03983 14.0338 8.04257C13.4812 8.04943 12.9281 8.04577 12.3755 8.04532C12.2637 8.03846 12.1442 8.05818 12.0416 8.00332Z" fill="#006BE5"/>
<path d="M33.6847 8.11585C33.786 8.06693 33.9019 8.07288 34.0031 8.11905C33.9065 8.15974 33.7782 8.16568 33.6847 8.11585Z" fill="#006BE5"/>
<path d="M34.0469 8.13201C34.0713 8.14069 34.1196 8.15761 34.1435 8.16629L34.1085 8.19007L34.0598 8.17269L34.0469 8.13201Z" fill="#006BE5"/>
<path d="M41.8333 8.46283L41.8701 8.45871C41.8743 13.5933 41.8633 18.7279 41.8633 23.863C41.8559 24.1588 41.8844 24.456 41.8407 24.7504C41.8007 24.2123 41.8338 23.6711 41.8232 23.1316C41.8246 18.5908 41.8214 14.0496 41.8227 9.50877C41.8195 9.15997 41.8444 8.81163 41.8333 8.46283Z" fill="#006BE5"/>
<path d="M32.177 8.62283C32.2331 8.93368 32.2041 9.24957 32.2023 9.56271C32.1356 9.25505 32.1553 8.9346 32.177 8.62283Z" fill="#006BE5"/>
<path d="M35.4322 9.52227C35.4272 9.28364 35.4175 9.04319 35.4626 8.8073C35.4783 9.02262 35.4852 9.23976 35.4709 9.45553C35.4612 9.47199 35.4419 9.50536 35.4322 9.52227Z" fill="#006BE5"/>
<path d="M23.3516 10.0116C23.3608 9.81186 23.3295 9.6098 23.3663 9.41231C23.3635 12.0194 23.3788 14.6269 23.3751 17.2345C23.3728 22.1108 23.3834 26.9876 23.3572 31.8639C23.3577 31.9622 23.376 32.0601 23.4008 32.1556L23.4095 32.1922C23.3893 32.1895 23.3488 32.184 23.3281 32.1808C23.3253 27.3209 23.3267 22.4605 23.3263 17.6002C23.3235 15.0704 23.3488 12.541 23.3516 10.0116Z" fill="#006BE5"/>
<path d="M1.56484 10.4715L1.61352 10.4712C1.6241 11.7809 1.61482 13.0908 1.61804 14.4005C1.61252 15.8176 1.63139 17.2353 1.60332 18.6519C1.60194 23.5744 1.60424 28.4974 1.60194 33.4199C1.60654 33.5155 1.62373 33.6098 1.63984 33.7049C1.56024 33.6939 1.56852 33.6153 1.56714 33.5549C1.57358 25.8603 1.563 18.1657 1.56484 10.4715Z" fill="#006BE5"/>
<path d="M21.7267 10.8273C21.73 10.8534 21.7369 10.905 21.7405 10.9311C21.7461 13.4586 21.7654 15.9866 21.7631 18.5146C21.7626 22.9795 21.764 27.444 21.7603 31.9089C21.7447 32.0067 21.8123 32.1695 21.6816 32.2047L21.6918 32.1594C21.7594 31.929 21.73 31.6876 21.7323 31.4518C21.7244 29.5624 21.7217 27.6726 21.7152 25.7832C21.7166 20.7976 21.7069 15.8125 21.7267 10.8273Z" fill="#006BE5"/>
<path d="M11.5938 11.2467C13.7254 11.2458 15.8567 11.2426 17.9884 11.2472L17.9842 11.2975C15.8548 11.2792 13.7241 11.2961 11.5942 11.2893L11.5938 11.2467Z" fill="#006BE5"/>
<path d="M9.00812 11.3343C9.07943 11.2872 9.16609 11.2949 9.24753 11.2926C9.48403 11.2944 9.72175 11.2762 9.95687 11.3096C9.64307 11.3594 9.32467 11.3347 9.00812 11.3343Z" fill="#006BE5"/>
<path d="M18.4518 26.2308C18.524 26.3382 18.5263 26.5073 18.4523 26.6152C18.4555 26.4868 18.455 26.3588 18.4518 26.2308Z" fill="#006BE5"/>
<path d="M8.525 11.39C8.51074 11.3046 8.66119 11.2927 8.69294 11.3599C8.63911 11.38 8.58251 11.3914 8.525 11.39Z" fill="#006BE5"/>
<path d="M8.11412 11.929C8.06121 11.865 8.07364 11.823 8.15093 11.8019C8.15783 11.8495 8.14541 11.892 8.11412 11.929Z" fill="#006BE5"/>
<path d="M18.4519 11.94C18.537 11.9633 18.5379 12.175 18.4501 12.1969C18.4501 12.111 18.4505 12.0255 18.4519 11.94Z" fill="#006BE5"/>
<path d="M31.2738 12.8473C31.2968 12.7709 31.1514 12.7234 31.1012 12.7705C31.144 12.8194 31.2048 12.8596 31.2738 12.8473Z" fill="#006BE5"/>
<path d="M36.8467 26.0256C36.9346 25.9822 36.9994 26.1454 36.9318 26.1989C36.8982 26.1431 36.8692 26.0855 36.8467 26.0256Z" fill="#006BE5"/>
<path d="M24.7034 31.2957C24.7512 31.2519 24.8097 31.2199 24.8759 31.2167C24.9063 31.2962 24.7531 31.3543 24.7034 31.2957Z" fill="#006BE5"/>
<path d="M11.8984 12.8286C12.2863 12.7939 12.6765 12.8145 13.0657 12.8012C14.5252 12.7962 15.9847 12.7985 17.4442 12.8058C17.2914 12.8455 17.1327 12.8199 16.9771 12.8259C15.3824 12.8611 13.7872 12.8428 12.192 12.8474C12.094 12.8465 11.996 12.8387 11.8984 12.8286Z" fill="#006BE5"/>
<path d="M31.5314 12.8066L31.5774 12.7888L31.6119 12.8125C31.5894 12.8212 31.5439 12.8386 31.5213 12.8473L31.5314 12.8066Z" fill="#006BE5"/>
<path d="M25.3958 31.0329C25.4193 31.0233 25.4658 31.0032 25.4892 30.9936C25.475 31.0082 25.446 31.0384 25.4317 31.0535L25.3958 31.0329Z" fill="#006BE5"/>
<path d="M36.0258 12.813L36.0603 12.7906L36.1063 12.8089L36.1155 12.8496C36.093 12.8404 36.0479 12.8221 36.0258 12.813Z" fill="#006BE5"/>
<path d="M36.3651 12.809L36.4116 12.7912L36.4466 12.815C36.4236 12.8236 36.378 12.841 36.3555 12.8497L36.3651 12.809Z" fill="#006BE5"/>
<path d="M45.0527 12.8555L45.0901 12.8161L45.0909 22.2C45.0316 21.8274 45.0734 21.4493 45.061 21.0745C45.0734 19.1239 45.0343 17.1737 45.0403 15.2231C45.0481 14.434 45.0233 13.6441 45.0527 12.8555Z" fill="#006BE5"/>
<path d="M0 13.7603L0.0404898 13.7579C0.0648757 14.2457 0.0450909 14.7344 0.0515325 15.2231C0.0616549 17.1581 0.0138033 19.0937 0.033128 21.0288C0.0377291 21.176 0.0197848 21.3223 0 21.4681V13.7603Z" fill="#006BE5"/>
<path d="M16.8697 16.1091C17.1144 16.0839 17.361 16.0844 17.6062 16.1027L17.5672 16.1301C17.3348 16.1529 17.1011 16.1378 16.8697 16.1091Z" fill="#006BE5"/>
<path d="M27.3646 16.1323C27.4092 16.1049 27.4591 16.0921 27.512 16.0934C27.7333 16.0893 27.9554 16.0811 28.1762 16.109C27.907 16.1492 27.6351 16.1419 27.3646 16.1323Z" fill="#006BE5"/>
<path d="M17.9026 16.1534C17.967 16.1013 18.0098 16.1136 18.0314 16.1904C17.9827 16.1968 17.9399 16.1845 17.9026 16.1534Z" fill="#006BE5"/>
<path d="M27.0566 16.188C27.0815 16.113 27.1257 16.1011 27.1892 16.1528C27.1496 16.1843 27.1054 16.1958 27.0566 16.188Z" fill="#006BE5"/>
<path d="M26.9324 16.1966L26.9757 16.1706L27.014 16.1876C26.9928 16.1999 26.9505 16.2255 26.9293 16.2379L26.9324 16.1966Z" fill="#006BE5"/>
<path d="M36.9409 16.6036C37.0182 16.6246 37.0306 16.6671 36.9786 16.7307C36.9464 16.6937 36.934 16.6511 36.9409 16.6036Z" fill="#006BE5"/>
<path d="M26.6371 17.0653C26.5635 16.9387 26.5677 16.7545 26.6417 16.6287C26.6376 16.7741 26.6362 16.9195 26.6371 17.0653Z" fill="#006BE5"/>
<path d="M36.9777 16.9172C36.9459 16.9556 36.9335 16.9995 36.9418 17.0484C37.0168 17.0233 37.0287 16.9794 36.9777 16.9172Z" fill="#006BE5"/>
<path d="M8.1071 17.0085C8.11769 17.03 8.13839 17.0734 8.14897 17.0953L8.10756 17.0885L8.08594 17.0441L8.1071 17.0085Z" fill="#006BE5"/>
<path d="M26.6468 17.0996C26.6583 17.1202 26.6818 17.1613 26.6933 17.1819L26.6509 17.178L26.627 17.1354L26.6468 17.0996Z" fill="#006BE5"/>
<path d="M26.8249 30.6571C26.8797 30.6324 26.9391 30.6187 26.9998 30.6265C27.0044 30.7079 26.8608 30.7156 26.8249 30.6571Z" fill="#006BE5"/>
<path d="M36.8981 17.1814C36.9087 17.159 36.9298 17.1147 36.9404 17.0923L36.961 17.129L36.9394 17.1743L36.8981 17.1814Z" fill="#006BE5"/>
<path d="M27.0167 17.5019C27.0388 17.5133 27.0825 17.5362 27.1046 17.5476L27.0682 17.5661L27.0236 17.5428L27.0167 17.5019Z" fill="#006BE5"/>
<path d="M17.8051 17.5884C17.8276 17.5797 17.8722 17.5618 17.8948 17.5527L17.8857 17.5931L17.8397 17.6114L17.8051 17.5884Z" fill="#006BE5"/>
<path d="M27.2822 17.5842C27.2426 17.554 27.1985 17.5421 27.1502 17.5494C27.175 17.6249 27.2187 17.6363 27.2822 17.5842Z" fill="#006BE5"/>
<path d="M8.56235 17.5966C9.80787 17.6071 11.0543 17.5815 12.2989 17.6304C11.0529 17.6569 9.80699 17.6471 8.56055 17.6435L8.56235 17.5966Z" fill="#006BE5"/>
<path d="M17.6353 17.6012C17.5 17.5984 17.3647 17.6053 17.2313 17.6249C17.3634 17.6423 17.5161 17.6853 17.6353 17.6012Z" fill="#006BE5"/>
<path d="M28.1233 17.6331C27.8698 17.6029 27.6149 17.5924 27.36 17.6025C27.6002 17.6962 27.8707 17.6281 28.1233 17.6331Z" fill="#006BE5"/>
<path d="M32.3828 17.6331C33.7788 17.5819 35.1766 17.6089 36.5735 17.592L36.5795 17.6409C35.1807 17.6523 33.7816 17.6487 32.3828 17.6331Z" fill="#006BE5"/>
<path d="M3.22078 20.7092L3.26127 20.7051C3.26679 22.2452 3.27277 23.7858 3.26725 25.3259C3.25897 26.0473 3.28519 26.77 3.25299 27.4905C3.20974 27.0754 3.24107 26.6568 3.23095 26.2404C3.21162 24.3967 3.2217 22.5529 3.22078 20.7092Z" fill="#006BE5"/>
<path d="M8.51172 20.8928C11.0272 20.8909 13.5426 20.8937 16.058 20.8905C16.3037 20.8886 16.5494 20.9033 16.7956 20.9014C16.8752 20.9023 16.959 20.8985 17.034 20.9319C15.6661 20.9506 14.2978 20.93 12.9298 20.9346C11.4593 20.9401 9.9879 20.9232 8.51784 20.9428L8.51172 20.8928Z" fill="#006BE5"/>
<path d="M27.0078 20.8937C30.1987 20.8915 33.3891 20.8924 36.58 20.8928L36.5722 20.9457C34.1359 20.9256 31.6992 20.943 29.2629 20.937C28.5134 20.9425 27.7629 20.9256 27.0139 20.9462L27.0078 20.8937Z" fill="#006BE5"/>
<path d="M17.8572 20.9607C17.9046 20.9026 18.0744 20.8971 18.0744 20.9899C18.0003 20.9922 17.9276 20.9812 17.8572 20.9607Z" fill="#006BE5"/>
<path d="M36.9435 21.4006L36.9843 21.4074L37.0059 21.4517L36.9849 21.4874C36.9744 21.4659 36.9536 21.4225 36.9435 21.4006Z" fill="#006BE5"/>
<path d="M26.637 21.8655C26.5639 21.7389 26.568 21.556 26.6398 21.4294C26.6361 21.5747 26.6352 21.7201 26.637 21.8655Z" fill="#006BE5"/>
<path d="M18.4461 21.5828C18.5207 21.6061 18.5317 21.65 18.4802 21.7154C18.4493 21.6756 18.4378 21.6313 18.4461 21.5828Z" fill="#006BE5"/>
<path d="M18.44 21.8864C18.4364 21.8375 18.4502 21.7945 18.4814 21.7575C18.5321 21.8229 18.5178 21.8663 18.44 21.8864Z" fill="#006BE5"/>
<path d="M26.6484 21.8996C26.6594 21.9206 26.6815 21.9627 26.6921 21.9837L26.6502 21.9782L26.6276 21.9352L26.6484 21.8996Z" fill="#006BE5"/>
<path d="M8.51724 22.3482C10.9075 22.3655 13.2987 22.3509 15.6895 22.3555C16.4845 22.3495 17.2796 22.3683 18.0742 22.3459L18.082 22.3975C14.8916 22.3993 11.7017 22.3984 8.51172 22.3975L8.51724 22.3482Z" fill="#006BE5"/>
<path d="M27.0157 22.3464C27.5191 22.3656 28.0229 22.3496 28.5267 22.3551C31.2082 22.3505 33.8907 22.3642 36.5722 22.3482L36.5795 22.398C33.3891 22.3985 30.1982 22.4003 27.0078 22.3976L27.0157 22.3464Z" fill="#006BE5"/>
<path d="M9.74414 25.6867C9.78739 25.6533 9.83616 25.6382 9.89092 25.6414C11.0729 25.6405 12.255 25.6433 13.437 25.6401C13.5046 25.6387 13.5755 25.6414 13.6303 25.6871C12.335 25.6885 11.0394 25.6894 9.74414 25.6867Z" fill="#006BE5"/>
<path d="M8.61116 25.7431C8.61254 25.6513 8.78094 25.6577 8.82971 25.7148C8.7584 25.7349 8.68524 25.7472 8.61116 25.7431Z" fill="#006BE5"/>
<path d="M16.5469 25.7087C16.84 25.6781 17.1363 25.6867 17.4294 25.7023C17.4459 25.71 17.4791 25.7251 17.4952 25.7329C17.1791 25.7343 16.8607 25.758 16.5469 25.7087Z" fill="#006BE5"/>
<path d="M27.3125 25.7337C27.3857 25.6848 27.4749 25.6894 27.5591 25.6894C27.7643 25.6912 27.9705 25.6816 28.1752 25.7081C27.8895 25.757 27.6001 25.7342 27.3125 25.7337Z" fill="#006BE5"/>
<path d="M35.6876 25.707C35.9996 25.6777 36.3133 25.6968 36.6261 25.6936L36.6175 25.7472C36.3079 25.7189 35.9945 25.7669 35.6876 25.707Z" fill="#006BE5"/>
<path d="M17.8105 25.7555C17.8745 25.7025 17.9178 25.7139 17.9398 25.7903C17.8915 25.7971 17.8483 25.7857 17.8105 25.7555Z" fill="#006BE5"/>
<path d="M27.1089 25.7888C27.1301 25.712 27.1724 25.7001 27.2368 25.7527C27.1991 25.7838 27.1567 25.7957 27.1089 25.7888Z" fill="#006BE5"/>
<path d="M8.14098 26.6636C8.07104 26.5393 8.06828 26.3532 8.1442 26.2316C8.14006 26.3752 8.13822 26.5196 8.14098 26.6636Z" fill="#006BE5"/>
<path d="M26.6377 26.6195C26.5697 26.5065 26.5669 26.3411 26.6382 26.23C26.6359 26.3598 26.6359 26.4896 26.6377 26.6195Z" fill="#006BE5"/>
<path d="M36.9447 26.2373C36.9598 26.2515 36.9904 26.2804 37.0056 26.2946L36.9833 26.3296C36.9737 26.3063 36.9543 26.2601 36.9447 26.2373Z" fill="#006BE5"/>
<path d="M36.9778 26.5623C36.946 26.6007 36.9341 26.6446 36.9419 26.6935C37.0174 26.6688 37.0293 26.6249 36.9778 26.5623Z" fill="#006BE5"/>
<path d="M26.6479 26.6537C26.6584 26.6748 26.6796 26.7173 26.6906 26.7383L26.6482 26.7326L26.6266 26.6892L26.6479 26.6537Z" fill="#006BE5"/>
<path d="M18.5494 35.4717C18.4997 35.4146 18.4219 35.4036 18.3543 35.432C18.404 35.4873 18.4813 35.4987 18.5494 35.4717Z" fill="#006BE5"/>
<path d="M36.895 26.8256C36.9065 26.8037 36.929 26.7603 36.9405 26.7383L36.9594 26.7755L36.9359 26.8198L36.895 26.8256Z" fill="#006BE5"/>
<path d="M17.9427 27.1424C17.9652 27.1333 18.0099 27.1146 18.0324 27.1054L18.0248 27.1463L17.9788 27.1651L17.9427 27.1424Z" fill="#006BE5"/>
<path d="M27.2823 27.131C27.211 27.1109 27.1374 27.0999 27.0643 27.1059C27.0661 27.1963 27.2345 27.1886 27.2823 27.131Z" fill="#006BE5"/>
<path d="M16.9143 27.1831C17.2139 27.1342 17.5175 27.1575 17.8189 27.1557C17.7458 27.2009 17.6581 27.1953 17.5762 27.1985C17.3553 27.2003 17.1338 27.2128 16.9143 27.1831Z" fill="#006BE5"/>
<path d="M27.791 27.1558C28.287 27.1636 28.7867 27.1243 29.2809 27.1832C28.7862 27.2243 28.2884 27.1887 27.7924 27.1928L27.791 27.1558Z" fill="#006BE5"/>
<path d="M45.0624 28.4802C45.072 28.1355 45.0385 27.789 45.0909 27.4471L45.0906 33.1772L45.0518 33.1266C45.0205 31.5778 45.0702 30.0285 45.0624 28.4802Z" fill="#006BE5"/>
<path d="M41.7924 28.2512C41.797 28.1113 41.7721 27.9668 41.82 27.832C41.826 28.3069 41.8261 28.7826 41.8247 29.2576C41.8215 29.7952 41.8388 30.3335 41.7887 30.8692C41.7597 29.997 41.7781 29.1239 41.7924 28.2512Z" fill="#006BE5"/>
<path d="M0 27.9495C0.016564 28.0953 0.0326679 28.2416 0.028987 28.3883C0.0151837 30.2027 0.0598145 32.0162 0.0464712 33.8301L0 33.8287V27.9495Z" fill="#006BE5"/>
<path d="M3.27047 29.2477C3.30774 29.3209 3.30176 29.4045 3.30452 29.4845C3.30866 29.9627 3.33305 30.4423 3.299 30.9195C3.23458 30.365 3.27599 29.8045 3.27047 29.2477Z" fill="#006BE5"/>
<path d="M7.71975 30.4523C9.21051 30.4313 10.7027 30.4527 12.1939 30.4541C12.4299 30.4522 12.6659 30.44 12.9001 30.477C12.1902 30.5108 11.4779 30.4816 10.7666 30.4925C9.77322 30.4925 8.77892 30.4985 7.786 30.4793C7.76944 30.4724 7.73631 30.4587 7.71975 30.4523Z" fill="#006BE5"/>
<path d="M19.7383 31.0388C19.7613 31.048 19.8073 31.0663 19.8303 31.0754L19.7954 31.0978L19.7489 31.0791L19.7383 31.0388Z" fill="#006BE5"/>
<path d="M29.6132 30.4775C29.9238 30.429 30.2383 30.4621 30.5511 30.4475C31.1065 30.4438 31.6626 30.4413 32.2184 30.45C32.1471 30.498 32.0587 30.4834 31.9787 30.4866C31.19 30.488 30.4005 30.5104 29.6132 30.4775Z" fill="#006BE5"/>
<path d="M19.8345 34.285C19.857 34.2932 19.903 34.3092 19.926 34.317L19.892 34.3421L19.8451 34.3257L19.8345 34.285Z" fill="#006BE5"/>
<path d="M15.4607 30.4957C15.9557 30.4935 16.4545 30.4688 16.9468 30.5268C16.4508 30.552 15.9534 30.5332 15.457 30.5328L15.4607 30.4957Z" fill="#006BE5"/>
<path d="M27.8662 30.5264C28.1441 30.4692 28.4289 30.493 28.7105 30.4939L28.7086 30.5323C28.428 30.5341 28.1464 30.5515 27.8662 30.5264Z" fill="#006BE5"/>
<path d="M17.2891 30.5433C17.4378 30.5273 17.5873 30.5383 17.7332 30.5725C17.5864 30.5721 17.423 30.6205 17.2891 30.5433Z" fill="#006BE5"/>
<path d="M27.4705 30.5634C27.5404 30.5401 27.614 30.5268 27.6886 30.5355C27.6844 30.6237 27.5188 30.6183 27.4705 30.5634Z" fill="#006BE5"/>
<path d="M17.9098 30.5817C17.9839 30.5702 18.0575 30.5858 18.1275 30.61C18.0778 30.6631 17.9154 30.669 17.9098 30.5817Z" fill="#006BE5"/>
<path d="M27.1493 30.6105C27.2027 30.5849 27.2616 30.5712 27.3219 30.5799C27.3292 30.6617 27.1848 30.6681 27.1493 30.6105Z" fill="#006BE5"/>
<path d="M26.5944 30.7069C26.6331 30.6749 26.6777 30.6631 26.7279 30.6708C26.7021 30.7453 26.6575 30.7572 26.5944 30.7069Z" fill="#006BE5"/>
<path d="M26.4081 30.7577C26.4311 30.7485 26.4776 30.7298 26.5006 30.7202C26.4863 30.7348 26.4578 30.7645 26.4435 30.7792L26.4081 30.7577Z" fill="#006BE5"/>
<path d="M18.8282 30.7609C18.8774 30.754 18.9212 30.7673 18.9589 30.8002C18.8935 30.8491 18.8498 30.8359 18.8282 30.7609Z" fill="#006BE5"/>
<path d="M26.1771 30.7988C26.2167 30.7668 26.2613 30.7545 26.3119 30.7632C26.2866 30.8363 26.2415 30.8482 26.1771 30.7988Z" fill="#006BE5"/>
<path d="M19 30.8107C19.0235 30.8194 19.0704 30.8363 19.0943 30.845L19.0598 30.8679C19.0451 30.8537 19.0147 30.8249 19 30.8107Z" fill="#006BE5"/>
<path d="M25.9944 30.8455C26.0349 30.8139 26.081 30.8011 26.132 30.8071C26.1053 30.8811 26.0593 30.8939 25.9944 30.8455Z" fill="#006BE5"/>
<path d="M21.6726 38.3152C21.6947 38.2521 21.6786 38.2027 21.6234 38.1666C21.6022 38.2279 21.6188 38.2772 21.6726 38.3152Z" fill="#006BE5"/>
<path d="M25.8578 30.8907C25.8813 30.8825 25.9287 30.866 25.9521 30.8578C25.9369 30.872 25.9066 30.9003 25.8914 30.9145L25.8578 30.8907Z" fill="#006BE5"/>
<path d="M19.3316 30.9003C19.3537 30.9113 19.3983 30.9328 19.4208 30.9433L19.384 30.9629L19.3389 30.941L19.3316 30.9003Z" fill="#006BE5"/>
<path d="M19.465 30.9469C19.488 30.957 19.5345 30.9776 19.5575 30.9881L19.5211 31.0082C19.5073 30.9927 19.4793 30.962 19.465 30.9469Z" fill="#006BE5"/>
<path d="M25.5352 30.9885C25.5572 30.9779 25.6019 30.9565 25.6244 30.9455L25.6171 30.9862L25.572 31.0081L25.5352 30.9885Z" fill="#006BE5"/>
<path d="M19.6026 30.9931C19.6256 31.0032 19.6721 31.0233 19.6951 31.0333L19.6592 31.0539C19.6449 31.0388 19.6164 31.0082 19.6026 30.9931Z" fill="#006BE5"/>
<path d="M25.261 31.0768C25.284 31.0672 25.33 31.0489 25.3531 31.0393L25.3429 31.08L25.296 31.0992L25.261 31.0768Z" fill="#006BE5"/>
<path d="M19.9744 31.1284C19.9964 31.1371 20.0415 31.1554 20.0641 31.1645L20.0291 31.1879L19.9831 31.1691L19.9744 31.1284Z" fill="#006BE5"/>
<path d="M25.0296 31.1677C25.0517 31.1581 25.0958 31.1385 25.1179 31.1289L25.1097 31.17L25.0646 31.1901L25.0296 31.1677Z" fill="#006BE5"/>
<path d="M41.7353 31.2665L41.7804 31.2679C41.7836 31.3968 41.7813 31.528 41.7445 31.6528C41.7298 31.5243 41.7312 31.3949 41.7353 31.2665Z" fill="#006BE5"/>
<path d="M3.34409 31.6285C3.38872 31.5618 3.397 31.3981 3.31096 31.3735C3.31004 31.4576 3.29256 31.5545 3.34409 31.6285Z" fill="#006BE5"/>
<path d="M24.2456 31.5325C24.2677 31.5225 24.3114 31.5024 24.3334 31.4923L24.3261 31.5339L24.2805 31.5549L24.2456 31.5325Z" fill="#006BE5"/>
<path d="M23.8835 31.7698C23.9037 31.757 23.9442 31.7309 23.9644 31.7181L23.9635 31.7602L23.9221 31.7867L23.8835 31.7698Z" fill="#006BE5"/>
<path d="M3.75727 31.9572C3.75497 31.8781 3.60911 31.8407 3.54562 31.8754C3.59209 31.944 3.67813 31.9673 3.75727 31.9572Z" fill="#006BE5"/>
<path d="M41.3769 31.8731L41.4266 31.8589L41.4602 31.885C41.4353 31.8919 41.3866 31.906 41.3617 31.9129L41.3769 31.8731Z" fill="#006BE5"/>
<path d="M41.3198 31.9243C41.266 31.8736 41.1036 31.8667 41.0981 31.9563C41.1731 31.9627 41.2485 31.9499 41.3198 31.9243Z" fill="#006BE5"/>
<path d="M3.98824 31.9664C4.31492 31.9421 4.64298 31.9554 4.97012 31.9568V32.0007C4.64252 31.9947 4.31262 32.0221 3.98824 31.9664Z" fill="#006BE5"/>
<path d="M40.1111 31.9984C40.1788 31.9431 40.2685 31.9559 40.3508 31.9522C40.5404 31.949 40.7309 31.9463 40.9205 31.9659C40.6531 32.0148 40.3808 32.0011 40.1111 31.9984Z" fill="#006BE5"/>
<path d="M6.47699 32.0112C7.64613 31.9888 8.81527 32.0057 9.98442 31.9993C11.4264 32.0039 12.8679 31.9906 14.3099 32.0066C14.557 32.024 14.8091 31.992 15.0535 32.0418C13.2719 32.0532 11.4895 32.0439 9.70792 32.0471C8.6308 32.0311 7.55273 32.0655 6.47699 32.0112Z" fill="#006BE5"/>
<path d="M30.3604 32.0413C30.4672 32.0139 30.5785 32.0185 30.689 32.0185C32.4986 31.9828 34.3087 32.0052 36.1187 31.9993C37.2115 32.0061 38.3047 31.9851 39.3975 32.0125C38.3056 32.0642 37.2124 32.0395 36.1201 32.0464C34.2005 32.0432 32.28 32.0532 30.3604 32.0413Z" fill="#006BE5"/>
<path d="M16.7586 32.0875C16.5479 32.0061 16.304 32.0473 16.0823 32.0642C16.3059 32.1031 16.5332 32.0976 16.7586 32.0875Z" fill="#006BE5"/>
<path d="M28.1289 32.0578C28.5113 32.0386 28.8959 32.0341 29.2778 32.0615C28.9093 32.1072 28.537 32.093 28.1666 32.0898L28.1289 32.0578Z" fill="#006BE5"/>
<path d="M17.0996 32.1053C17.2275 32.0912 17.3563 32.0889 17.4851 32.0903L17.4888 32.1419C17.3582 32.1373 17.2284 32.1259 17.0996 32.1053Z" fill="#006BE5"/>
<path d="M27.6936 32.1122C27.6297 32.0601 27.4539 32.0455 27.4332 32.1392C27.5206 32.1465 27.609 32.1378 27.6936 32.1122Z" fill="#006BE5"/>
<path d="M17.8877 32.1844C17.8661 32.0912 17.6899 32.1058 17.6259 32.1579C17.7111 32.1817 17.7994 32.1931 17.8877 32.1844Z" fill="#006BE5"/>
<path d="M27.2818 32.1552C27.245 32.0939 27.1024 32.1044 27.107 32.1863C27.1668 32.1917 27.2262 32.1785 27.2818 32.1552Z" fill="#006BE5"/>
<path d="M18.1698 32.2329C18.1468 32.1579 18.1035 32.146 18.0396 32.1977C18.0773 32.2297 18.1206 32.2416 18.1698 32.2329Z" fill="#006BE5"/>
<path d="M27.0076 32.1972C26.9437 32.1469 26.899 32.1584 26.8746 32.2329C26.9239 32.2411 26.9685 32.2292 27.0076 32.1972Z" fill="#006BE5"/>
<path d="M18.4482 32.2795C18.4224 32.2036 18.3773 32.1917 18.3138 32.2434C18.3534 32.2731 18.3985 32.2855 18.4482 32.2795Z" fill="#006BE5"/>
<path d="M26.7776 32.2429C26.7131 32.1922 26.6681 32.2045 26.6423 32.28C26.692 32.2855 26.7371 32.2731 26.7776 32.2429Z" fill="#006BE5"/>
<path d="M18.6308 32.3243C18.6046 32.2498 18.559 32.237 18.4937 32.2864C18.5342 32.3175 18.5798 32.3303 18.6308 32.3243Z" fill="#006BE5"/>
<path d="M26.5977 32.2873C26.5314 32.2379 26.4854 32.2507 26.4592 32.3261C26.5102 32.3303 26.5562 32.3174 26.5977 32.2873Z" fill="#006BE5"/>
<path d="M18.6758 32.3274L18.7117 32.3068L18.7572 32.3283L18.766 32.3699C18.7434 32.3594 18.6983 32.3379 18.6758 32.3274Z" fill="#006BE5"/>
<path d="M26.4136 32.333C26.3478 32.2836 26.3023 32.2964 26.2765 32.3709C26.3271 32.3769 26.3727 32.3641 26.4136 32.333Z" fill="#006BE5"/>
<path d="M19.0362 32.461C19.0527 32.3869 18.9175 32.3339 18.8618 32.3741C18.8945 32.4381 18.9681 32.4583 19.0362 32.461Z" fill="#006BE5"/>
<path d="M26.1367 32.4131C26.151 32.398 26.18 32.3683 26.1942 32.3532L26.2306 32.3738C26.2071 32.3834 26.1602 32.403 26.1367 32.4131Z" fill="#006BE5"/>
<path d="M25.9977 32.4596C26.0115 32.4441 26.04 32.4139 26.0543 32.3988L26.0906 32.4189C26.0671 32.429 26.0207 32.4491 25.9977 32.4596Z" fill="#006BE5"/>
<path d="M25.8573 32.5044C25.8721 32.4893 25.9015 32.4596 25.9162 32.4445L25.9521 32.4651C25.9287 32.4752 25.8808 32.4944 25.8573 32.5044Z" fill="#006BE5"/>
<path d="M19.2322 32.5127L19.2672 32.4903L19.3127 32.5095L19.3215 32.5501C19.2989 32.541 19.2547 32.5223 19.2322 32.5127Z" fill="#006BE5"/>
<path d="M25.8168 32.5177C25.7644 32.4528 25.6034 32.5117 25.6397 32.5981C25.7037 32.5831 25.7616 32.552 25.8168 32.5177Z" fill="#006BE5"/>
<path d="M19.8345 32.7879C19.7333 32.6823 19.5888 32.6288 19.4484 32.6013C19.5644 32.6864 19.696 32.7472 19.8345 32.7879Z" fill="#006BE5"/>
<path d="M45.0506 33.1266L45.0906 33.1772L45.0898 33.6478L45.0433 33.6464C45.0419 33.4732 45.0456 33.2994 45.0506 33.1266Z" fill="#006BE5"/>
<path d="M13.2434 33.6962C13.7675 33.6893 14.2923 33.6912 14.8163 33.6908C15.2806 33.6935 15.7459 33.6788 16.2093 33.725C15.3314 33.7561 14.4516 33.7364 13.5728 33.7245C13.4624 33.7241 13.3497 33.7305 13.2434 33.6962Z" fill="#006BE5"/>
<path d="M28.6934 33.7241C29.3739 33.6623 30.0594 33.6985 30.7422 33.6957C30.6659 33.7199 30.5858 33.7254 30.5067 33.7263C29.9025 33.7341 29.2966 33.7588 28.6934 33.7241Z" fill="#006BE5"/>
<path d="M17.0697 33.7369C17.2753 33.7287 17.4815 33.7341 17.6848 33.7712C17.4796 33.7922 17.274 33.7867 17.0683 33.7826L17.0697 33.7369Z" fill="#006BE5"/>
<path d="M27.543 33.771C27.7307 33.7349 27.9221 33.7303 28.1126 33.7362L28.1107 33.7824C27.9212 33.7879 27.7316 33.7911 27.543 33.771Z" fill="#006BE5"/>
<path d="M17.816 33.7789C17.8758 33.7721 17.9342 33.7876 17.9894 33.8109C17.9526 33.8704 17.8081 33.8612 17.816 33.7789Z" fill="#006BE5"/>
<path d="M27.0605 33.81C27.1595 33.7817 27.2621 33.7725 27.3651 33.7826C27.3246 33.8795 27.141 33.8557 27.0605 33.81Z" fill="#006BE5"/>
<path d="M18.0879 33.8247C18.1486 33.8192 18.2084 33.8324 18.2646 33.8562C18.2268 33.9161 18.0851 33.9056 18.0879 33.8247Z" fill="#006BE5"/>
<path d="M26.7338 33.8548C26.7886 33.8315 26.8475 33.8183 26.9078 33.8256C26.9147 33.9074 26.7688 33.9143 26.7338 33.8548Z" fill="#006BE5"/>
<path d="M18.3621 33.8695C18.4114 33.8617 18.456 33.874 18.4956 33.9065C18.4307 33.9559 18.3865 33.9435 18.3621 33.8695Z" fill="#006BE5"/>
<path d="M26.4551 33.9072C26.4942 33.8743 26.5388 33.8624 26.589 33.8711C26.565 33.9442 26.5204 33.9561 26.4551 33.9072Z" fill="#006BE5"/>
<path d="M18.5936 33.917C18.6442 33.9088 18.6893 33.9207 18.7293 33.9531C18.6649 34.002 18.6193 33.9901 18.5936 33.917Z" fill="#006BE5"/>
<path d="M26.2696 33.954C26.3105 33.9225 26.357 33.9097 26.4086 33.9156C26.3809 33.9892 26.3349 34.002 26.2696 33.954Z" fill="#006BE5"/>
<path d="M18.7734 33.9614C18.8245 33.9559 18.8705 33.9687 18.9115 34.0002C18.8457 34.0487 18.7997 34.0354 18.7734 33.9614Z" fill="#006BE5"/>
<path d="M26.086 33.9997C26.1265 33.9682 26.1725 33.9554 26.224 33.9613C26.1974 34.0349 26.1513 34.0477 26.086 33.9997Z" fill="#006BE5"/>
<path d="M18.9566 34.0103C18.9801 34.0199 19.0265 34.0391 19.05 34.0487L19.0141 34.0697C18.9998 34.0551 18.9708 34.0249 18.9566 34.0103Z" fill="#006BE5"/>
<path d="M25.9471 34.0496C25.971 34.0395 26.0184 34.0203 26.0423 34.0107C26.0276 34.0253 25.9981 34.0551 25.9834 34.0701L25.9471 34.0496Z" fill="#006BE5"/>
<path d="M19.1434 34.056C19.1664 34.066 19.2124 34.0857 19.2354 34.0957L19.1995 34.1163C19.1853 34.1012 19.1572 34.0711 19.1434 34.056Z" fill="#006BE5"/>
<path d="M25.7639 34.0921C25.8035 34.0592 25.8491 34.0459 25.9001 34.0523C25.8744 34.1264 25.8288 34.1396 25.7639 34.0921Z" fill="#006BE5"/>
<path d="M19.2814 34.0989C19.3307 34.0916 19.3744 34.1035 19.4135 34.1351C19.35 34.1863 19.3058 34.1744 19.2814 34.0989Z" fill="#006BE5"/>
<path d="M25.625 34.1415C25.6485 34.1315 25.6959 34.1123 25.7193 34.1022C25.7046 34.1173 25.6756 34.147 25.6609 34.1621L25.625 34.1415Z" fill="#006BE5"/>
<path d="M45.0352 34.0889C44.9791 34.3065 44.9984 34.53 45.0044 34.7517C45.0725 34.5369 45.0421 34.3097 45.0352 34.0889Z" fill="#006BE5"/>
<path d="M21.4306 34.4409C21.4177 34.3312 21.392 34.21 21.2889 34.1488C21.3289 34.2489 21.3749 34.3476 21.4306 34.4409Z" fill="#006BE5"/>
<path d="M23.7988 34.1442C23.6916 34.2018 23.6617 34.3216 23.6529 34.4336C23.704 34.338 23.7519 34.2411 23.7988 34.1442Z" fill="#006BE5"/>
<path d="M25.4922 34.1842C25.5157 34.1751 25.5617 34.1568 25.5847 34.1476L25.5741 34.1883L25.5272 34.2071L25.4922 34.1842Z" fill="#006BE5"/>
<path d="M19.6035 34.1913C19.6256 34.2013 19.6698 34.2205 19.6918 34.2301L19.6564 34.2525L19.6113 34.2324L19.6035 34.1913Z" fill="#006BE5"/>
<path d="M0.055567 34.2253C0.0983573 34.399 0.101118 34.5791 0.080413 34.7565C0.0228991 34.5846 0.0463648 34.4022 0.055567 34.2253Z" fill="#006BE5"/>
<path d="M25.2597 34.2759C25.2817 34.2663 25.3264 34.2475 25.3485 34.2379L25.3402 34.2791L25.2946 34.2983L25.2597 34.2759Z" fill="#006BE5"/>
<path d="M25.0282 34.365C25.0508 34.3563 25.0963 34.3389 25.1189 34.3303L25.1097 34.3709L25.0632 34.3888L25.0282 34.365Z" fill="#006BE5"/>
<path d="M21.4849 34.5648L21.5258 34.5735L21.5452 34.6187L21.5222 34.6535C21.513 34.6315 21.4941 34.5872 21.4849 34.5648Z" fill="#006BE5"/>
<path d="M23.5641 34.573L23.6051 34.5634C23.5968 34.5858 23.5793 34.6306 23.5706 34.6535L23.5467 34.6192L23.5641 34.573Z" fill="#006BE5"/>
<path d="M24.2907 34.7321C24.3123 34.722 24.356 34.7015 24.3781 34.6909L24.3712 34.733L24.3261 34.7545L24.2907 34.7321Z" fill="#006BE5"/>
<path d="M21.6119 35.0178C21.663 34.9543 21.651 34.9108 21.576 34.888C21.5673 34.9364 21.5792 34.9794 21.6119 35.0178Z" fill="#006BE5"/>
<path d="M23.5149 34.8884C23.4399 34.9117 23.4275 34.9556 23.4781 35.0205C23.5103 34.9812 23.5223 34.9373 23.5149 34.8884Z" fill="#006BE5"/>
<path d="M44.8627 35.0196C44.7872 35.0073 44.704 35.0402 44.6754 35.1143C44.7509 35.1421 44.8291 35.0845 44.8627 35.0196Z" fill="#006BE5"/>
<path d="M23.438 35.2005C23.3818 35.1379 23.392 35.0931 23.4688 35.0666C23.4748 35.1141 23.4647 35.1589 23.438 35.2005Z" fill="#006BE5"/>
<path d="M0.691547 35.1449C0.605506 35.0996 0.500601 35.0708 0.410419 35.1243C0.490479 35.1888 0.599525 35.1623 0.691547 35.1449Z" fill="#006BE5"/>
<path d="M21.6248 35.1083L21.6653 35.1188L21.6827 35.165L21.6593 35.1997C21.6505 35.1769 21.6335 35.1312 21.6248 35.1083Z" fill="#006BE5"/>
<path d="M44.6294 35.1028C44.5636 35.0781 44.5199 35.0978 44.4974 35.1609C44.5586 35.1746 44.6027 35.1554 44.6294 35.1028Z" fill="#006BE5"/>
<path d="M0.996094 35.1646C1.40329 35.1417 1.81279 35.1463 2.21861 35.1902C1.81141 35.1856 1.39869 35.2414 0.996094 35.1646Z" fill="#006BE5"/>
<path d="M44.3101 35.1595C44.2011 35.1307 44.0865 35.1362 43.9862 35.1888C44.0934 35.223 44.2139 35.2276 44.3101 35.1595Z" fill="#006BE5"/>
<path d="M3.11357 35.2107C3.93119 35.1837 4.74973 35.2039 5.56781 35.2034C5.68053 35.2029 5.79234 35.2185 5.90415 35.2336C5.14819 35.2619 4.39101 35.2421 3.63459 35.2394C3.46021 35.2453 3.28565 35.24 3.11357 35.2107Z" fill="#006BE5"/>
<path d="M42.8652 35.2342C43.1781 35.1628 43.5011 35.2081 43.8186 35.209C43.5039 35.2644 43.1827 35.2502 42.8652 35.2342Z" fill="#006BE5"/>
<path d="M8.63445 35.2573C9.92782 35.229 11.2217 35.2514 12.5155 35.2487C12.6434 35.2473 12.7704 35.2642 12.8969 35.2816C11.6505 35.3094 10.4034 35.2816 9.15653 35.2857C8.98215 35.2921 8.80653 35.2884 8.63445 35.2573Z" fill="#006BE5"/>
<path d="M29.4329 35.2825C29.7117 35.2395 29.9942 35.2546 30.2753 35.2445C32.6679 35.2473 35.0605 35.2464 37.4531 35.2464C38.6544 35.2528 39.8567 35.2331 41.058 35.2569C40.9766 35.2706 40.8963 35.2873 40.8149 35.2914C38.6515 35.2873 36.488 35.2905 34.325 35.2896C32.6944 35.28 31.063 35.3127 29.4329 35.2825Z" fill="#006BE5"/>
<path d="M16.6652 35.3273C15.9553 35.2642 15.2407 35.293 14.5294 35.3008C15.2393 35.3607 15.9534 35.3405 16.6652 35.3273Z" fill="#006BE5"/>
<path d="M23.4201 35.3017L23.4477 35.2907L23.4583 35.3163C23.4487 35.3127 23.4298 35.3053 23.4201 35.3017Z" fill="#006BE5"/>
<path d="M28.5412 35.3012C28.301 35.2884 28.059 35.2733 27.8225 35.3255C28.0622 35.3424 28.3042 35.3543 28.5412 35.3012Z" fill="#006BE5"/>
<path d="M17.683 35.3707C17.5201 35.3351 17.3531 35.33 17.1884 35.3488C17.3494 35.3959 17.5174 35.3831 17.683 35.3707Z" fill="#006BE5"/>
<path d="M27.4719 35.3465C27.3771 35.3113 27.2736 35.3191 27.1875 35.3721C27.2814 35.4077 27.3863 35.4032 27.4719 35.3465Z" fill="#006BE5"/>
<path d="M17.8359 35.3914C17.9717 35.3814 18.1079 35.3869 18.2404 35.4198C18.1046 35.4289 17.968 35.4253 17.8359 35.3914Z" fill="#006BE5"/>
<path d="M27.061 35.3904C26.9782 35.3584 26.8861 35.3666 26.8167 35.4219C26.8981 35.453 26.9906 35.4448 27.061 35.3904Z" fill="#006BE5"/>
<path d="M26.7384 35.4329C26.6745 35.4114 26.5728 35.3977 26.5489 35.4809C26.6165 35.5019 26.6837 35.4717 26.7384 35.4329Z" fill="#006BE5"/>
<path d="M18.7771 35.5202C18.739 35.4663 18.6893 35.4512 18.6271 35.474C18.6649 35.5271 18.715 35.5426 18.7771 35.5202Z" fill="#006BE5"/>
<path d="M19.6076 35.8375C19.4866 35.7625 19.3583 35.7003 19.2221 35.6583C19.3311 35.7538 19.4645 35.8123 19.6076 35.8375Z" fill="#006BE5"/>
<path d="M25.775 35.7044C25.6958 35.6893 25.6241 35.7291 25.5785 35.7917C25.6581 35.816 25.7428 35.783 25.775 35.7044Z" fill="#006BE5"/>
<path d="M21.4867 37.7273C21.4513 37.624 21.4062 37.5252 21.3496 37.4324C21.3726 37.5399 21.4173 37.6404 21.4867 37.7273Z" fill="#006BE5"/>
<path d="M23.324 39.1668C23.2687 39.2185 23.2577 39.2953 23.2839 39.3648C23.3405 39.3136 23.3525 39.2349 23.324 39.1668Z" fill="#006BE5"/>
<path d="M21.5804 37.9841C21.6319 38.0211 21.6476 38.07 21.6273 38.1303C21.5703 38.0942 21.5546 38.0458 21.5804 37.9841Z" fill="#006BE5"/>
<path d="M23.4643 38.1657C23.4059 38.2141 23.3934 38.2928 23.4229 38.3613C23.4767 38.3097 23.4896 38.2338 23.4643 38.1657Z" fill="#006BE5"/>
<path d="M21.7127 38.5917C21.7412 38.5227 21.7315 38.4436 21.6745 38.3938C21.6473 38.4619 21.6584 38.5387 21.7127 38.5917Z" fill="#006BE5"/>
<path d="M21.7272 38.7184C21.7805 38.8199 21.7856 38.936 21.752 39.0457C21.6913 38.9452 21.6922 38.8268 21.7272 38.7184Z" fill="#006BE5"/>
<path d="M23.3631 38.7645C23.3065 38.8647 23.3037 38.9808 23.3378 39.0896C23.3953 38.9895 23.399 38.872 23.3631 38.7645Z" fill="#006BE5"/>
<path d="M21.8038 39.3648C21.8332 39.2825 21.8258 39.1915 21.7706 39.1225C21.7389 39.2034 21.7462 39.2957 21.8038 39.3648Z" fill="#006BE5"/>
<path d="M23.2402 39.5481C23.2103 39.4864 23.2236 39.437 23.2793 39.3986C23.3018 39.4571 23.2889 39.5069 23.2402 39.5481Z" fill="#006BE5"/>
<path d="M22.3011 39.9618C22.4636 39.9636 22.626 39.9636 22.7889 39.9618L22.7522 40H22.3348L22.3011 39.9618Z" fill="#006BE5"/>
<rect x="11" y="6" width="5" height="3" fill="white"/>
</g>
<defs>
<clipPath id="clip0_447_903">
<rect width="45.0909" height="40" fill="white" transform="matrix(1 0 0 -1 0 40)"/>
</clipPath>
</defs>
</svg>
