<svg width="60" height="60" viewBox="0 0 60 60" fill="none" xmlns="http://www.w3.org/2000/svg">
<path d="M8.61534 2H51.3777C52.0077 2.11703 52.6147 2.42328 53.0052 2.94281C53.528 3.59031 53.6691 4.50578 53.3902 5.28781C51.486 11.2072 49.5785 17.1255 47.6743 23.0448C47.146 24.7981 46.4285 26.5131 46.2218 28.3463C45.9603 30.4036 46.2032 32.5134 46.8758 34.4734C47.4358 36.2125 47.9958 37.9538 48.5558 39.6928C48.8008 40.4234 48.9988 41.1705 49.3083 41.877C49.76 43.3416 50.1549 44.8269 50.6853 46.2663C51.5746 49.122 52.5163 51.9614 53.4208 54.8128C53.7063 55.6911 53.4307 56.7072 52.7547 57.3317C52.3839 57.6981 51.8863 57.8917 51.3843 58H8.62191C8.17019 57.9016 7.71738 57.7441 7.363 57.4356C6.60941 56.8286 6.28128 55.76 6.57003 54.8347C8.54206 47.8303 10.5174 40.8259 12.4883 33.8216C12.9947 32.0497 13.1599 30.1772 12.9302 28.3473C12.7683 26.9266 12.3013 25.5681 11.9305 24.1944C11.785 23.7273 11.7008 23.2384 11.4886 22.7944C11.2797 22.3623 11.2108 21.8822 11.0861 21.4228C10.8663 20.6069 10.6825 19.7811 10.4616 18.9652C10.1783 18.0989 9.95628 17.2152 9.71675 16.3358C8.66785 12.6127 7.61784 8.88953 6.57113 5.16531C6.34253 4.41391 6.49894 3.55859 6.99222 2.945C7.3805 2.42547 7.98753 2.12031 8.61534 2ZM8.15269 4.73C9.21472 8.50125 10.2724 12.2736 11.3421 16.0427C11.5171 16.4364 11.5958 16.8728 11.7457 17.2677C12.0038 18.5189 12.3439 19.7548 12.6721 20.9919C12.9969 21.6962 13.1249 22.4684 13.3557 23.2056C13.7789 24.8036 14.34 26.3742 14.5468 28.0225C14.7677 29.697 14.7043 31.4077 14.3641 33.0625C14.2143 33.8062 13.99 34.5303 13.7877 35.2609C11.9403 41.818 10.0952 48.3761 8.24566 54.9331C8.17019 55.2197 8.03894 55.527 8.16034 55.8223C8.28175 56.1614 8.63831 56.3834 8.99597 56.3583C11.7664 56.3506 14.5369 56.3791 17.3063 56.3441C16.1403 55.1573 14.9547 53.987 13.7811 52.808C13.465 52.5214 13.4344 51.9888 13.7243 51.6738C14.0141 51.3194 14.6047 51.2986 14.9186 51.6322C16.4947 53.2006 18.0697 54.7702 19.6338 56.3506C26.4063 56.3714 33.1799 56.3517 39.9524 56.3605C40.1208 56.3473 40.3013 56.3911 40.4621 56.3298C42.0185 54.7822 43.5683 53.228 45.1203 51.6759C45.396 51.3522 45.9243 51.292 46.2524 51.572C46.6253 51.8509 46.6647 52.4514 46.3311 52.7773C45.1586 53.9816 43.9424 55.1431 42.7775 56.355C45.5207 56.3648 48.2649 56.3572 51.0091 56.3583C51.5746 56.4141 52.0547 55.7983 51.8425 55.2645C51.0736 52.8572 50.2949 50.4531 49.5216 48.0469C48.838 46.3723 48.5164 44.5731 47.8503 42.8942C46.9732 40.0833 46.0478 37.2887 45.1575 34.4822C44.3821 31.9852 44.2661 29.2858 44.836 26.733C45.0252 25.8514 45.3249 24.9994 45.5972 24.1419C47.6743 17.6898 49.7513 11.2367 51.8294 4.78469C51.9716 4.42703 51.8502 3.9775 51.5155 3.77406C51.2694 3.60344 50.9566 3.64609 50.6744 3.63953C36.7838 3.63953 22.891 3.64062 8.99925 3.64172C8.43269 3.58047 7.94597 4.19297 8.15269 4.73Z" fill="#006BE5" stroke="#006BE5" stroke-width="0.1"/>
<path d="M29.2248 15.4493C29.2116 15.026 29.5792 14.6377 30.0035 14.6312C30.452 14.5951 30.8709 14.9932 30.8588 15.4427C30.8709 16.7202 30.8545 17.9988 30.8665 19.2763C30.8763 20.3963 31.5993 21.4617 32.6263 21.9002C33.4138 22.2601 34.2987 22.1223 35.1354 22.1431C36.6393 22.1299 37.966 20.7934 37.9737 19.2906C37.9463 18.8859 38.2241 18.4812 38.6299 18.4068C39.1002 18.2909 39.6045 18.6792 39.6132 19.1626C39.6263 20.1109 39.331 21.0602 38.7831 21.8346C37.9485 23.0443 36.5004 23.7957 35.0304 23.7859C34.232 23.7738 33.416 23.8515 32.6373 23.6349C31.9887 23.4709 31.3959 23.1395 30.8687 22.7326C30.8534 24.2059 30.8665 25.6803 30.8621 27.1546C30.8676 27.6676 30.826 28.1937 30.9748 28.6935C31.2417 29.6637 32.0456 30.4599 33.0168 30.7246C33.6752 30.9029 34.3654 30.8078 35.0381 30.8296C36.0662 30.8406 37.067 30.2587 37.5766 29.3695C37.8621 28.9013 37.9704 28.3523 37.9879 27.8109C38.0109 27.1874 38.8388 26.8451 39.3059 27.2509C39.727 27.567 39.6176 28.1445 39.5607 28.5951C39.3135 30.3035 38.0098 31.7987 36.3516 32.2767C35.5018 32.549 34.5995 32.4571 33.7223 32.4692C32.6843 32.4615 31.6737 32.0623 30.8687 31.4148C30.8534 32.9143 30.8665 34.4128 30.8621 35.9112C30.8687 36.4942 30.8151 37.0946 31.0131 37.6546C31.3795 38.8063 32.517 39.6551 33.7267 39.6693C34.3052 39.6715 34.8882 39.7032 35.4646 39.6376C36.6623 39.4801 37.6926 38.5012 37.9168 37.3145C38.0109 36.9437 37.8982 36.5029 38.1771 36.1978C38.4845 35.8182 39.1287 35.8237 39.4273 36.2098C39.6756 36.4887 39.6187 36.8846 39.5881 37.227C39.4404 38.6882 38.5315 40.039 37.2442 40.7423C36.5376 41.136 35.7271 41.3209 34.921 41.3143C34.1543 41.3089 33.3712 41.3657 32.6241 41.1568C31.7524 40.9162 30.9485 40.4207 30.3568 39.7349C30.2507 39.6179 30.1698 39.4724 30.0309 39.3915C29.2193 40.5706 27.8313 41.3296 26.3985 41.3537C25.3234 41.3657 24.1935 41.4379 23.1949 40.9599C21.5357 40.2468 20.3949 38.4749 20.4759 36.6648C20.5251 36.2032 21.0162 35.8609 21.4657 35.9768C21.8792 36.0578 22.1406 36.4778 22.1121 36.8835C22.1362 37.9992 22.8679 39.0514 23.896 39.479C24.6846 39.8246 25.5651 39.701 26.4007 39.7109C27.8838 39.6846 29.1941 38.3754 29.216 36.8912C29.2313 35.0788 29.216 33.2654 29.2237 31.4531C28.4241 32.0973 27.4223 32.4987 26.3898 32.5118C25.424 32.5053 24.4221 32.6015 23.5001 32.2449C21.6812 31.616 20.3763 29.7359 20.4781 27.8065C20.5382 27.3515 21.0304 27.019 21.4756 27.1415C21.8759 27.2235 22.1362 27.6293 22.111 28.0263C22.1296 29.1442 22.8559 30.2007 23.8829 30.6338C24.6726 30.9915 25.5596 30.8482 26.3985 30.8701C27.8882 30.8493 29.2018 29.527 29.2171 28.0384C29.2291 26.2818 29.2171 24.5253 29.2226 22.7687C28.4231 23.4107 27.4223 23.8132 26.3909 23.8274C25.4032 23.8242 24.3762 23.916 23.4377 23.5365C21.6626 22.8923 20.4015 21.0581 20.4726 19.1659C20.5076 18.5982 21.2098 18.2384 21.6921 18.5402C22.0443 18.7196 22.1285 19.1396 22.1231 19.5006C22.2062 20.9487 23.5209 22.1824 24.9701 22.1868C25.7652 22.166 26.5976 22.294 27.3556 21.9856C28.4077 21.582 29.1756 20.5298 29.2149 19.3999C29.2346 18.0831 29.2127 16.7662 29.2248 15.4493Z" fill="#006BE5" stroke="#006BE5" stroke-width="0.1"/>
</svg>
