<svg width="60" height="60" viewBox="0 0 60 60" fill="none" xmlns="http://www.w3.org/2000/svg">
<mask id="path-1-inside-1_278_546" fill="white">
<path d="M9.32644 41.4174C6.29308 44.599 6.36078 49.6778 6.37849 50.2465C6.37915 50.2693 6.37959 50.2919 6.37959 50.3147V55.8125C6.37959 57.0207 5.40033 58 4.19228 58C2.98434 58 2.00497 57.0207 2.00497 55.8125V50.347C1.96833 49.0306 2.02629 42.7345 6.16042 38.3984C8.60168 35.8379 11.8919 34.4845 15.6757 34.4845C19.9668 34.4845 22.4458 36.1051 24.2559 37.2884C24.7825 37.6328 25.268 37.438 25.4523 37.3383C25.6363 37.2386 26.0643 36.9392 26.0641 36.3107L26.0607 24.2093C26.0606 23.7604 25.7928 23.3438 25.3787 23.1481C24.0753 22.5321 22.8357 21.6139 21.794 20.4927C19.7052 18.2445 18.0899 15.6936 16.9929 12.9106C15.9012 10.1413 15.3477 7.20645 15.3477 4.18771C15.3477 2.97956 16.327 2.00022 17.535 2.00022C18.743 2.00022 19.7223 2.97956 19.7223 4.18771C19.7223 9.19105 21.5468 13.7994 24.9987 17.5148C25.6651 18.2321 26.4428 18.8122 27.2476 19.1926C29.1834 20.1074 30.4346 22.0761 30.4353 24.2081L30.4387 36.3095C30.4392 38.3475 29.3264 40.216 27.5344 41.186C25.7419 42.1561 23.5685 42.0659 21.8622 40.9505C20.2898 39.9225 18.6639 38.8594 15.6757 38.8594C13.1175 38.8593 10.922 39.7439 9.32644 41.4174ZM32.175 15.7886C33.3077 15.511 34.2849 14.8318 35.4164 14.0454C37.2699 12.7571 39.3707 11.2969 42.5795 11.2969C42.6035 11.2969 42.6276 11.2965 42.6518 11.2957C42.6878 11.294 46.3553 11.2579 49.3671 14.1722C52.1867 16.9002 53.6193 21.3289 53.6254 27.336C53.6204 27.4854 53.609 27.9293 53.6202 28.614C53.6399 29.8097 54.6159 30.7655 55.8072 30.7655C57.0151 30.7456 58.0141 29.75 57.9942 28.542C57.9831 27.8618 58 27.405 58 27.3749C58 20.1175 56.1189 14.6174 52.4089 11.0279C48.2074 6.96276 43.1572 6.91267 42.5591 6.92186C37.9907 6.92809 34.9397 9.04875 32.9198 10.4528C32.3963 10.8166 31.7111 11.2929 31.3194 11.4725C31.3077 11.4586 28.4713 8.78122 28.4713 4.18749C28.4713 2.97934 27.4921 2 26.284 2C25.076 2 24.0967 2.97934 24.0967 4.18749C24.0967 7.9164 25.4103 11.3765 27.8965 14.1976C29.4484 16.1121 31.2403 16.0177 32.175 15.7886ZM29.6414 52.6253C27.0796 51.5488 25.4071 49.7229 23.7898 47.9571C21.6631 45.6352 19.4639 43.2343 15.6757 43.2343C14.3057 43.2343 13.2648 43.6273 12.4926 44.4365C10.6587 46.3598 10.7501 50.0934 10.7518 50.1306C10.7514 50.122 10.7501 50.0987 10.7496 50.0615C10.7519 50.2667 10.7536 53.6135 10.7542 55.8129C10.7545 57.0209 11.7337 57.9999 12.9415 57.9999H12.9421C14.1501 57.9996 15.1292 57.0199 15.1288 55.8119C15.1272 50.0431 15.1215 49.9896 15.1215 49.9222C15.1215 47.8282 15.632 47.6094 15.6757 47.6094C17.4557 47.6094 18.576 48.742 20.5641 50.9124C22.3182 52.8275 24.5012 55.2108 27.9467 56.6588C29.0602 57.1271 30.3426 56.6035 30.8105 55.4896C31.2785 54.3757 30.7551 53.0933 29.6414 52.6253ZM44.4333 42.25C43.2253 42.25 42.246 43.2293 42.246 44.4374C42.246 45.6456 43.2253 46.6249 44.4333 46.6249C45.6414 46.6249 46.6206 45.6456 46.6206 44.4374C46.6206 43.2293 45.6413 42.25 44.4333 42.25ZM57.9946 44.4374C57.9946 45.4737 57.2678 46.3676 56.2534 46.579L53.3947 47.1747C53.2193 47.7491 52.9875 48.3085 52.705 48.8387L54.3502 51.3236C54.9243 52.1908 54.8084 53.3424 54.073 54.0779C53.3375 54.8135 52.186 54.9292 51.3189 54.3551L48.8342 52.7099C48.3025 52.9929 47.7434 53.2246 47.1702 53.3995L46.5746 56.2585C46.3633 57.2729 45.4693 57.9999 44.4332 57.9999C43.3971 57.9999 42.5032 57.273 42.2918 56.2585L41.6962 53.3996C41.1218 53.2242 40.5624 52.9923 40.0323 52.7098L37.5477 54.3551C36.6805 54.9293 35.5289 54.8135 34.7935 54.0779C34.058 53.3424 33.9422 52.1908 34.5164 51.3236L36.1615 48.8387C35.8784 48.3069 35.6468 47.7478 35.4719 47.1745L32.6131 46.5789C31.5988 46.3676 30.8719 45.4735 30.8719 44.4373C30.8719 43.4011 31.5987 42.5072 32.6131 42.2958L35.4718 41.7001C35.6471 41.126 35.8787 40.5671 36.1609 40.0372L34.5418 37.6979C33.9522 36.8461 34.0409 35.6975 34.7541 34.9465C35.4675 34.1953 36.61 34.0476 37.4908 34.5925L40.0031 36.1466C40.0129 36.1526 40.0225 36.1587 40.0321 36.1649C40.564 35.8817 41.1232 35.65 41.6963 35.4751L42.2919 32.616C42.5032 31.6017 43.3972 30.8747 44.4333 30.8747C45.4695 30.8747 46.3633 31.6016 46.5747 32.616L47.1703 35.475C47.7448 35.6504 48.3043 35.8824 48.8344 36.1649C48.844 36.1587 48.8537 36.1526 48.8635 36.1466L51.3758 34.5925C52.2567 34.0475 53.3991 34.1953 54.1125 34.9465C54.8258 35.6976 54.9145 36.8462 54.3249 37.6979L52.7057 40.0371C52.9885 40.5685 53.22 41.1272 53.3947 41.7001L56.2535 42.2958C57.2677 42.5072 57.9946 43.4012 57.9946 44.4374ZM49.977 44.4374C49.6378 44.0125 49.3758 43.5209 49.2121 42.9822C49.1185 42.6745 48.9941 42.3743 48.8422 42.0897C48.5765 41.5922 48.4139 41.0583 48.3532 40.5172C47.8121 40.4564 47.2781 40.2939 46.7806 40.0281C46.4963 39.8763 46.1961 39.7518 45.8883 39.6583C45.3497 39.4946 44.8582 39.2325 44.4333 38.8934C44.0084 39.2325 43.5168 39.4946 42.9782 39.6583C42.6706 39.7518 42.3704 39.8763 42.0858 40.0282C41.5884 40.2939 41.0544 40.4564 40.5134 40.5172C40.4526 41.0584 40.2901 41.5924 40.0244 42.0899C39.8726 42.3743 39.7481 42.6745 39.6546 42.9823C39.4909 43.521 39.2288 44.0125 38.8897 44.4374C39.2288 44.8624 39.4909 45.354 39.6546 45.8927C39.7481 46.2003 39.8726 46.5006 40.0245 46.7852C40.2902 47.2828 40.4527 47.8168 40.5134 48.358C41.0548 48.4185 41.5885 48.5811 42.086 48.8468C42.3704 48.9986 42.6706 49.123 42.9783 49.2166C43.5169 49.3803 44.0084 49.6424 44.4333 49.9815C44.8582 49.6424 45.3498 49.3803 45.8884 49.2166C46.1961 49.123 46.4963 48.9986 46.7809 48.8467C47.2784 48.581 47.8125 48.4183 48.3535 48.3576C48.4141 47.8163 48.5766 47.2824 48.8423 46.7849C48.9941 46.5006 49.1185 46.2003 49.2121 45.8926C49.3758 45.3539 49.6378 44.8623 49.977 44.4374Z"/>
</mask>
<path d="M9.32644 41.4174C6.29308 44.599 6.36078 49.6778 6.37849 50.2465C6.37915 50.2693 6.37959 50.2919 6.37959 50.3147V55.8125C6.37959 57.0207 5.40033 58 4.19228 58C2.98434 58 2.00497 57.0207 2.00497 55.8125V50.347C1.96833 49.0306 2.02629 42.7345 6.16042 38.3984C8.60168 35.8379 11.8919 34.4845 15.6757 34.4845C19.9668 34.4845 22.4458 36.1051 24.2559 37.2884C24.7825 37.6328 25.268 37.438 25.4523 37.3383C25.6363 37.2386 26.0643 36.9392 26.0641 36.3107L26.0607 24.2093C26.0606 23.7604 25.7928 23.3438 25.3787 23.1481C24.0753 22.5321 22.8357 21.6139 21.794 20.4927C19.7052 18.2445 18.0899 15.6936 16.9929 12.9106C15.9012 10.1413 15.3477 7.20645 15.3477 4.18771C15.3477 2.97956 16.327 2.00022 17.535 2.00022C18.743 2.00022 19.7223 2.97956 19.7223 4.18771C19.7223 9.19105 21.5468 13.7994 24.9987 17.5148C25.6651 18.2321 26.4428 18.8122 27.2476 19.1926C29.1834 20.1074 30.4346 22.0761 30.4353 24.2081L30.4387 36.3095C30.4392 38.3475 29.3264 40.216 27.5344 41.186C25.7419 42.1561 23.5685 42.0659 21.8622 40.9505C20.2898 39.9225 18.6639 38.8594 15.6757 38.8594C13.1175 38.8593 10.922 39.7439 9.32644 41.4174ZM32.175 15.7886C33.3077 15.511 34.2849 14.8318 35.4164 14.0454C37.2699 12.7571 39.3707 11.2969 42.5795 11.2969C42.6035 11.2969 42.6276 11.2965 42.6518 11.2957C42.6878 11.294 46.3553 11.2579 49.3671 14.1722C52.1867 16.9002 53.6193 21.3289 53.6254 27.336C53.6204 27.4854 53.609 27.9293 53.6202 28.614C53.6399 29.8097 54.6159 30.7655 55.8072 30.7655C57.0151 30.7456 58.0141 29.75 57.9942 28.542C57.9831 27.8618 58 27.405 58 27.3749C58 20.1175 56.1189 14.6174 52.4089 11.0279C48.2074 6.96276 43.1572 6.91267 42.5591 6.92186C37.9907 6.92809 34.9397 9.04875 32.9198 10.4528C32.3963 10.8166 31.7111 11.2929 31.3194 11.4725C31.3077 11.4586 28.4713 8.78122 28.4713 4.18749C28.4713 2.97934 27.4921 2 26.284 2C25.076 2 24.0967 2.97934 24.0967 4.18749C24.0967 7.9164 25.4103 11.3765 27.8965 14.1976C29.4484 16.1121 31.2403 16.0177 32.175 15.7886ZM29.6414 52.6253C27.0796 51.5488 25.4071 49.7229 23.7898 47.9571C21.6631 45.6352 19.4639 43.2343 15.6757 43.2343C14.3057 43.2343 13.2648 43.6273 12.4926 44.4365C10.6587 46.3598 10.7501 50.0934 10.7518 50.1306C10.7514 50.122 10.7501 50.0987 10.7496 50.0615C10.7519 50.2667 10.7536 53.6135 10.7542 55.8129C10.7545 57.0209 11.7337 57.9999 12.9415 57.9999H12.9421C14.1501 57.9996 15.1292 57.0199 15.1288 55.8119C15.1272 50.0431 15.1215 49.9896 15.1215 49.9222C15.1215 47.8282 15.632 47.6094 15.6757 47.6094C17.4557 47.6094 18.576 48.742 20.5641 50.9124C22.3182 52.8275 24.5012 55.2108 27.9467 56.6588C29.0602 57.1271 30.3426 56.6035 30.8105 55.4896C31.2785 54.3757 30.7551 53.0933 29.6414 52.6253ZM44.4333 42.25C43.2253 42.25 42.246 43.2293 42.246 44.4374C42.246 45.6456 43.2253 46.6249 44.4333 46.6249C45.6414 46.6249 46.6206 45.6456 46.6206 44.4374C46.6206 43.2293 45.6413 42.25 44.4333 42.25ZM57.9946 44.4374C57.9946 45.4737 57.2678 46.3676 56.2534 46.579L53.3947 47.1747C53.2193 47.7491 52.9875 48.3085 52.705 48.8387L54.3502 51.3236C54.9243 52.1908 54.8084 53.3424 54.073 54.0779C53.3375 54.8135 52.186 54.9292 51.3189 54.3551L48.8342 52.7099C48.3025 52.9929 47.7434 53.2246 47.1702 53.3995L46.5746 56.2585C46.3633 57.2729 45.4693 57.9999 44.4332 57.9999C43.3971 57.9999 42.5032 57.273 42.2918 56.2585L41.6962 53.3996C41.1218 53.2242 40.5624 52.9923 40.0323 52.7098L37.5477 54.3551C36.6805 54.9293 35.5289 54.8135 34.7935 54.0779C34.058 53.3424 33.9422 52.1908 34.5164 51.3236L36.1615 48.8387C35.8784 48.3069 35.6468 47.7478 35.4719 47.1745L32.6131 46.5789C31.5988 46.3676 30.8719 45.4735 30.8719 44.4373C30.8719 43.4011 31.5987 42.5072 32.6131 42.2958L35.4718 41.7001C35.6471 41.126 35.8787 40.5671 36.1609 40.0372L34.5418 37.6979C33.9522 36.8461 34.0409 35.6975 34.7541 34.9465C35.4675 34.1953 36.61 34.0476 37.4908 34.5925L40.0031 36.1466C40.0129 36.1526 40.0225 36.1587 40.0321 36.1649C40.564 35.8817 41.1232 35.65 41.6963 35.4751L42.2919 32.616C42.5032 31.6017 43.3972 30.8747 44.4333 30.8747C45.4695 30.8747 46.3633 31.6016 46.5747 32.616L47.1703 35.475C47.7448 35.6504 48.3043 35.8824 48.8344 36.1649C48.844 36.1587 48.8537 36.1526 48.8635 36.1466L51.3758 34.5925C52.2567 34.0475 53.3991 34.1953 54.1125 34.9465C54.8258 35.6976 54.9145 36.8462 54.3249 37.6979L52.7057 40.0371C52.9885 40.5685 53.22 41.1272 53.3947 41.7001L56.2535 42.2958C57.2677 42.5072 57.9946 43.4012 57.9946 44.4374ZM49.977 44.4374C49.6378 44.0125 49.3758 43.5209 49.2121 42.9822C49.1185 42.6745 48.9941 42.3743 48.8422 42.0897C48.5765 41.5922 48.4139 41.0583 48.3532 40.5172C47.8121 40.4564 47.2781 40.2939 46.7806 40.0281C46.4963 39.8763 46.1961 39.7518 45.8883 39.6583C45.3497 39.4946 44.8582 39.2325 44.4333 38.8934C44.0084 39.2325 43.5168 39.4946 42.9782 39.6583C42.6706 39.7518 42.3704 39.8763 42.0858 40.0282C41.5884 40.2939 41.0544 40.4564 40.5134 40.5172C40.4526 41.0584 40.2901 41.5924 40.0244 42.0899C39.8726 42.3743 39.7481 42.6745 39.6546 42.9823C39.4909 43.521 39.2288 44.0125 38.8897 44.4374C39.2288 44.8624 39.4909 45.354 39.6546 45.8927C39.7481 46.2003 39.8726 46.5006 40.0245 46.7852C40.2902 47.2828 40.4527 47.8168 40.5134 48.358C41.0548 48.4185 41.5885 48.5811 42.086 48.8468C42.3704 48.9986 42.6706 49.123 42.9783 49.2166C43.5169 49.3803 44.0084 49.6424 44.4333 49.9815C44.8582 49.6424 45.3498 49.3803 45.8884 49.2166C46.1961 49.123 46.4963 48.9986 46.7809 48.8467C47.2784 48.581 47.8125 48.4183 48.3535 48.3576C48.4141 47.8163 48.5766 47.2824 48.8423 46.7849C48.9941 46.5006 49.1185 46.2003 49.2121 45.8926C49.3758 45.3539 49.6378 44.8623 49.977 44.4374Z" fill="#006BE5" stroke="white" stroke-width="2.4" mask="url(#path-1-inside-1_278_546)"/>
</svg>
