<svg width="64" height="64" viewBox="0 0 64 64" fill="none" xmlns="http://www.w3.org/2000/svg">
<mask id="path-1-inside-1_278_548" fill="white">
<path d="M21.5918 23.3866C21.2914 23.3866 21.0033 23.2673 20.7909 23.0549C20.5785 22.8425 20.4592 22.5544 20.4592 22.254V14.3259C20.4592 14.0255 20.5785 13.7374 20.7909 13.525C21.0033 13.3126 21.2914 13.1933 21.5918 13.1933C21.8922 13.1933 22.1803 13.3126 22.3927 13.525C22.6051 13.7374 22.7244 14.0255 22.7244 14.3259V22.254C22.7244 22.5544 22.6051 22.8425 22.3927 23.0549C22.1803 23.2673 21.8922 23.3866 21.5918 23.3866ZM22.7244 9.79554V8.66295C22.7244 8.36257 22.6051 8.07449 22.3927 7.86209C22.1803 7.64968 21.8922 7.53036 21.5918 7.53036C21.2914 7.53036 21.0033 7.64968 20.7909 7.86209C20.5785 8.07449 20.4592 8.36257 20.4592 8.66295V9.79554C20.4592 10.0959 20.5785 10.384 20.7909 10.5964C21.0033 10.8088 21.2914 10.9281 21.5918 10.9281C21.8922 10.9281 22.1803 10.8088 22.3927 10.5964C22.6051 10.384 22.7244 10.0959 22.7244 9.79554ZM40.6873 48.8246L42.4881 59.6861C42.5155 59.8479 42.5074 60.0138 42.4644 60.1722C42.4214 60.3306 42.3444 60.4778 42.2389 60.6035C42.1326 60.7278 42.0006 60.8276 41.852 60.8961C41.7034 60.9645 41.5417 60.9999 41.3781 60.9999H20.9915C20.8262 61.002 20.6625 60.968 20.5118 60.9001C20.3611 60.8322 20.227 60.7321 20.1191 60.6069C20.0112 60.4817 19.9319 60.3344 19.887 60.1753C19.8421 60.0163 19.8325 59.8493 19.8589 59.6861L21.7504 48.3602C17.6408 46.4478 14.1633 43.401 11.7274 39.5785C9.29143 35.756 7.99846 31.3171 8.00074 26.7844C8.00074 26.484 8.12006 26.1959 8.33246 25.9835C8.54487 25.7711 8.83294 25.6518 9.13332 25.6518H14.7963V4.13259C14.7963 3.83221 14.9156 3.54413 15.128 3.33173C15.3404 3.11933 15.6285 3 15.9289 3H45.3762C45.6766 3 45.9646 3.11933 46.1771 3.33173C46.3895 3.54413 46.5088 3.83221 46.5088 4.13259V7.53036H49.9065C50.2069 7.53036 50.495 7.64968 50.7074 7.86209C50.9198 8.07449 51.0391 8.36257 51.0391 8.66295V13.1933C51.0391 13.4937 50.9198 13.7818 50.7074 13.9942C50.495 14.2066 50.2069 14.3259 49.9065 14.3259H46.5088V25.6518H54.4369C54.7373 25.6518 55.0254 25.7711 55.2378 25.9835C55.4502 26.1959 55.5695 26.484 55.5695 26.7844C55.5664 31.5226 54.1482 36.152 51.4967 40.0788C48.8451 44.0057 45.0811 47.0511 40.6873 48.8246ZM46.5088 9.79554V12.0607H48.774V9.79554H46.5088ZM17.0615 25.6518H44.2436V5.26518H17.0615V25.6518ZM10.2659 27.917C10.3194 28.8676 10.4367 29.8135 10.617 30.7484H52.9192C53.111 29.8143 53.2396 28.8684 53.3043 27.917H10.2659ZM38.5127 49.5834C37.524 49.8711 36.5176 50.0943 35.5 50.2516L34.6279 50.3875L33.6086 50.4781L32.2948 50.5688H31.7851H31.4906C30.8337 50.5688 30.1768 50.5348 29.5199 50.4668H29.3274C28.6025 50.3875 27.889 50.2743 27.1755 50.1384L26.6205 50.0138C26.0882 49.8892 25.5672 49.7533 25.0462 49.6061L24.4346 49.4362L23.9136 49.2776L22.328 58.78H40.0417L38.5127 49.5834ZM52.3643 33.0136H11.206C12.1343 36.0655 13.7267 38.874 15.869 41.2376C18.0113 43.6012 20.6502 45.4611 23.5965 46.684L24.2194 46.9105C24.6385 47.0691 25.0462 47.2163 25.4653 47.3522L26.2694 47.5674C26.6432 47.6693 27.0282 47.7713 27.402 47.8505L28.2967 47.9978C28.6592 48.0544 29.0216 48.1224 29.4293 48.1563C29.8371 48.1903 30.0862 48.213 30.426 48.2356C30.7658 48.2583 31.0942 48.2356 31.434 48.2356C31.7738 48.2356 32.2268 48.2356 32.5666 48.2356C32.9064 48.2356 33.0876 48.2356 33.3481 48.2356C33.8238 48.2356 34.3108 48.145 34.7978 48.0771L35.2395 48.0091C35.8058 47.9185 36.3721 47.7939 36.9384 47.658H37.1196C37.7312 47.4994 38.3428 47.3069 38.9544 47.0917C42.1354 45.9582 45.0059 44.0939 47.335 41.6488C49.6641 39.2036 51.3867 36.2459 52.3643 33.0136Z"/>
</mask>
<path d="M21.5918 23.3866C21.2914 23.3866 21.0033 23.2673 20.7909 23.0549C20.5785 22.8425 20.4592 22.5544 20.4592 22.254V14.3259C20.4592 14.0255 20.5785 13.7374 20.7909 13.525C21.0033 13.3126 21.2914 13.1933 21.5918 13.1933C21.8922 13.1933 22.1803 13.3126 22.3927 13.525C22.6051 13.7374 22.7244 14.0255 22.7244 14.3259V22.254C22.7244 22.5544 22.6051 22.8425 22.3927 23.0549C22.1803 23.2673 21.8922 23.3866 21.5918 23.3866ZM22.7244 9.79554V8.66295C22.7244 8.36257 22.6051 8.07449 22.3927 7.86209C22.1803 7.64968 21.8922 7.53036 21.5918 7.53036C21.2914 7.53036 21.0033 7.64968 20.7909 7.86209C20.5785 8.07449 20.4592 8.36257 20.4592 8.66295V9.79554C20.4592 10.0959 20.5785 10.384 20.7909 10.5964C21.0033 10.8088 21.2914 10.9281 21.5918 10.9281C21.8922 10.9281 22.1803 10.8088 22.3927 10.5964C22.6051 10.384 22.7244 10.0959 22.7244 9.79554ZM40.6873 48.8246L42.4881 59.6861C42.5155 59.8479 42.5074 60.0138 42.4644 60.1722C42.4214 60.3306 42.3444 60.4778 42.2389 60.6035C42.1326 60.7278 42.0006 60.8276 41.852 60.8961C41.7034 60.9645 41.5417 60.9999 41.3781 60.9999H20.9915C20.8262 61.002 20.6625 60.968 20.5118 60.9001C20.3611 60.8322 20.227 60.7321 20.1191 60.6069C20.0112 60.4817 19.9319 60.3344 19.887 60.1753C19.8421 60.0163 19.8325 59.8493 19.8589 59.6861L21.7504 48.3602C17.6408 46.4478 14.1633 43.401 11.7274 39.5785C9.29143 35.756 7.99846 31.3171 8.00074 26.7844C8.00074 26.484 8.12006 26.1959 8.33246 25.9835C8.54487 25.7711 8.83294 25.6518 9.13332 25.6518H14.7963V4.13259C14.7963 3.83221 14.9156 3.54413 15.128 3.33173C15.3404 3.11933 15.6285 3 15.9289 3H45.3762C45.6766 3 45.9646 3.11933 46.1771 3.33173C46.3895 3.54413 46.5088 3.83221 46.5088 4.13259V7.53036H49.9065C50.2069 7.53036 50.495 7.64968 50.7074 7.86209C50.9198 8.07449 51.0391 8.36257 51.0391 8.66295V13.1933C51.0391 13.4937 50.9198 13.7818 50.7074 13.9942C50.495 14.2066 50.2069 14.3259 49.9065 14.3259H46.5088V25.6518H54.4369C54.7373 25.6518 55.0254 25.7711 55.2378 25.9835C55.4502 26.1959 55.5695 26.484 55.5695 26.7844C55.5664 31.5226 54.1482 36.152 51.4967 40.0788C48.8451 44.0057 45.0811 47.0511 40.6873 48.8246ZM46.5088 9.79554V12.0607H48.774V9.79554H46.5088ZM17.0615 25.6518H44.2436V5.26518H17.0615V25.6518ZM10.2659 27.917C10.3194 28.8676 10.4367 29.8135 10.617 30.7484H52.9192C53.111 29.8143 53.2396 28.8684 53.3043 27.917H10.2659ZM38.5127 49.5834C37.524 49.8711 36.5176 50.0943 35.5 50.2516L34.6279 50.3875L33.6086 50.4781L32.2948 50.5688H31.7851H31.4906C30.8337 50.5688 30.1768 50.5348 29.5199 50.4668H29.3274C28.6025 50.3875 27.889 50.2743 27.1755 50.1384L26.6205 50.0138C26.0882 49.8892 25.5672 49.7533 25.0462 49.6061L24.4346 49.4362L23.9136 49.2776L22.328 58.78H40.0417L38.5127 49.5834ZM52.3643 33.0136H11.206C12.1343 36.0655 13.7267 38.874 15.869 41.2376C18.0113 43.6012 20.6502 45.4611 23.5965 46.684L24.2194 46.9105C24.6385 47.0691 25.0462 47.2163 25.4653 47.3522L26.2694 47.5674C26.6432 47.6693 27.0282 47.7713 27.402 47.8505L28.2967 47.9978C28.6592 48.0544 29.0216 48.1224 29.4293 48.1563C29.8371 48.1903 30.0862 48.213 30.426 48.2356C30.7658 48.2583 31.0942 48.2356 31.434 48.2356C31.7738 48.2356 32.2268 48.2356 32.5666 48.2356C32.9064 48.2356 33.0876 48.2356 33.3481 48.2356C33.8238 48.2356 34.3108 48.145 34.7978 48.0771L35.2395 48.0091C35.8058 47.9185 36.3721 47.7939 36.9384 47.658H37.1196C37.7312 47.4994 38.3428 47.3069 38.9544 47.0917C42.1354 45.9582 45.0059 44.0939 47.335 41.6488C49.6641 39.2036 51.3867 36.2459 52.3643 33.0136Z" fill="#006BE5" stroke="white" stroke-width="0.4" mask="url(#path-1-inside-1_278_548)"/>
<rect width="4" height="18" transform="matrix(-1 0 0 1 23.5691 6)" fill="white"/>
</svg>
