<svg width="60" height="60" viewBox="0 0 60 60" fill="none" xmlns="http://www.w3.org/2000/svg">
<path d="M45.4299 27.3026L45.4266 27.2947L45.4228 27.287C45.082 26.6054 45.4406 25.7961 46.0598 25.6413C46.4017 25.5558 46.7979 25.5975 47.1313 25.7309C47.4721 25.8672 47.6948 26.0762 47.762 26.2778L47.7619 26.2778L47.7637 26.2829C48.7556 29.0601 49.3492 32.0316 49.3492 34.9988C49.3492 48.4607 38.4611 59.3488 24.9992 59.3488C11.5372 59.3488 0.64917 48.4607 0.64917 34.9988C0.64917 21.5368 11.5372 10.6488 24.9992 10.6488C27.5741 10.6488 30.1473 11.045 32.5201 11.8359L32.5292 11.839L32.5385 11.8413C33.1838 12.0026 33.5286 12.6503 33.3566 13.3381C33.1955 13.9827 32.5491 14.3274 31.8623 14.1569C29.6477 13.5531 27.2261 13.1488 24.9992 13.1488C12.8611 13.1488 3.14917 22.8607 3.14917 34.9988C3.14917 47.1383 13.0626 56.8488 24.9992 56.8488C36.9357 56.8488 46.8492 47.1383 46.8492 34.9988C46.8492 32.3739 46.4454 29.7398 45.4299 27.3026ZM58.3571 11.4452L58.378 11.4488H58.3992C58.8554 11.4488 59.183 11.7408 59.362 12.2778C59.524 12.7637 59.3731 13.249 58.8605 13.5908L58.8399 13.6045L58.8224 13.622L49.0224 23.422C48.8661 23.5783 48.5285 23.7488 48.1992 23.7488H48.0233L39.847 22.1534L39.7165 22.1279L39.6224 22.222L26.8224 35.022L26.7492 35.0952V35.1988C26.7492 36.2607 25.8611 37.1488 24.7992 37.1488C23.7372 37.1488 22.8492 36.2607 22.8492 35.1988C22.8492 34.1368 23.7372 33.2488 24.7992 33.2488H24.9992H25.1027L25.1759 33.1755L37.7759 20.5756L37.8695 20.482L37.8448 20.352L36.2448 11.952L36.2416 11.9356L36.2363 11.9197C36.1506 11.6626 36.1561 11.4687 36.2113 11.3028C36.2688 11.1305 36.3885 10.963 36.5759 10.7756L46.3759 0.97555C46.7188 0.632705 47.2224 0.470036 47.7201 0.635944C48.2571 0.814953 48.5492 1.14254 48.5492 1.59877V1.61996L48.5527 1.64085L49.9527 9.84085L49.9825 10.0154L50.1571 10.0452L58.3571 11.4452ZM39.0224 11.822L38.9254 11.919L38.9551 12.053L40.1551 17.453L40.2539 17.8976L40.5759 17.5756L47.5759 10.5756L47.6682 10.4833L47.6453 10.3548L46.6453 4.75483L46.5611 4.28331L46.2224 4.622L39.0224 11.822ZM47.9536 21.0446L48.083 21.0685L48.1759 20.9755L55.1759 13.9756L55.512 13.6395L55.0447 13.553L49.6447 12.553L49.5154 12.529L49.4224 12.622L42.4224 19.622L42.0863 19.9581L42.5536 20.0446L47.9536 21.0446ZM26.3492 28.3988C26.3492 29.2407 25.682 29.7488 24.9992 29.7488C22.0611 29.7488 19.7492 32.0607 19.7492 34.9988C19.7492 37.9368 22.0611 40.2488 24.9992 40.2488C27.9372 40.2488 30.2492 37.9368 30.2492 34.9988C30.2492 34.6344 30.3413 34.2344 30.5345 33.934C30.7216 33.6429 30.9982 33.4488 31.3992 33.4488C32.2411 33.4488 32.7492 34.1159 32.7492 34.7988C32.7492 39.0607 29.2611 42.5488 24.9992 42.5488C20.7372 42.5488 17.2492 39.0607 17.2492 34.7988C17.2492 30.5368 20.7372 27.0488 24.9992 27.0488C25.449 27.0488 25.7796 27.1828 25.9974 27.4005C26.2152 27.6183 26.3492 27.9489 26.3492 28.3988ZM31.4874 20.4224C31.8442 20.6008 32.0966 20.8608 32.2194 21.1473C32.3383 21.4248 32.343 21.7429 32.1824 22.073C31.8285 22.5926 31.1612 22.9003 30.511 22.5752C28.8723 21.7559 27.0333 21.3488 24.9992 21.3488C17.4611 21.3488 11.3492 27.4607 11.3492 34.9988C11.3492 42.5368 17.4611 48.6488 24.9992 48.6488C32.5372 48.6488 38.6492 42.5368 38.6492 34.9988C38.6492 33.1675 38.2435 31.3398 37.4367 29.5177C37.3509 29.1612 37.3568 28.8207 37.4596 28.5329C37.5626 28.2445 37.7677 27.994 38.111 27.8224C38.4461 27.6548 38.7692 27.6579 39.0507 27.7786C39.3371 27.9013 39.5972 28.1538 39.7756 28.5106C40.7539 30.4672 41.1492 32.6266 41.1492 34.9988C41.1492 43.8607 33.8611 51.1488 24.9992 51.1488C16.1372 51.1488 8.84917 43.8607 8.84917 34.9988C8.84917 26.1408 16.1332 19.0488 24.9992 19.0488C27.173 19.0488 29.5319 19.4446 31.4874 20.4224Z" fill="#006BE5" stroke="white" stroke-width="0.5"/>
</svg>
