<svg width="42" height="40" viewBox="0 0 42 40" fill="none" xmlns="http://www.w3.org/2000/svg">
<path d="M28.1818 20.908H0.909091C0.407273 20.908 0 20.5008 0 19.9989C0 19.4971 0.407273 19.0898 0.909091 19.0898H28.1818C28.6836 19.0898 29.0909 19.4971 29.0909 19.9989C29.0909 20.5008 28.6836 20.908 28.1818 20.908Z" fill="#006BE5"/>
<path d="M20.9091 28.1826C20.6763 28.1826 20.4436 28.0935 20.2654 27.9171C19.9109 27.5626 19.9109 26.9862 20.2654 26.6317L26.8963 20.0008L20.2672 13.3717C19.9127 13.0171 19.9127 12.4408 20.2672 12.0862C20.6218 11.7317 21.1981 11.7317 21.5527 12.0862L28.8254 19.3589C29.18 19.7135 29.18 20.2899 28.8254 20.6444L21.5527 27.9171C21.3745 28.0935 21.1418 28.1826 20.9091 28.1826Z" fill="#006BE5"/>
<path d="M21.8182 40C13.3546 40 5.77641 34.6418 2.96004 26.6673C2.79277 26.1927 3.04186 25.6745 3.51459 25.5073C3.98913 25.3436 4.50732 25.5891 4.67459 26.0618C7.23459 33.3109 14.1237 38.1818 21.8182 38.1818C31.8437 38.1818 40 30.0255 40 20C40 9.97455 31.8437 1.81818 21.8182 1.81818C14.1237 1.81818 7.23459 6.68909 4.67641 13.94C4.50913 14.4127 3.98913 14.6582 3.51641 14.4945C3.04368 14.3273 2.79459 13.8091 2.96186 13.3345C5.77641 5.35818 13.3546 0 21.8182 0C32.8455 0 41.8182 8.97273 41.8182 20C41.8182 31.0273 32.8455 40 21.8182 40Z" fill="#006BE5"/>
</svg>
