<svg width="40" height="40" viewBox="0 0 40 40" fill="none" xmlns="http://www.w3.org/2000/svg">
<path d="M25.9253 13.5847V13.7847H26.1253H34.3603C37.3512 13.7847 39.7921 16.2253 39.8 19.2168C39.8 19.5381 39.7686 19.8618 39.7208 20.181C39.7207 20.1815 39.7207 20.1819 39.7206 20.1823L39.6067 20.8817L39.6066 20.8824L37.5336 33.9002L37.5335 33.9001L37.5327 33.9065C37.3138 35.6376 36.5803 37.0069 35.4421 37.9448C34.3025 38.8838 32.7406 39.4039 30.8427 39.4039H14.1604C12.4189 39.4039 10.8579 38.6082 9.81642 37.3695L9.68314 37.211L9.52936 37.3497C8.81417 37.995 7.86584 38.3837 6.83126 38.3837H4.26035C2.02027 38.3837 0.2 36.5635 0.2 34.3234V19.6651C0.2 17.4249 2.02025 15.6052 4.25966 15.6129H4.26035H6.83126C7.90427 15.6129 8.88398 16.0326 9.61561 16.7253L9.70086 16.806L9.8129 16.7709L10.4903 16.5587L10.5372 16.544L10.5415 16.5397C10.773 16.4754 12.2883 16.007 13.7754 14.9495C15.3183 13.8523 16.8578 12.0997 16.8578 9.48762V2.67269C16.8578 2.14705 17.2018 1.67849 17.6964 1.52522L17.6964 1.52527L17.7005 1.52392C17.7608 1.50382 18.6327 1.23753 19.7957 1.20356C20.9596 1.16956 22.3922 1.36872 23.5993 2.25446L23.5997 2.25478C25.1301 3.37131 25.9253 5.26547 25.9253 7.93692V13.5847ZM6.83126 15.4129H4.26035L10.4713 16.3515C10.4642 16.3551 10.457 16.3571 10.4506 16.3589C10.4423 16.3613 10.4351 16.3633 10.4305 16.3679L9.75311 16.5801C8.98592 15.8537 7.95756 15.4129 6.83126 15.4129ZM37.3491 19.8108L37.3492 19.8108L37.3499 19.8053C37.3751 19.6124 37.3924 19.4155 37.3924 19.2244C37.3924 17.5555 36.0382 16.1923 34.3603 16.1923H24.7296C24.0648 16.1923 23.5259 15.6534 23.5259 14.9885V7.93692C23.5259 6.15363 23.0982 4.87158 22.1887 4.19377C21.384 3.59243 20.2586 3.54151 19.4372 3.62449L19.2573 3.64266V3.82347V9.47946C19.2573 12.922 17.4041 15.2154 15.4592 16.6783C13.5112 18.1436 11.4873 18.7617 11.1996 18.8445L11.1995 18.8444L11.1939 18.8462L10.9898 18.9115L10.8309 18.9624L10.8525 19.1279C10.8763 19.3102 10.8916 19.4888 10.8916 19.6651V33.7439C10.8916 35.5438 12.3605 37.0127 14.1604 37.0127H30.8427C32.7518 37.0127 33.8199 36.3838 34.4163 35.6151C34.9997 34.8633 35.1041 34.0101 35.1536 33.6057L35.1546 33.5968L35.1551 33.5931C35.1562 33.5885 35.1581 33.5809 35.1596 33.5726C35.1609 33.5655 35.1624 33.5561 35.1634 33.5452L37.3491 19.8108ZM6.83126 35.9925C7.74971 35.9925 8.49219 35.25 8.49219 34.3315V19.6651C8.49219 18.7467 7.74971 18.0042 6.83126 18.0042H4.26035C3.3419 18.0042 2.59943 18.7467 2.59943 19.6651V34.3315C2.59943 35.25 3.3419 35.9925 4.26035 35.9925H6.83126Z" fill="#006BE5" stroke="white" stroke-width="0.4"/>
</svg>
