<svg width="20" height="22" viewBox="0 0 20 22" fill="none" xmlns="http://www.w3.org/2000/svg">
<path d="M19.9267 11.918C19.9267 10.5381 19.4398 9.1966 18.5552 8.13946L14.0349 2.44868L12.249 4.69703L8.51809 5.11649e-10L2.04653 8.1472C0.778144 9.66169 0.079834 11.5841 0.079834 13.5618C0.079834 18.2146 3.86519 22 8.51805 22C11.7593 22 14.5789 20.1628 15.9918 17.4753C18.2815 16.6666 19.9267 14.481 19.9267 11.918ZM8.51809 20.7108C4.57609 20.7108 1.36907 17.5038 1.36907 13.5618C1.36907 11.8839 1.96239 10.2529 3.03972 8.96923L3.04531 8.96257L8.51809 2.07271L11.4258 5.73336L9.51467 8.13938C8.63016 9.19651 8.14315 10.5381 8.14315 11.918C8.14315 15.1667 10.7862 17.8098 14.0349 17.8098C14.1126 17.8098 14.1898 17.8078 14.2668 17.8048C12.9635 19.5661 10.8724 20.7108 8.51809 20.7108ZM14.0349 16.5206C11.497 16.5206 9.43234 14.4559 9.43234 11.918C9.43234 10.8378 9.81428 9.78778 10.5079 8.96141L14.035 4.52144L17.551 8.94791L17.562 8.96136C18.2556 9.78773 18.6375 10.8378 18.6375 11.918C18.6375 14.4559 16.5728 16.5206 14.0349 16.5206Z" fill="#EA6BFF"/>
</svg>
