<svg width="15" height="24" viewBox="0 0 15 24" fill="none" xmlns="http://www.w3.org/2000/svg">
<path d="M5.15999 23C5.113 23 5.06491 22.9912 5.01939 22.9721C4.86263 22.9071 4.77122 22.7438 4.79765 22.5764L6.18569 13.6927L1.43385 14.5771C1.28407 14.605 1.13539 14.5389 1.05573 14.4115C0.975701 14.2838 0.981574 14.1204 1.07041 13.9989L10.4926 1.15014C10.5921 1.01431 10.7716 0.963646 10.9276 1.02716C11.0836 1.09103 11.1761 1.25219 11.1523 1.41886L9.82005 10.804L14.196 9.81938C14.3457 9.7856 14.4996 9.84838 14.5836 9.9765C14.6677 10.1043 14.6633 10.2713 14.573 10.3946L5.45625 22.8499C5.38539 22.9464 5.27416 23 5.15999 23ZM6.62879 12.8697C6.7235 12.8697 6.81528 12.9064 6.88429 12.9732C6.96983 13.0565 7.00948 13.1758 6.99112 13.2933L5.75617 21.1968L13.4023 10.7507L9.46249 11.6369C9.34501 11.6637 9.22166 11.6303 9.13319 11.5488C9.04472 11.4673 9.00177 11.3465 9.01865 11.2272L10.2198 2.76357L2.21102 13.685L6.56161 12.8759C6.58363 12.8719 6.60603 12.8697 6.62879 12.8697Z" fill="#1ED487" stroke="#1ED487" stroke-width="0.5"/>
</svg>
