<svg width="24" height="24" viewBox="0 0 24 24" fill="none" xmlns="http://www.w3.org/2000/svg">
<path d="M22.9616 1.30899C22.8845 1.12201 22.7015 1 22.4996 1C3.09494 1 1 9.0418 1 12.4997C1 16.9856 4.41594 19.9996 9.4998 19.9996C15.9207 19.9996 17.2657 13.8897 17.9886 10.6078C18.9606 6.18886 21.0996 3.60892 22.8536 1.85395C22.9965 1.71099 23.0396 1.49597 22.9616 1.30899ZM17.0116 10.3928C16.0947 14.5567 14.6837 18.9996 9.4998 18.9996C5.01392 18.9996 1.99996 16.3877 1.99996 12.4997C1.99996 9.4108 3.91191 2.31594 21.3196 2.00995C19.6666 3.82894 17.8896 6.39787 17.0116 10.3928Z" fill="#F15E6B" stroke="#F15E6B" stroke-width="0.5"/>
<path d="M14.9497 6.28143C14.8287 6.03342 14.5297 5.93044 14.2817 6.04945C6.15488 9.98738 1 19.5261 1 22.4991C1 22.7751 1.22401 22.9991 1.50001 22.9991C1.776 22.9991 2.00001 22.7751 2.00001 22.4991C2.00001 20.1621 6.51093 10.9263 14.7177 6.94943C14.9657 6.82845 15.0697 6.52944 14.9497 6.28143Z" fill="#F15E6B" stroke="#F15E6B" stroke-width="0.5"/>
</svg>
