<svg width="60" height="60" viewBox="0 0 60 60" fill="none" xmlns="http://www.w3.org/2000/svg">
<g clip-path="url(#clip0_217_607)">
<path d="M32.3902 49.7196H27.6263C27.4219 49.7196 27.2242 49.6466 27.0689 49.5138C26.9136 49.381 26.8108 49.197 26.7791 48.9951L25.8882 43.336C25.0582 43.0817 24.2543 42.7489 23.4874 42.3422L18.8572 45.7222C18.6919 45.8436 18.4885 45.9017 18.284 45.886C18.0795 45.8703 17.8874 45.7817 17.7426 45.6365L14.3728 42.2599C14.2276 42.1151 14.139 41.923 14.1233 41.7184C14.1076 41.5139 14.1657 41.3106 14.2871 41.1452L17.6671 36.515C17.2607 35.7481 16.9282 34.9442 16.6742 34.1142L11.0151 33.2233C10.8133 33.1925 10.6291 33.0907 10.4956 32.9362C10.3622 32.7817 10.2882 32.5846 10.2871 32.3805V27.6174C10.2871 27.4131 10.3599 27.2155 10.4926 27.0602C10.6253 26.9049 10.809 26.8021 11.0108 26.7702L16.6699 25.8785C16.9239 25.0485 17.2564 24.2446 17.6628 23.4776L14.2828 18.8475C14.1614 18.6821 14.1033 18.4788 14.119 18.2742C14.1347 18.0697 14.2233 17.8776 14.3685 17.7328L17.7391 14.3631C17.884 14.2178 18.0761 14.1293 18.2806 14.1135C18.4851 14.0978 18.6885 14.1559 18.8538 14.2773L23.484 17.6573C24.2509 17.2506 25.0548 16.9179 25.8848 16.6636L26.7757 11.0045C26.8069 10.8015 26.9099 10.6165 27.066 10.483C27.2221 10.3496 27.4209 10.2766 27.6263 10.2773H32.3902C32.5946 10.2773 32.7923 10.3503 32.9476 10.4832C33.1029 10.616 33.2057 10.8 33.2374 11.0019L34.1283 16.661C34.9583 16.9153 35.7622 17.2481 36.5291 17.6548L41.1593 14.2747C41.3246 14.1533 41.528 14.0952 41.7325 14.111C41.937 14.1267 42.1291 14.2152 42.2739 14.3605L45.6445 17.7302C45.7898 17.875 45.8783 18.0671 45.8941 18.2717C45.9098 18.4762 45.8517 18.6796 45.7303 18.8449L42.3503 23.4751C42.7567 24.242 43.0892 25.0459 43.3432 25.8759L49.0023 26.7676C49.204 26.7995 49.3878 26.9024 49.5205 27.0577C49.6531 27.213 49.726 27.4105 49.726 27.6148V32.3787C49.726 32.5831 49.653 32.7808 49.5201 32.9361C49.3873 33.0914 49.2033 33.1942 49.0014 33.2259L43.3423 34.1168C43.0883 34.9468 42.7558 35.7507 42.3494 36.5176L45.7294 41.1478C45.8508 41.3131 45.9089 41.5165 45.8932 41.721C45.8775 41.9255 45.7889 42.1176 45.6437 42.2625L42.2697 45.6331C42.1248 45.7783 41.9327 45.8668 41.7282 45.8826C41.5237 45.8983 41.3203 45.8402 41.155 45.7188L36.5248 42.3388C35.7579 42.7455 34.954 43.0782 34.124 43.3325L33.2331 48.9917C33.2023 49.1935 33.1004 49.3777 32.9459 49.5111C32.7914 49.6446 32.5944 49.7185 32.3902 49.7196ZM28.3602 48.0047H31.658L32.5205 42.524C32.5466 42.3591 32.6201 42.2054 32.7322 42.0817C32.8443 41.958 32.9901 41.8698 33.1516 41.8277C34.2077 41.5526 35.2209 41.1336 36.163 40.5827C36.3071 40.4987 36.4726 40.4586 36.6393 40.4673C36.8059 40.476 36.9664 40.5331 37.101 40.6316L41.5837 43.9019L43.9159 41.5705L40.6405 37.0904C40.5421 36.9556 40.4852 36.7951 40.4766 36.6285C40.4681 36.4619 40.5084 36.2964 40.5925 36.1523C41.1438 35.2101 41.5639 34.197 41.8409 33.141C41.883 32.9793 41.9714 32.8335 42.0953 32.7214C42.2191 32.6093 42.373 32.5358 42.538 32.5099L48.0188 31.6525V28.3496L42.538 27.487C42.3731 27.461 42.2194 27.3875 42.0958 27.2754C41.9721 27.1633 41.8838 27.0175 41.8418 26.856C41.5661 25.8002 41.1475 24.7871 40.5976 23.8446C40.5135 23.7006 40.4733 23.5351 40.4818 23.3685C40.4903 23.2018 40.5473 23.0413 40.6457 22.9066L43.9117 18.423L41.5837 16.0951L37.1001 19.3662C36.9655 19.4647 36.805 19.5219 36.6384 19.5305C36.4718 19.5392 36.3063 19.4991 36.1621 19.4151C35.2203 18.8627 34.207 18.4423 33.1508 18.1658C32.9892 18.1238 32.8435 18.0355 32.7314 17.9118C32.6193 17.7882 32.5457 17.6344 32.5197 17.4696L31.6571 11.9922H28.3594L27.4968 17.473C27.471 17.638 27.3975 17.7919 27.2853 17.9158C27.1732 18.0396 27.0274 18.128 26.8657 18.1701C25.8097 18.4453 24.7964 18.8642 23.8544 19.4151C23.7102 19.4991 23.5447 19.5392 23.3781 19.5305C23.2115 19.5219 23.051 19.4647 22.9164 19.3662L18.4328 16.0951L16.1048 18.423L19.376 22.9066C19.4744 23.0413 19.5313 23.2018 19.5399 23.3685C19.5484 23.5351 19.5081 23.7006 19.424 23.8446C18.8727 24.7869 18.4526 25.8 18.1756 26.856C18.1335 27.0175 18.0453 27.1633 17.9216 27.2754C17.7979 27.3875 17.6442 27.461 17.4793 27.487L12.002 28.3496V31.6482L17.4828 32.5056C17.6478 32.5315 17.8017 32.605 17.9255 32.7171C18.0494 32.8292 18.1378 32.9751 18.1799 33.1367C18.4556 34.1924 18.8742 35.2056 19.424 36.1481C19.5081 36.2921 19.5484 36.4576 19.5399 36.6242C19.5313 36.7908 19.4744 36.9514 19.376 37.0861L16.1048 41.5739L18.4371 43.9053L22.9164 40.6308C23.051 40.5322 23.2115 40.4751 23.3781 40.4664C23.5447 40.4578 23.7102 40.4979 23.8544 40.5819C24.7962 41.1343 25.8095 41.5546 26.8657 41.8312C27.0274 41.8733 27.1732 41.9617 27.2853 42.0855C27.3975 42.2093 27.471 42.3632 27.4968 42.5283L28.3602 48.0047Z" fill="#006BE5" stroke="#006BE5" stroke-width="0.2"/>
<path d="M30.0077 37.7029C28.4838 37.7029 26.9941 37.251 25.7271 36.4044C24.46 35.5577 23.4724 34.3544 22.8892 32.9465C22.3061 31.5386 22.1535 29.9894 22.4508 28.4948C22.7481 27.0002 23.4819 25.6273 24.5595 24.5497C25.637 23.4721 27.0099 22.7383 28.5045 22.441C29.9992 22.1437 31.5484 22.2963 32.9563 22.8795C34.3642 23.4626 35.5675 24.4502 36.4141 25.7173C37.2608 26.9844 37.7127 28.474 37.7127 29.9979C37.7095 32.0404 36.8967 33.9984 35.4524 35.4427C34.0082 36.8869 32.0502 37.6997 30.0077 37.7029ZM30.0077 24.007C28.823 24.007 27.6649 24.3583 26.6799 25.0164C25.6948 25.6746 24.9271 26.6101 24.4737 27.7046C24.0203 28.7991 23.9016 30.0034 24.1327 31.1654C24.3637 32.3273 24.9341 33.3946 25.7718 34.2324C26.6094 35.0702 27.6767 35.6407 28.8386 35.872C30.0005 36.1032 31.2049 35.9847 32.2994 35.5314C33.394 35.0782 34.3296 34.3106 34.9879 33.3256C35.6462 32.3407 35.9976 31.1826 35.9978 29.9979C35.996 28.4098 35.3643 26.8873 34.2413 25.7643C33.1184 24.6414 31.5958 24.0097 30.0077 24.0079V24.007Z" fill="#006BE5" stroke="#006BE5" stroke-width="0.2"/>
<path d="M0.532167 35.6315C-0.822423 28.5275 0.433927 21.1732 4.07008 14.9217C7.70622 8.67023 13.4776 3.94209 20.3223 1.60716C27.1671 -0.72778 34.6248 -0.512441 41.3234 2.21355C48.022 4.93955 53.5109 9.99283 56.7803 16.4437L55.2506 17.2154C52.1675 11.1341 46.9922 6.37057 40.6767 3.80106C34.3612 1.23155 27.3303 1.02887 20.8772 3.23031C14.4242 5.43174 8.98311 9.88923 5.55478 15.7828C2.12646 21.6764 0.941508 28.6097 2.2179 35.3074L0.532167 35.6315Z" fill="#006BE5" stroke="#006BE5" stroke-width="0.2"/>
<path d="M56.5891 17.9736L49.8462 15.3782L50.4618 13.7773L55.4341 15.6911L56.8343 10.5508L58.4892 11.0018L56.5891 17.9736Z" fill="#006BE5" stroke="#006BE5" stroke-width="0.2"/>
<path d="M30.059 59.999C24.5056 60.0048 19.0593 58.4708 14.3252 55.5676C9.59111 52.6645 5.75453 48.5057 3.2417 43.5533L4.77137 42.7816C7.85412 48.8634 13.0294 53.6276 19.345 56.1975C25.6607 58.7675 32.692 58.9705 39.1453 56.769C45.5987 54.5676 51.0401 50.1099 54.4685 44.216C57.8969 38.3221 59.0817 31.3884 57.805 24.6904L59.489 24.3672C60.3166 28.7024 60.1776 33.1669 59.082 37.4423C57.9864 41.7177 55.9611 45.6987 53.1505 49.1016C50.3399 52.5045 46.8132 55.2455 42.8218 57.1291C38.8304 59.0127 34.4726 59.9927 30.059 59.999Z" fill="#006BE5" stroke="#006BE5" stroke-width="0.2"/>
<path d="M3.18232 49.4463L1.52832 48.9953L3.42755 42.0234L10.1705 44.6189L9.55482 46.2198L4.58252 44.3068L3.18232 49.4463Z" fill="#006BE5" stroke="#006BE5" stroke-width="0.2"/>
</g>
<defs>
<clipPath id="clip0_217_607">
<rect width="60" height="60" fill="white"/>
</clipPath>
</defs>
</svg>
