<svg width="60" height="60" viewBox="0 0 60 60" fill="none" xmlns="http://www.w3.org/2000/svg">
<path d="M52.2111 7.62109H7.78893C6.24865 7.62109 5 8.87923 5 10.4312V55.1907C5 56.7427 6.24865 58.0009 7.78893 58.0009H52.2111C53.7514 58.0009 55 56.7427 55 55.1907V10.4312C55 8.87923 53.7514 7.62109 52.2111 7.62109Z" stroke="#006BE5" stroke-width="2"/>
<path d="M5 19.9847H55H5ZM16.2784 7.62023V2V7.62023ZM43.0076 7.62023V2V7.62023ZM12.307 28.224H19.1678V35.1369H12.307V28.224ZM26.4079 28.224H33.2686V35.1369H26.4079V28.224ZM40.3302 28.224H47.191V35.1369H40.3302V28.224ZM12.5524 41.4428H19.4132V48.3557H12.5524V41.4428ZM26.6644 41.4428H33.5252V48.3557H26.6644V41.4428ZM40.5868 41.4428H47.4476V48.3557H40.5868V41.4428Z" stroke="#006BE5" stroke-width="2"/>
</svg>
