<svg width="60" height="60" viewBox="0 0 60 60" fill="none" xmlns="http://www.w3.org/2000/svg">
<g clip-path="url(#clip0_217_585)">
<path d="M0.984594 29.9867H1.01959C1.55883 29.9871 2.0012 29.5597 2.01957 29.0207C2.56056 13.5666 15.5271 1.47709 30.9813 2.01796C36.9256 2.22608 42.6493 4.32166 47.3225 8.0012H42.0007C41.4484 8.0012 41.0007 8.44894 41.0007 9.00117C41.0007 9.55341 41.4484 10.0012 42.0007 10.0012H50.0005H50.0145C50.0927 9.99477 50.1698 9.9794 50.2445 9.95515C50.2956 9.94778 50.346 9.93678 50.3955 9.92215C50.4235 9.91015 50.4445 9.88515 50.4715 9.87015C50.5612 9.82628 50.6436 9.76853 50.7155 9.69916L50.7255 9.69216C50.7508 9.65741 50.774 9.62103 50.7945 9.58316C50.8468 9.51941 50.891 9.44916 50.9255 9.37416C50.9529 9.29442 50.9698 9.21142 50.9754 9.12717C50.9869 9.08592 50.9953 9.0438 51.0005 9.00117V1.00136C51.0005 0.449118 50.5527 0.0013786 50.0005 0.0013786C49.4482 0.0013786 49.0005 0.449118 49.0005 1.00136V6.79322C36.1882 -3.70429 17.2916 -1.82783 6.79409 10.9846C2.62756 16.07 0.247361 22.3835 0.0196158 28.9537C0.00111622 29.5053 0.432981 29.9677 0.984594 29.9867Z" fill="#006BE5"/>
<path d="M9.07916 48.611C8.71217 48.1967 8.07894 48.1585 7.6647 48.5255C7.25045 48.8925 7.21221 49.5257 7.5792 49.9399C8.26756 50.7124 8.99479 51.4494 9.75815 52.1479C10.1733 52.5122 10.805 52.471 11.1694 52.056C11.5234 51.6526 11.4959 51.0419 11.1071 50.6719C10.3964 50.0201 9.71952 49.3322 9.07916 48.611Z" fill="#006BE5"/>
<path d="M21.0134 56.5286C20.0991 56.2191 19.2017 55.8622 18.3244 55.4596C17.8296 55.2145 17.2296 55.417 16.9845 55.9118C16.7394 56.4067 16.9419 57.0067 17.4367 57.2518C17.4537 57.2602 17.471 57.2682 17.4885 57.2755C18.4289 57.7085 19.3917 58.0917 20.3724 58.4235C20.8956 58.6005 21.4634 58.3198 21.6404 57.7965C21.8175 57.2733 21.5367 56.7056 21.0134 56.5286Z" fill="#006BE5"/>
<path d="M15.759 54.1128V54.1118C14.9278 53.6194 14.1222 53.0855 13.345 52.5118C12.9114 52.1697 12.2827 52.244 11.9405 52.6776C11.5984 53.1112 11.6727 53.7399 12.1063 54.0821C12.1225 54.0948 12.139 54.1072 12.156 54.1189C12.9873 54.7343 13.8494 55.3067 14.739 55.8339C15.2142 56.1155 15.8278 55.9587 16.1094 55.4834C16.3912 55.008 16.2342 54.3944 15.759 54.1128Z" fill="#006BE5"/>
<path d="M7.26792 46.3523C6.70418 45.5686 6.18094 44.7565 5.69995 43.9194C5.42383 43.4403 4.8116 43.2758 4.33248 43.5519C3.85337 43.828 3.68887 44.4403 3.96499 44.9194C4.48023 45.8145 5.04097 46.6826 5.64495 47.5203C5.97657 47.9619 6.60343 48.0511 7.04505 47.7194C7.47404 47.3973 7.57241 46.7941 7.26792 46.3523Z" fill="#006BE5"/>
<path d="M4.48026 41.7515C4.48026 41.6121 4.45101 41.4743 4.39464 41.3469L4.39264 41.3399C4.00127 40.4584 3.65578 39.5572 3.35766 38.64C3.21266 38.1071 2.66305 37.7926 2.13019 37.9377C1.59733 38.0827 1.28284 38.6323 1.42796 39.1652C1.43646 39.1962 1.44633 39.2268 1.45771 39.2569C1.77682 40.242 2.14669 41.21 2.56568 42.1569C2.72605 42.5189 3.08479 42.7521 3.48066 42.7519C4.0329 42.7516 4.48038 42.3038 4.48026 41.7515Z" fill="#006BE5"/>
<path d="M1.84216 37.029C1.84228 37.029 1.84253 37.0289 1.84266 37.0289C2.38227 36.9139 2.72676 36.3837 2.61264 35.8439C2.41339 34.8993 2.26252 33.9451 2.16065 32.985C2.1024 32.4355 1.60966 32.0373 1.06018 32.0955C0.510688 32.1537 0.112447 32.6465 0.170695 33.196C0.280193 34.2243 0.442314 35.2463 0.656684 36.2579C0.771182 36.7983 1.30192 37.1434 1.84216 37.029Z" fill="#006BE5"/>
<path d="M58.4021 36.0064C58.4017 36.0063 58.4013 36.0063 58.4009 36.0061C57.8649 35.8734 57.3228 36.2001 57.19 36.7361C56.9582 37.6736 56.6782 38.5984 56.351 39.507C56.1637 40.0268 56.4332 40.5997 56.953 40.787C57.4727 40.9742 58.0457 40.7047 58.2329 40.185C58.5838 39.2119 58.8842 38.2212 59.1329 37.2171C59.2654 36.681 58.9382 36.139 58.4021 36.0064Z" fill="#006BE5"/>
<path d="M26.6509 57.8C25.6924 57.6858 24.7405 57.5223 23.7989 57.31C23.2602 57.1882 22.7247 57.5262 22.6029 58.065C22.4812 58.6037 22.8192 59.1392 23.3579 59.2609C24.3672 59.4884 25.3875 59.6637 26.4149 59.7859C26.4547 59.7908 26.4947 59.793 26.5349 59.7929C27.0871 59.7918 27.5338 59.3431 27.5327 58.7908C27.5317 58.2851 27.1532 57.8597 26.6509 57.8Z" fill="#006BE5"/>
<path d="M56.5577 41.7091C56.0606 41.4691 55.4631 41.6772 55.2226 42.1741C54.8022 43.0433 54.337 43.8902 53.8286 44.711C53.5459 45.1855 53.7014 45.7992 54.1759 46.0819C54.6387 46.3577 55.2371 46.2171 55.5286 45.764C56.0728 44.8841 56.5712 43.9765 57.0215 43.045C57.2624 42.5481 57.0547 41.9499 56.5577 41.7091Z" fill="#006BE5"/>
<path d="M53.6017 46.9087C53.1694 46.565 52.5403 46.6368 52.1966 47.0691C52.1906 47.0766 52.1847 47.0842 52.179 47.0919V47.0899C51.589 47.8552 50.9599 48.5894 50.294 49.2898C49.9133 49.6902 49.9292 50.3235 50.3295 50.7043C50.7299 51.085 51.3633 51.0691 51.744 50.6688C52.456 49.9184 53.1296 49.1324 53.7619 48.3138C54.1057 47.8816 54.0339 47.2525 53.6017 46.9087Z" fill="#006BE5"/>
<path d="M59.0167 30.0482C58.4734 30.0204 58.0104 30.4384 57.9828 30.9817C57.9823 30.9918 57.9819 31.002 57.9817 31.0122C57.9478 31.9771 57.8639 32.9397 57.7307 33.8961C57.6553 34.4425 58.0366 34.9466 58.5827 35.0231C58.629 35.0298 58.6758 35.0332 58.7227 35.0331C59.221 35.0323 59.6429 34.6647 59.7116 34.1711C59.854 33.1467 59.9437 32.1158 59.9806 31.0822C59.9997 30.5305 59.5684 30.0677 59.0167 30.0482Z" fill="#006BE5"/>
<path d="M48.2001 51.2791V51.2821C47.4641 51.9104 46.6965 52.5005 45.9002 53.0501C45.4448 53.3648 45.3309 53.9892 45.6457 54.4445C45.9604 54.8999 46.5848 55.0138 47.0402 54.699C47.8918 54.1077 48.7127 53.4736 49.5001 52.7991C49.9198 52.4401 49.9691 51.8089 49.6101 51.3891C49.2512 50.9694 48.6199 50.9201 48.2001 51.2791Z" fill="#006BE5"/>
<path d="M38.1124 56.8094C37.1883 57.0879 36.2505 57.3181 35.3025 57.4994C34.7602 57.6037 34.405 58.1278 34.5094 58.6702C34.5998 59.1403 35.0108 59.4804 35.4895 59.4813C35.5529 59.4816 35.6161 59.4758 35.6785 59.4643C36.6947 59.2701 37.7001 59.0228 38.6904 58.7233C39.2149 58.5504 39.5 57.9851 39.3272 57.4606C39.1604 56.9546 38.6262 56.6683 38.1124 56.8094Z" fill="#006BE5"/>
<path d="M32.4853 57.8923C32.467 57.8933 32.4487 57.8949 32.4305 57.8969L32.4355 57.9009C31.6355 57.9689 30.8165 58.0009 30.0005 58.0009H29.5436C28.9982 58.0087 28.5525 58.4382 28.5246 58.9829C28.5146 59.5351 28.9541 59.9909 29.5062 60.0009C29.5063 60.0009 29.5064 60.0009 29.5066 60.0009H30.0005C30.8745 60.0009 31.7505 59.9619 32.6005 59.8889C33.1518 59.8571 33.5731 59.3844 33.5412 58.833C33.5093 58.2817 33.0366 57.8604 32.4853 57.8923Z" fill="#006BE5"/>
<path d="M43.4403 54.5685H43.4413C42.5947 55.0321 41.7249 55.452 40.8353 55.8265C40.3236 56.0341 40.077 56.6172 40.2845 57.129C40.492 57.6407 41.0752 57.8873 41.5869 57.6798C41.5944 57.6768 41.6018 57.6737 41.6092 57.6705C42.5624 57.2694 43.4943 56.8195 44.4011 56.3225C44.8855 56.0571 45.063 55.4494 44.7976 54.965C44.5325 54.4806 43.9246 54.3031 43.4403 54.5685Z" fill="#006BE5"/>
<path d="M29.9995 9C18.4018 9 9 18.4018 9 29.9995C9 41.5973 18.4018 50.999 29.9995 50.999C41.5973 50.999 50.999 41.5973 50.999 29.9995C50.9859 18.4073 41.5918 9.01325 29.9995 9ZM45.9992 30.9995H48.9481C48.4286 40.6889 40.6889 48.4286 30.9995 48.9481V45.9992C30.9995 45.4469 30.5518 44.9992 29.9995 44.9992C29.4473 44.9992 28.9995 45.4469 28.9995 45.9992V48.9481C19.3101 48.4286 11.5704 40.6889 11.051 30.9995H13.9999C14.5521 30.9995 14.9999 30.5518 14.9999 29.9995C14.9999 29.4473 14.5521 28.9995 13.9999 28.9995H11.051C11.5704 19.3101 19.3101 11.5704 28.9995 11.051V13.9999C28.9995 14.5521 29.4473 14.9999 29.9995 14.9999C30.5518 14.9999 30.9995 14.5521 30.9995 13.9999V11.051C40.6889 11.5704 48.4286 19.3101 48.9481 28.9995H45.9992C45.4469 28.9995 44.9992 29.4473 44.9992 29.9995C44.9992 30.5518 45.4469 30.9995 45.9992 30.9995Z" fill="#006BE5"/>
<path d="M30.9993 27.1838V18C30.9993 17.4477 30.5515 17 29.9993 17C29.4471 17 28.9993 17.4477 28.9993 18V27.1838C28.1525 27.4863 27.4859 28.1529 27.1834 28.9997H21.9995C21.4473 28.9997 20.9995 29.4475 20.9995 29.9997C20.9995 30.552 21.4473 30.9997 21.9995 30.9997H27.1834C27.7314 32.5592 29.4398 33.3792 30.9993 32.8312C32.5587 32.2832 33.3787 30.5747 32.8307 29.0152C32.5298 28.1585 31.856 27.4849 30.9993 27.1838ZM29.9993 30.9997C29.4471 30.9997 28.9993 30.552 28.9993 29.9997C28.9993 29.4475 29.4471 28.9997 29.9993 28.9997C30.5515 28.9997 30.9993 29.4475 30.9993 29.9997C30.9993 30.552 30.5517 30.9997 29.9993 30.9997Z" fill="#006BE5"/>
</g>
<defs>
<clipPath id="clip0_217_585">
<rect width="60" height="60" fill="white"/>
</clipPath>
</defs>
</svg>
