<svg width="40" height="40" viewBox="0 0 40 40" fill="none" xmlns="http://www.w3.org/2000/svg">
<g clip-path="url(#clip0_221_971)">
<path d="M13.8541 0C12.991 0 12.2916 0.699463 12.2916 1.5625V10.7172C12.2916 13.2446 10.2356 15.3006 7.70813 15.3006C5.18097 15.3006 3.125 13.2443 3.125 10.7172V1.5625C3.125 0.699463 2.42554 0 1.5625 0C0.699463 0 0 0.699463 0 1.5625V10.7172C0 14.4324 2.64191 17.5421 6.14594 18.2663V38.4375C6.14594 39.3005 6.8454 40 7.70844 40C8.57147 40 9.27094 39.3005 9.27094 38.4375V18.2663C12.7747 17.5421 15.4169 14.4324 15.4169 10.7172V1.5625C15.4166 0.699463 14.7171 0 13.8541 0V0Z" fill="#006BE5" stroke="white"/>
<path d="M7.70898 12.2797C8.57202 12.2797 9.27148 11.5802 9.27148 10.7172V1.5625C9.27148 0.699463 8.57202 0 7.70898 0C6.84595 0 6.14648 0.699463 6.14648 1.5625V10.7172C6.14648 11.5802 6.84595 12.2797 7.70898 12.2797Z" fill="#006BE5" stroke="white"/>
<path d="M32.2905 0C28.0403 0 24.582 3.45795 24.582 7.70844V10.7172C24.582 14.4324 27.2242 17.5421 30.728 18.2663V38.4375C30.728 39.3005 31.4274 40 32.2905 40C33.1535 40 33.853 39.3005 33.853 38.4375V18.2663C37.357 17.5421 39.9989 14.4324 39.9989 10.7172V7.70844C39.9989 3.45795 36.541 0 32.2905 0V0ZM36.8739 10.7172C36.8739 13.2446 34.8179 15.3006 32.2905 15.3006C29.7633 15.3006 27.707 13.2446 27.707 10.7172V7.70844C27.707 5.18097 29.7633 3.125 32.2905 3.125C34.8179 3.125 36.8739 5.18097 36.8739 7.70844V10.7172Z" fill="#006BE5" stroke="white"/>
</g>
<defs>
<clipPath id="clip0_221_971">
<rect width="40" height="40" fill="white"/>
</clipPath>
</defs>
</svg>
