<svg width="149" height="32" viewBox="0 0 149 32" fill="none" xmlns="http://www.w3.org/2000/svg">
<g clip-path="url(#clip0_449_897)">
<path d="M40.2149 0.780901C42.2165 0.584872 44.2644 0.797947 46.1708 1.45592C49.0253 2.45311 51.5212 4.40829 53.292 6.87229C54.801 9.00474 55.7037 11.5693 55.8847 14.1842C55.835 14.7015 55.9925 15.201 55.9605 15.7175C55.9411 16.1419 56.0068 16.5766 55.8973 16.9934C55.8426 17.5422 55.9428 18.1039 55.8123 18.646C55.7601 19.0142 55.5033 19.3346 55.5403 19.7173C55.5807 20.3173 55.3694 20.8926 55.2102 21.4611C54.2385 24.5447 52.1367 27.1707 49.5786 29.0696C48.1732 30.1077 46.5834 30.902 44.8925 31.3325C41.4957 32.1856 37.7696 31.6921 34.7382 29.9091C31.834 28.196 29.4451 25.5206 28.2595 22.3185C27.3728 19.9798 27.1117 17.4374 27.2532 14.9487C27.4039 12.6193 28.0043 10.2849 29.2127 8.28285C30.0564 6.71206 31.2504 5.35605 32.5876 4.19948C34.7205 2.33124 37.3924 1.05534 40.2149 0.780901ZM40.5459 1.20194C39.7569 1.31274 38.9864 1.56843 38.2959 1.97071C36.8762 2.79318 35.8851 4.19777 35.2325 5.68759C34.2751 7.87886 33.8886 10.2747 33.6899 12.6475C33.5181 14.9069 33.513 17.18 33.668 19.4412C33.8355 21.6708 34.1774 23.9106 34.9588 26.0107C35.4582 27.3292 36.1411 28.6085 37.1583 29.5921C38.0248 30.4409 39.1489 31.0145 40.3396 31.2097C41.8578 31.4603 43.4863 31.2779 44.8311 30.4861C45.919 29.8588 46.7653 28.877 47.396 27.7954C48.2456 26.3312 48.7491 24.6888 49.0893 23.0345C49.539 20.7682 49.6746 18.4499 49.6779 16.1428C49.6712 13.8049 49.5306 11.4577 49.0708 9.16327C48.7677 7.67686 48.3231 6.20579 47.604 4.86853C46.9522 3.65741 46.0217 2.56136 44.8083 1.90423C43.5166 1.19341 41.9908 1.01187 40.5459 1.20194Z" fill="black"/>
<path d="M66.2587 1.45206C67.5429 0.925343 68.9331 0.662834 70.3191 0.71312C72.0765 0.752326 73.9037 0.997788 75.4346 1.93276C75.7276 2.12709 76.0931 2.08106 76.4249 2.14157C77.4783 2.24726 78.5712 2.43818 79.607 2.11004C80.0389 1.97197 80.4709 1.81429 80.8667 1.58928C81.2288 1.30462 81.6035 1.03444 81.9361 0.714824C81.9437 5.11781 81.9403 9.52164 81.9386 13.9255C81.7963 13.9263 81.6557 13.9272 81.5168 13.928C81.0721 11.2748 80.3252 8.62758 78.9325 6.31444C78.1309 4.98655 77.1153 3.77714 75.8742 2.85069C74.6069 1.89952 73.0836 1.28672 71.5064 1.16399C70.3983 1.05574 69.2506 1.18444 68.2376 1.67111C66.929 2.28647 65.9219 3.41065 65.1935 4.64989C64.2311 6.28205 63.6778 8.12728 63.3301 9.98615C62.9082 12.2652 62.7945 14.592 62.8173 16.9077C62.8316 18.7623 62.957 20.6186 63.2585 22.4485C63.5549 24.1923 64.0071 25.9293 64.8171 27.506C65.3022 28.4427 65.9084 29.3334 66.7092 30.022C67.3635 30.5871 68.1517 31.0013 68.9946 31.1846C69.8223 31.3687 70.6795 31.3226 71.5157 31.234C73.0019 31.061 74.4949 30.4661 75.5138 29.324C76.6 28.1393 77 26.4799 77.0202 24.9014C77.0311 23.2028 77.021 21.505 77.0244 19.8063C77.0126 19.0725 77.0648 18.3319 76.9444 17.6049C76.9031 17.3066 76.6749 17.0764 76.4139 16.9554C76.0341 16.7662 75.6055 16.7227 75.1938 16.6554C74.0764 16.5071 72.9505 16.4295 71.8247 16.4065C71.8239 16.265 71.8239 16.1236 71.8256 15.9829C77.3107 15.9804 82.7958 15.9812 88.281 15.9821C88.281 16.1219 88.281 16.2616 88.2818 16.4014C86.7771 16.4406 85.2816 16.6366 83.792 16.8438C83.4476 16.9094 83.0021 16.929 82.8101 17.2759C82.5592 17.823 82.5735 18.4444 82.5584 19.035C82.5516 23.1278 82.5601 27.2205 82.5542 31.3133C82.4279 31.3124 82.3024 31.3116 82.1778 31.3107C82.166 30.4635 82.0944 29.5831 81.7071 28.816C81.4165 28.2492 80.8995 27.7523 80.2537 27.668C79.0857 27.5674 77.8715 27.9748 77.0396 28.822C76.5394 29.3189 76.0097 29.7808 75.4169 30.1609C74.6136 30.7098 73.764 31.2297 72.8133 31.4658C72.0538 31.6542 71.2698 31.7104 70.4901 31.7351C68.9323 31.7633 67.361 31.6099 65.8638 31.1573C62.6084 30.2078 59.7749 27.8521 58.234 24.7966C57.4029 23.1636 56.9355 21.3609 56.7157 19.543C56.4825 17.4335 56.5061 15.2849 56.9035 13.1968C57.274 11.2782 57.9813 9.42192 59.0188 7.77102C59.7859 6.53859 60.7307 5.42464 61.7874 4.43682C63.1027 3.2061 64.5881 2.1305 66.2587 1.45206Z" fill="black"/>
<path d="M0.349963 1.07592C6.13656 1.07592 11.9232 1.07933 17.7097 1.07422C17.714 1.2157 17.7173 1.35718 17.719 1.49866C16.5073 1.51145 15.2922 1.52168 14.0864 1.65804C13.5239 1.72964 12.9302 1.80805 12.4528 2.143C12.1497 2.35267 11.9703 2.72512 11.9956 3.09587C12.0234 3.55697 12.1783 3.99846 12.3391 4.42717C14.803 10.9268 17.2432 17.4367 19.7197 23.9312C21.3146 19.3279 22.8766 14.7127 24.4597 10.106C24.9447 8.70827 25.4078 7.28493 25.5585 5.80363C25.6503 4.84394 25.5366 3.79817 24.9379 3.0132C24.3855 2.27681 23.5081 1.8839 22.6366 1.69469C21.9907 1.53787 21.3247 1.53361 20.667 1.48332C20.6679 1.34866 20.6687 1.214 20.6687 1.07933C24.7864 1.07251 28.904 1.07763 33.0217 1.07678C33.025 1.21655 33.0267 1.35633 33.0292 1.49696C31.7392 1.51145 30.4163 1.79015 29.3301 2.52483C28.11 3.32344 27.2595 4.5891 26.7231 5.93574C25.4491 9.02959 24.4664 12.2325 23.3684 15.3912C21.5226 20.8357 19.6566 26.2733 17.8268 31.7229C17.3729 31.7485 16.9174 31.7425 16.4635 31.7263C13.2317 22.8957 9.96959 14.0761 6.72684 5.24964C6.39002 4.38285 6.13487 3.47344 5.64059 2.67995C5.42418 2.34074 5.15051 2.0109 4.77159 1.85493C4.46508 1.73731 4.13752 1.69299 3.81417 1.65037C2.66393 1.51571 1.50526 1.5123 0.349121 1.49952C0.349121 1.35803 0.349121 1.2174 0.349963 1.07592Z" fill="black"/>
<path d="M84.1885 1.07422C90.3069 1.08871 96.4252 1.07081 102.544 1.08189C102.543 1.21826 102.543 1.35377 102.545 1.49014C101.347 1.52679 100.146 1.52338 98.9531 1.65293C98.1405 1.74839 97.2984 1.83277 96.5625 2.22227C96.0724 2.46943 96.128 3.1223 96.0682 3.58936C96.0362 5.78403 96.0631 7.98041 96.0539 10.1768C96.0564 12.9041 96.0412 15.6315 96.0513 18.3589C96.0766 20.3234 95.9764 22.2948 96.1709 24.2534C96.3377 25.7551 96.6374 27.3217 97.535 28.5677C98.4167 29.7993 99.8659 30.4709 101.312 30.7368C102.912 31.0172 104.607 31.0795 106.152 30.5016C107.489 29.9945 108.72 29.1839 109.702 28.1339C110.758 27.0046 111.421 25.5318 111.66 24.0019C111.837 22.9545 111.789 21.8882 111.796 20.8305C111.796 18.1032 111.796 15.3758 111.796 12.6485C111.775 10.5032 111.903 8.33156 111.47 6.217C111.216 4.96326 110.754 3.66095 109.74 2.82996C108.502 1.77992 106.824 1.52338 105.258 1.50122C105.258 1.35974 105.262 1.21911 105.267 1.07848C119.383 1.07678 133.499 1.08189 147.616 1.07678C147.621 4.98457 147.622 8.89322 147.615 12.801C147.407 12.7976 147.199 12.7968 146.993 12.7899C146.997 10.7939 146.547 8.80117 145.708 6.99515C145.099 5.6792 144.32 4.41609 143.245 3.43679C142.223 2.48137 140.921 1.84129 139.547 1.62054C138.569 1.44838 137.574 1.52338 136.587 1.51486C134.807 1.53787 132.986 1.44923 131.262 1.98277C130.922 2.10891 130.614 2.39955 130.573 2.77882C130.462 3.50668 130.502 4.24478 130.494 4.97775C130.495 8.3648 130.492 11.7518 130.496 15.1397C131.72 15.1491 132.948 15.1048 134.164 14.9505C134.905 14.838 135.665 14.7102 136.334 14.3488C137.005 13.9474 137.411 13.2272 137.725 12.5266C138.577 10.4921 138.869 8.2753 139.127 6.09768C139.316 6.09682 139.506 6.09768 139.698 6.09682C139.7 12.2547 139.702 18.4134 139.698 24.5713C139.506 24.5687 139.316 24.5687 139.127 24.5696C138.936 22.8931 138.689 21.2141 138.218 19.5913C137.927 18.6401 137.581 17.6685 136.924 16.9083C136.478 16.373 135.786 16.1591 135.138 16.0006C133.615 15.6605 132.047 15.6324 130.496 15.6093C130.492 19.3382 130.495 23.0678 130.494 26.7966C130.511 27.7231 130.445 28.6572 130.574 29.5785C130.597 29.9101 130.875 30.1283 131.154 30.2527C131.882 30.5791 132.683 30.6899 133.474 30.7189C134.764 30.7684 136.055 30.7428 137.346 30.7488C139.1 30.6993 140.879 30.3891 142.462 29.5939C143.657 29.0032 144.709 28.1203 145.509 27.0447C146.5 25.7313 147.142 24.186 147.608 22.6118C148.101 20.9132 148.395 19.16 148.57 17.3992C148.777 17.3847 148.987 17.3847 149.198 17.4009C149.188 22.0374 149.193 26.6731 149.196 31.3096C139.941 31.3189 130.687 31.3104 121.432 31.3138C120.347 31.3087 119.263 31.3232 118.179 31.3062C118.181 31.1519 118.185 30.9976 118.187 30.8442C119.524 30.8519 120.863 30.8195 122.193 30.6729C122.786 30.5928 123.391 30.5169 123.945 30.2766C124.224 30.153 124.493 29.9263 124.538 29.6041C124.675 28.7612 124.614 27.9021 124.628 27.0523C124.628 19.6944 124.628 12.3357 124.628 4.97775C124.618 4.21665 124.667 3.44532 124.524 2.69359C124.468 2.26659 124.002 2.13874 123.66 2.02539C122.761 1.79782 121.835 1.70918 120.916 1.6214C119.64 1.5302 118.357 1.45008 117.08 1.54895C115.936 1.6589 114.736 1.96573 113.879 2.78649C113.308 3.3081 112.995 4.04875 112.808 4.78854C112.509 5.99029 112.469 7.2372 112.464 8.47048C112.463 13.1019 112.465 17.7333 112.463 22.3647C112.463 24.1537 112.071 25.9852 111.101 27.5006C110.291 28.797 109.087 29.7976 107.766 30.5238C106.792 31.0675 105.727 31.4493 104.629 31.6241C103.639 31.7886 102.634 31.7408 101.638 31.6897C98.7746 31.509 95.8712 30.7607 93.4999 29.0731C92.0895 28.0819 90.9367 26.6518 90.4778 24.9574C90.1081 23.7301 90.1982 22.4363 90.1881 21.1715C90.1907 15.5182 90.1873 9.86399 90.1864 4.21068C90.1822 3.68226 90.1856 3.14531 90.0635 2.62881C89.9734 2.22312 89.5162 2.10976 89.1819 1.98703C87.5542 1.53531 85.849 1.53105 84.1733 1.50122C84.175 1.35889 84.1801 1.21655 84.1885 1.07422Z" fill="black"/>
</g>
<defs>
<clipPath id="clip0_449_897">
<rect width="149" height="32" fill="white"/>
</clipPath>
</defs>
</svg>
