<svg width="133" height="38" viewBox="0 0 133 38" fill="none" xmlns="http://www.w3.org/2000/svg">
<path d="M39.8634 0H40.1035C40.7938 0.29782 41.5133 0.545675 42.2614 0.65218C42.6591 0.711349 43.0268 0.894775 43.4278 0.934879C44.0689 0.974325 44.7119 0.911869 45.3523 0.953287C45.7294 0.979585 46.0539 1.2018 46.4203 1.26491C46.8519 1.21626 47.2429 0.989446 47.6745 0.946055C47.9924 1.02955 48.2783 1.20772 48.5636 1.36616C48.7551 1.46412 48.8542 1.66201 48.9081 1.85924C49.2147 2.92889 49.4441 4.01959 49.7686 5.08398C49.8976 5.52183 50.1084 5.92879 50.3033 6.34035C50.413 6.57702 50.522 6.83408 50.4748 7.10035C50.3777 7.77028 50.0446 8.37578 49.891 9.03125C49.6888 10.0575 49.8245 11.1423 49.4441 12.1344C49.2566 12.6511 49.1635 13.1974 49.1236 13.7438C49.0803 14.7727 49.0777 15.8035 49.1142 16.8331C49.1196 17.3294 49.1881 17.8232 49.2838 18.3097C49.3969 18.8968 49.6649 19.451 49.6961 20.0532C49.7048 20.6752 49.3689 21.2287 49.2526 21.8237C49.357 22.3227 49.6143 22.779 49.7114 23.2799C49.76 23.9144 49.6482 24.5475 49.6562 25.1819C49.6622 25.623 49.893 26.0155 49.9814 26.4389C50.0053 26.8078 49.8763 27.1647 49.8211 27.5257C49.6409 28.573 49.3503 29.6269 49.4647 30.6985C49.5485 31.0732 49.7533 31.4111 49.9555 31.7353C50.141 32.0324 50.4981 32.133 50.82 32.2145C51.2742 32.3237 51.731 32.463 52.2045 32.4479C52.5337 32.4459 52.8542 32.3579 53.1701 32.2724C53.8963 32.0752 54.6464 31.9687 55.3985 31.9378C55.993 31.9193 56.6241 32.1159 57.0065 32.5873C57.4846 33.1737 57.7745 33.9699 57.5857 34.7207C57.3995 35.2894 57.1036 35.8245 56.7265 36.2913C56.5722 36.4596 56.4166 36.6661 56.1772 36.7121C55.6751 36.7923 55.1644 36.7561 54.6597 36.7989C54.1948 36.8409 53.7519 36.9908 53.3004 37.0954C53.0384 37.1644 52.7784 37.0618 52.5257 37.006C51.8567 36.837 51.1585 36.7772 50.4722 36.8554C49.5425 36.977 48.6095 36.8206 47.6792 36.7903C47.0228 36.7739 46.3545 36.7331 45.7108 36.8876C45.4368 36.9461 45.1688 37.0467 44.8862 37.0539C44.2817 37.0421 43.755 36.5536 43.1366 36.7029C42.8247 36.7318 42.4855 36.8791 42.1883 36.7147C41.9003 36.5865 41.6217 36.3991 41.2972 36.3866C40.9321 36.4399 40.6907 36.7574 40.3582 36.8837C40.0297 36.9277 39.6972 36.8699 39.3673 36.8863C38.8899 36.8902 38.4257 37.0073 37.9655 37.119C37.3517 37.2873 36.7233 37.094 36.1035 37.0756C34.9684 37.0349 33.8319 37.0612 32.6967 37.0224C32.2159 36.9948 31.7351 36.9823 31.255 36.9606C30.7556 36.9422 30.3167 37.2104 29.8432 37.3149C29.5845 37.3136 29.3631 37.148 29.1263 37.0658C28.5238 36.7903 27.8482 36.9954 27.2151 36.9073C26.7862 36.8311 26.4371 36.5181 26.0008 36.4721C25.6125 36.4958 25.2394 36.626 24.865 36.7226C24.466 36.8225 24.0963 37.0428 23.6773 37.0559C23.0329 37.0789 22.3859 37.0947 21.7455 37.1743C21.1357 37.2393 20.502 37.1539 19.9586 36.8639C19.2258 36.5037 18.8049 35.7621 18.1266 35.3269C17.8838 35.1638 17.5932 35.031 17.2927 35.0724C17.0706 35.1138 16.895 35.2657 16.7168 35.3913C16.0232 35.9074 15.1946 36.196 14.4598 36.6437C14.1519 36.8271 13.8792 37.1092 13.5015 37.1374C12.8392 37.213 12.1728 37.2545 11.5058 37.2663C10.5748 37.3353 9.6272 37.2341 8.7115 37.453C8.22406 37.5523 7.7785 37.7863 7.29306 37.8935C7.09223 37.9402 6.88474 37.8935 6.69655 37.8205C5.93579 37.5168 5.27877 37.0165 4.54727 36.6569C4.07379 36.4123 3.49591 36.5135 3.03573 36.2433C2.62077 35.956 2.36474 35.5076 1.99766 35.1697C1.56076 34.7062 0.97755 34.3755 0.64239 33.8213C0.322525 33.2927 0.299915 32.6603 0.24206 32.0633C0.21413 31.5919 0.164255 31.1219 0.12901 30.6505C0.099085 30.4066 0.09443 30.1554 0 29.9253V29.5565C0.228095 29.0917 0.381045 28.5966 0.60116 28.1285C0.975555 27.3081 1.46233 26.5237 2.12068 25.8952C2.49973 25.5165 2.92134 25.1609 3.42076 24.9505C3.67612 24.8321 3.96806 24.9117 4.23006 24.8321C4.4954 24.6875 4.68227 24.4403 4.93563 24.2799C5.26082 24.0623 5.65782 24.0071 6.03554 23.9413C6.68259 23.8414 7.32099 23.6961 7.95407 23.5337C8.44949 23.4002 8.96686 23.3785 9.46229 23.2451C9.67442 23.1892 9.88389 23.1189 10.1027 23.0919C10.5269 23.0288 10.9665 23.0899 11.3821 22.9657C12.0531 22.7691 12.6403 22.3786 13.2435 22.0387C13.3465 21.9848 13.4523 21.923 13.572 21.9171C14.0455 21.8829 14.5289 21.9782 14.9958 21.8697C15.2491 21.823 15.3662 21.5726 15.4273 21.3517C15.6022 20.7363 15.6541 20.096 15.71 19.4622C15.7632 18.7258 15.6395 17.9672 15.2757 17.3176C15.2125 17.1947 15.0988 17.1059 14.9632 17.0757C14.4471 16.9337 13.9005 16.9435 13.3884 16.7851C13.0885 16.6911 12.8132 16.5195 12.496 16.4853C11.9082 16.4498 11.3688 16.8048 10.779 16.7404C10.4857 16.6733 10.2709 16.4228 9.97101 16.3716C9.75289 16.3374 9.53144 16.3545 9.31199 16.3321C8.99413 16.3058 8.68889 16.2072 8.37434 16.1631C7.88291 16.1007 7.3815 16.2328 6.95058 16.4636C6.71118 16.6082 6.42257 16.8403 6.48708 17.1533C6.58084 17.5655 6.85149 17.904 7.04368 18.2729C7.11949 18.4149 7.10619 18.5799 7.1042 18.7351C7.09355 19.3958 6.98982 20.0611 6.74243 20.6771C6.55424 21.1406 6.21043 21.5752 5.72764 21.7573C5.24086 21.9 4.73347 21.7705 4.24868 21.6883C3.84303 21.616 3.43605 21.8171 3.03506 21.706C2.70522 21.6061 2.40398 21.4306 2.12135 21.2379C1.80281 21.0151 1.49891 20.7468 1.32734 20.3938C1.08927 19.9145 0.968905 19.3866 0.895755 18.86C0.774725 17.9185 0.77539 16.9251 1.1325 16.031C1.36126 15.4406 1.79816 14.9475 2.32018 14.5906C2.68195 14.3604 3.06898 14.1606 3.38485 13.8661C3.74861 13.5248 4.10904 13.179 4.48277 12.847C4.85251 12.5019 5.30005 12.2573 5.70105 11.9522C5.86796 11.8385 6.03155 11.684 6.24635 11.6801C7.1554 11.659 8.08507 11.7839 8.9755 11.5433C9.58066 11.4053 10.2024 11.3757 10.8162 11.2948C11.1614 11.2508 11.45 11.0516 11.7506 10.8964C12.0451 10.7366 12.3969 10.7919 12.7101 10.8589C13.4244 11.0226 14.1565 11.0857 14.878 11.2061C15.4027 11.2889 15.8283 11.6242 16.3031 11.8339C16.7587 12.062 17.28 12.1745 17.673 12.5111C18.1159 12.8819 18.4963 13.3171 18.8913 13.7352C19.6202 14.5202 20.1688 15.4656 20.496 16.48C20.8045 17.4445 20.738 18.4767 21.01 19.449C21.0845 19.6962 21.0606 19.9566 21.0127 20.2064C20.9362 20.6002 20.9748 21.0032 21.0359 21.3957C21.129 22.0518 21.016 22.7099 20.9581 23.3634C20.8464 24.4022 20.8092 25.4462 20.7101 26.4863C20.6509 26.9682 20.5119 27.4461 20.5591 27.9366C20.5751 28.2725 20.7081 28.5901 20.7281 28.926C20.7799 29.6111 20.2466 30.1988 20.3364 30.8872C20.4235 31.3848 20.6123 31.8615 20.8391 32.3125C20.9422 32.4933 21.0552 32.7221 21.2886 32.7517C21.5094 32.7786 21.7847 32.7964 21.935 32.5985C22.2562 32.231 22.5089 31.7195 23.0263 31.5979C23.5483 31.5269 24.0737 31.6215 24.5944 31.6623C25.4735 31.7576 26.3546 31.8464 27.2244 32.0048C27.5157 32.0469 27.8169 32.154 28.1102 32.0798C28.4474 31.8674 28.5119 31.4315 28.5957 31.0758C28.8164 29.7544 28.9375 28.4198 29.0977 27.0911C29.1376 26.7394 29.1742 26.385 29.1576 26.0307C29.1529 25.7427 28.8949 25.533 28.8843 25.2476C28.8563 24.6546 28.9415 24.0643 28.9594 23.4719C29.0179 22.8151 29.0425 22.1564 29.0791 21.4983C29.0505 20.7633 29.0193 20.0269 28.9049 19.2991C28.8091 18.6884 28.7792 18.0651 28.8411 17.4498C28.8943 16.9534 29.127 16.4807 29.0858 15.9758C28.9893 15.4183 28.476 15.0291 28.4022 14.463C28.3297 13.9094 28.6309 13.4098 28.742 12.8838C28.8364 12.4302 28.6422 11.993 28.5431 11.5584C28.4633 11.3185 28.6495 11.1088 28.7147 10.8885C28.8663 10.5151 28.7074 10.1187 28.5624 9.77086C28.3117 9.19955 28.061 8.62889 27.8542 8.04048C27.7751 7.86166 27.6906 7.6092 27.4625 7.58685C27.1134 7.5954 26.8208 7.86298 26.4657 7.83668C26.0494 7.80709 25.7069 7.53886 25.3072 7.45208C25.002 7.43893 24.7673 7.70651 24.4634 7.72754C24.0464 7.82419 23.7013 7.5382 23.3881 7.31467C22.7603 6.85118 22.0062 6.56848 21.4416 6.02017C20.9708 5.56523 20.6084 4.94329 20.6296 4.27467C20.5977 3.36477 21.0732 2.53509 21.6012 1.82439C22.0581 1.21363 22.6 0.59564 23.3575 0.359619C23.8775 0.193287 24.3995 0.435225 24.8883 0.592353C26.6479 1.18602 28.5445 0.942111 30.3466 1.30962C30.7902 1.41612 31.2191 1.23467 31.6354 1.10844C31.8715 1.01114 32.0916 1.17682 32.2971 1.27017C32.6016 1.43585 32.9474 1.58048 33.1429 1.88028C33.3371 2.20637 33.3551 2.59491 33.4428 2.95585C33.665 3.93938 33.9376 4.91436 34.2974 5.85779C34.453 6.29104 34.7489 6.6901 34.7436 7.16675C34.7383 7.96291 34.2794 8.65782 34.1298 9.42439C33.9935 10.2482 34.0586 11.091 33.9157 11.9141C33.8352 12.4098 33.4568 12.826 33.4881 13.344C33.4994 15.0981 33.4827 16.8528 33.4961 18.6069C33.5905 19.1847 33.9522 19.6831 34.0872 20.2498C33.9749 20.8711 33.6384 21.449 33.6104 22.09C33.6384 22.7014 33.9443 23.2602 34.0034 23.8664C33.9975 24.3943 33.8538 24.9143 33.8824 25.4442C33.8851 25.9195 34.1537 26.3475 34.1557 26.8229C34.1597 27.191 34.0633 27.5507 33.9961 27.9103C33.8385 28.6328 33.8711 29.377 33.8651 30.1114C33.8638 30.7715 33.925 31.467 34.2894 32.0397C34.4889 32.3592 34.8979 32.4072 35.2324 32.5025C35.6513 32.5893 36.0636 32.7464 36.4952 32.7477C37.2161 32.6241 37.7574 32.0936 38.3971 31.7872C38.7396 31.6189 39.1293 31.6373 39.501 31.6406C40.2551 31.6334 41.0052 31.7241 41.7593 31.7293C42.4928 31.7892 43.2297 31.7747 43.9651 31.7826C44.0596 31.5893 44.1407 31.3894 44.2052 31.185C44.6002 29.7274 44.6534 28.2088 44.9606 26.7348C45.0119 26.4376 45.1076 26.1451 45.1056 25.8413C45.069 25.4968 44.6694 25.2864 44.7139 24.9189C44.7578 23.9762 44.8562 23.0347 44.8469 22.0893C44.8636 20.7849 44.8463 19.476 44.6681 18.1815C44.5324 17.3406 45.0265 16.5543 44.9753 15.7167C44.8955 15.2467 44.5171 14.9009 44.3721 14.4538C44.2385 14.0942 44.3236 13.7037 44.438 13.3506C44.6035 12.847 44.6328 12.3046 44.5497 11.7826C44.5184 11.5663 44.442 11.3527 44.4566 11.1324C44.5178 10.8589 44.7332 10.6216 44.7046 10.329C44.6614 9.97664 44.5104 9.65055 44.3781 9.32446C44.144 8.78208 43.9339 8.23048 43.7091 7.68415C43.6107 7.48298 43.5269 7.2154 43.2888 7.14242C43.0109 7.17595 42.808 7.39751 42.5487 7.481C42.1583 7.4764 41.7839 7.3436 41.3963 7.31533C41.1588 7.27785 40.9128 7.30284 40.6807 7.24104C40.4187 7.03855 40.3163 6.65394 39.9758 6.54875C39.5668 6.43567 39.11 6.44882 38.7495 6.19768C38.2388 5.85187 37.8139 5.35353 37.6111 4.77104C37.385 3.93478 37.514 3.0308 37.8571 2.24318C38.0732 1.74221 38.3266 1.24914 38.6691 0.819827C38.9763 0.43654 39.4199 0.198547 39.8634 0ZM15.4466 26.0287C14.5582 26.2226 13.695 26.5158 12.8066 26.7085C11.3968 26.9182 9.91515 26.79 8.56919 27.3304C7.847 27.6374 7.15208 28.0043 6.42523 28.3028C6.0515 28.4823 5.59797 28.6078 5.37586 28.9865C5.07927 29.4881 4.89573 30.0555 4.83787 30.634C4.80529 31.3474 5.06398 32.1028 5.63189 32.5682C6.12864 32.989 6.79696 33.081 7.37817 33.3407C7.68075 33.463 7.97402 33.653 8.3125 33.6524C8.64766 33.6445 8.91898 33.4242 9.22887 33.3282C9.75555 33.1395 10.3228 33.1737 10.8708 33.1152C11.2352 33.0824 11.6062 33.1054 11.964 33.0173C12.1017 32.989 12.1828 32.8667 12.2639 32.7655C12.7195 32.1534 13.1218 31.4821 13.7389 31.0101C14.3753 30.5361 15.0589 30.1278 15.6953 29.6538C15.8516 29.5381 16.0119 29.4046 16.0677 29.2113C16.1329 28.9911 16.1661 28.7617 16.1801 28.5335C16.2014 27.8919 16.2626 27.2469 16.1987 26.6059C16.1741 26.2483 15.829 25.884 15.4466 26.0287Z" fill="#303030"/>
<path d="M118.623 8.67762C118.967 8.55271 119.338 8.57309 119.699 8.56125C120.63 8.51655 121.564 8.52575 122.497 8.50932C122.871 8.48696 123.183 8.71904 123.506 8.86893C124.381 9.31336 125.311 9.63419 126.221 9.99973C127.175 10.4218 128.143 10.8853 128.886 11.6302C129.259 11.9898 129.674 12.3041 130.1 12.6012C130.509 12.8885 130.772 13.3224 130.979 13.7649C131.332 14.5006 131.671 15.2428 131.96 16.0054C132.172 16.5879 132.371 17.1901 132.379 17.8154C132.371 18.4965 132.736 19.0967 133 19.7029V20.7324C132.672 21.4766 132.482 22.2748 132.117 23.0032C131.699 23.7612 130.935 24.2977 130.113 24.5554C129.44 24.7724 128.758 24.4654 128.078 24.4706C127.515 24.4516 126.97 24.6047 126.422 24.702C125.959 24.7895 125.486 24.775 125.017 24.7546C123.689 24.6514 122.364 24.4621 121.029 24.4897C120.52 24.4884 120.046 24.6909 119.572 24.8473C119.425 24.8914 119.275 24.9551 119.12 24.9302C118.644 24.8605 118.174 24.6981 117.688 24.7428C117.183 24.7901 116.684 24.9065 116.175 24.8901C115.681 24.9104 115.166 24.779 114.687 24.9466C114.307 25.1004 113.901 25.295 113.672 25.6468C113.683 26.0307 113.803 26.4028 113.869 26.7802C114.043 27.602 114.244 28.4231 114.552 29.2075C114.771 29.7328 115.081 30.2666 115.596 30.5559C116.031 30.8149 116.54 30.8938 117.009 31.0706C117.627 31.2929 118.022 31.8984 118.675 32.0502C119.358 32.2152 120.066 32.3112 120.711 32.6045C120.958 32.6866 121.203 32.8858 121.476 32.7944C122.105 32.6222 122.736 32.4526 123.375 32.3125C123.838 32.21 124.337 32.158 124.725 31.8629C125.922 31.0029 126.746 29.765 127.643 28.6263C127.911 28.3035 128.155 27.9544 128.48 27.6829C128.697 27.4929 129.001 27.4797 129.276 27.4606C129.718 27.4442 130.162 27.4449 130.605 27.4646C130.94 27.4909 131.3 27.5027 131.588 27.6973C132.098 28.0385 132.37 28.6546 132.385 29.2515C132.461 30.4724 131.997 31.6485 131.441 32.7149C131.133 33.2724 130.821 33.9055 130.204 34.1816C129.575 34.4788 128.928 34.7378 128.315 35.0698C127.187 35.6793 126.06 36.2966 124.878 36.7996C124.477 36.96 124.067 37.171 123.622 37.123C122.889 37.0533 122.145 36.9738 121.414 37.1046C120.738 37.2223 120.056 37.3689 119.365 37.3137C118.698 37.2598 117.997 37.194 117.416 36.8357C117.006 36.5958 116.682 36.2473 116.33 35.937C116.126 35.7516 115.852 35.6655 115.579 35.6753C115.062 35.6793 114.547 35.5846 114.064 35.4051C113.074 35.0304 112.196 34.4025 111.445 33.6702C111.045 33.2954 110.917 32.7497 110.767 32.2475C110.559 31.5262 110.188 30.8675 109.82 30.2173C109.313 29.2923 108.739 28.4001 108.32 27.4317C107.947 26.5718 107.793 25.6435 107.61 24.7316C107.521 24.2491 107.408 23.7645 107.418 23.2714C107.416 22.8224 107.628 22.4063 107.646 21.9592C107.674 21.3668 107.588 20.7738 107.628 20.1815C107.659 19.7417 107.827 19.3275 107.991 18.9225C108.299 18.1881 108.626 17.4603 108.877 16.7043C109.183 15.655 109.496 14.5841 110.125 13.6715C110.423 13.2383 110.761 12.7998 111.245 12.5585C111.445 12.448 111.671 12.3757 111.852 12.2304C112.048 12.0417 112.13 11.7682 112.313 11.5677C112.577 11.2771 112.905 11.0549 113.223 10.8274C113.928 10.3396 114.644 9.86627 115.351 9.38042C115.477 9.29561 115.615 9.21212 115.775 9.22461C116.398 9.23381 117.022 9.1845 117.64 9.0997C118.008 9.06288 118.284 8.79399 118.623 8.67762ZM120.519 13.9608C119.926 14.0187 119.366 14.2336 118.808 14.4296C118.163 14.6787 117.496 14.9877 117.08 15.5597C116.87 15.8194 116.7 16.1718 116.34 16.2474C115.82 16.3644 115.258 16.4144 114.811 16.7286C114.388 17.033 114.143 17.509 113.919 17.9626C113.702 18.4274 113.597 18.9777 113.758 19.4741C113.881 19.8357 114.301 19.9389 114.644 19.9527C115.482 20.027 116.328 19.7167 117.156 19.9501C117.709 20.1052 118.296 20.1499 118.862 20.0329C119.533 19.8994 120.164 20.2301 120.807 20.3577C121.758 20.5707 122.72 20.3103 123.641 20.0829C124.124 19.9409 124.63 19.8666 125.096 19.6759C125.809 19.2552 126.271 18.4465 126.265 17.624C126.284 17.0514 126.223 16.3729 125.732 15.9916C125.154 15.5518 124.515 15.1876 123.849 14.8963C123.391 14.686 122.887 14.6025 122.429 14.3914C122.068 14.2435 121.745 13.995 121.352 13.9352C121.075 13.897 120.795 13.9378 120.519 13.9608Z" fill="#303030"/>
<path d="M81.9678 9.97102C82.5251 9.53119 83.2107 9.23206 83.9236 9.16697C84.7209 9.14659 85.5196 9.16105 86.3182 9.16368C87.0185 9.17749 87.724 9.14988 88.419 9.24915C88.7448 9.35039 89.0634 9.59431 89.4211 9.45164C89.9584 9.25572 90.5343 9.14922 91.1076 9.22351C91.7227 9.28991 92.399 9.53842 92.7009 10.1124C92.9988 10.7376 93.1172 11.4279 93.3845 12.065C93.4743 12.2734 93.5647 12.4916 93.729 12.6553C93.8859 12.8434 94.1792 12.8125 94.378 12.7112C94.8289 12.4713 95.2006 12.1162 95.593 11.7961C96.0026 11.4667 96.389 11.0841 96.8937 10.898C97.1365 10.7915 97.4045 10.7784 97.6638 10.7389C97.8713 10.7001 98.0289 10.5469 98.1885 10.42C98.6427 10.0427 99.1295 9.68635 99.6901 9.47925C100.314 9.2406 100.999 9.16828 101.662 9.25572C101.987 9.29911 102.284 9.45822 102.611 9.49306C102.981 9.52659 103.272 9.16763 103.644 9.23732C104.009 9.3688 104.231 9.7087 104.468 9.99403C105.222 10.969 105.909 11.9913 106.597 13.011C106.691 13.5389 106.681 14.0899 106.75 14.625C106.808 15.3265 106.909 16.0241 107.03 16.7177C107.117 17.2594 107.177 17.8432 106.944 18.3586C106.729 18.855 106.283 19.1949 105.857 19.5072C105.116 20.0345 104.361 20.5479 103.543 20.9516C102.994 20.6735 102.417 20.4546 101.862 20.1903C101.202 19.8491 100.669 19.3073 100.252 18.7038C99.9614 18.2797 99.6927 17.8103 99.6515 17.2896C99.6202 16.6592 99.8636 16.0602 99.9707 15.4475C100.006 15.201 100.01 14.9137 99.8237 14.7217C99.7187 14.583 99.5238 14.6362 99.3795 14.6612C98.8695 14.771 98.4798 15.1346 98.0914 15.4541C97.4776 15.9873 96.8073 16.456 96.2274 17.0267C95.8736 17.362 95.6642 17.8057 95.4314 18.2232C95.1375 18.7814 94.7824 19.3119 94.3415 19.7669C93.9558 20.2192 93.4929 20.6104 93.1837 21.1225C93.0334 21.3769 92.8978 21.6399 92.7714 21.9062C92.685 22.0633 92.7368 22.2448 92.7541 22.4118C92.8864 23.1948 92.9556 23.989 92.9263 24.7831C92.8372 26.6904 92.6856 28.5943 92.6437 30.5042C92.6298 30.6284 92.7534 30.6948 92.8293 30.7731C93.5435 31.4108 94.3248 32.0176 95.2292 32.3595C96.6656 32.3812 98.104 32.3562 99.5411 32.3707C99.7865 32.4331 99.9361 32.6744 100.126 32.8295C100.515 33.1694 100.777 33.6645 100.772 34.1852C100.745 34.7591 100.466 35.2877 100.104 35.7249C99.7645 36.1634 99.2046 36.3482 98.6799 36.4658C97.8952 36.6236 97.0952 36.74 96.2932 36.719C95.8198 36.7111 95.3629 36.5776 94.8987 36.5092C94.513 36.4297 94.2317 36.7768 93.8726 36.8373C93.5076 36.8932 93.1365 36.9057 92.7681 36.9037C92.0352 36.9024 91.3031 36.903 90.5702 36.905C90.2032 36.9307 89.9245 36.6466 89.5787 36.5776C89.2269 36.4612 88.8612 36.5678 88.5207 36.6664C87.887 36.8478 87.2087 36.8209 86.5689 36.6821C86.3561 36.6427 86.1413 36.575 85.9239 36.6085C85.4524 36.6927 85.0015 36.88 84.5221 36.9215C84.2062 36.9537 83.9515 36.7341 83.7254 36.5487C83.226 36.1121 82.8489 35.5185 82.7206 34.8676C82.6082 34.3121 82.7751 33.7388 83.0571 33.2582C83.333 32.7947 83.8371 32.4916 84.3698 32.4134C84.9497 32.324 85.5289 32.466 86.1048 32.5199C86.5703 32.5613 86.9979 32.3174 87.3802 32.084C87.6715 31.8861 87.9754 31.6442 88.0592 31.2859C88.2853 30.4319 88.4841 29.5516 88.3997 28.6627C88.3252 28.0302 88.3046 27.3925 88.3305 26.7561C88.3312 26.0987 88.3438 25.4406 88.3957 24.7845C88.3937 23.841 88.4795 22.9002 88.4702 21.9568C88.4801 20.116 88.528 18.2712 88.3937 16.4337C88.3698 16.0918 88.2215 15.7604 87.9767 15.5172C87.5624 15.0892 87.0132 14.8315 86.5031 14.5363C86.2524 14.3995 85.9658 14.2207 85.6705 14.3325C85.1837 14.5093 84.7209 14.7966 84.1882 14.8104C83.8597 14.7966 83.5512 14.6665 83.2652 14.5152C82.557 14.1352 81.9505 13.5777 81.5096 12.9111C81.2589 12.5114 80.9882 12.0643 81.0248 11.5765C81.1312 10.9545 81.4783 10.3747 81.9678 9.97102Z" fill="#303030"/>
<path d="M70.9581 10.0162C71.3605 10.0353 71.7448 9.88013 72.0886 9.6875C72.467 9.82228 72.8394 9.98269 73.2364 10.0603C74.1761 10.2181 75.1357 10.2233 76.0713 10.4081C76.4936 10.485 76.8986 10.6802 77.1825 11.005C77.4598 11.2739 77.5204 11.6703 77.5729 12.0332C77.67 12.8452 77.8622 13.6446 77.9001 14.4638C77.936 15.3395 77.9114 16.2172 77.9194 17.0936C77.9307 18.0764 77.8695 19.0586 77.7644 20.0356C77.6893 20.6759 77.4898 21.2926 77.2637 21.8942C77.0522 22.4155 77.1147 22.9862 77.1101 23.5351C77.0954 24.0802 77.2963 24.5969 77.3654 25.1321C77.4133 25.8046 77.4492 26.4778 77.4492 27.1524C77.4519 28.1609 77.4765 29.1714 77.3834 30.1773C77.39 30.5612 77.2524 31.0286 77.5662 31.3324C77.8588 31.6223 78.2964 31.6723 78.6834 31.7512C79.4389 31.8623 80.2156 31.9615 80.9065 32.3074C81.2264 32.473 81.5376 32.715 81.6626 33.0634C81.8668 33.5894 81.8582 34.1613 81.8369 34.7156C81.8222 34.9772 81.7178 35.2441 81.4964 35.4013C80.8873 35.8805 80.2143 36.275 79.6038 36.7536C79.3318 36.9417 79.0878 37.1783 78.7845 37.3164C78.3935 37.3499 78.0317 37.1527 77.656 37.0791C76.9584 36.8752 76.2163 36.8733 75.5327 36.6188C74.9089 36.3966 74.2885 36.16 73.6853 35.8878C73.3821 35.7642 73.2265 35.465 73.0422 35.2178C72.9245 35.0614 72.7969 34.9121 72.6798 34.7563C71.9809 35.0936 71.3558 35.5558 70.7028 35.9693C70.1768 36.3 69.6674 36.6557 69.152 37.0015C69.0695 37.0501 68.9897 37.1132 68.8913 37.1211C68.3194 37.1921 67.7415 37.1731 67.167 37.2046C66.5671 37.2631 65.9633 37.2355 65.3642 37.2927C64.896 37.3269 64.5229 36.9324 64.0534 36.9653C63.3073 36.9975 62.4814 37.2079 61.8084 36.7753C61.0762 36.3191 60.5136 35.6439 59.9876 34.9746C58.7288 33.2856 57.7413 31.3896 57.1561 29.3706C56.9087 28.5205 56.9652 27.629 56.9087 26.7566C56.8947 25.136 56.8794 23.5148 56.8761 21.8942C56.8335 21.0619 56.8289 20.2289 56.8109 19.3966C56.7504 18.5235 56.6493 17.6511 56.4432 16.799C56.3966 16.6472 56.3667 16.4782 56.2497 16.3618C56.0741 16.3309 55.9005 16.3842 55.727 16.3947C55.3473 16.419 54.9642 16.3796 54.5958 16.2888C54.1496 16.1843 53.7832 15.8924 53.4347 15.6137C52.9892 15.2172 52.5463 14.7596 52.3893 14.1712C52.255 13.4928 52.3182 12.7972 52.3774 12.1141C52.4259 11.7413 52.4745 11.3383 52.7298 11.0405C53.0317 10.7019 53.3942 10.4081 53.8091 10.2128C54.3837 9.94061 55.066 9.94127 55.6678 10.1254C56.0754 10.2351 56.4824 10.4633 56.9153 10.3942C57.3197 10.0307 57.9042 9.97151 58.4262 10.0366C59.3366 10.1865 60.1692 10.646 60.8774 11.2174C61.434 11.6999 61.9786 12.2614 62.1981 12.978C62.2845 13.5519 62.2393 14.1351 62.2101 14.7117C62.1236 15.279 61.8536 15.7991 61.7432 16.3612C61.6661 16.7103 61.696 17.0692 61.6914 17.4236C61.6887 17.9982 61.8962 18.5537 62.2008 19.0369C62.3856 19.3703 62.6596 19.7069 62.617 20.1099C62.5519 20.4366 62.3557 20.716 62.2074 21.0086C61.9747 21.4274 61.8689 21.8981 61.7652 22.3596C61.708 22.6377 61.6481 22.9224 61.6787 23.2077C61.7645 23.6009 62.0837 23.8987 62.1861 24.2827C62.2407 26.1301 62.1855 27.9821 62.2719 29.8275C62.6124 30.3489 63.0619 30.7933 63.5022 31.2338C63.848 31.5585 64.2097 31.9063 64.6732 32.0556C65.4692 32.2285 66.2905 32.1529 67.0978 32.2199C67.9829 31.3508 68.743 30.3692 69.5058 29.3962C70.0291 28.7039 70.5545 28.011 71.0213 27.2793C71.4961 26.4555 71.828 25.5548 72.086 24.6442C72.1405 24.4063 72.2522 24.1617 72.1844 23.9158C72.0401 23.3386 71.8373 22.7594 71.8652 22.1572C71.9071 21.6509 71.9696 21.1467 72.0341 20.6424C72.0288 19.8515 71.5613 19.1441 71.5221 18.3618C71.695 17.8522 72.2595 17.5623 72.3679 17.0193C72.3766 16.6623 72.1332 16.2921 71.7714 16.206C71.2268 16.0653 70.6888 15.901 70.1675 15.6912C69.8463 15.5696 69.5178 15.4092 69.1646 15.4375C68.3347 15.5177 67.441 15.4256 66.7387 14.9464C66.3277 14.6643 65.9507 14.3132 65.6993 13.8826C65.4612 13.4474 65.706 12.9589 65.9228 12.5691C66.373 11.8551 66.9462 11.2253 67.536 10.6211C67.9031 10.3108 68.235 9.91563 68.7098 9.76508C69.4732 9.63753 70.1974 10.0346 70.9581 10.0162Z" fill="#303030"/>
</svg>
