<svg width="137" height="44" viewBox="0 0 137 44" fill="none" xmlns="http://www.w3.org/2000/svg">
<path opacity="0.4" d="M0.408881 0.601501C6.52041 0.587788 12.6319 0.602693 18.7435 0.59375C18.8371 0.60627 19.0205 0.567517 19.0002 0.705241C19.0054 4.44763 19.0048 8.19061 19.0008 11.933C18.8476 11.9384 18.695 11.9378 18.5424 11.9324C18.5529 11.6617 18.528 11.3898 18.5673 11.1204C18.5869 11.3881 18.5935 11.6558 18.5896 11.9235C18.7035 11.9217 18.8181 11.9199 18.9327 11.9181C18.9478 8.16378 18.9353 4.40947 18.9386 0.655159C12.7747 0.653967 6.61078 0.654563 0.44752 0.654563C0.44883 0.760688 0.45014 0.866216 0.45145 0.971745C1.56216 0.979495 2.67418 0.958628 3.78489 0.982476C3.68469 1.00155 3.58384 1.01229 3.48167 1.01467C2.45544 1.0099 1.42987 1.01348 0.404297 1.01229C0.404952 0.875755 0.406262 0.738628 0.408881 0.601501Z" fill="#303030"/>
<path d="M0.447266 0.656399C6.61053 0.656399 12.7744 0.655803 18.9384 0.656995C18.9351 4.4113 18.9475 8.16561 18.9325 11.9199C18.8179 11.9217 18.7033 11.9235 18.5893 11.9253C18.5932 11.6576 18.5867 11.3899 18.567 11.1222C18.5598 10.9761 18.5533 10.8301 18.5487 10.6834C18.5494 9.94708 18.4813 9.21017 18.368 8.4816C18.366 8.46849 18.3621 8.44285 18.3608 8.42973C18.3306 8.06307 18.2697 7.69878 18.1721 7.34166C18.1702 7.32317 18.1669 7.28502 18.1656 7.26653C18.1702 7.20393 18.1545 7.1461 18.1184 7.09304C18.1119 7.07336 18.1001 7.03401 18.0935 7.01494C18.0647 6.84681 18.0215 6.68106 17.9757 6.51651L17.9717 6.47358C17.9816 6.35136 17.939 6.2351 17.8617 6.13613L17.844 6.10453C17.7884 5.85412 17.698 5.61206 17.5788 5.38073L17.5736 5.35629C17.5611 5.32648 17.5356 5.26746 17.5231 5.23765L17.4635 5.16312C17.4622 5.16133 17.459 5.15716 17.4576 5.15537L17.4498 5.05282C17.4537 4.95981 17.3902 4.8835 17.3293 4.81553L17.2723 4.74697C17.2703 4.74458 17.2664 4.73922 17.2651 4.73683C17.2179 4.6635 17.1767 4.58838 17.14 4.51087C17.1394 4.50908 17.138 4.5055 17.1374 4.50372L17.1125 4.41428C17.0948 4.31054 17.0516 4.19965 16.9344 4.15971L16.9232 4.11201C16.9128 4.0506 16.8761 4.00469 16.8139 3.97488L16.7982 3.95521C16.7261 3.82583 16.6475 3.69705 16.5238 3.60225C16.4733 3.55694 16.4255 3.50805 16.3967 3.44843C16.362 3.36794 16.2939 3.30832 16.2179 3.26003C16.0778 3.15629 15.9573 3.03228 15.8322 2.91363C15.7208 2.79618 15.5872 2.699 15.4464 2.61315L15.4242 2.59168C15.394 2.53504 15.3449 2.50106 15.2781 2.49092C15.2487 2.47244 15.1891 2.43607 15.1596 2.41759C15.1046 2.3216 14.9978 2.2745 14.8845 2.2584L14.785 2.23277C14.7824 2.23158 14.7778 2.23038 14.7758 2.22919L14.6547 2.17374C14.652 2.17315 14.6481 2.17076 14.6462 2.17017L14.5237 2.11233C14.5211 2.11174 14.5171 2.10935 14.5152 2.10876L14.3921 2.0545C14.3901 2.05331 14.3855 2.05152 14.3835 2.05033L14.2624 1.99607C14.2598 1.99429 14.2552 1.9919 14.2526 1.99071L14.1772 1.94063C14.1013 1.87922 14.005 1.84583 13.9042 1.84166L13.8334 1.83212C13.802 1.82019 13.7385 1.79634 13.7064 1.78442L13.6782 1.77846C13.4444 1.69141 13.2021 1.62285 12.9506 1.59602L12.91 1.58469C12.8524 1.54952 12.7889 1.53461 12.7201 1.53938C12.686 1.5358 12.6173 1.52924 12.5826 1.52567C12.5217 1.49228 12.4555 1.47916 12.3854 1.48572C12.3376 1.48036 12.2414 1.46903 12.1929 1.46366C12.092 1.43624 11.9879 1.41954 11.8831 1.42074C11.855 1.41835 11.7986 1.41477 11.7705 1.41298C11.5779 1.38735 11.3848 1.36946 11.1909 1.36648C11.1045 1.36231 11.0187 1.35754 10.9335 1.34919C10.3546 1.27824 9.76846 1.32355 9.18625 1.31342C9.17839 7.86989 9.18101 14.427 9.18429 20.9834L9.24716 20.984C9.29235 20.984 9.38338 20.9852 9.42922 20.9858C9.70624 20.9972 9.98392 20.9811 10.2583 20.9447C10.2852 20.9429 10.3389 20.9399 10.3657 20.9387C10.4535 20.9423 10.5399 20.9232 10.6224 20.8964C10.6454 20.891 10.6906 20.8815 10.7128 20.8761C11.0822 20.8308 11.4522 20.7479 11.777 20.5756L11.8347 20.5476C11.8432 20.5434 11.8609 20.5345 11.8694 20.5303L11.9434 20.494C11.9539 20.4886 11.9761 20.4779 11.9866 20.4725L12.06 20.4385C12.0691 20.4349 12.0881 20.429 12.0979 20.4254L12.1949 20.3998C12.2754 20.3932 12.3219 20.3562 12.3344 20.2895L12.3966 20.2817C12.4653 20.2746 12.5145 20.2406 12.5433 20.1786C12.5649 20.1607 12.6081 20.1249 12.6297 20.107C12.7843 20.0349 12.9146 19.9294 13.003 19.7928C13.0737 19.6968 13.1608 19.6134 13.2512 19.5329C13.373 19.4381 13.4483 19.3087 13.523 19.1823L13.544 19.1602C13.6337 19.0935 13.6874 19.0005 13.7123 18.8979L13.7345 18.8586C13.7954 18.793 13.8662 18.7202 13.8544 18.6272L13.8577 18.5169C13.8596 18.5152 13.8629 18.5104 13.8649 18.508L13.9231 18.4323C13.9356 18.4025 13.9605 18.3434 13.9729 18.3136L13.9755 18.2498C13.9919 18.2224 14.024 18.167 14.0404 18.1395L14.043 18.0692C14.0587 18.0412 14.0895 17.9857 14.1052 17.9577L14.1078 17.876C14.1235 17.848 14.155 17.792 14.1707 17.7639C14.1687 17.7305 14.1661 17.6644 14.1648 17.6316C14.1825 17.6059 14.2178 17.5553 14.2362 17.5302C14.2368 17.5105 14.2388 17.4712 14.2401 17.4521C14.3023 17.2554 14.3423 17.0533 14.3632 16.8494C14.3685 16.8261 14.3796 16.779 14.3848 16.7552C14.4156 16.6633 14.432 16.5679 14.432 16.472C14.4359 16.4368 14.4444 16.3652 14.449 16.3301C14.4864 16.2007 14.5008 16.0683 14.4929 15.9354L14.4962 15.8656C14.5466 15.5645 14.5597 15.2599 14.5525 14.9558C14.561 14.7752 14.5663 14.5939 14.5787 14.4133C14.6298 14.0132 14.6134 13.6102 14.6173 13.2089C14.7261 13.2095 14.8348 13.2101 14.9441 13.2113C14.9435 18.4657 14.9448 23.7206 14.9435 28.9756C14.8348 28.975 14.7261 28.975 14.6173 28.9756C14.616 28.5588 14.6206 28.1415 14.5892 27.7259C14.5754 27.596 14.5911 27.4654 14.6311 27.3414C14.6154 27.3378 14.5833 27.3312 14.5669 27.3277L14.5433 27.3235C14.5754 26.6707 14.4844 26.016 14.3685 25.3727L14.3665 25.3602C14.3429 25.1563 14.2977 24.956 14.2427 24.758L14.2401 24.7217C14.2532 24.6513 14.229 24.6 14.1668 24.5684L14.1733 24.4802C14.1995 24.355 14.1307 24.2417 14.0594 24.141L14.0305 24.0843C14.0181 24.0551 13.9939 23.9961 13.9814 23.9669L13.971 23.9037C13.9651 23.8112 13.929 23.723 13.8603 23.6544L13.8033 23.5847C13.8013 23.5829 13.7987 23.5781 13.7967 23.5757L13.7339 23.466C13.7326 23.4643 13.7306 23.4607 13.7299 23.4583L13.673 23.3492C13.6723 23.3474 13.6704 23.3432 13.6697 23.3414L13.6461 23.2568C13.6356 23.1942 13.6003 23.1465 13.5407 23.1131L13.5223 23.0916C13.4457 22.9652 13.3619 22.8418 13.2479 22.7405C13.2355 22.725 13.21 22.6952 13.1969 22.6797C13.1071 22.5014 12.9552 22.3631 12.76 22.2808C12.7424 22.2683 12.7077 22.2432 12.69 22.2313C12.5793 22.127 12.445 22.0477 12.2996 21.9898L12.2368 21.9612C12.2348 21.96 12.2302 21.9582 12.2283 21.957C12.1791 21.9326 12.0816 21.8837 12.0324 21.8593C12.0285 21.8569 12.0207 21.8521 12.0174 21.8497L11.9486 21.7955C11.8805 21.7275 11.7816 21.6995 11.684 21.6941L11.6074 21.684C11.5766 21.6703 11.5144 21.644 11.4836 21.6303L11.4136 21.6291C11.3828 21.6148 11.3212 21.5862 11.2904 21.5719L11.202 21.5689C11.1706 21.5558 11.1077 21.5284 11.0769 21.5153C11.0462 21.5117 10.9853 21.5045 10.9551 21.5015C10.8995 21.4646 10.8373 21.4485 10.7691 21.4533C10.7469 21.4521 10.7023 21.4491 10.6807 21.4479C10.2708 21.3668 9.85163 21.3275 9.43249 21.3477C9.38665 21.3477 9.29496 21.3489 9.24912 21.3495H9.18363C9.18036 28.3227 9.17708 35.2966 9.18494 42.2698C10.0134 42.2877 10.8438 42.265 11.6657 42.1613L11.6827 42.1595C11.9545 42.144 12.225 42.1094 12.4889 42.0468L12.502 42.0444C12.7011 42.0194 12.8982 41.9812 13.0908 41.9294L13.1353 41.9246C13.2722 41.9317 13.4058 41.8995 13.5158 41.8226L13.5793 41.8071C13.6101 41.7922 13.671 41.7624 13.7011 41.7481L13.7745 41.7463C13.8053 41.7332 13.8675 41.707 13.8983 41.6933L13.9795 41.6891C14.0816 41.6962 14.1746 41.6521 14.2447 41.5883L14.3194 41.5335C14.3207 41.5329 14.3233 41.5317 14.3246 41.5311L14.3927 41.5096C14.5885 41.4655 14.7699 41.3826 14.9258 41.2652L14.9769 41.2324C14.9782 41.2318 14.9808 41.2306 14.9821 41.23L15.0758 41.2067C15.1563 41.2008 15.2028 41.1644 15.2159 41.0976L15.2781 41.0893C15.3587 41.0857 15.4026 41.0482 15.4111 40.9778L15.4753 40.9701C15.5453 40.9635 15.5938 40.9283 15.6193 40.8657C15.6573 40.796 15.7353 40.759 15.8099 40.7298C15.9284 40.6964 16.0051 40.607 16.0706 40.5169C16.1714 40.3983 16.2886 40.2922 16.4163 40.198C16.5159 40.1377 16.5978 40.0579 16.6475 39.9595C16.6816 39.8993 16.7314 39.8498 16.7818 39.8021C16.901 39.7043 16.9848 39.5791 17.0549 39.4497C17.0752 39.4181 17.1151 39.3555 17.1354 39.3245C17.1374 39.3221 17.1407 39.3186 17.142 39.3162L17.2042 39.256C17.2638 39.2214 17.2992 39.1731 17.3103 39.1111L17.3345 39.03C17.3352 39.0288 17.3365 39.0264 17.3371 39.0252L17.3725 38.9781C17.5375 38.7939 17.6489 38.5769 17.715 38.3473L17.7268 38.3187C17.7314 38.3122 17.7406 38.2997 17.7445 38.2937L17.7825 38.2502C17.8545 38.1834 17.9148 38.1023 17.9089 38.0057L17.9148 37.961C18.051 37.673 18.1728 37.3785 18.2389 37.0697L18.2409 37.0613C18.3738 36.6827 18.4983 36.297 18.5441 35.9011C18.5526 35.8552 18.569 35.7634 18.5775 35.7175C18.6129 35.6626 18.6286 35.6042 18.6234 35.5416C18.6253 35.5195 18.6279 35.4742 18.6299 35.4522C18.681 35.2149 18.7223 34.9758 18.7524 34.7355L18.757 34.7027C18.7884 34.5263 18.8061 34.348 18.8113 34.1697C18.8126 34.1542 18.8166 34.1232 18.8179 34.1077C18.8631 33.8621 18.8807 33.6141 18.8775 33.366L18.8794 33.3273C18.9469 32.7609 18.958 32.1891 18.9266 31.6209C19.0412 31.6066 19.1571 31.5971 19.273 31.5899C19.2691 35.3705 19.2632 39.151 19.2756 42.931C13.0076 42.9256 6.73824 42.9232 0.470187 42.9322C0.470842 42.8314 0.472152 42.7307 0.472807 42.6305C1.58155 42.6215 2.6903 42.6424 3.79839 42.6198C3.82328 39.6817 3.80297 36.7424 3.80887 33.8037C3.80952 23.2127 3.80952 12.6211 3.80887 2.03006C3.80297 1.68128 3.83179 1.3313 3.78464 0.984312C2.67393 0.960464 1.56191 0.981331 0.451195 0.973581C0.449885 0.868052 0.448575 0.762524 0.447266 0.656399Z" fill="#303030"/>
<path d="M39.2302 0.728671C40.2362 0.693495 41.2447 0.723305 42.2513 0.71317C44.588 0.71317 46.9247 0.71317 49.2613 0.71317C49.9418 0.722113 50.6235 0.694687 51.3033 0.728671C51.2797 0.838969 51.2791 0.952248 51.302 1.06195C50.2083 1.09534 49.1127 1.06732 48.0183 1.07686H47.9555C47.9476 13.537 47.9542 25.9971 47.9522 38.4572C47.9561 39.8666 47.9437 41.2766 47.9581 42.6867C48.4584 42.6908 48.9621 42.7087 49.4585 42.6378L49.4984 42.6348C49.6949 42.6294 49.8914 42.6145 50.0872 42.5889C50.1147 42.5871 50.1703 42.5835 50.1978 42.5817C50.3216 42.5823 50.4447 42.565 50.5652 42.5358C50.6006 42.5317 50.6713 42.5245 50.7067 42.5203C50.7748 42.5245 50.8397 42.5108 50.9006 42.4798C50.9516 42.472 51.0525 42.4559 51.1036 42.4482C51.2732 42.4327 51.4382 42.3909 51.602 42.3498L51.638 42.3462C51.7048 42.3486 51.765 42.3301 51.8181 42.2914L51.8875 42.2747C51.9196 42.264 51.9844 42.2425 52.0172 42.2324L52.0984 42.2252C52.2169 42.2282 52.3263 42.1841 52.4219 42.1215L52.4821 42.1018C52.5149 42.0905 52.5797 42.0684 52.6125 42.0571L52.6956 42.0028C52.6976 42.001 52.7022 41.998 52.7048 41.9963L52.8253 41.9939C52.9242 42.0016 53.0152 41.9527 53.0774 41.886L53.1449 41.8222C53.1495 41.8204 53.1587 41.818 53.1632 41.8168C53.234 41.784 53.308 41.7596 53.3859 41.7429C53.4992 41.728 53.6007 41.6773 53.6682 41.5914L53.6924 41.5694C53.902 41.4704 54.103 41.3553 54.2785 41.2105L54.287 41.2051C54.4311 41.127 54.5595 41.0268 54.6675 40.9094C54.8398 40.7538 55.0022 40.5886 55.1856 40.4425C55.2609 40.3948 55.327 40.3346 55.3624 40.2559C55.3912 40.1963 55.4371 40.1468 55.4862 40.1009C55.606 40.0025 55.6898 39.8767 55.7612 39.7468C55.7809 39.7158 55.8202 39.655 55.8398 39.624C55.8411 39.6222 55.8444 39.618 55.8464 39.6162L55.9099 39.5542C55.9688 39.5196 56.0042 39.4713 56.016 39.4099L56.0415 39.327C56.0422 39.3259 56.0435 39.3235 56.0441 39.3217L56.0789 39.274C56.2629 39.0582 56.3971 38.8107 56.4777 38.5478L56.5019 38.4882C56.5032 38.487 56.5045 38.4846 56.5052 38.4828L56.5596 38.4143C56.6257 38.3451 56.6643 38.2586 56.6702 38.1674L56.6814 38.1012C56.6958 38.0732 56.7252 38.0166 56.7397 37.988L56.7436 37.9659C56.8294 37.7894 56.8968 37.6058 56.9433 37.4174L56.9584 37.39C57.0291 37.2886 57.0913 37.1741 57.0691 37.0507L57.0638 36.9482C57.0815 36.9231 57.1169 36.8731 57.1346 36.848C57.1319 36.8134 57.128 36.7443 57.1254 36.7091C57.1437 36.6841 57.1791 36.634 57.1968 36.6083C57.2007 36.5785 57.2073 36.5183 57.2112 36.4879C57.2505 36.436 57.2682 36.3788 57.2636 36.3162C57.2668 36.2858 57.2734 36.2256 57.276 36.1952C57.3153 36.1433 57.3323 36.0867 57.3271 36.0247C57.3317 35.9919 57.3409 35.9257 57.3454 35.8929C57.3775 35.8363 57.3926 35.776 57.3893 35.7122L57.4077 35.6419C57.4411 35.5471 57.4627 35.4487 57.4568 35.3498C57.4594 35.3164 57.4633 35.2502 57.4659 35.2168C57.5321 34.9151 57.5707 34.6099 57.5858 34.3028L57.5884 34.279C57.6342 34.0363 57.6506 33.7901 57.6487 33.5438L57.6513 33.5033C57.7371 32.9083 57.7037 32.3079 57.7102 31.7093C57.8333 31.7075 57.9571 31.7075 58.0809 31.6938C58.0986 35.3378 58.0822 38.9824 58.0887 42.6264C58.0887 42.7493 58.0868 42.8733 58.0789 42.9973C51.7984 42.9776 45.5166 42.9949 39.2355 42.9889C39.2407 42.8888 39.2427 42.7892 39.2446 42.6896C40.3547 42.6855 41.4647 42.695 42.5748 42.6855C42.5827 28.8159 42.58 14.947 42.5761 1.07745H42.5145C41.4202 1.06672 40.3246 1.09593 39.2302 1.06195C39.2525 0.952248 39.2518 0.838969 39.2302 0.728671Z" fill="#303030"/>
<path d="M77.967 0.863281C78.2205 0.894284 78.4772 0.875205 78.7333 0.878783C82.5088 0.878783 86.2843 0.878186 90.0604 0.878783C90.0591 0.985504 90.0591 1.09222 90.0604 1.19835C88.9484 1.20312 87.8364 1.19119 86.7244 1.20431C86.7172 15.0768 86.723 28.9494 86.7211 42.8213H86.7833C86.9778 42.8225 87.1736 42.8141 87.3694 42.8082C88.0879 42.8189 88.8082 42.7599 89.5149 42.6424L89.5247 42.6412C89.7428 42.6186 89.9589 42.578 90.1698 42.5208C90.1914 42.519 90.2346 42.5154 90.2562 42.5136C90.2883 42.5017 90.3525 42.4785 90.3846 42.4665C90.4173 42.4642 90.4822 42.4594 90.5143 42.457C90.5457 42.4439 90.6092 42.4171 90.6407 42.4039L90.7271 42.3932C90.7585 42.3807 90.8221 42.355 90.8535 42.3425L90.9249 42.3413C90.955 42.327 91.0159 42.2978 91.0467 42.2835L91.12 42.2817C91.1508 42.268 91.2117 42.2412 91.2425 42.2281L91.327 42.2227C91.4265 42.2281 91.5235 42.1917 91.5909 42.1231L91.661 42.0635C91.663 42.0617 91.6675 42.0581 91.6695 42.0563L91.7841 42.0462C91.9184 42.0516 92.0284 41.9782 92.1122 41.8894L92.1882 41.8262C92.1901 41.825 92.1934 41.8232 92.1954 41.822L92.3165 41.7648C92.3185 41.7642 92.3218 41.763 92.3238 41.7624L92.4187 41.7404C92.4986 41.735 92.5458 41.6986 92.5602 41.6313L92.6165 41.6247C92.6839 41.6181 92.735 41.5853 92.7691 41.5263C92.8739 41.416 93.0101 41.3343 93.1509 41.2676C93.2367 41.2348 93.3022 41.1728 93.3565 41.1054C93.5504 40.9182 93.7514 40.7358 93.9571 40.5587C94.0304 40.5098 94.0985 40.4508 94.1345 40.3721C94.1765 40.2957 94.2275 40.2242 94.2858 40.1568C94.2871 40.155 94.2898 40.1521 94.2917 40.1503C94.3225 40.1199 94.3847 40.0591 94.4155 40.0287C94.4751 39.9988 94.5131 39.9535 94.5294 39.8939L94.5484 39.8468C94.608 39.8176 94.646 39.7729 94.6624 39.7139L94.6814 39.6674C94.739 39.6328 94.7744 39.5845 94.7862 39.5231L94.8104 39.4396C94.8111 39.4378 94.8124 39.4342 94.813 39.4324L94.8739 39.3233C94.8752 39.3216 94.8772 39.3174 94.8785 39.3156L94.9427 39.2059C94.944 39.2041 94.946 39.2005 94.9473 39.1981L95.0101 39.0866C95.0115 39.0849 95.0141 39.0807 95.0147 39.0783L95.0769 38.9656C95.0809 38.9573 95.09 38.9406 95.0946 38.9322L95.13 38.8637C95.1352 38.8541 95.1464 38.8339 95.1516 38.8237L95.1889 38.7558C95.1942 38.748 95.2047 38.7319 95.2099 38.7236L95.2642 38.6514C95.3284 38.5817 95.3618 38.4958 95.3789 38.4076L95.3867 38.3825C95.4692 38.2263 95.5373 38.0636 95.5793 37.8936L95.5806 37.8901C95.6677 37.6987 95.7397 37.5019 95.7724 37.2968L95.7836 37.2533C95.7967 37.2241 95.8235 37.1663 95.8366 37.1371C95.8347 37.1072 95.8301 37.047 95.8281 37.0172C95.8465 36.9922 95.8838 36.9427 95.9021 36.9176C95.9008 36.8795 95.8982 36.8038 95.8962 36.7656C95.9139 36.7406 95.9493 36.6893 95.967 36.6643C95.9702 36.6339 95.9781 36.5736 95.9814 36.5438C96.02 36.4902 96.037 36.4323 96.0331 36.3697C96.0344 36.3518 96.037 36.3155 96.0383 36.2976C96.1313 35.9601 96.1949 35.6173 96.2263 35.2709C96.2315 35.2459 96.2414 35.1964 96.2466 35.1714C96.278 35.0623 96.2924 34.9508 96.2951 34.8387L96.3003 34.7814C96.3278 34.6014 96.3481 34.4201 96.3553 34.2389L96.3573 34.218C96.4064 33.9384 96.4208 33.6558 96.4169 33.3732L96.4188 33.3303C96.4607 32.833 96.4765 32.3352 96.4725 31.8368C96.5898 31.8362 96.7077 31.8362 96.8268 31.8362C96.8229 35.612 96.8242 39.3877 96.8268 43.1635C91.4069 43.1647 85.9869 43.1641 80.567 43.1641C79.7025 43.1748 78.8361 43.1432 77.9736 43.179C77.9625 43.058 77.9579 42.9375 77.9546 42.8171C79.0692 42.8231 80.1839 42.8195 81.2985 42.8189C81.3011 28.9625 81.2972 15.1055 81.3005 1.24903V1.19418C80.1904 1.19477 79.0797 1.17867 77.9703 1.20193C77.9598 1.08924 77.9592 0.975964 77.967 0.863281Z" fill="#303030"/>
<path d="M117.179 1.13335C123.347 1.12798 129.516 1.14467 135.684 1.125C135.706 4.34809 135.687 7.57237 135.694 10.7955C135.69 11.3243 135.701 11.8525 135.687 12.3808C135.562 12.3665 135.438 12.3617 135.315 12.3581C135.306 11.8275 135.344 11.2951 135.269 10.7668C135.26 10.6983 135.255 10.6291 135.254 10.56C135.237 9.80636 135.142 9.05335 135.006 8.31047C135.004 8.28841 135.002 8.24549 135 8.22402C135.003 8.14413 134.979 8.06722 134.952 7.99329L134.94 7.9134C134.936 7.83649 134.915 7.76256 134.886 7.69221C134.881 7.67373 134.87 7.63617 134.865 7.61768C134.839 7.44538 134.803 7.27486 134.744 7.10972C134.743 7.09183 134.74 7.05546 134.738 7.03757C134.72 7.01253 134.685 6.96186 134.668 6.93682L134.672 6.83308C134.686 6.70847 134.651 6.57611 134.546 6.49205L134.547 6.42766C134.53 6.40023 134.496 6.34538 134.48 6.31795L134.477 6.24879C134.461 6.22077 134.43 6.16473 134.414 6.13671L134.411 6.07053C134.395 6.04251 134.363 5.98706 134.346 5.95963L134.344 5.89703C134.33 5.86782 134.302 5.80999 134.289 5.78077L134.237 5.70267C134.236 5.70028 134.234 5.69611 134.233 5.69373L134.214 5.59774C134.199 5.56912 134.169 5.51188 134.154 5.48327C134.11 5.41888 134.072 5.3521 134.041 5.28294C134.04 5.28056 134.038 5.27698 134.037 5.27459L133.979 5.1637C133.978 5.16191 133.976 5.15774 133.975 5.15595L133.913 5.04386C133.912 5.04207 133.91 5.0385 133.909 5.03611L133.846 4.92701C133.845 4.92522 133.843 4.92104 133.842 4.91925C133.801 4.85546 133.772 4.78869 133.753 4.71833C133.741 4.65573 133.706 4.60684 133.649 4.57286L133.584 4.50847C133.582 4.50668 133.579 4.50251 133.577 4.50072C133.557 4.46912 133.517 4.40711 133.497 4.37551C133.426 4.24554 133.342 4.12093 133.224 4.02137C133.181 3.98023 133.14 3.9385 133.105 3.89497C133.006 3.76917 132.892 3.65291 132.766 3.55037C132.727 3.51817 132.692 3.48538 132.66 3.4514C132.534 3.3089 132.383 3.18906 132.214 3.09188L132.192 3.06505C132.141 2.99291 132.076 2.92018 131.977 2.91362L131.927 2.90289C131.873 2.8063 131.758 2.77112 131.655 2.74072L131.632 2.73178C131.426 2.60359 131.209 2.48614 130.964 2.43427L130.892 2.4128C130.891 2.41221 130.888 2.41102 130.886 2.41042L130.801 2.36809C130.768 2.35497 130.706 2.32993 130.673 2.31682L130.616 2.29953C130.521 2.23633 130.412 2.19161 130.295 2.19579L130.216 2.18982C130.184 2.1779 130.12 2.15465 130.089 2.14332L130.053 2.13736C129.77 2.04793 129.477 1.9895 129.18 1.96088C129.159 1.95611 129.117 1.94657 129.095 1.9418C129.008 1.91438 128.919 1.89947 128.831 1.90245L128.774 1.89828C128.263 1.83031 127.749 1.77963 127.233 1.78738L127.193 1.785C126.78 1.73611 126.364 1.71286 125.948 1.73492L125.942 1.78858C125.925 8.32896 125.942 14.8711 125.934 21.4121L125.933 21.467C126.401 21.4795 126.869 21.4354 127.329 21.3567L127.335 21.3555C127.596 21.3334 127.85 21.2666 128.096 21.1832L128.123 21.1796C128.153 21.1665 128.215 21.139 128.246 21.1259L128.32 21.1158C128.418 21.1116 128.514 21.077 128.587 21.0126L128.66 20.9602C128.661 20.9596 128.664 20.9584 128.665 20.9578L128.763 20.9351C128.876 20.919 128.998 20.8773 129.045 20.7712L129.096 20.7628C129.163 20.7539 129.213 20.7199 129.245 20.6603C129.268 20.6406 129.313 20.6013 129.336 20.5816C129.537 20.4731 129.711 20.327 129.835 20.1446C129.895 20.0694 129.955 19.9913 130.041 19.9371C130.106 19.9097 130.144 19.8643 130.152 19.8017L130.16 19.7457C130.233 19.7344 130.273 19.6926 130.282 19.6187L130.307 19.5317C130.308 19.5299 130.31 19.5263 130.311 19.5245L130.372 19.4142C130.373 19.4124 130.375 19.4083 130.376 19.4065L130.437 19.2968C130.438 19.295 130.44 19.2914 130.441 19.2896L130.504 19.1787C130.505 19.1769 130.508 19.1733 130.509 19.1722L130.569 19.1018C130.632 19.0356 130.697 18.9575 130.688 18.8639L130.69 18.793C130.781 18.722 130.802 18.6123 130.811 18.5092L130.818 18.4668C130.9 18.2468 130.973 18.0233 131.004 17.7913C131.006 17.7836 131.009 17.7669 131.011 17.7591C131.077 17.5391 131.113 17.3138 131.135 17.0872C131.136 17.0741 131.14 17.0485 131.142 17.0354C131.209 16.6627 131.258 16.2859 131.261 15.9079C131.261 15.8262 131.266 15.7446 131.272 15.6629C131.325 14.9963 131.317 14.3274 131.324 13.659C131.451 13.6584 131.579 13.659 131.71 13.6602C131.717 18.917 131.711 24.1743 131.713 29.4317C131.581 29.4311 131.45 29.4311 131.32 29.4311C131.325 28.6846 131.316 27.9376 131.26 27.1929L131.259 27.1607C131.256 26.7952 131.207 26.4322 131.142 26.072C131.14 26.0613 131.136 26.0387 131.135 26.0273C131.1 25.7185 131.044 25.4115 130.945 25.1145C130.941 25.0961 130.934 25.0585 130.931 25.04C130.92 25.0102 130.897 24.9506 130.886 24.9208L130.874 24.8778C130.826 24.6298 130.753 24.3824 130.603 24.169L130.57 24.1183C130.569 24.1159 130.565 24.1111 130.563 24.1087L130.556 24.0151C130.561 23.9358 130.497 23.8774 130.442 23.8273L130.379 23.7623C130.377 23.7606 130.375 23.757 130.374 23.7552L130.307 23.6479C130.307 23.6461 130.304 23.6425 130.303 23.6407C130.218 23.503 130.106 23.382 130.019 23.2466C129.995 23.1906 129.956 23.1465 129.903 23.1143C129.766 22.9926 129.626 22.8734 129.503 22.741C129.44 22.6427 129.348 22.5652 129.226 22.5377L129.183 22.5049C129.11 22.4221 129.011 22.366 128.898 22.3523L128.799 22.3279C128.797 22.3273 128.794 22.3261 128.792 22.3255L128.675 22.2778C128.671 22.2766 128.663 22.273 128.658 22.2712L128.588 22.2146C128.516 22.1448 128.411 22.127 128.315 22.1103L128.249 22.0936C128.136 22.0274 128.012 21.9648 127.876 21.9874L127.779 21.9922C127.74 21.938 127.683 21.9159 127.608 21.9266L127.521 21.9171C127.437 21.8891 127.352 21.8676 127.266 21.8706C127.229 21.867 127.157 21.8599 127.121 21.8563C126.979 21.8223 126.834 21.8104 126.69 21.8163L126.617 21.811C126.39 21.78 126.162 21.7573 125.933 21.7561L125.934 21.8175C125.937 28.7752 125.938 35.733 125.933 42.6907L125.933 42.7503C126.31 42.7539 126.688 42.7533 127.066 42.7181C127.405 42.6853 127.749 42.7092 128.087 42.649C128.104 42.6472 128.138 42.643 128.156 42.6412C128.465 42.6263 128.774 42.5905 129.077 42.5273C129.099 42.5261 129.143 42.5238 129.165 42.5226C129.232 42.5273 129.296 42.513 129.357 42.4802C129.379 42.4749 129.424 42.4647 129.446 42.46C129.625 42.4355 129.805 42.4009 129.979 42.3485L129.985 42.3473C130.258 42.3008 130.52 42.2137 130.777 42.1165L130.824 42.1118C130.922 42.1153 131.009 42.07 131.078 42.0068L131.152 41.9514C131.154 41.9496 131.159 41.9472 131.161 41.946L131.283 41.89C131.285 41.8894 131.289 41.8876 131.291 41.8864L131.414 41.831C131.415 41.8304 131.419 41.8286 131.421 41.8274L131.543 41.7731C131.545 41.7725 131.549 41.7707 131.55 41.7701L131.646 41.7403C131.753 41.7117 131.872 41.6759 131.926 41.5764L131.977 41.5686C132.044 41.5609 132.093 41.5281 132.127 41.4691C132.162 41.4398 132.231 41.382 132.266 41.3528C132.268 41.3516 132.271 41.3492 132.273 41.348C132.349 41.295 132.429 41.2449 132.515 41.2008C132.62 41.1531 132.705 41.078 132.776 40.9927C132.928 40.8454 133.079 40.6964 133.248 40.5646C133.322 40.5163 133.389 40.4567 133.425 40.378C133.499 40.2486 133.59 40.1246 133.712 40.0292C133.771 40 133.809 39.9559 133.824 39.8957L133.842 39.851C133.903 39.8206 133.939 39.7746 133.953 39.7138L133.964 39.6661C134.079 39.6256 134.122 39.5159 134.143 39.4139L134.169 39.3245C134.17 39.3227 134.171 39.3191 134.172 39.318L134.234 39.2059C134.238 39.1975 134.248 39.1802 134.253 39.1719L134.291 39.1051C134.297 39.095 134.308 39.0753 134.314 39.0658L134.353 38.9996C134.358 38.9918 134.367 38.9763 134.372 38.9686L134.406 38.9149C134.484 38.8004 134.55 38.6794 134.592 38.5506L134.613 38.5029C134.692 38.3455 134.756 38.1828 134.807 38.0164L134.808 38.0146C134.899 37.8227 134.967 37.6229 135.002 37.4161L135.012 37.3749C135.025 37.3457 135.049 37.2861 135.061 37.2569C135.065 37.23 135.072 37.177 135.075 37.1502C135.115 37.1019 135.135 37.047 135.136 36.9862L135.141 36.9594C135.195 36.7912 135.232 36.6189 135.257 36.4448C135.262 36.4252 135.274 36.3858 135.279 36.3661C135.312 36.3095 135.326 36.2499 135.321 36.1873L135.324 36.1378C135.384 35.8737 135.435 35.6078 135.456 35.3383C135.458 35.3252 135.462 35.2989 135.463 35.2858C135.571 34.5954 135.653 33.8967 135.636 33.1991C135.642 33.1574 135.653 33.0727 135.659 33.031C135.67 33.0161 135.692 32.9862 135.704 32.9713C135.625 32.6774 135.692 32.3745 135.674 32.0764C135.792 32.0752 135.913 32.0746 136.035 32.0746C136.036 34.9764 136.035 37.8787 136.035 40.7804C136.043 41.6485 136.019 42.5172 136.047 43.3841C132.922 43.4079 129.797 43.3877 126.672 43.3942C123.506 43.3942 120.338 43.3948 117.172 43.3942C117.173 43.2797 117.176 43.1659 117.18 43.0526C118.29 43.0419 119.4 43.0538 120.51 43.0466C120.518 30.3087 120.511 17.5701 120.513 4.83221C120.511 3.70121 120.518 2.5708 120.509 1.4398C119.395 1.42668 118.281 1.43443 117.167 1.43562C117.17 1.33486 117.174 1.23411 117.179 1.13335Z" fill="#303030"/>
<path opacity="0.46" d="M39.2058 0.722656L39.2287 0.726234C39.2503 0.836531 39.251 0.94981 39.2287 1.05951L39.2065 1.06249C39.1351 0.967697 39.1351 0.817453 39.2058 0.722656Z" fill="#303030"/>
<path opacity="0.46" d="M14.7754 2.22656C14.7773 2.22784 14.7817 2.22911 14.7842 2.23038C14.7817 2.22911 14.7773 2.22784 14.7754 2.22656Z" fill="#303030"/>
<path opacity="0.46" d="M133.975 5.15234C133.976 5.15425 133.978 5.15871 133.979 5.16062C133.978 5.15871 133.976 5.15425 133.975 5.15234Z" fill="#303030"/>
<path opacity="0.46" d="M52.6948 41.9992C52.6967 41.9973 52.7011 41.9941 52.7037 41.9922C52.7011 41.9941 52.6967 41.9973 52.6948 41.9992Z" fill="#303030"/>
<path opacity="0.45" d="M51.3033 0.725637L51.3262 0.722656C51.395 0.818049 51.3956 0.968293 51.3242 1.06249L51.302 1.05892C51.279 0.949214 51.2797 0.835935 51.3033 0.725637Z" fill="#303030"/>
<path opacity="0.36" d="M77.9102 0.849132C79.5808 0.814552 81.2547 0.844958 82.9267 0.834227C85.3033 0.8384 87.6819 0.826476 90.0585 0.840189C90.1404 0.956449 90.0782 1.12219 90.0749 1.25634C88.976 1.24799 87.8777 1.25455 86.7788 1.25276C86.7847 15.1098 86.7749 28.9662 86.784 42.8226H86.7218C86.7238 28.9507 86.7179 15.0782 86.7251 1.20566C87.8371 1.19255 88.9491 1.20447 90.0612 1.1997C90.0599 1.09358 90.0599 0.986855 90.0612 0.880134C86.285 0.879538 82.5095 0.880134 78.734 0.880134C78.478 0.876557 78.2212 0.895636 77.9678 0.864633L77.9102 0.849132Z" fill="#303030"/>
<path opacity="0.68" d="M3.78562 0.984375C3.83277 1.33137 3.80396 1.68134 3.80985 2.03012C3.81051 12.6211 3.81051 23.2127 3.80985 33.8037C3.80396 36.7424 3.82426 39.6817 3.79937 42.6198C2.69128 42.6425 1.58253 42.6216 0.473786 42.6306C0.473131 42.7307 0.471821 42.8315 0.471166 42.9322L0.392578 42.937C0.406331 42.816 0.41157 42.6949 0.413535 42.5739C1.5249 42.5668 2.63692 42.5727 3.74829 42.5715C3.74501 28.8975 3.74829 15.2236 3.74632 1.54898C3.74763 1.36058 3.72537 1.16801 3.78562 0.984375Z" fill="#303030"/>
<path opacity="0.58" d="M42.5132 1.07422H42.5747C42.5787 14.9438 42.5813 28.8127 42.5734 42.6822C41.4634 42.6918 40.3533 42.6822 39.2432 42.6864C39.2413 42.786 39.2393 42.8856 39.2341 42.9857L39.2295 43.0561C39.1398 42.9368 39.1941 42.7854 39.1935 42.6524C40.3002 42.653 41.407 42.6536 42.5145 42.6524C42.5138 28.793 42.5158 14.9336 42.5132 1.07422Z" fill="#303030"/>
<path opacity="0.58" d="M47.9557 1.07422H48.0186C48.0147 14.9336 48.0199 28.7936 48.016 42.653C48.4967 42.6471 48.9774 42.6161 49.4587 42.6351C48.9623 42.7061 48.4587 42.6882 47.9583 42.684C47.9439 41.274 47.9564 39.864 47.9524 38.4546C47.9544 25.9944 47.9479 13.5343 47.9557 1.07422Z" fill="#303030"/>
<path opacity="0.68" d="M117.168 1.43197C117.161 1.31511 117.127 1.18871 117.178 1.07782C120.91 1.06411 124.644 1.07544 128.377 1.07186C130.832 1.07722 133.287 1.06053 135.742 1.08021L135.685 1.12134C129.517 1.14102 123.348 1.12432 117.18 1.12969C117.175 1.23045 117.171 1.33121 117.168 1.43197Z" fill="#303030"/>
<path opacity="0.49" d="M77.9699 1.20013C79.0793 1.17687 80.19 1.19297 81.3 1.19238V1.24723C80.1723 1.24544 79.0446 1.25915 77.9175 1.24007L77.9699 1.20013Z" fill="#303030"/>
<path opacity="0.49" d="M14.2527 1.98828C14.2552 1.98956 14.2596 1.9921 14.2622 1.99401C14.2596 1.9921 14.2552 1.98956 14.2527 1.98828Z" fill="#303030"/>
<path opacity="0.49" d="M11.9434 20.4898C11.9536 20.4845 11.9754 20.474 11.9857 20.4688C11.9754 20.474 11.9536 20.4845 11.9434 20.4898Z" fill="#303030"/>
<path opacity="0.48" d="M9.18485 1.30974C9.76706 1.31987 10.3532 1.27456 10.9321 1.34551C10.3715 1.40573 9.80831 1.29841 9.2451 1.32643C9.2451 7.87754 9.24444 14.4287 9.24575 20.9804L9.18288 20.9798C9.17961 14.4233 9.17699 7.86622 9.18485 1.30974Z" fill="#303030"/>
<path opacity="0.42" d="M11.1914 1.36328C11.3853 1.36626 11.5785 1.38415 11.771 1.40978C11.5765 1.44079 11.3728 1.439 11.1914 1.36328Z" fill="#303030"/>
<path opacity="0.41" d="M11.8828 1.41803C11.9876 1.41684 12.0917 1.43353 12.1926 1.46096C12.1199 1.53906 11.8907 1.53786 11.8828 1.41803Z" fill="#303030"/>
<path opacity="0.29" d="M117.168 1.43304C118.282 1.43185 119.396 1.4241 120.51 1.43722C120.519 2.56822 120.511 3.69863 120.514 4.82963C120.512 17.5676 120.519 30.3061 120.511 43.044C119.401 43.0512 118.291 43.0393 117.181 43.05C117.177 43.1633 117.174 43.2772 117.173 43.3916L117.131 43.3964C117.132 43.2724 117.136 43.149 117.141 43.0256C118.243 43.0268 119.346 43.0327 120.449 43.0226C120.449 29.1787 120.45 15.3354 120.449 1.49147C119.356 1.48909 118.264 1.49088 117.171 1.49028L117.168 1.43304Z" fill="#303030"/>
<path opacity="0.5" d="M12.3867 1.48211C12.4568 1.47555 12.5229 1.48866 12.5838 1.52205C12.485 1.59181 12.4188 1.57869 12.3867 1.48211Z" fill="#303030"/>
<path opacity="0.49" d="M12.7207 1.53602C12.7895 1.53125 12.853 1.54616 12.9106 1.58133C12.8124 1.65049 12.7489 1.63559 12.7207 1.53602Z" fill="#303030"/>
<path opacity="0.6" d="M12.9512 1.59375C13.2027 1.62058 13.445 1.68914 13.6788 1.77619C13.4279 1.75234 13.1824 1.68437 12.9512 1.59375Z" fill="#303030"/>
<path opacity="0.73" d="M125.947 1.73102C126.363 1.70896 126.779 1.73221 127.192 1.7811C126.775 1.78349 126.358 1.78766 125.941 1.78468L125.947 1.73102Z" fill="#303030"/>
<path opacity="0.52" d="M13.707 1.78125C13.7391 1.79317 13.8026 1.81702 13.8341 1.82895L13.783 1.85995L13.7175 1.83491L13.707 1.78125Z" fill="#303030"/>
<path opacity="0.48" d="M127.234 1.78203C127.749 1.77428 128.264 1.82496 128.774 1.89293C128.617 1.90962 128.46 1.90843 128.308 1.87743C127.953 1.81244 127.583 1.881 127.234 1.78203Z" fill="#303030"/>
<path opacity="0.48" d="M14.2402 17.4504C14.2468 17.2465 14.2664 17.0343 14.3634 16.8477C14.3424 17.0516 14.3024 17.2537 14.2402 17.4504Z" fill="#303030"/>
<path opacity="0.48" d="M131.011 17.754C131.012 17.5268 131.04 17.2931 131.135 17.082C131.113 17.3086 131.077 17.534 131.011 17.754Z" fill="#303030"/>
<path opacity="0.48" d="M14.2437 24.7539C14.2987 24.9518 14.3438 25.1522 14.3674 25.3561C14.2666 25.1707 14.2437 24.9572 14.2437 24.7539Z" fill="#303030"/>
<path opacity="0.56" d="M13.9053 1.83984C14.0062 1.84402 14.1025 1.8774 14.1784 1.93881C14.0979 2.00022 13.8877 1.94656 13.9053 1.83984Z" fill="#303030"/>
<path opacity="0.48" d="M128.83 1.89881C128.918 1.89583 129.007 1.91074 129.094 1.93816C129.032 2.0103 128.826 2.00911 128.83 1.89881Z" fill="#303030"/>
<path opacity="0.52" d="M129.18 1.95703C129.476 1.98565 129.769 2.04408 130.052 2.13351C129.757 2.10787 129.456 2.05064 129.18 1.95703Z" fill="#303030"/>
<path opacity="0.38" d="M14.3848 2.04688C14.3867 2.04815 14.3911 2.05006 14.393 2.05133C14.3911 2.05006 14.3867 2.04815 14.3848 2.04688Z" fill="#303030"/>
<path opacity="0.38" d="M14.5164 2.10547C14.5183 2.10611 14.522 2.10865 14.5246 2.10929C14.522 2.10865 14.5183 2.10611 14.5164 2.10547Z" fill="#303030"/>
<path opacity="0.38" d="M130.438 19.2928C130.439 19.2909 130.442 19.2871 130.442 19.2852C130.442 19.2871 130.439 19.2909 130.438 19.2928Z" fill="#303030"/>
<path opacity="0.38" d="M14.6465 2.16797C14.6484 2.16861 14.6522 2.17115 14.6547 2.17179C14.6522 2.17115 14.6484 2.16861 14.6465 2.16797Z" fill="#303030"/>
<path opacity="0.38" d="M95.0767 38.9663C95.0805 38.9581 95.0895 38.9418 95.094 38.9336C95.0895 38.9418 95.0805 38.9581 95.0767 38.9663Z" fill="#303030"/>
<path opacity="0.42" d="M130.09 2.14062C130.122 2.15195 130.186 2.1752 130.218 2.18713L130.167 2.21873L130.101 2.19428L130.09 2.14062Z" fill="#303030"/>
<path opacity="0.42" d="M50.707 42.5201C50.7372 42.4205 50.802 42.4068 50.9009 42.4795C50.84 42.5105 50.7751 42.5242 50.707 42.5201Z" fill="#303030"/>
<path opacity="0.5" d="M130.295 2.19168C130.412 2.1875 130.521 2.23222 130.616 2.29542C130.52 2.35444 130.295 2.30555 130.295 2.19168Z" fill="#303030"/>
<path opacity="0.62" d="M14.884 2.25781C14.9973 2.27391 15.1041 2.32101 15.1591 2.417C15.0595 2.45754 14.8657 2.36215 14.884 2.25781Z" fill="#303030"/>
<path opacity="0.62" d="M16.9341 4.16016C17.0514 4.2001 17.0946 4.311 17.1123 4.41474C16.9983 4.42726 16.9092 4.25197 16.9341 4.16016Z" fill="#303030"/>
<path opacity="0.46" d="M130.674 2.3125C130.706 2.32562 130.769 2.35066 130.801 2.36377L130.749 2.39239L130.684 2.36616L130.674 2.3125Z" fill="#303030"/>
<path opacity="0.48" d="M130.887 2.40625C130.888 2.40689 130.891 2.40816 130.892 2.4088C130.891 2.40816 130.888 2.40689 130.887 2.40625Z" fill="#303030"/>
<path opacity="0.48" d="M56.502 38.4862C56.5032 38.4849 56.5045 38.4824 56.5051 38.4805C56.5045 38.4824 56.5032 38.4849 56.502 38.4862Z" fill="#303030"/>
<path opacity="0.59" d="M130.963 2.42969C131.208 2.48156 131.425 2.59901 131.632 2.72719C131.391 2.66459 131.172 2.55072 130.963 2.42969Z" fill="#303030"/>
<path opacity="0.55" d="M15.2771 2.48828C15.3439 2.49842 15.393 2.5324 15.4231 2.58904C15.3144 2.62541 15.2653 2.59202 15.2771 2.48828Z" fill="#303030"/>
<path opacity="0.44" d="M15.4473 2.60938C15.5881 2.69523 15.7217 2.79241 15.833 2.90987C15.6647 2.85919 15.5429 2.73995 15.4473 2.60938Z" fill="#303030"/>
<path opacity="0.47" d="M131.655 2.73828C131.758 2.76869 131.873 2.80386 131.927 2.90045C131.824 2.94696 131.629 2.8456 131.655 2.73828Z" fill="#303030"/>
<path opacity="0.64" d="M131.976 2.91016C132.076 2.91671 132.14 2.98945 132.191 3.06159C132.099 3.10571 131.977 3.02284 131.961 2.93997L131.976 2.91016Z" fill="#303030"/>
<path opacity="0.48" d="M132.215 3.08984C132.384 3.18703 132.534 3.30686 132.66 3.44936C132.472 3.37781 132.331 3.23711 132.215 3.08984Z" fill="#303030"/>
<path opacity="0.4" d="M16.2178 3.25781C16.2938 3.30611 16.3619 3.36573 16.3966 3.44621C16.2911 3.50166 16.1477 3.34546 16.2178 3.25781Z" fill="#303030"/>
<path opacity="0.29" d="M132.766 3.54688C132.892 3.64942 133.005 3.76568 133.105 3.89148C132.954 3.81159 132.817 3.70308 132.766 3.54688Z" fill="#303030"/>
<path opacity="0.63" d="M16.5254 3.60156C16.6492 3.69636 16.7278 3.82514 16.7998 3.95451C16.676 3.86031 16.5811 3.73928 16.5254 3.60156Z" fill="#303030"/>
<path opacity="0.56" d="M16.8153 3.97266C16.8775 4.00247 16.9142 4.04837 16.9246 4.10978C16.814 4.12052 16.7773 4.0752 16.8153 3.97266Z" fill="#303030"/>
<path opacity="0.51" d="M133.225 4.01953C133.342 4.1191 133.426 4.2437 133.498 4.37368C133.376 4.27769 133.27 4.16202 133.225 4.01953Z" fill="#303030"/>
<path opacity="0.61" d="M17.1367 4.5C17.1374 4.50191 17.1386 4.50573 17.1392 4.50764C17.1386 4.50573 17.1374 4.50191 17.1367 4.5Z" fill="#303030"/>
<path opacity="0.53" d="M133.577 4.49609C133.578 4.498 133.581 4.50246 133.583 4.50437C133.581 4.50246 133.578 4.498 133.577 4.49609Z" fill="#303030"/>
<path opacity="0.53" d="M17.1348 39.3214C17.1367 39.3189 17.1398 39.315 17.1411 39.3125C17.1398 39.315 17.1367 39.3189 17.1348 39.3214Z" fill="#303030"/>
<path opacity="0.6" d="M133.649 4.57031C133.706 4.6043 133.741 4.65318 133.754 4.71579C133.64 4.72056 133.606 4.67226 133.649 4.57031Z" fill="#303030"/>
<path opacity="0.6" d="M17.2656 4.73438C17.2669 4.73692 17.2707 4.74265 17.2726 4.7452C17.2707 4.74265 17.2669 4.73692 17.2656 4.73438Z" fill="#303030"/>
<path opacity="0.55" d="M17.3301 4.8125C17.391 4.88047 17.4545 4.95678 17.4506 5.04979C17.3333 5.07364 17.2646 4.88762 17.3301 4.8125Z" fill="#303030"/>
<path opacity="0.55" d="M94.4166 40.0274C94.3773 39.9249 94.4153 39.8802 94.5305 39.8927C94.5141 39.9523 94.4762 39.9976 94.4166 40.0274Z" fill="#303030"/>
<path opacity="0.49" d="M133.842 4.91406C133.843 4.91597 133.845 4.92043 133.846 4.92234C133.845 4.92043 133.843 4.91597 133.842 4.91406Z" fill="#303030"/>
<path opacity="0.49" d="M134.038 5.26953C134.038 5.27208 134.041 5.2759 134.042 5.27845C134.041 5.2759 134.038 5.27208 134.038 5.26953Z" fill="#303030"/>
<path opacity="0.49" d="M56.041 39.3221C56.0416 39.3209 56.0429 39.3183 56.0435 39.3164C56.0429 39.3183 56.0416 39.3209 56.041 39.3221Z" fill="#303030"/>
<path opacity="0.45" d="M133.909 5.03125C133.91 5.0338 133.912 5.03762 133.913 5.03953C133.912 5.03762 133.91 5.0338 133.909 5.03125Z" fill="#303030"/>
<path opacity="0.45" d="M131.413 41.828C131.415 41.8274 131.419 41.8255 131.421 41.8242C131.419 41.8255 131.415 41.8274 131.413 41.828Z" fill="#303030"/>
<path opacity="0.45" d="M131.283 41.8866C131.285 41.886 131.289 41.8841 131.291 41.8828C131.289 41.8841 131.285 41.886 131.283 41.8866Z" fill="#303030"/>
<path opacity="0.51" d="M17.4592 5.15234C17.4605 5.15425 17.4636 5.15871 17.4649 5.16062C17.4636 5.15871 17.4605 5.15425 17.4592 5.15234Z" fill="#303030"/>
<path opacity="0.51" d="M11.8359 20.5446C11.8445 20.5405 11.8621 20.5315 11.8706 20.5273C11.8621 20.5315 11.8445 20.5405 11.8359 20.5446Z" fill="#303030"/>
<path opacity="0.51" d="M13.7317 23.457C13.7323 23.4596 13.7342 23.4634 13.7355 23.4653C13.7342 23.4634 13.7323 23.4596 13.7317 23.457Z" fill="#303030"/>
<path opacity="0.51" d="M95.1907 38.7542C95.1958 38.7466 95.2061 38.7308 95.2112 38.7227C95.2061 38.7308 95.1958 38.7466 95.1907 38.7542Z" fill="#303030"/>
<path opacity="0.51" d="M134.293 39.101C134.298 39.0911 134.309 39.0718 134.315 39.0625C134.309 39.0718 134.298 39.0911 134.293 39.101Z" fill="#303030"/>
<path opacity="0.49" d="M17.523 5.23438C17.5354 5.26419 17.561 5.32321 17.5734 5.35302L17.5145 5.34288L17.4883 5.28207L17.523 5.23438Z" fill="#303030"/>
<path opacity="0.58" d="M17.5781 5.37891C17.6973 5.61023 17.7877 5.85229 17.8434 6.1027C17.7157 5.87614 17.6292 5.62931 17.5781 5.37891Z" fill="#303030"/>
<path opacity="0.49" d="M134.154 5.48047C134.169 5.50909 134.198 5.56632 134.213 5.59494L134.154 5.58719L134.123 5.52876L134.154 5.48047Z" fill="#303030"/>
<path opacity="0.47" d="M134.233 5.69141C134.234 5.69395 134.235 5.69841 134.236 5.70096C134.235 5.69841 134.234 5.69395 134.233 5.69141Z" fill="#303030"/>
<path opacity="0.47" d="M130.564 24.1055C130.566 24.108 130.569 24.1131 130.57 24.1156C130.569 24.1131 130.566 24.108 130.564 24.1055Z" fill="#303030"/>
<path opacity="0.47" d="M17.7266 38.3175C17.731 38.3111 17.74 38.2988 17.7439 38.293C17.74 38.2988 17.731 38.3111 17.7266 38.3175Z" fill="#303030"/>
<path opacity="0.47" d="M132.267 41.3488C132.268 41.3476 132.272 41.345 132.273 41.3438C132.272 41.345 132.268 41.3476 132.267 41.3488Z" fill="#303030"/>
<path opacity="0.47" d="M91.6614 42.0662C91.6633 42.0643 91.6677 42.0605 91.6696 42.0586C91.6677 42.0605 91.6633 42.0643 91.6614 42.0662Z" fill="#303030"/>
<path opacity="0.49" d="M134.288 5.77734C134.302 5.80656 134.329 5.86439 134.343 5.8936L134.284 5.88346L134.256 5.82385L134.288 5.77734Z" fill="#303030"/>
<path opacity="0.39" d="M134.348 5.95703C134.364 5.98446 134.396 6.03991 134.413 6.06793L134.353 6.06137L134.32 6.00533L134.348 5.95703Z" fill="#303030"/>
<path opacity="0.59" d="M17.8619 6.13281C17.9391 6.23178 17.9817 6.34804 17.9719 6.47026C17.8389 6.4494 17.8062 6.23059 17.8619 6.13281Z" fill="#303030"/>
<path opacity="0.36" d="M134.414 6.13281C134.429 6.16084 134.46 6.21688 134.476 6.2449L134.416 6.23775L134.385 6.18051L134.414 6.13281Z" fill="#303030"/>
<path opacity="0.38" d="M134.48 6.3125C134.496 6.33993 134.53 6.39478 134.547 6.4222L134.487 6.41565L134.453 6.3602L134.48 6.3125Z" fill="#303030"/>
<path opacity="0.58" d="M134.547 6.48828C134.652 6.57235 134.687 6.7047 134.673 6.82931C134.544 6.79414 134.525 6.595 134.547 6.48828Z" fill="#303030"/>
<path opacity="0.58" d="M13.8614 23.6523C13.9301 23.7209 13.9661 23.8091 13.972 23.9016C13.8555 23.9177 13.7952 23.7263 13.8614 23.6523Z" fill="#303030"/>
<path opacity="0.46" d="M17.9766 6.51562C18.0224 6.68018 18.0656 6.84593 18.0944 7.01406C17.9929 6.86679 17.9779 6.68495 17.9766 6.51562Z" fill="#303030"/>
<path opacity="0.51" d="M134.666 6.93359C134.683 6.95863 134.718 7.00931 134.735 7.03435L134.678 7.03256C134.675 7.00752 134.669 6.95804 134.666 6.93359Z" fill="#303030"/>
<path opacity="0.43" d="M18.1175 7.08984C18.1535 7.14291 18.1692 7.20074 18.1646 7.26334C18.0546 7.23651 18.0389 7.17868 18.1175 7.08984Z" fill="#303030"/>
<path opacity="0.43" d="M91.1262 42.2272L91.1897 42.1992L91.2421 42.2278C91.2113 42.241 91.1504 42.2678 91.1196 42.2815L91.1262 42.2272Z" fill="#303030"/>
<path opacity="0.55" d="M134.745 7.10547C134.803 7.27061 134.839 7.44113 134.865 7.61343C134.769 7.45961 134.748 7.27896 134.745 7.10547Z" fill="#303030"/>
<path opacity="0.55" d="M128.32 21.1116C128.297 21.0061 128.505 20.9489 128.587 21.0085C128.514 21.0729 128.418 21.1075 128.32 21.1116Z" fill="#303030"/>
<path opacity="0.51" d="M18.1713 7.33984C18.2689 7.69697 18.3298 8.06125 18.3599 8.42791C18.2689 8.25024 18.2826 8.05051 18.24 7.86271C18.2112 7.68922 18.1536 7.51751 18.1713 7.33984Z" fill="#303030"/>
<path opacity="0.4" d="M134.885 7.6875C134.914 7.75785 134.935 7.83178 134.94 7.90869C134.815 7.92658 134.792 7.73579 134.885 7.6875Z" fill="#303030"/>
<path opacity="0.47" d="M134.952 7.98828C134.979 8.06221 135.003 8.13912 135 8.21901C134.878 8.22855 134.866 8.03956 134.952 7.98828Z" fill="#303030"/>
<path opacity="0.44" d="M135.006 8.30859C135.142 9.05147 135.237 9.80447 135.254 10.5581C135.164 10.2946 135.195 10.0179 135.172 9.74724C135.114 9.45987 135.115 9.16653 135.06 8.87916C135.046 8.68838 134.969 8.50057 135.006 8.30859Z" fill="#303030"/>
<path opacity="0.44" d="M18.3681 8.48047C18.4814 9.20903 18.5495 9.94594 18.5489 10.6823C18.4356 10.2274 18.522 9.75695 18.4218 9.30025C18.4401 9.02421 18.3222 8.75532 18.3681 8.48047Z" fill="#303030"/>
<path opacity="0.43" d="M135.269 10.7617C135.344 11.29 135.306 11.8224 135.315 12.353C135.438 12.3566 135.562 12.3613 135.687 12.3757L135.74 12.3822C135.598 12.4001 135.455 12.4102 135.315 12.3941C135.255 12.3327 135.283 12.2355 135.272 12.1604C135.276 11.6942 135.214 11.2268 135.269 10.7617Z" fill="#303030"/>
<path opacity="0.53" d="M14.5544 13.177C14.7056 13.1764 14.8576 13.1758 15.0102 13.1758C15.0102 18.4456 15.0148 23.7149 15.0076 28.9848C14.8556 28.9884 14.7043 28.9872 14.553 28.9806C14.5629 28.4285 14.5308 27.8747 14.5681 27.3244C14.5845 27.3279 14.6166 27.3345 14.6323 27.3381C14.5923 27.4621 14.5766 27.5926 14.5904 27.7226C14.6218 28.1382 14.6172 28.5555 14.6185 28.9723C14.7273 28.9717 14.836 28.9717 14.9447 28.9723C14.946 23.7173 14.9447 18.4623 14.9453 13.208C14.836 13.2068 14.7273 13.2062 14.6185 13.2056C14.6146 13.6068 14.631 14.0099 14.5799 14.4099C14.5196 14.0015 14.5681 13.5878 14.5544 13.177Z" fill="#303030"/>
<path opacity="0.13" d="M131.284 13.6159C131.428 13.5497 131.603 13.6004 131.76 13.6034C131.773 18.8846 131.763 24.1658 131.766 29.447C131.601 29.4631 131.436 29.4649 131.273 29.4476C131.233 28.6963 131.236 27.9427 131.26 27.1909C131.315 27.9356 131.324 28.6826 131.319 29.4291C131.449 29.4291 131.58 29.4291 131.712 29.4297C131.71 24.1723 131.717 18.915 131.709 13.6582C131.579 13.657 131.45 13.6564 131.323 13.657C131.317 14.3254 131.324 14.9943 131.271 15.6609C131.217 15.2918 131.252 14.9186 131.246 14.5478C131.265 14.2371 131.233 13.9235 131.284 13.6159Z" fill="#303030"/>
<path opacity="0.46" d="M14.4966 15.8629C14.4772 15.5595 14.4714 15.25 14.5522 14.9531C14.5593 15.2572 14.5463 15.5619 14.4966 15.8629Z" fill="#303030"/>
<path opacity="0.45" d="M14.4486 16.3283C14.3773 16.2228 14.3511 15.9849 14.4925 15.9336C14.5004 16.0665 14.486 16.1989 14.4486 16.3283Z" fill="#303030"/>
<path opacity="0.44" d="M131.155 16.6962C131.218 16.4357 131.152 16.159 131.262 15.9062C131.259 16.2842 131.21 16.661 131.144 17.0337C131.12 16.921 131.126 16.8071 131.155 16.6962Z" fill="#303030"/>
<path opacity="0.41" d="M14.3848 16.7519C14.301 16.6858 14.299 16.4735 14.4319 16.4688C14.4319 16.5647 14.4155 16.6601 14.3848 16.7519Z" fill="#303030"/>
<path opacity="0.49" d="M14.1798 17.5297L14.2374 17.5273C14.2191 17.5524 14.1837 17.6031 14.166 17.6287C14.1693 17.6037 14.1765 17.5548 14.1798 17.5297Z" fill="#303030"/>
<path opacity="0.52" d="M14.1115 17.7689L14.1705 17.7617C14.1547 17.7897 14.1233 17.8458 14.1076 17.8738L14.0801 17.8261L14.1115 17.7689Z" fill="#303030"/>
<path opacity="0.62" d="M130.818 18.4646C130.842 18.2338 130.903 18.0019 131.004 17.7891C130.974 18.021 130.9 18.2446 130.818 18.4646Z" fill="#303030"/>
<path opacity="0.42" d="M14.0458 17.9636L14.1047 17.957C14.089 17.9851 14.0582 18.0405 14.0425 18.0685L14.0137 18.0208L14.0458 17.9636Z" fill="#303030"/>
<path opacity="0.38" d="M13.982 18.1427L14.0416 18.1367C14.0252 18.1641 13.9931 18.2196 13.9767 18.247L13.9492 18.1993L13.982 18.1427Z" fill="#303030"/>
<path opacity="0.45" d="M13.9149 18.3232L13.9738 18.3125C13.9614 18.3423 13.9365 18.4013 13.924 18.4311L13.8887 18.3834L13.9149 18.3232Z" fill="#303030"/>
<path opacity="0.43" d="M13.8574 18.5174C13.8593 18.5155 13.8625 18.5104 13.8644 18.5078C13.8625 18.5104 13.8593 18.5155 13.8574 18.5174Z" fill="#303030"/>
<path opacity="0.51" d="M130.689 18.7877C130.632 18.7013 130.685 18.5021 130.81 18.5039C130.801 18.6071 130.78 18.7168 130.689 18.7877Z" fill="#303030"/>
<path opacity="0.68" d="M13.7336 18.8581C13.6642 18.7854 13.7402 18.6053 13.8535 18.6268C13.8652 18.7198 13.7945 18.7925 13.7336 18.8581Z" fill="#303030"/>
<path opacity="0.66" d="M130.569 19.0985C130.507 19.0222 130.57 18.8427 130.688 18.8606C130.697 18.9542 130.632 19.0323 130.569 19.0985Z" fill="#303030"/>
<path opacity="0.59" d="M13.5446 19.1588C13.4896 19.0676 13.5917 18.8732 13.7129 18.8964C13.688 18.999 13.6343 19.092 13.5446 19.1588Z" fill="#303030"/>
<path opacity="0.42" d="M130.504 19.175C130.505 19.1731 130.508 19.1692 130.509 19.168C130.508 19.1692 130.505 19.1731 130.504 19.175Z" fill="#303030"/>
<path opacity="0.61" d="M13.252 19.5303C13.3089 19.3943 13.3954 19.2691 13.5237 19.1797C13.4491 19.3061 13.3738 19.4355 13.252 19.5303Z" fill="#303030"/>
<path opacity="0.4" d="M130.372 19.4106C130.373 19.4087 130.375 19.4043 130.376 19.4023C130.375 19.4043 130.373 19.4087 130.372 19.4106Z" fill="#303030"/>
<path opacity="0.4" d="M94.9434 39.2075C94.9446 39.2056 94.9465 39.2018 94.9478 39.1992C94.9465 39.2018 94.9446 39.2056 94.9434 39.2075Z" fill="#303030"/>
<path opacity="0.51" d="M130.308 19.5272C130.308 19.5253 130.31 19.5214 130.311 19.5195C130.31 19.5214 130.308 19.5253 130.308 19.5272Z" fill="#303030"/>
<path opacity="0.51" d="M17.334 39.0285C17.3346 39.0273 17.3359 39.0247 17.3365 39.0234C17.3359 39.0247 17.3346 39.0273 17.334 39.0285Z" fill="#303030"/>
<path opacity="0.51" d="M14.9766 41.2291C14.9778 41.2285 14.9804 41.2272 14.9816 41.2266C14.9804 41.2272 14.9778 41.2285 14.9766 41.2291Z" fill="#303030"/>
<path opacity="0.6" d="M130.16 19.7417C130.138 19.6469 130.179 19.6046 130.282 19.6147C130.273 19.6887 130.233 19.7304 130.16 19.7417Z" fill="#303030"/>
<path opacity="0.65" d="M12.6289 20.1033C12.7304 19.9781 12.8522 19.866 13.0022 19.7891C12.9138 19.9256 12.7835 20.0311 12.6289 20.1033Z" fill="#303030"/>
<path opacity="0.61" d="M130.042 19.9332C130.004 19.8348 130.041 19.7895 130.153 19.7978C130.144 19.8604 130.107 19.9058 130.042 19.9332Z" fill="#303030"/>
<path opacity="0.61" d="M12.3962 20.278C12.3845 20.1784 12.4336 20.1444 12.5429 20.1748C12.5141 20.2368 12.465 20.2708 12.3962 20.278Z" fill="#303030"/>
<path opacity="0.49" d="M129.336 20.5776C129.477 20.4107 129.642 20.2587 129.836 20.1406C129.711 20.3231 129.537 20.4691 129.336 20.5776Z" fill="#303030"/>
<path opacity="0.6" d="M12.1951 20.3967C12.1834 20.3037 12.2299 20.2667 12.3346 20.2864C12.3222 20.3532 12.2757 20.3901 12.1951 20.3967Z" fill="#303030"/>
<path opacity="0.54" d="M12.0586 20.4347C12.0676 20.4312 12.0862 20.4254 12.0958 20.4219C12.0862 20.4254 12.0676 20.4312 12.0586 20.4347Z" fill="#303030"/>
<path opacity="0.64" d="M10.7129 20.8747C11.0665 20.7722 11.4215 20.6714 11.7771 20.5742C11.4523 20.7465 11.0823 20.8294 10.7129 20.8747Z" fill="#303030"/>
<path opacity="0.62" d="M129.095 20.7595C129.084 20.6575 129.133 20.6235 129.244 20.6569C129.212 20.7166 129.162 20.7505 129.095 20.7595Z" fill="#303030"/>
<path opacity="0.59" d="M128.762 20.933C128.749 20.8293 128.941 20.7476 129.045 20.7691C128.997 20.8752 128.876 20.9169 128.762 20.933Z" fill="#303030"/>
<path opacity="0.44" d="M10.3655 20.9359C10.357 20.825 10.5646 20.8184 10.6222 20.8935C10.5397 20.9204 10.4532 20.9395 10.3655 20.9359Z" fill="#303030"/>
<path opacity="0.44" d="M128.13 21.1218L128.193 21.0938L128.246 21.1224C128.215 21.1355 128.153 21.1629 128.123 21.176L128.13 21.1218Z" fill="#303030"/>
<path opacity="0.36" d="M9.42969 20.9857C9.70213 20.9356 9.98242 20.9034 10.2588 20.9446C9.98439 20.9809 9.70671 20.997 9.42969 20.9857Z" fill="#303030"/>
<path opacity="0.58" d="M128.658 20.9557C128.659 20.955 128.662 20.9538 128.663 20.9531C128.662 20.9538 128.659 20.955 128.658 20.9557Z" fill="#303030"/>
<path opacity="0.62" d="M127.334 21.352C127.577 21.2661 127.836 21.2101 128.095 21.1797C127.849 21.2632 127.595 21.3299 127.334 21.352Z" fill="#303030"/>
<path opacity="0.49" d="M9.18324 21.3477H9.24873C9.24153 28.3137 9.25004 35.2804 9.2448 42.2471C9.72746 42.2489 10.2088 42.2006 10.6921 42.2131C11.0189 42.225 11.3372 42.1141 11.6653 42.1594C10.8434 42.2632 10.013 42.2858 9.18455 42.2679C9.17669 35.2947 9.17996 28.3209 9.18324 21.3477Z" fill="#303030"/>
<path opacity="0.42" d="M9.43359 21.3451C9.85273 21.3248 10.2719 21.3642 10.6818 21.4453C10.5757 21.4548 10.471 21.45 10.3675 21.431C10.059 21.3785 9.73943 21.419 9.43359 21.3451Z" fill="#303030"/>
<path opacity="0.51" d="M125.934 21.4082C126.289 21.3933 126.649 21.4297 126.999 21.3629C127.107 21.342 127.217 21.3468 127.329 21.3528C126.869 21.4315 126.401 21.4756 125.934 21.4631L125.934 21.4082Z" fill="#303030"/>
<path opacity="0.42" d="M10.7695 21.45C10.8376 21.4453 10.8998 21.4614 10.9555 21.4983C10.8586 21.5669 10.797 21.5508 10.7695 21.45Z" fill="#303030"/>
<path opacity="0.5" d="M11.0781 21.5156C11.1089 21.5287 11.1718 21.5562 11.2032 21.5693L11.1508 21.5961L11.0866 21.5687L11.0781 21.5156Z" fill="#303030"/>
<path opacity="0.4" d="M11.2891 21.5703C11.3198 21.5846 11.3814 21.6132 11.4122 21.6275L11.3591 21.6532L11.2969 21.624L11.2891 21.5703Z" fill="#303030"/>
<path opacity="0.41" d="M11.4844 21.6289C11.5152 21.6426 11.5774 21.6689 11.6082 21.6826L11.5558 21.7106L11.4922 21.6832L11.4844 21.6289Z" fill="#303030"/>
<path opacity="0.55" d="M11.6851 21.6914C11.7827 21.6968 11.8816 21.7248 11.9497 21.7928C11.8704 21.8548 11.6641 21.7957 11.6851 21.6914Z" fill="#303030"/>
<path opacity="0.71" d="M125.934 21.7539C126.162 21.7551 126.39 21.7778 126.617 21.8088C126.389 21.8219 126.162 21.8201 125.934 21.8153L125.934 21.7539Z" fill="#303030"/>
<path opacity="0.6" d="M12.0176 21.8477C12.0207 21.8502 12.0283 21.8553 12.0321 21.8578C12.0283 21.8553 12.0207 21.8502 12.0176 21.8477Z" fill="#303030"/>
<path opacity="0.42" d="M126.689 21.814C126.833 21.808 126.978 21.8199 127.12 21.8539C127.006 21.9231 126.741 21.941 126.689 21.814Z" fill="#303030"/>
<path opacity="0.46" d="M127.266 21.8675C127.352 21.8645 127.437 21.8859 127.522 21.914C127.461 21.9879 127.253 21.9778 127.266 21.8675Z" fill="#303030"/>
<path opacity="0.31" d="M12.2285 21.957C12.2304 21.9583 12.2348 21.9602 12.2367 21.9615C12.2348 21.9602 12.2304 21.9583 12.2285 21.957Z" fill="#303030"/>
<path opacity="0.4" d="M127.607 21.9245C127.683 21.9138 127.74 21.9358 127.779 21.9901C127.682 22.0426 127.625 22.0205 127.607 21.9245Z" fill="#303030"/>
<path opacity="0.5" d="M12.3008 21.9883C12.4462 22.0461 12.5804 22.1254 12.6911 22.2298C12.5365 22.1862 12.4082 22.095 12.3008 21.9883Z" fill="#303030"/>
<path opacity="0.5" d="M13.2488 22.7383C13.3627 22.8396 13.4466 22.963 13.5232 23.0894C13.3968 22.9988 13.2972 22.879 13.2488 22.7383Z" fill="#303030"/>
<path opacity="0.59" d="M127.875 21.9852C128.011 21.9625 128.136 22.0251 128.248 22.0913C128.136 22.1396 127.906 22.0997 127.875 21.9852Z" fill="#303030"/>
<path opacity="0.56" d="M128.315 22.1055C128.41 22.1222 128.516 22.14 128.588 22.2098C128.503 22.2688 128.291 22.2128 128.315 22.1055Z" fill="#303030"/>
<path opacity="0.56" d="M12.502 42.0409C12.684 41.958 12.8883 41.9258 13.0907 41.9258C12.8982 41.9777 12.701 42.0158 12.502 42.0409Z" fill="#303030"/>
<path opacity="0.54" d="M128.658 22.2656C128.663 22.2675 128.671 22.2714 128.675 22.2726C128.671 22.2714 128.663 22.2675 128.658 22.2656Z" fill="#303030"/>
<path opacity="0.54" d="M128.793 22.3203C128.795 22.3209 128.798 22.3222 128.8 22.3229C128.798 22.3222 128.795 22.3209 128.793 22.3203Z" fill="#303030"/>
<path opacity="0.73" d="M12.7598 22.2773C12.9549 22.3596 13.1069 22.4979 13.1966 22.6762C13.0329 22.5605 12.8849 22.427 12.7598 22.2773Z" fill="#303030"/>
<path opacity="0.62" d="M128.898 22.3477C129.011 22.3614 129.11 22.4174 129.183 22.5003C129.081 22.5521 128.879 22.4526 128.898 22.3477Z" fill="#303030"/>
<path opacity="0.51" d="M129.228 22.5352C129.349 22.5626 129.441 22.6401 129.505 22.7385C129.389 22.7832 129.199 22.6431 129.228 22.5352Z" fill="#303030"/>
<path opacity="0.57" d="M13.5398 23.1094C13.5994 23.1428 13.6348 23.1904 13.6453 23.253C13.5339 23.2596 13.4992 23.2119 13.5398 23.1094Z" fill="#303030"/>
<path opacity="0.21" d="M129.902 23.1094C129.955 23.1416 129.994 23.1857 130.018 23.2417C129.897 23.2572 129.858 23.2131 129.902 23.1094Z" fill="#303030"/>
<path opacity="0.55" d="M13.6699 23.3398C13.6706 23.3418 13.6724 23.3462 13.6731 23.3481C13.6724 23.3462 13.6706 23.3418 13.6699 23.3398Z" fill="#303030"/>
<path opacity="0.55" d="M92.3167 41.7643C92.3185 41.7636 92.3217 41.7624 92.3236 41.7617C92.3217 41.7624 92.3185 41.7636 92.3167 41.7643Z" fill="#303030"/>
<path opacity="0.55" d="M13.7969 23.5742C13.7988 23.5768 13.8013 23.5818 13.8032 23.5837C13.8013 23.5818 13.7988 23.5768 13.7969 23.5742Z" fill="#303030"/>
<path opacity="0.55" d="M130.303 23.6367C130.304 23.6386 130.307 23.6424 130.307 23.6444C130.307 23.6424 130.304 23.6386 130.303 23.6367Z" fill="#303030"/>
<path opacity="0.55" d="M134.17 39.3234C134.171 39.3215 134.172 39.3177 134.173 39.3164C134.172 39.3177 134.171 39.3215 134.17 39.3234Z" fill="#303030"/>
<path opacity="0.42" d="M130.374 23.75C130.375 23.7519 130.378 23.7557 130.38 23.7576C130.378 23.7557 130.375 23.7519 130.374 23.75Z" fill="#303030"/>
<path opacity="0.42" d="M94.2871 40.1554C94.2884 40.1535 94.2909 40.1503 94.2928 40.1484C94.2909 40.1503 94.2884 40.1535 94.2871 40.1554Z" fill="#303030"/>
<path opacity="0.58" d="M130.442 23.8242C130.497 23.8743 130.561 23.9327 130.557 24.012C130.452 24.0496 130.374 23.8892 130.442 23.8242Z" fill="#303030"/>
<path opacity="0.58" d="M55.9096 39.5511C55.8677 39.4486 55.9031 39.4003 56.0157 39.4068C56.0039 39.4682 55.9686 39.5165 55.9096 39.5511Z" fill="#303030"/>
<path opacity="0.51" d="M13.982 23.9648C13.9944 23.9941 14.0186 24.0531 14.0311 24.0823L13.9722 24.071L13.9473 24.0108L13.982 23.9648Z" fill="#303030"/>
<path opacity="0.6" d="M14.0591 24.1406C14.1305 24.2414 14.1993 24.3547 14.1731 24.4799C14.0441 24.4507 14.0087 24.2414 14.0591 24.1406Z" fill="#303030"/>
<path opacity="0.64" d="M130.602 24.1641C130.752 24.3775 130.825 24.6249 130.873 24.873C130.757 24.6452 130.674 24.4049 130.602 24.1641Z" fill="#303030"/>
<path opacity="0.41" d="M14.1662 24.5664C14.2284 24.598 14.2527 24.6493 14.2396 24.7196C14.1341 24.7029 14.1099 24.6517 14.1662 24.5664Z" fill="#303030"/>
<path opacity="0.48" d="M130.886 24.918C130.897 24.9478 130.92 25.0074 130.931 25.0372L130.873 25.0235L130.85 24.9621L130.886 24.918Z" fill="#303030"/>
<path opacity="0.47" d="M130.945 25.1094C131.045 25.4063 131.101 25.7133 131.135 26.0221C131.034 25.7288 130.973 25.4164 130.945 25.1094Z" fill="#303030"/>
<path opacity="0.44" d="M14.3686 25.3711C14.4846 26.0144 14.5756 26.669 14.5435 27.3219C14.4688 26.8998 14.5114 26.4705 14.4282 26.0502C14.4308 25.8212 14.3346 25.5994 14.3686 25.3711Z" fill="#303030"/>
<path opacity="0.45" d="M131.143 26.0703C131.208 26.4304 131.258 26.7935 131.26 27.159C131.187 26.9932 131.19 26.8138 131.186 26.6391C131.182 26.4477 131.096 26.2617 131.143 26.0703Z" fill="#303030"/>
<path opacity="0.47" d="M18.906 31.5781L18.926 31.6211C18.957 32.1892 18.9461 32.761 18.8795 33.3274C18.8615 32.7437 18.8847 32.1606 18.906 31.5781Z" fill="#303030"/>
<path opacity="0.73" d="M19.2724 31.5898L19.3286 31.5946C19.3305 35.015 19.3292 38.4355 19.3292 41.8565C19.3221 42.2184 19.3467 42.5821 19.3137 42.9446L19.275 42.9309C19.2627 39.1509 19.2685 35.3704 19.2724 31.5898Z" fill="#303030"/>
<path opacity="0.41" d="M57.652 33.4997C57.6212 32.882 57.6736 32.2655 57.6959 31.6484C57.8439 31.6514 57.9919 31.6544 58.1399 31.6693L58.0816 31.6902C57.9579 31.7039 57.8341 31.7039 57.711 31.7057C57.7044 32.3043 57.7378 32.9046 57.652 33.4997Z" fill="#303030"/>
<path opacity="0.34" d="M96.4405 31.8082C96.5781 31.7808 96.7215 31.7909 96.8629 31.7909C96.8839 35.5649 96.8675 39.34 96.8715 43.1146C96.895 43.2273 96.7431 43.1921 96.6756 43.2023C91.0867 43.1981 85.4978 43.2017 79.9095 43.2005C79.2474 43.1921 78.5846 43.2178 77.9238 43.188L77.9736 43.1796C78.8361 43.1438 79.7025 43.1754 80.567 43.1647C85.987 43.1647 91.407 43.1653 96.8269 43.1641C96.8243 39.3883 96.823 35.6126 96.8269 31.8368C96.7077 31.8368 96.5898 31.8368 96.4726 31.8374C96.4766 32.3358 96.4608 32.8337 96.4189 33.3309C96.4097 32.9112 96.4156 32.4914 96.4104 32.0723C96.4176 31.9847 96.3901 31.8869 96.4405 31.8082Z" fill="#303030"/>
<path opacity="0.35" d="M135.643 32.0137C135.809 32.0268 136.151 31.9338 136.099 32.1932C136.093 35.9385 136.111 39.6845 136.091 43.4299L136.047 43.3798C136.019 42.5129 136.043 41.6442 136.036 40.7761C136.035 37.8744 136.036 34.9721 136.035 32.0703C135.914 32.0703 135.793 32.0709 135.675 32.0721C135.692 32.3702 135.625 32.6731 135.704 32.967C135.692 32.9819 135.67 33.0117 135.659 33.0266C135.627 32.6904 135.648 32.3511 135.643 32.0137Z" fill="#303030"/>
<path opacity="0.46" d="M135.521 34.4611C135.617 34.0431 135.533 33.6121 135.636 33.1953C135.653 33.8929 135.571 34.5916 135.464 35.282C135.424 35.0066 135.535 34.7371 135.521 34.4611Z" fill="#303030"/>
<path opacity="0.5" d="M18.8185 34.105C18.8021 33.8569 18.789 33.6018 18.8781 33.3633C18.8813 33.6113 18.8637 33.8593 18.8185 34.105Z" fill="#303030"/>
<path opacity="0.49" d="M96.3569 34.2198C96.3419 33.9372 96.3275 33.6487 96.4165 33.375C96.4204 33.6576 96.406 33.9402 96.3569 34.2198Z" fill="#303030"/>
<path opacity="0.49" d="M57.5878 34.2781C57.5688 34.0319 57.5636 33.7803 57.648 33.543C57.65 33.7892 57.6336 34.0354 57.5878 34.2781Z" fill="#303030"/>
<path opacity="0.49" d="M57.4821 34.8869C57.528 34.6925 57.4867 34.4844 57.5856 34.3008C57.5705 34.6078 57.5319 34.9131 57.4657 35.2148C57.4454 35.1045 57.4559 34.9942 57.4821 34.8869Z" fill="#303030"/>
<path opacity="0.59" d="M18.756 34.701C18.7412 34.5227 18.7186 34.3331 18.8096 34.168C18.8044 34.3462 18.787 34.5245 18.756 34.701Z" fill="#303030"/>
<path opacity="0.5" d="M96.3014 34.7808C96.2752 34.599 96.2653 34.4076 96.3564 34.2383C96.3492 34.4195 96.3289 34.6008 96.3014 34.7808Z" fill="#303030"/>
<path opacity="0.46" d="M18.6875 34.7266L18.7537 34.7331C18.7235 34.9734 18.6823 35.2125 18.6312 35.4498C18.605 35.2065 18.7098 34.971 18.6875 34.7266Z" fill="#303030"/>
<path opacity="0.42" d="M96.2468 35.1725C96.1649 35.0891 96.1505 34.8613 96.2952 34.8398C96.2926 34.9519 96.2782 35.0634 96.2468 35.1725Z" fill="#303030"/>
<path opacity="0.49" d="M96.1112 35.7703C96.1465 35.6028 96.1413 35.4257 96.2258 35.2695C96.1944 35.6159 96.1308 35.9587 96.0378 36.2962C96.0221 36.1173 96.0804 35.9444 96.1112 35.7703Z" fill="#303030"/>
<path opacity="0.59" d="M57.4064 35.6398C57.3304 35.5677 57.3277 35.3602 57.4555 35.3477C57.4614 35.4466 57.4398 35.545 57.4064 35.6398Z" fill="#303030"/>
<path opacity="0.47" d="M135.324 36.1355C135.329 35.8678 135.357 35.5893 135.457 35.3359C135.436 35.6054 135.384 35.8713 135.324 36.1355Z" fill="#303030"/>
<path opacity="0.4" d="M18.5766 35.7149C18.498 35.6249 18.5137 35.5665 18.6224 35.5391C18.6276 35.6017 18.6119 35.6601 18.5766 35.7149Z" fill="#303030"/>
<path opacity="0.48" d="M57.3456 35.8916C57.2657 35.8022 57.2802 35.7419 57.3895 35.7109C57.3928 35.7747 57.3777 35.8349 57.3456 35.8916Z" fill="#303030"/>
<path opacity="0.48" d="M90.2695 42.4614L90.3357 42.4375L90.3854 42.4679C90.3533 42.4798 90.2892 42.5031 90.2571 42.515L90.2695 42.4614Z" fill="#303030"/>
<path opacity="0.62" d="M18.5284 35.8398L18.5435 35.8977C18.4976 36.2936 18.3732 36.6793 18.2402 37.0579C18.2979 36.6465 18.455 36.25 18.5284 35.8398Z" fill="#303030"/>
<path opacity="0.43" d="M57.2751 36.194C57.1991 36.1051 57.2161 36.0485 57.3261 36.0234C57.3314 36.0854 57.3143 36.1421 57.2751 36.194Z" fill="#303030"/>
<path opacity="0.52" d="M135.279 36.3625C135.197 36.273 135.211 36.2134 135.321 36.1836C135.325 36.2462 135.311 36.3058 135.279 36.3625Z" fill="#303030"/>
<path opacity="0.46" d="M57.2099 36.4842C57.1345 36.3942 57.1522 36.3369 57.2623 36.3125C57.2668 36.3751 57.2492 36.4323 57.2099 36.4842Z" fill="#303030"/>
<path opacity="0.48" d="M95.9818 36.5452C95.9059 36.4564 95.9236 36.3979 96.0336 36.3711C96.0375 36.4337 96.0205 36.4915 95.9818 36.5452Z" fill="#303030"/>
<path opacity="0.55" d="M135.141 36.9559C135.138 36.7801 135.162 36.597 135.257 36.4414C135.232 36.6155 135.195 36.7878 135.141 36.9559Z" fill="#303030"/>
<path opacity="0.5" d="M57.1401 36.6079L57.1964 36.6055C57.1787 36.6311 57.1433 36.6812 57.125 36.7062C57.1289 36.6818 57.1361 36.6323 57.1401 36.6079Z" fill="#303030"/>
<path opacity="0.49" d="M95.9102 36.6664L95.9672 36.6641C95.9495 36.6891 95.9142 36.7404 95.8965 36.7654C95.8998 36.741 95.907 36.6915 95.9102 36.6664Z" fill="#303030"/>
<path opacity="0.51" d="M57.041 36.9007C57.0639 36.8876 57.1105 36.8608 57.1341 36.8477C57.1164 36.8727 57.081 36.9228 57.0633 36.9478L57.041 36.9007Z" fill="#303030"/>
<path opacity="0.51" d="M95.7776 37.1508L95.8365 37.1406C95.8234 37.1698 95.7966 37.2277 95.7835 37.2569L95.7507 37.2104L95.7776 37.1508Z" fill="#303030"/>
<path opacity="0.45" d="M95.8086 36.971C95.8321 36.9579 95.8793 36.9311 95.9028 36.918C95.8845 36.943 95.8472 36.9925 95.8289 37.0175L95.8086 36.971Z" fill="#303030"/>
<path opacity="0.37" d="M135.075 37.1483C135.001 37.0583 135.021 37.0035 135.136 36.9844C135.135 37.0452 135.115 37.1 135.075 37.1483Z" fill="#303030"/>
<path opacity="0.57" d="M56.9585 37.3861C56.9034 37.286 56.9395 37.0731 57.0691 37.0469C57.0914 37.1703 57.0292 37.2848 56.9585 37.3861Z" fill="#303030"/>
<path opacity="0.57" d="M133.842 39.846C133.803 39.7429 133.84 39.697 133.953 39.7089C133.94 39.7697 133.903 39.8156 133.842 39.846Z" fill="#303030"/>
<path opacity="0.66" d="M17.916 37.9577C17.9756 37.6507 18.1007 37.3508 18.2402 37.0664C18.174 37.3752 18.0522 37.6698 17.916 37.9577Z" fill="#303030"/>
<path opacity="0.53" d="M135.004 37.2646L135.062 37.2539C135.05 37.2831 135.026 37.3427 135.013 37.372L134.979 37.3255L135.004 37.2646Z" fill="#303030"/>
<path opacity="0.65" d="M95.582 37.8901C95.5984 37.682 95.679 37.4847 95.7739 37.2969C95.7412 37.502 95.6691 37.6987 95.582 37.8901Z" fill="#303030"/>
<path opacity="0.53" d="M56.7441 37.9626C56.7625 37.7688 56.8312 37.5798 56.9439 37.4141C56.8974 37.6025 56.8299 37.7861 56.7441 37.9626Z" fill="#303030"/>
<path opacity="0.66" d="M134.809 38.0127C134.823 37.8022 134.908 37.6037 135.002 37.4141C134.968 37.6209 134.9 37.8207 134.809 38.0127Z" fill="#303030"/>
<path opacity="0.71" d="M95.3867 38.3834C95.4037 38.2087 95.4699 38.04 95.5793 37.8945C95.5374 38.0644 95.4692 38.2272 95.3867 38.3834Z" fill="#303030"/>
<path opacity="0.69" d="M17.7831 38.2466C17.7444 38.1649 17.789 37.9777 17.9095 38.0022C17.9154 38.0988 17.8551 38.1798 17.7831 38.2466Z" fill="#303030"/>
<path opacity="0.45" d="M56.6805 37.9921L56.7401 37.9844C56.7257 38.013 56.6962 38.0696 56.6818 38.0977L56.6504 38.05L56.6805 37.9921Z" fill="#303030"/>
<path opacity="0.64" d="M134.613 38.4982C134.63 38.3241 134.687 38.1494 134.808 38.0117C134.757 38.1781 134.693 38.3408 134.613 38.4982Z" fill="#303030"/>
<path opacity="0.56" d="M56.5598 38.4123C56.4917 38.3378 56.552 38.1458 56.6705 38.1655C56.6646 38.2567 56.626 38.3431 56.5598 38.4123Z" fill="#303030"/>
<path opacity="0.56" d="M133.712 40.0262C133.672 39.9243 133.709 39.8802 133.824 39.8927C133.808 39.9529 133.771 39.997 133.712 40.0262Z" fill="#303030"/>
<path opacity="0.6" d="M17.373 38.9745C17.4588 38.7521 17.5839 38.5453 17.7156 38.3438C17.6494 38.5733 17.5381 38.7903 17.373 38.9745Z" fill="#303030"/>
<path opacity="0.55" d="M95.2641 38.6522C95.1887 38.5783 95.2562 38.3839 95.3787 38.4084C95.3617 38.4966 95.3283 38.5825 95.2641 38.6522Z" fill="#303030"/>
<path opacity="0.67" d="M134.59 38.4844L134.592 38.5464C134.55 38.6752 134.484 38.7962 134.406 38.9107C134.442 38.7604 134.503 38.6167 134.59 38.4844Z" fill="#303030"/>
<path opacity="0.59" d="M56.0781 39.2731C56.1881 39.0215 56.3191 38.7758 56.477 38.5469C56.3964 38.8098 56.2622 39.0572 56.0781 39.2731Z" fill="#303030"/>
<path opacity="0.42" d="M95.1292 38.8633C95.1343 38.854 95.1452 38.8341 95.1503 38.8242C95.1452 38.8341 95.1343 38.854 95.1292 38.8633Z" fill="#303030"/>
<path opacity="0.42" d="M92.1875 41.8287C92.1894 41.8274 92.1925 41.8255 92.1944 41.8242C92.1925 41.8255 92.1894 41.8274 92.1875 41.8287Z" fill="#303030"/>
<path opacity="0.52" d="M134.354 38.9952C134.359 38.9876 134.368 38.9724 134.372 38.9648C134.368 38.9724 134.359 38.9876 134.354 38.9952Z" fill="#303030"/>
<path opacity="0.52" d="M55.8398 39.6216C55.8411 39.6197 55.8443 39.6152 55.8462 39.6133C55.8443 39.6152 55.8411 39.6197 55.8398 39.6216Z" fill="#303030"/>
<path opacity="0.37" d="M95.0098 39.087C95.011 39.0851 95.0136 39.0807 95.0142 39.0781C95.0136 39.0807 95.011 39.0851 95.0098 39.087Z" fill="#303030"/>
<path opacity="0.58" d="M17.2034 39.2548C17.1634 39.1517 17.1988 39.1034 17.3095 39.11C17.2984 39.172 17.263 39.2202 17.2034 39.2548Z" fill="#303030"/>
<path opacity="0.51" d="M134.234 39.2012C134.239 39.1931 134.248 39.1761 134.253 39.168C134.248 39.1761 134.239 39.1931 134.234 39.2012Z" fill="#303030"/>
<path opacity="0.46" d="M94.873 39.3247C94.8743 39.3228 94.8762 39.3183 94.8775 39.3164C94.8762 39.3183 94.8743 39.3228 94.873 39.3247Z" fill="#303030"/>
<path opacity="0.56" d="M94.8105 39.4412C94.8112 39.4393 94.8124 39.4355 94.8131 39.4336C94.8124 39.4355 94.8112 39.4393 94.8105 39.4412Z" fill="#303030"/>
<path opacity="0.6" d="M133.964 39.6633C133.934 39.5714 134.027 39.3961 134.142 39.411C134.121 39.513 134.079 39.6227 133.964 39.6633Z" fill="#303030"/>
<path opacity="0.6" d="M14.3926 41.5101C14.553 41.4016 14.7351 41.3211 14.9257 41.2656C14.7698 41.3831 14.5884 41.466 14.3926 41.5101Z" fill="#303030"/>
<path opacity="0.52" d="M16.7812 39.8016C16.8297 39.6603 16.9332 39.5446 17.0543 39.4492C16.9843 39.5786 16.9004 39.7038 16.7812 39.8016Z" fill="#303030"/>
<path opacity="0.52" d="M55.4851 40.1002C55.5362 39.9595 55.6364 39.8409 55.7602 39.7461C55.6888 39.8761 55.605 40.0019 55.4851 40.1002Z" fill="#303030"/>
<path opacity="0.62" d="M94.6819 39.6683C94.6387 39.5658 94.6741 39.5175 94.7867 39.524C94.7749 39.5854 94.7395 39.6337 94.6819 39.6683Z" fill="#303030"/>
<path opacity="0.54" d="M94.5499 39.8465C94.5112 39.7434 94.5486 39.6993 94.6639 39.7136C94.6475 39.7726 94.6095 39.8173 94.5499 39.8465Z" fill="#303030"/>
<path opacity="0.35" d="M16.4166 40.1963C16.3459 40.0818 16.5214 39.9238 16.6479 39.9578C16.5981 40.0562 16.5162 40.1361 16.4166 40.1963Z" fill="#303030"/>
<path opacity="0.41" d="M55.1848 40.4404C55.1094 40.354 55.2561 40.1984 55.3616 40.2538C55.3262 40.3325 55.2601 40.3928 55.1848 40.4404Z" fill="#303030"/>
<path opacity="0.4" d="M93.9579 40.5585C93.8833 40.4714 94.0293 40.314 94.1353 40.3718C94.0993 40.4505 94.0312 40.5096 93.9579 40.5585Z" fill="#303030"/>
<path opacity="0.42" d="M133.248 40.5616C133.171 40.4746 133.319 40.3195 133.425 40.375C133.389 40.4537 133.322 40.5133 133.248 40.5616Z" fill="#303030"/>
<path opacity="0.47" d="M15.81 40.7273C15.7714 40.6164 15.9515 40.462 16.0707 40.5145C16.0052 40.6045 15.9286 40.6939 15.81 40.7273Z" fill="#303030"/>
<path opacity="0.64" d="M15.4744 40.9663C15.4626 40.8667 15.5104 40.8321 15.6185 40.8619C15.5929 40.9245 15.5445 40.9597 15.4744 40.9663Z" fill="#303030"/>
<path opacity="0.55" d="M54.2871 41.202C54.3834 41.0756 54.5052 40.9605 54.6676 40.9062C54.5595 41.0237 54.4312 41.1239 54.2871 41.202Z" fill="#303030"/>
<path opacity="0.58" d="M15.2778 41.0887C15.2641 40.9963 15.3086 40.9588 15.4108 40.9772C15.4023 41.0476 15.3584 41.0851 15.2778 41.0887Z" fill="#303030"/>
<path opacity="0.33" d="M132.516 41.1969C132.468 41.0794 132.65 40.9214 132.776 40.9888C132.706 41.0741 132.62 41.1492 132.516 41.1969Z" fill="#303030"/>
<path opacity="0.6" d="M15.0758 41.2047C15.0647 41.1111 15.1112 41.0747 15.216 41.0955C15.2029 41.1623 15.1564 41.1987 15.0758 41.2047Z" fill="#303030"/>
<path opacity="0.4" d="M93.1496 41.2671C93.0887 41.1705 93.2583 41.0358 93.3552 41.1049C93.3009 41.1723 93.2354 41.2343 93.1496 41.2671Z" fill="#303030"/>
<path opacity="0.49" d="M53.6914 41.5659C53.8551 41.4127 54.0575 41.2827 54.2775 41.207C54.102 41.3519 53.901 41.467 53.6914 41.5659Z" fill="#303030"/>
<path opacity="0.6" d="M131.976 41.5662C131.965 41.4649 132.016 41.4315 132.127 41.4667C132.092 41.5257 132.043 41.5585 131.976 41.5662Z" fill="#303030"/>
<path opacity="0.45" d="M14.3184 41.5338C14.3196 41.5332 14.3221 41.5319 14.3234 41.5312C14.3221 41.5319 14.3196 41.5332 14.3184 41.5338Z" fill="#303030"/>
<path opacity="0.58" d="M92.6161 41.6238C92.6076 41.523 92.6587 41.4902 92.7686 41.5254C92.7346 41.5844 92.6836 41.6172 92.6161 41.6238Z" fill="#303030"/>
<path opacity="0.69" d="M13.9791 41.687C13.966 41.5833 14.1638 41.5278 14.2444 41.5862C14.1743 41.65 14.0813 41.6941 13.9791 41.687Z" fill="#303030"/>
<path opacity="0.58" d="M53.3867 41.7421C53.3625 41.6347 53.5695 41.5441 53.669 41.5906C53.6016 41.6765 53.5 41.7272 53.3867 41.7421Z" fill="#303030"/>
<path opacity="0.45" d="M131.646 41.7385C131.626 41.63 131.82 41.5381 131.926 41.5745C131.872 41.6741 131.753 41.7099 131.646 41.7385Z" fill="#303030"/>
<path opacity="0.62" d="M92.4176 41.7393C92.4065 41.6469 92.4536 41.6105 92.559 41.6302C92.5446 41.6976 92.4975 41.7339 92.4176 41.7393Z" fill="#303030"/>
<path opacity="0.45" d="M13.7813 41.6915L13.8448 41.6641L13.8972 41.6927C13.8664 41.7064 13.8042 41.7326 13.7734 41.7457L13.7813 41.6915Z" fill="#303030"/>
<path opacity="0.44" d="M13.5866 41.7492L13.6495 41.7188L13.7019 41.7444C13.6718 41.7587 13.6109 41.7885 13.5801 41.8034L13.5866 41.7492Z" fill="#303030"/>
<path opacity="0.49" d="M131.543 41.7688C131.545 41.7682 131.549 41.7663 131.55 41.7656C131.549 41.7663 131.545 41.7682 131.543 41.7688Z" fill="#303030"/>
<path opacity="0.6" d="M13.1348 41.9237C13.1701 41.8062 13.4026 41.7746 13.5153 41.8217C13.4052 41.8986 13.2716 41.9308 13.1348 41.9237Z" fill="#303030"/>
<path opacity="0.59" d="M53.1445 41.8221C53.149 41.8202 53.1578 41.8177 53.1622 41.8164C53.1578 41.8177 53.149 41.8202 53.1445 41.8221Z" fill="#303030"/>
<path opacity="0.67" d="M52.8244 41.9925C52.7996 41.8894 52.9953 41.8286 53.0765 41.8846C53.0143 41.9514 52.9233 42.0003 52.8244 41.9925Z" fill="#303030"/>
<path opacity="0.6" d="M91.7832 42.0444C91.7865 41.9305 92 41.8518 92.1113 41.8876C92.0275 41.9765 91.9175 42.0498 91.7832 42.0444Z" fill="#303030"/>
<path opacity="0.51" d="M131.152 41.9471C131.154 41.9452 131.159 41.9427 131.161 41.9414C131.159 41.9427 131.154 41.9452 131.152 41.9471Z" fill="#303030"/>
<path opacity="0.69" d="M130.824 42.1084C130.789 42.0029 130.997 41.9456 131.078 42.0035C131.01 42.0667 130.922 42.112 130.824 42.1084Z" fill="#303030"/>
<path opacity="0.52" d="M11.6836 42.1596C11.9364 42.0701 12.22 42.0564 12.4898 42.0469C12.2259 42.1095 11.9554 42.1441 11.6836 42.1596Z" fill="#303030"/>
<path opacity="0.45" d="M52.4936 42.0473L52.561 42.0234L52.6128 42.0556C52.58 42.067 52.5152 42.089 52.4824 42.1004L52.4936 42.0473Z" fill="#303030"/>
<path opacity="0.5" d="M52.0977 42.2239C52.1068 42.1106 52.3249 42.0581 52.4212 42.1201C52.3256 42.1827 52.2162 42.2269 52.0977 42.2239Z" fill="#303030"/>
<path opacity="0.7" d="M91.3274 42.2236C91.309 42.1211 91.5094 42.0686 91.5912 42.124C91.5238 42.1926 91.4269 42.229 91.3274 42.2236Z" fill="#303030"/>
<path opacity="0.6" d="M129.986 42.344C130.232 42.2307 130.502 42.1443 130.778 42.1133C130.521 42.2105 130.259 42.2975 129.986 42.344Z" fill="#303030"/>
<path opacity="0.43" d="M51.8998 42.2213L51.966 42.1992L52.0164 42.232C51.9837 42.2421 51.9188 42.2636 51.8867 42.2743L51.8998 42.2213Z" fill="#303030"/>
<path opacity="0.44" d="M51.6387 42.3441C51.6603 42.241 51.7205 42.2225 51.8188 42.2893C51.7657 42.328 51.7055 42.3465 51.6387 42.3441Z" fill="#303030"/>
<path opacity="0.4" d="M90.9323 42.2876L90.9945 42.2578L91.0476 42.2834C91.0168 42.2978 90.9559 42.327 90.9258 42.3413L90.9323 42.2876Z" fill="#303030"/>
<path opacity="0.59" d="M51.0371 42.4299C51.2218 42.387 51.4097 42.3477 51.6016 42.3477C51.4379 42.3888 51.2729 42.4305 51.1033 42.446L51.0371 42.4299Z" fill="#303030"/>
<path opacity="0.44" d="M90.737 42.3387L90.8019 42.3125L90.8529 42.3417C90.8215 42.3542 90.758 42.3799 90.7266 42.3924L90.737 42.3387Z" fill="#303030"/>
<path opacity="0.58" d="M129.445 42.4552C129.608 42.3759 129.794 42.3467 129.979 42.3438C129.805 42.3962 129.625 42.4308 129.445 42.4552Z" fill="#303030"/>
<path opacity="0.53" d="M90.5254 42.4018L90.5896 42.375L90.642 42.4024C90.6106 42.4155 90.5471 42.4424 90.5156 42.4555L90.5254 42.4018Z" fill="#303030"/>
<path opacity="0.45" d="M129.166 42.5204C129.194 42.4209 129.258 42.4071 129.358 42.4781C129.297 42.5109 129.233 42.5252 129.166 42.5204Z" fill="#303030"/>
<path opacity="0.42" d="M50.1973 42.5799C50.2208 42.4523 50.4723 42.4595 50.5647 42.534C50.4442 42.5632 50.321 42.5805 50.1973 42.5799Z" fill="#303030"/>
<path opacity="0.42" d="M89.5254 42.64C89.7219 42.5452 89.9517 42.5321 90.1705 42.5195C89.9596 42.5768 89.7435 42.6173 89.5254 42.64Z" fill="#303030"/>
<path opacity="0.47" d="M128.156 42.6373C128.45 42.5509 128.769 42.5306 129.078 42.5234C128.774 42.5866 128.465 42.6224 128.156 42.6373Z" fill="#303030"/>
<path opacity="0.42" d="M49.498 42.6323C49.6827 42.5572 49.889 42.553 50.0868 42.5864C49.891 42.612 49.6945 42.6269 49.498 42.6323Z" fill="#303030"/>
<path opacity="0.4" d="M88.1635 42.7456C88.6167 42.7564 89.0627 42.6305 89.5146 42.6413C88.808 42.7587 88.0876 42.8178 87.3691 42.807C87.6324 42.7736 87.8963 42.7414 88.1635 42.7456Z" fill="#303030"/>
<path opacity="0.53" d="M127.065 42.6916C127.407 42.7053 127.742 42.5861 128.086 42.6457C127.748 42.7059 127.404 42.6821 127.065 42.7149C126.687 42.75 126.309 42.7506 125.932 42.7471L125.932 42.6874C126.31 42.6874 126.687 42.6839 127.065 42.6916Z" fill="#303030"/>
<path opacity="0.35" d="M0.392578 42.9365L0.471166 42.9318C6.73922 42.9228 13.0086 42.9252 19.2766 42.9306L19.3159 42.9443L19.3644 42.9741C18.327 43.0027 17.2883 42.9782 16.251 42.9866C11.0367 42.9872 5.8217 42.986 0.607385 42.9872C0.527487 42.9943 0.456103 42.977 0.392578 42.9365Z" fill="#303030"/>
<path opacity="0.72" d="M39.235 42.9858C45.5162 42.9917 51.798 42.9744 58.0785 42.9941L58.1335 43.0346C52.578 43.0537 47.0225 43.0376 41.4669 43.043C40.7217 43.0513 39.9751 43.0257 39.2305 43.0561L39.235 42.9858Z" fill="#303030"/>
</svg>
