<svg width="116" height="48" viewBox="0 0 116 48" fill="none" xmlns="http://www.w3.org/2000/svg">
<path d="M1.22266 0.503906H19.1551C21.5717 0.565346 24.0441 1.13423 26.0477 2.53597C27.7623 3.71242 28.833 5.60454 29.4804 7.53875C29.8137 8.54227 30.0231 9.58561 30.1187 10.6392C32.1507 9.40242 34.5503 8.69587 36.9385 8.8927C39.0149 9.02923 41.0458 9.84616 42.6046 11.2308C43.8755 12.3493 44.8756 13.784 45.4479 15.3791C46.4411 13.0683 48.1785 11.0329 50.4495 9.90418C52.6591 8.78916 55.2589 8.62305 57.6562 9.13619C59.422 9.50937 61.0365 10.4606 62.2858 11.7531C62.2858 10.9794 62.2846 10.2068 62.2858 9.43314C66.0541 9.42973 69.8235 9.43201 73.5918 9.43201C73.5929 9.74148 73.5929 10.051 73.5929 10.3604C74.5407 9.6698 75.5909 9.04175 76.7787 8.90067C78.5354 8.67766 80.332 9.25906 81.728 10.3229C82.917 11.2217 83.8602 12.4289 84.4917 13.776C84.4848 12.4209 84.4951 11.0647 84.4871 9.70962C84.4803 9.1578 84.3449 8.52861 83.8488 8.2089C83.1832 7.7902 82.3561 7.84481 81.6017 7.82547C81.6154 5.38495 81.5687 2.94329 81.6256 0.503906H94.3323C94.3857 0.649541 94.4108 0.799727 94.4051 0.955602C94.3948 5.21315 94.3937 9.47183 94.3903 13.7294C95.3722 12.2218 96.7091 10.935 98.3042 10.0908C100.428 8.94618 102.936 8.64922 105.304 9.00079C107.08 9.25793 108.794 9.98041 110.179 11.1284C111.713 12.3879 112.84 14.0855 113.611 15.9025C114.579 18.2042 114.934 20.713 115 23.1956V24.4495C114.962 25.3108 114.917 26.1721 114.844 27.0322C110.565 27.0356 106.285 27.0311 102.005 27.0345C102.05 28.1905 102 29.4204 102.557 30.474C102.747 30.8312 103.067 31.1919 103.503 31.2033C103.945 31.2158 104.281 30.8551 104.477 30.4956C104.86 29.7936 104.969 28.9812 104.995 28.1927C108.251 28.1939 111.506 28.1927 114.761 28.1939C114.626 30.3477 114.144 32.522 113.061 34.4072C112.299 35.7487 111.227 36.9138 109.941 37.7671C108.086 39.0061 105.84 39.5989 103.62 39.6137C100.887 39.6182 98.1142 38.5635 96.2278 36.5565C96.2266 37.3973 96.2289 38.237 96.2266 39.0778C91.795 39.0789 87.3623 39.0789 82.9306 39.0778C82.9295 38.4543 82.9284 37.8319 82.9306 37.2084C82.24 38.4589 80.952 39.3076 79.556 39.5523C77.5183 39.9004 75.1631 39.418 73.8125 37.7443C73.8899 38.518 74.1288 39.3372 74.7501 39.8526C75.2734 40.3055 75.98 40.4556 76.6547 40.4795C76.6535 42.8177 76.6547 45.1558 76.6547 47.4939H61.5064C61.5053 45.1546 61.503 42.8154 61.5041 40.4761C62.2528 40.4386 63.089 40.3885 63.6761 39.8617C64.2075 39.3622 64.2951 38.5874 64.3292 37.8979C64.352 36.8387 64.3337 35.7771 64.3394 34.7167C63.5521 36.1753 62.4325 37.4906 60.9716 38.3053C59.0795 39.3793 56.8449 39.6672 54.7002 39.5864C52.4679 39.4874 50.2311 38.7501 48.496 37.3177C47.1249 36.1958 46.1089 34.6917 45.416 33.0715C44.7379 34.8749 43.6422 36.5599 42.0846 37.7216C40.4906 38.9401 38.4836 39.5249 36.4947 39.5932C33.7038 39.7218 30.8184 38.832 28.7363 36.9331C27.7623 36.0047 26.7918 35.0319 26.1558 33.8327C25.2092 32.0668 24.8519 30.0621 24.6323 28.0926C24.5094 26.5259 24.4628 24.9421 24.6471 23.3777C23.779 24.0785 22.7015 24.4722 21.6002 24.5974C19.6887 24.8329 17.7579 24.6702 15.8385 24.6998C15.8408 25.9479 15.826 27.196 15.8464 28.443C15.8794 29.1166 15.9784 29.9096 16.5769 30.3283C17.2323 30.7584 18.0526 30.7448 18.8058 30.7812C18.8035 33.5505 18.8058 36.3198 18.8047 39.088C12.944 39.0903 7.08332 39.1006 1.22266 39.1006V30.7982C2.01796 30.7641 2.90087 30.7778 3.56647 30.2749C4.17404 29.7583 4.20362 28.8868 4.22524 28.1506C4.22865 22.538 4.22865 16.9254 4.22524 11.3127C4.2059 10.5527 4.15014 9.64932 3.50389 9.13732C2.84853 8.66287 1.99748 8.66401 1.22266 8.63898V0.503906ZM2.29558 7.52396C2.98507 7.54558 3.70414 7.70373 4.23775 8.1668C5.00802 8.81875 5.30612 9.87232 5.30043 10.8519C5.29929 16.7706 5.30157 22.6905 5.29929 28.6103C5.29361 29.4875 5.15366 30.4432 4.53926 31.1157C3.97038 31.7369 3.09315 31.9132 2.28534 31.9303C2.28647 33.893 2.28647 35.8556 2.28534 37.8183C7.43148 37.8194 12.5765 37.8183 17.7226 37.8183C17.7226 35.8135 17.7226 33.8099 17.7226 31.8052C16.9342 31.7892 16.0729 31.6447 15.4971 31.0565C14.9021 30.441 14.7519 29.5421 14.7394 28.7184C14.7337 27.0015 14.7383 25.2834 14.7371 23.5666C16.8727 23.5472 19.0186 23.6257 21.1451 23.3834C23.0155 23.1706 24.7154 22.1625 25.9681 20.7824C25.8281 22.1375 25.6381 23.4915 25.6518 24.8568C25.637 27.3144 25.7951 29.8323 26.6837 32.1488C28.0866 35.9228 32.0176 38.5499 36.0328 38.4839C38.2071 38.5123 40.461 37.8638 42.071 36.3506C43.9437 34.6325 44.8494 32.134 45.2886 29.6878C45.6766 31.0929 46.192 32.4753 46.9543 33.7234C47.9589 35.4017 49.4164 36.8489 51.2152 37.6544C53.2598 38.5726 55.6036 38.6978 57.7802 38.2415C59.6734 37.8467 61.4199 36.8023 62.6555 35.3141C64.1358 33.5551 64.9789 31.3364 65.3794 29.0927C65.3964 29.2236 65.4067 29.3544 65.4112 29.4875C65.4078 32.2648 65.4101 35.0421 65.4101 37.8194C65.4146 38.5465 65.2622 39.2906 64.8742 39.9129C64.3827 40.731 63.51 41.3295 62.5497 41.4125C62.5486 43.0555 62.5486 44.6984 62.5497 46.3413C66.8824 46.3402 71.2161 46.3413 75.5488 46.3402C75.5499 44.6973 75.5488 43.0543 75.5499 41.4114C74.0162 41.1872 72.8989 39.7582 72.7646 38.2609C72.6782 36.9524 72.6782 35.6383 72.6201 34.3276C73.4029 36.5269 75.4873 38.171 77.7913 38.4793C79.3205 38.6022 80.8394 37.8809 81.8441 36.7476C83.0706 35.3835 83.6326 33.5733 83.9592 31.804C83.9706 33.8076 83.9615 35.8113 83.9637 37.8149C87.6774 37.816 91.3911 37.8149 95.1048 37.8149C95.1219 35.8192 95.0718 33.8236 95.1321 31.8291C95.2971 33.1398 95.8671 34.3902 96.7113 35.4028C97.8434 36.7659 99.4602 37.6692 101.166 38.0959C104.681 38.9902 108.716 37.9776 111.179 35.256C112.672 33.6279 113.473 31.4559 113.644 29.2713C111.086 29.2702 108.529 29.2713 105.972 29.2713C105.8 30.169 105.534 31.1191 104.85 31.7676C104.177 32.4161 103.02 32.4435 102.311 31.8416C101.746 31.3626 101.449 30.6492 101.26 29.9506C100.938 28.6467 100.936 27.2882 100.945 25.9525C105.255 25.9502 109.564 25.9525 113.872 25.9513C114.018 23.1956 113.943 20.3808 113.12 17.7252C112.515 15.758 111.524 13.8591 109.982 12.4642C107.073 9.75172 102.367 9.15098 98.9141 11.1603C97.0003 12.2503 95.5918 14.0673 94.7146 16.0618C93.9477 17.8197 93.4937 19.7106 93.3208 21.6187C93.2787 21.0646 93.2935 20.5094 93.2912 19.9553C93.2912 13.8545 93.2923 7.75379 93.2912 1.65419C89.7493 1.65306 86.2086 1.65306 82.6678 1.65419C82.669 3.29941 82.6712 4.94463 82.6746 6.58985C83.3983 6.6035 84.1708 6.73549 84.7351 7.22473C85.3222 7.71966 85.5612 8.51155 85.5612 9.25793C85.5714 13.3778 85.5532 17.4988 85.5703 21.6187C85.1721 18.8425 84.5065 16.0311 82.9932 13.6327C82.0591 12.1615 80.7632 10.8269 79.0986 10.2148C77.8892 9.74717 76.517 9.94628 75.3588 10.4674C73.9502 11.0954 72.8784 12.3891 72.4904 13.8773C72.4893 12.7577 72.4904 11.637 72.4893 10.5163C69.448 10.5163 66.4068 10.5152 63.3655 10.5174C63.3666 12.2639 63.3644 14.0104 63.3666 15.758C62.8581 14.2914 61.9205 12.9807 60.694 12.0295C59.1137 10.803 57.1533 10.0555 55.1542 9.95083C52.9469 9.90532 50.7476 10.7427 49.0819 12.182C47.0669 13.9091 45.9303 16.4384 45.3773 18.9893C44.9973 16.526 44.0962 14.0252 42.2564 12.2719C40.6499 10.7097 38.38 9.94514 36.1602 9.9952C33.7186 10.0441 31.2678 10.8895 29.3916 12.4676C29.2676 10.9464 29.0617 9.41949 28.5929 7.962C28.0718 6.29631 27.1377 4.7148 25.7257 3.65554C23.8416 2.21398 21.4352 1.61096 19.0902 1.59958C13.4924 1.59162 7.89569 1.59958 2.29785 1.59617C2.29444 3.57248 2.29899 5.54765 2.29558 7.52396Z" fill="#303030" stroke="#303030" stroke-width="0.8"/>
<path d="M14.7642 8.44851C15.5606 8.45533 16.3582 8.4303 17.1535 8.46102C17.8828 8.49061 18.5564 8.93206 18.9205 9.55783C19.4541 10.4601 19.561 11.5387 19.5724 12.5661C19.5633 13.5412 19.536 14.5492 19.1628 15.464C18.8875 16.2115 18.1559 16.7212 17.3697 16.7872C16.5038 16.8612 15.6323 16.8043 14.7642 16.8214C14.7642 14.0304 14.763 11.2395 14.7642 8.44851ZM15.8542 9.54873C15.8519 11.6149 15.853 13.6811 15.853 15.7484C16.5107 15.6995 17.3151 15.9282 17.8305 15.3946C18.3539 14.8143 18.396 13.9781 18.4437 13.2374C18.4665 12.1508 18.5245 10.9436 17.8794 10.0084C17.4152 9.3519 16.5346 9.58969 15.8542 9.54873Z" fill="#303030" stroke="#303030" stroke-width="0.8"/>
<path d="M74.8519 15.9977C75.2957 15.9419 75.7758 15.9874 76.1536 16.2468C76.6917 16.612 76.9898 17.223 77.2015 17.8181C77.5587 18.8728 77.6884 19.9878 77.784 21.0926C77.9262 23.1247 77.9456 25.1692 77.7783 27.2001C77.66 28.3846 77.4973 29.5883 77.0251 30.6908C76.7748 31.2518 76.413 31.8149 75.843 32.0914C75.1227 32.4464 74.159 32.2382 73.7016 31.5624C73.1032 30.7068 73.0121 29.619 72.9746 28.6076C72.9632 25.5731 72.9769 22.5398 72.9678 19.5054C72.9905 18.602 73.0804 17.6486 73.5594 16.8578C73.8359 16.3993 74.316 16.0648 74.8519 15.9977ZM74.9919 17.2776C74.6369 17.4039 74.4788 17.7862 74.3684 18.1162C74.1067 19.0059 74.093 19.9434 74.0783 20.8639C74.076 23.0643 74.0771 25.2648 74.0783 27.4652C74.0908 28.388 74.0987 29.3289 74.3536 30.2232C74.4537 30.5259 74.5982 30.9081 74.9487 30.9821C75.4766 31.0276 75.8304 30.5395 76.0205 30.1106C76.463 29.0775 76.5768 27.942 76.6758 26.8326C76.8067 24.9223 76.7896 23.0018 76.6542 21.0926C76.5541 20.0413 76.4574 18.9615 76.0307 17.9842C75.8577 17.586 75.4754 17.1411 74.9919 17.2776Z" fill="#303030" stroke="#303030" stroke-width="0.8"/>
<path d="M35.2482 16.1943C35.9195 15.911 36.7614 16.0373 37.2791 16.5629C37.9049 17.1887 38.1643 18.075 38.3304 18.9192C38.4829 19.826 38.5546 20.751 38.4977 21.6692C36.7933 21.684 35.0878 21.6715 33.3834 21.6749C33.3163 20.2652 33.4221 18.7907 34.0228 17.4936C34.2856 16.952 34.677 16.4309 35.2482 16.1943ZM35.0036 17.9066C34.5325 18.711 34.4267 19.6736 34.4597 20.5906C35.4325 20.5918 36.4053 20.5918 37.3781 20.5906C37.4111 19.702 37.3098 18.7736 36.8775 17.9817C36.6829 17.6279 36.3518 17.2808 35.9172 17.2865C35.5167 17.2808 35.1981 17.5846 35.0036 17.9066Z" fill="#303030" stroke="#303030" stroke-width="0.8"/>
<path d="M54.8521 16.2784C55.4744 16.0657 56.1753 16.3228 56.5917 16.8109C57.3643 17.712 57.6294 18.9169 57.8421 20.0535C58.2233 22.4429 58.221 24.8823 58.0128 27.2875C57.8581 28.6346 57.6658 30.0295 56.9922 31.2299C56.6645 31.8136 56.0888 32.3381 55.3823 32.3301C54.6461 32.3551 54.0454 31.8022 53.7075 31.1958C53.0828 30.0853 52.8678 28.8042 52.7062 27.5572C52.4935 25.6616 52.4821 23.7433 52.6254 21.8421C52.7449 20.5143 52.9292 19.1706 53.4298 17.9259C53.7131 17.2535 54.1296 16.5412 54.8521 16.2784ZM55.0762 17.5084C54.6564 17.7917 54.4743 18.2968 54.2991 18.7497C53.8019 20.2367 53.6551 21.8137 53.5891 23.3724C53.5379 25.0882 53.6199 26.8176 53.9555 28.5049C54.1102 29.2206 54.2923 29.9476 54.6655 30.5848C54.827 30.8328 55.0569 31.1207 55.3857 31.0979C55.6929 31.0535 55.8943 30.7793 56.0444 30.5324C56.4438 29.8179 56.6259 29.0078 56.7806 28.2114C57.0912 26.4638 57.1549 24.6786 57.0696 22.9071C56.9934 21.5839 56.8454 20.2515 56.4575 18.9795C56.297 18.5016 56.1218 18.0021 55.7646 17.6312C55.5939 17.4469 55.2981 17.3616 55.0762 17.5084Z" fill="#303030" stroke="#303030" stroke-width="0.8"/>
<path d="M102.191 16.6938C102.922 16.0168 104.186 16.0498 104.879 16.7689C105.532 17.439 105.792 18.3822 105.942 19.2822C106.049 20.073 106.112 20.8762 106.051 21.6727C104.347 21.6738 102.642 21.6738 100.937 21.6727C100.879 20.7568 100.942 19.8306 101.111 18.9284C101.28 18.116 101.563 17.2706 102.191 16.6938ZM102.499 18.0307C102.097 18.8146 101.977 19.718 102.024 20.5907C102.995 20.5861 103.965 20.5929 104.936 20.5861C104.959 19.7043 104.856 18.7873 104.435 17.9988C104.247 17.6507 103.937 17.3002 103.514 17.2843C103.045 17.2581 102.696 17.6495 102.499 18.0307Z" fill="#303030" stroke="#303030" stroke-width="0.8"/>
<path d="M33.4397 25.954C37.2194 25.9528 41.0002 25.9528 44.781 25.954C44.7799 27.0804 44.9619 28.1931 45.1974 29.2911C42.9549 29.2922 40.7123 29.2888 38.4698 29.2922C38.3014 30.1797 38.034 31.1126 37.365 31.7578C36.6585 32.445 35.416 32.4484 34.7106 31.7578C34.0427 31.1081 33.7708 30.1694 33.6115 29.2774C33.4511 28.1783 33.4204 27.0622 33.4397 25.954ZM34.491 27.0542C34.5581 28.1601 34.4967 29.3241 34.9893 30.3492C35.1725 30.7292 35.4649 31.1308 35.9132 31.198C36.3058 31.256 36.6562 30.9898 36.8621 30.6792C37.3582 29.951 37.431 29.0362 37.5186 28.1965C39.6303 28.1829 41.7409 28.1954 43.8526 28.1908C43.7946 27.8085 43.7604 27.424 43.7491 27.0383C40.6634 27.0497 37.5766 27.0167 34.491 27.0542Z" fill="#303030" stroke="#303030" stroke-width="0.8"/>
</svg>
