<svg width="89" height="44" viewBox="0 0 89 44" fill="none" xmlns="http://www.w3.org/2000/svg">
<path d="M7.17345 0H9.32492C9.53587 0.0671669 9.75646 0.0893661 9.97308 0.128642C10.9155 0.342665 11.8297 0.708098 12.6343 1.24942C12.6241 2.82158 12.636 4.39374 12.6292 5.9659C11.9465 5.43141 11.2484 4.85138 10.3859 4.64818C10.0162 4.53092 9.62263 4.57702 9.24496 4.5036C8.89961 4.43871 8.55824 4.54458 8.21799 4.58784C7.62484 4.73526 7.07081 5.03809 6.61489 5.44507C5.6554 6.30401 5.1354 7.59783 5.12349 8.87741C5.06905 10.4194 5.44899 11.9386 5.97013 13.3787C6.56158 14.9896 7.3328 16.5253 8.11649 18.0485C8.42554 18.661 8.74197 19.2695 9.072 19.8706C10.4772 22.5692 11.9436 25.2599 12.8986 28.1617C13.528 30.072 13.9012 32.0802 13.8558 34.0969C13.8218 36.006 13.5371 37.9607 12.6587 39.6763C12.1166 40.7629 11.3012 41.718 10.2872 42.3863C9.47519 42.9077 8.54973 43.2424 7.59819 43.3875C7.25738 43.4086 6.9228 43.4945 6.58029 43.4906C6.20036 43.4917 5.81758 43.5088 5.44218 43.4422C3.89578 43.2913 2.3834 42.7517 1.09672 41.8746C1.02697 41.8228 0.931703 41.7681 0.950416 41.6651C0.942477 40.1402 0.952684 38.6147 0.945312 37.0898C1.38819 37.3789 1.81577 37.692 2.27963 37.9481C3.20169 38.4798 4.20824 38.8953 5.27036 39.0211C5.92192 39.0678 6.58767 39.0348 7.20804 38.8162C7.91178 38.584 8.52308 38.091 8.89791 37.4495C9.34136 36.6765 9.53076 35.7783 9.55458 34.8926C9.6368 32.7735 9.06066 30.689 8.27754 28.74C7.72237 27.3574 7.02147 26.042 6.3098 24.7356C5.70927 23.6769 5.14901 22.5965 4.57286 21.5241C3.8334 20.0789 3.0826 18.636 2.48151 17.1253C1.90423 15.7205 1.47439 14.2525 1.23792 12.7509C0.939075 10.7382 0.89938 8.67193 1.2538 6.66318C1.51749 5.21226 2.02785 3.78013 2.91305 2.58991C3.75628 1.42758 4.99306 0.547012 6.38295 0.182147C6.6404 0.0973351 6.91373 0.0785511 7.17345 0Z" fill="#303030"/>
<path d="M74.9628 0.28441C79.1041 0.281564 83.2454 0.28441 87.3867 0.282702C87.4718 0.276441 87.6067 0.286118 87.6101 0.39939C87.6198 1.86055 87.6056 3.32172 87.6164 4.78231C87.605 4.8768 87.6731 5.03732 87.5461 5.07204C87.0799 5.01626 86.6076 5.06123 86.1392 5.047C83.8664 5.0487 81.5935 5.04358 79.3207 5.04984C79.3054 9.62971 79.3145 14.2102 79.3162 18.7906C81.7966 18.7883 84.2775 18.802 86.7573 18.7838C86.7805 18.7969 86.8265 18.8225 86.8497 18.8356C86.8083 18.8879 86.7896 18.9471 86.7941 19.0132C86.7862 20.5204 86.8032 22.0283 86.7856 23.5355C84.2979 23.5019 81.8102 23.5276 79.3213 23.5293C79.3015 28.6362 79.3213 33.7443 79.3117 38.8513C79.5413 38.9105 79.7778 38.8746 80.012 38.8672C82.2978 38.8746 84.5848 38.8598 86.8718 38.8689C87.1162 38.8792 87.364 38.8467 87.6062 38.8957L87.6056 38.9008C87.5619 39.5173 87.5977 40.1371 87.5863 40.7553C87.5863 41.7065 87.5863 42.6576 87.5875 43.6093L87.5846 43.6088C86.9722 43.5683 86.3569 43.6025 85.7434 43.5911C82.3024 43.5922 78.8608 43.5894 75.4193 43.5928C75.2866 43.5814 75.1386 43.6253 75.0201 43.5507C74.9804 43.5006 74.9622 43.4443 74.9662 43.3811C74.973 31.0468 74.9673 18.712 74.969 6.37781C74.9645 4.40037 74.9781 2.42237 74.9617 0.444927C74.9622 0.405083 74.9628 0.324824 74.9628 0.28441Z" fill="#303030"/>
<path d="M15.8973 0.348538L15.937 0.334308C17.3768 0.3474 18.816 0.32577 20.2552 0.345692C20.2711 1.4067 20.2609 2.46771 20.2632 3.52872C20.2643 8.61519 20.2609 13.7011 20.2649 18.787C22.8099 18.7972 25.3549 18.7864 27.8999 18.7921C28.0366 18.7932 28.1738 18.783 28.3105 18.7671C28.3076 12.6247 28.3065 6.48292 28.311 0.340569C29.761 0.336016 31.2122 0.352523 32.6622 0.332031L32.7002 0.351384C32.7058 0.373014 32.7172 0.416274 32.7228 0.437335C32.7172 14.8247 32.7223 29.2121 32.72 43.5989C32.7058 43.5983 32.678 43.5977 32.6644 43.5972C31.2246 43.5835 29.7843 43.5869 28.3445 43.5955L28.3161 43.5966C28.2974 40.5809 28.3139 37.5652 28.3082 34.5496C28.3082 31.1349 28.3082 27.7207 28.3082 24.306C28.2917 24.0505 28.3456 23.7824 28.2685 23.5359C27.884 23.4687 27.4933 23.5234 27.1066 23.5035C26.5588 23.5422 26.011 23.4955 25.4632 23.5012C24.7833 23.5376 24.1022 23.5245 23.4223 23.5012C22.3698 23.5268 21.3168 23.5023 20.2637 23.5274C20.2626 29.7255 20.2649 35.9236 20.2626 42.1223C20.2479 42.6141 20.2978 43.1105 20.2286 43.5994L20.1809 43.5972C18.7644 43.5801 17.3479 43.596 15.9319 43.5892C15.8117 43.5653 15.8825 43.3985 15.8655 43.3137C15.878 37.3751 15.8672 31.4371 15.8712 25.4985C15.8718 17.455 15.8695 9.41094 15.8723 1.36743C15.8905 1.02875 15.836 0.682665 15.8973 0.348538Z" fill="#303030"/>
<path d="M42.2187 0.336507C43.9896 0.335368 45.76 0.337076 47.531 0.335938C47.7935 1.75783 48.0192 3.18711 48.267 4.61242C49.4437 11.4805 50.6249 18.348 51.7925 25.2167C52.8257 31.3409 53.9026 37.4576 54.9284 43.5823C53.5016 43.6045 52.0738 43.5766 50.6465 43.5954L50.6164 43.5965C50.3703 42.3067 50.1741 41.0066 49.9575 39.7117C49.4397 36.6487 48.9469 33.5813 48.4048 30.5223C48.3906 30.4244 48.3776 30.3254 48.3668 30.2275L48.3011 30.285C48.2999 30.3094 48.2982 30.3584 48.2971 30.3829C48.2823 30.3146 48.2965 30.2446 48.3016 30.1768L48.3396 30.2389C48.1202 28.8062 47.8349 27.3831 47.6058 25.9516C46.7229 20.8099 45.8462 15.6665 44.9525 10.5259C44.8873 10.2624 44.9088 9.97837 44.7926 9.72735C44.3871 12.1732 44.0129 14.6248 43.6176 17.0724C42.847 21.9329 42.0667 26.7912 41.2836 31.6505C40.6893 35.1785 40.0842 38.7047 39.4842 42.2316C39.4049 42.6938 39.3306 43.1577 39.2325 43.617L39.1911 43.6113C39.0017 43.584 38.81 43.5886 38.62 43.5891C37.3855 43.5925 36.151 43.5857 34.9165 43.592C36.371 34.8466 37.876 26.1092 39.3402 17.365C40.2895 11.6877 41.2649 6.01439 42.2187 0.336507Z" fill="#303030"/>
<path d="M56.8945 0.352456L56.9353 0.341071C58.7687 0.333672 60.602 0.339933 62.4359 0.338225C62.8913 0.343348 63.3512 0.309195 63.8014 0.398562C64.2965 0.45036 64.7841 0.560217 65.2628 0.697397C66.4304 1.03722 67.5486 1.54609 68.5762 2.19784C69.3712 2.71013 70.1254 3.30894 70.7129 4.05745C71.5153 5.08488 72.1992 6.21817 72.6284 7.45507C73.0101 8.53714 73.1649 9.68125 73.2613 10.8197C73.3293 12.3731 73.3673 13.9452 73.0696 15.4787C72.6993 17.6377 71.7449 19.7238 70.2099 21.2983C68.7253 22.846 66.7105 23.8791 64.5868 24.1534C63.4844 24.277 62.3735 24.1825 61.2683 24.2377C61.2468 27.2961 61.2655 30.3584 61.2592 33.4185C61.2632 36.8104 61.2502 40.2029 61.2655 43.5954C59.8126 43.5903 58.3598 43.5874 56.907 43.5965L56.8758 43.5971C56.8769 29.2109 56.8792 14.8241 56.8746 0.437268C56.8797 0.416207 56.8894 0.374086 56.8945 0.352456ZM61.2519 5.0382C61.2694 9.87251 61.2519 14.7068 61.2609 19.5411C61.8416 19.5457 62.4223 19.5491 63.0035 19.5423C63.2678 19.5053 63.532 19.4603 63.8003 19.4455C64.6554 19.2969 65.5089 19.0436 66.2495 18.5763C67.1551 18.0162 67.8792 17.1715 68.3057 16.1942C68.8756 14.926 69.0151 13.5086 68.9623 12.1317C68.9362 10.9597 68.7559 9.78257 68.342 8.68286C67.9053 7.5376 67.1505 6.48286 66.0946 5.84079C65.1085 5.22604 63.9233 4.99722 62.7744 5.03137C62.2669 5.03308 61.7588 5.02112 61.2519 5.0382Z" fill="#303030"/>
<path d="M15.9363 0.335485C15.9119 0.218228 16.099 0.308732 16.1608 0.279703C17.5365 0.295641 18.9134 0.264334 20.2891 0.296779C20.3067 1.28038 20.3067 2.26511 20.3067 3.24928C20.2817 4.59603 20.3197 5.94278 20.3016 7.28954C20.3095 9.81171 20.2897 12.3339 20.3067 14.8566C20.3118 16.1214 20.2863 17.3862 20.3118 18.651C20.3719 18.7056 20.4433 18.7404 20.5273 18.7307C23.0791 18.7256 25.6315 18.7278 28.1833 18.7295C28.2763 18.6168 28.2406 18.4677 28.2457 18.3334C28.2423 12.5268 28.2496 6.71862 28.2417 0.912665C28.2298 0.710026 28.2269 0.506818 28.257 0.305317L28.3103 0.341747C28.3058 6.4841 28.3069 12.6259 28.3097 18.7682C28.1731 18.7842 28.0358 18.7944 27.8992 18.7933C25.3542 18.7876 22.8092 18.7984 20.2641 18.7882C20.2602 13.7023 20.2636 8.61637 20.2624 3.5299C20.2602 2.46889 20.2704 1.40788 20.2545 0.34687C18.8153 0.326947 17.3761 0.348577 15.9363 0.335485Z" fill="#303030"/>
<path d="M88.24 1.17583C88.4212 1.17241 88.1646 1.35399 88.24 1.17583V1.17583Z" fill="#303030"/>
<path d="M44.7924 9.73047C44.9087 9.98149 44.8871 10.2655 44.9524 10.5291C45.8461 15.6696 46.7228 20.813 47.6057 25.9547C47.8348 27.3863 48.12 28.8093 48.3395 30.242L48.3015 30.1799C48.2431 30.0997 48.2777 29.9853 48.2039 29.9141C48.196 29.7018 48.1915 29.4889 48.1268 29.2846C48.065 29.1195 48.0979 28.9339 48.0162 28.7734C47.8977 28.6061 48.0333 28.3801 47.9306 28.2127C47.8308 27.8171 47.8376 27.3971 47.6976 27.0123C47.6613 26.5734 47.5785 26.1363 47.4809 25.7082C47.4962 25.5881 47.4639 25.4692 47.456 25.3502C47.4418 25.3502 47.4134 25.349 47.3993 25.349C47.4061 25.1111 47.3755 24.8732 47.3091 24.6449C47.2615 24.5095 47.3494 24.3444 47.2473 24.2271C47.2314 24.148 47.2552 24.0512 47.1838 23.9943C47.2087 23.7706 47.1361 23.56 47.0766 23.3494C47.0715 23.116 47.0301 22.8872 46.9609 22.6652C46.9598 22.4962 46.9553 22.3271 46.881 22.1717C46.8021 22.0613 46.8566 21.9178 46.8345 21.7938C46.7908 21.5678 46.7381 21.3435 46.7176 21.1141C46.6876 20.8842 46.5963 20.6656 46.6116 20.4316C46.5799 20.2905 46.5691 20.1413 46.5078 20.0098C46.5073 19.6928 46.3757 19.3934 46.3831 19.0763C46.3723 19.0541 46.3502 19.0097 46.3394 18.9875C46.3349 18.8413 46.2855 18.7012 46.2776 18.5555C46.264 18.4713 46.2992 18.3648 46.2215 18.3028C46.2192 18.2743 46.2141 18.2174 46.2118 18.1884C46.1234 18.1303 46.1704 18.0176 46.1597 17.9334C46.1597 17.6601 46.0434 17.4029 46.0332 17.1296C45.9935 16.9913 46.0156 16.8331 45.9396 16.7084C45.9459 16.4073 45.82 16.1238 45.8115 15.8233C45.7054 15.2347 45.6017 14.6456 45.4939 14.057C45.4576 13.8419 45.4622 13.6113 45.3731 13.4098C45.3675 13.2465 45.3516 13.0837 45.3102 12.9249C45.2359 12.663 45.2399 12.3864 45.1599 12.1257C45.093 11.9327 45.1917 11.68 45.0266 11.5303C45.0227 11.2764 45.0295 11.014 44.9178 10.7778C44.9217 10.611 44.8758 10.4511 44.8367 10.2906C44.818 10.298 44.7794 10.3122 44.7601 10.3196C44.687 10.5063 44.6762 10.705 44.6796 10.903C44.5968 10.9987 44.6359 11.1302 44.6235 11.2451C44.5435 11.3083 44.5804 11.4159 44.5673 11.5019C44.5616 11.6464 44.5146 11.7865 44.5021 11.931C44.4176 12.0551 44.476 12.2111 44.4448 12.3488C44.3927 12.5572 44.3405 12.7666 44.3371 12.9824C44.2152 13.5766 44.1573 14.1817 44.0462 14.7765C43.9515 14.912 44.0343 15.085 43.9793 15.2325C43.9469 15.4283 43.8953 15.6224 43.8891 15.8216C43.8749 16.0555 43.7632 16.2758 43.7751 16.5126C43.7762 16.7215 43.6657 16.9145 43.6668 17.1251C43.6827 17.359 43.5653 17.5731 43.5545 17.8047C43.5455 18.1394 43.4128 18.4576 43.4337 18.794C43.3254 19.1156 43.2954 19.4509 43.2602 19.7861C43.1462 19.9285 43.2381 20.126 43.2086 20.2933C43.1139 20.3901 43.1184 20.5341 43.1048 20.6599C43.102 20.9553 42.9512 21.2314 42.9903 21.5302C42.929 21.7698 42.8718 22.0146 42.8536 22.2628C42.7793 22.4546 42.8576 22.6698 42.7788 22.8576C42.7544 23.0955 42.6483 23.3198 42.6432 23.5612C42.6387 23.7097 42.5871 23.8515 42.5758 23.9994C42.489 24.1344 42.5735 24.3034 42.5247 24.4514C42.4578 24.5208 42.4833 24.621 42.4709 24.707C42.4136 24.9694 42.4039 25.2403 42.32 25.4976C42.3484 25.7179 42.2514 25.9154 42.2225 26.1294C42.1442 26.5854 42.1459 27.0578 41.9809 27.4961C41.9741 27.6572 41.9928 27.82 41.952 27.9805C41.8216 28.2833 41.8947 28.6362 41.7541 28.9396C41.7433 29.4246 41.6032 29.8931 41.5556 30.3746C41.4762 30.4816 41.5284 30.6222 41.4989 30.744C41.4388 30.9945 41.3957 31.2506 41.3883 31.509C41.2942 31.7225 41.2823 31.9627 41.2777 32.1938C41.17 32.413 41.2171 32.6964 41.1246 32.9275C41.056 33.4449 40.9545 33.9567 40.8728 34.4718C40.811 34.5412 40.8354 34.6386 40.8241 34.7234C40.7963 34.9744 40.7316 35.2214 40.7056 35.4736C40.6738 35.7087 40.5865 35.9352 40.5933 36.1749C40.4923 36.4771 40.4776 36.8061 40.4237 37.1215C40.3092 37.706 40.2094 38.294 40.1209 38.8826C40.0982 39.013 40.0115 39.1513 40.0931 39.2776L40.0273 39.2862C40.0319 39.3869 40.0353 39.4888 40.0336 39.5907C39.919 39.7455 39.9315 39.955 39.9139 40.1389C39.8816 40.2584 39.8601 40.3802 39.8549 40.5049C39.7727 40.6005 39.8147 40.7308 39.8039 40.8452C39.7217 40.9323 39.7653 41.061 39.7393 41.1674C39.7035 41.3035 39.6911 41.4435 39.6877 41.5847C39.6536 41.6575 39.6275 41.7344 39.5941 41.8084C39.6122 41.8448 39.6304 41.8823 39.6491 41.9211C39.4966 42.0036 39.6548 42.2165 39.5323 42.3223C39.4739 42.587 39.4376 42.8563 39.4013 43.1249C39.2743 43.2689 39.4552 43.5342 39.2323 43.6201C39.3304 43.1608 39.4047 42.6969 39.4841 42.2347C40.084 38.7079 40.6891 35.1816 41.2834 31.6536C42.0665 26.7943 42.8468 21.9361 43.6175 17.0756C44.0127 14.628 44.387 12.1764 44.7924 9.73047Z" fill="#303030"/>
<path d="M20.2629 23.5267C21.316 23.5016 22.369 23.5261 23.4215 23.5005C24.1014 23.5238 24.7825 23.5369 25.4624 23.5005C26.0102 23.4948 26.558 23.5415 27.1058 23.5028C27.4925 23.5227 27.8832 23.468 28.2677 23.5352C28.3448 23.7817 28.291 24.0498 28.3074 24.3054C28.3074 27.7201 28.3074 31.1342 28.3074 34.5489C28.3131 37.5646 28.2966 40.5802 28.3154 43.5959L28.245 43.6033C28.2445 36.9584 28.2462 30.3134 28.2445 23.669C28.173 23.6246 28.1044 23.5557 28.0165 23.5551C27.7131 23.5483 27.4092 23.5574 27.1058 23.5529C26.368 23.579 25.6291 23.5284 24.8919 23.5682C23.4176 23.5523 21.9426 23.5506 20.4682 23.5654C20.445 23.5665 20.399 23.5688 20.3758 23.5699L20.3605 23.6092C20.268 23.7674 20.3083 23.9559 20.3066 24.13C20.3151 27.469 20.2839 30.8086 20.3077 34.1476C20.3066 37.1855 20.2975 40.2228 20.3038 43.2607C20.2987 43.3739 20.2896 43.4872 20.2896 43.6016L20.2278 43.5988C20.297 43.1098 20.2471 42.6135 20.2618 42.1217C20.2641 35.923 20.2618 29.7248 20.2629 23.5267Z" fill="#303030"/>
<path d="M61.258 33.4191C61.2642 30.359 61.2455 27.2967 61.2671 24.2383L61.3663 24.2497C61.3391 24.322 61.2994 24.3937 61.3062 24.4739C61.3039 30.7455 61.3113 37.0165 61.3028 43.2875C61.4054 43.378 61.3669 43.5488 61.2654 43.6239L61.2642 43.596C61.2489 40.2035 61.262 36.811 61.258 33.4191Z" fill="#303030"/>
<path d="M28.2617 0.292019C29.7214 0.272666 31.1838 0.285188 32.644 0.285758C32.6486 0.297142 32.6576 0.321049 32.6622 0.333002C31.2122 0.353494 29.7611 0.336987 28.3111 0.34154L28.2617 0.292019Z" fill="#303030"/>
<path d="M61.2507 5.03747C61.7577 5.02039 62.2658 5.03235 62.7733 5.03064C63.9222 4.99648 65.1074 5.22531 66.0935 5.84005C67.1494 6.48212 67.9041 7.53687 68.3408 8.68212C68.7547 9.78184 68.9351 10.959 68.9612 12.131C69.0139 13.5079 68.8744 14.9252 68.3045 16.1934C67.8781 17.1708 67.1539 18.0155 66.2483 18.5756C65.5077 19.0429 64.6543 19.2962 63.7991 19.4448C63.5309 19.4596 63.2667 19.5045 63.0024 19.5415C62.4212 19.5484 61.8405 19.5449 61.2598 19.5404C61.2507 14.7061 61.2683 9.87177 61.2507 5.03747ZM61.3789 5.13423C61.3454 5.26401 61.2984 5.39266 61.3176 5.5287C61.3171 5.5674 61.3165 5.64538 61.3159 5.68409C61.3233 10.223 61.3171 14.7619 61.3193 19.3007C61.3006 19.389 61.3692 19.4772 61.4634 19.459C62.1076 19.4573 62.754 19.4823 63.3982 19.4408C63.5819 19.3884 63.7679 19.3451 63.9613 19.3423C64.1683 19.2848 64.3758 19.2199 64.5936 19.2176C64.6923 19.1414 64.8165 19.1277 64.935 19.1015C65.041 19.0446 65.1527 19.0065 65.2735 18.9939C65.3552 18.9461 65.4283 18.8795 65.5293 18.875L65.5355 18.8363C65.6194 18.8141 65.7022 18.7896 65.7878 18.7663C65.9665 18.6251 66.1922 18.5477 66.3804 18.4162C66.5398 18.3103 66.6696 18.1629 66.8403 18.0747C66.9503 17.9489 67.0632 17.8259 67.201 17.7303C67.2378 17.6836 67.2798 17.6409 67.3274 17.6034C67.366 17.551 67.4068 17.4986 67.4454 17.4451C67.5854 17.2738 67.7227 17.0985 67.8304 16.9038C67.8633 16.8583 67.8968 16.8122 67.9308 16.7661C67.9784 16.6921 68.0204 16.6135 68.0601 16.5338C68.2478 16.2259 68.3538 15.8804 68.4996 15.5542C68.4916 15.5155 68.4842 15.4779 68.4774 15.4398L68.5245 15.4739C68.668 14.8518 68.8733 14.2251 68.8251 13.579L68.8857 13.5859C68.8959 13.2147 68.9016 12.8431 68.9016 12.4714C68.9073 11.342 68.761 10.2087 68.4281 9.12838C68.3878 8.99234 68.3436 8.85687 68.2739 8.73335C68.2285 8.50738 68.1066 8.30815 68.0181 8.09811C67.9966 8.08104 67.9535 8.04745 67.9314 8.03038C67.8803 7.9006 67.8225 7.77423 67.759 7.65128C67.6932 7.54029 67.6297 7.42758 67.5526 7.32456C67.459 7.25682 67.4063 7.01946 67.277 7.09346C67.3331 6.94091 67.1601 6.85553 67.0938 6.74055C67.0093 6.67224 66.9311 6.59654 66.8585 6.51685C66.8199 6.47871 66.783 6.44 66.7473 6.40016C66.6583 6.33527 66.5744 6.26469 66.4927 6.19183C66.2925 6.05465 66.0992 5.89982 65.8769 5.80135C65.8944 5.97951 65.7561 5.84973 65.8219 5.74557C65.7266 5.70629 65.6296 5.67271 65.5338 5.63855L65.5542 5.59416C65.4385 5.60383 65.3404 5.56513 65.2752 5.4695C65.159 5.47747 65.0501 5.45071 64.9639 5.37046C64.817 5.36192 64.6662 5.33858 64.542 5.25377C64.3259 5.27597 64.1235 5.20425 63.9273 5.12513L63.9262 5.18831C63.857 5.18717 63.7889 5.1866 63.7214 5.18603L63.7266 5.12228C62.944 5.14334 62.1609 5.11545 61.3789 5.13423Z" fill="#303030"/>
<path d="M20.3759 23.571C20.3992 23.5698 20.4451 23.5675 20.4683 23.5664L20.4615 23.6131C20.4366 23.6125 20.3861 23.6108 20.3606 23.6102L20.3759 23.571Z" fill="#303030"/>
<path opacity="0.2" d="M64.9429 5.53906C64.9734 5.56679 64.9734 5.56679 64.9429 5.53906V5.53906Z" fill="#303030"/>
<path opacity="0.15" d="M67.0399 17.6553C67.206 17.5648 67.0517 17.8443 67.0399 17.6553V17.6553Z" fill="#303030"/>
<path d="M86.794 19.0135C86.7895 18.9475 86.8082 18.8883 86.8496 18.8359C86.9058 19.0972 86.8609 19.371 86.8751 19.6374C86.8729 20.9289 86.8791 22.2199 86.8717 23.5114L86.7855 23.5359C86.8031 22.0286 86.7861 20.5208 86.794 19.0135Z" fill="#303030"/>
<path d="M87.6057 38.8984C87.6766 38.9662 87.6626 39.0715 87.6693 39.1608C87.6676 40.5856 87.671 42.0103 87.6682 43.4345C87.6682 43.5045 87.6417 43.562 87.5877 43.6069C87.5866 42.6552 87.5866 41.7041 87.5866 40.7529C87.5978 40.1348 87.5624 39.5149 87.6057 38.8984Z" fill="#303030"/>
<path opacity="0.97" d="M28.344 43.5973C29.7838 43.5888 31.2242 43.5854 32.664 43.599C32.6356 43.6133 32.58 43.6417 32.5517 43.656C31.4544 43.6651 30.356 43.6571 29.2587 43.6599C29.0273 43.656 28.7943 43.6765 28.5663 43.6332C28.4937 43.6474 28.4205 43.6599 28.348 43.6702L28.344 43.5973Z" fill="#303030"/>
</svg>
