<svg width="126" height="35" viewBox="0 0 126 35" fill="none" xmlns="http://www.w3.org/2000/svg">
<path d="M106.194 2.59507C108.444 1.58733 110.781 0.796022 113.186 0.275244C113.301 10.4947 113.22 20.7141 113.226 30.9403C114.978 31.7113 116.884 31.7045 118.635 30.9403C118.602 22.202 118.669 13.4705 118.602 4.73229C117.605 4.03567 116.621 3.33228 115.658 2.58831C117.915 1.64144 120.225 0.823077 122.616 0.261719C122.758 9.35166 122.616 18.4484 122.67 27.5383C122.488 29.7905 124.57 31.1635 125.688 32.8543C119.08 32.8069 112.411 33.3818 105.851 32.5432C106.861 31.8195 107.932 31.1838 108.922 30.433C109.286 29.5335 109.171 28.5325 109.225 27.5857C109.158 19.9769 109.239 12.3681 109.171 4.75258C108.161 4.05596 107.157 3.35257 106.194 2.59507Z" fill="#303030"/>
<path d="M0.385575 3.71851C7.66716 3.48856 14.9555 3.65088 22.2371 3.63059C22.2236 6.16684 22.9511 8.79102 21.9878 11.2326C20.7551 9.68378 20.122 7.54657 18.3504 6.50501C15.4741 4.32721 11.6953 5.42287 8.37443 5.25379C8.40811 9.14272 8.37443 13.0316 8.41485 16.9206C10.8263 16.8529 13.2715 17.1505 15.6493 16.7109C16.9493 15.6964 17.4208 13.9109 18.7478 12.8828C18.9701 16.1834 19.3136 19.5853 18.4716 22.8385C17.4478 21.5196 16.8213 19.8153 15.3664 18.8819C13.0829 18.5438 10.7657 18.7737 8.46873 18.7467C8.46873 22.7438 8.08478 26.7883 8.82574 30.7449C11.8771 31.1304 15.0296 31.4415 18.0608 30.7651C20.4385 29.6898 21.4894 27.0926 22.9443 25.0839C23.4899 25.4356 24.0423 25.7873 24.5946 26.139C27.1004 21.8105 32.4892 21.425 36.4904 19.1728C36.4028 16.8665 36.8069 13.1534 33.8835 12.4973C32.5633 11.8345 30.6907 12.193 30.071 13.6403C29.5523 15.0877 29.7409 16.6636 29.5995 18.1718C28.3668 17.9756 26.4942 18.5708 25.962 17.0288C25.0392 15.0471 26.5818 12.849 28.2523 11.8481C31.2228 10.3128 35.0287 10.1099 37.979 11.7872C39.7102 12.7476 40.4848 14.7698 40.4848 16.6771C40.5589 21.2153 40.4309 25.7603 40.5319 30.3052C41.805 30.4676 43.0849 30.5217 44.3647 30.6366C43.644 31.712 42.8491 32.8888 41.4952 33.1864C39.2117 34.1806 37.3324 31.7391 35.1701 31.6917C32.9203 32.4289 30.6166 34.1198 28.1782 33.0917C26.2315 32.7468 25.4097 29.8927 23.335 30.3052C23.0858 31.1709 22.8702 32.0502 22.6951 32.9362C15.2384 32.855 7.77493 33.1255 0.324951 32.7806C1.22083 31.455 2.7499 30.9275 4.13077 30.2647C4.06341 22.6018 4.20487 14.9389 4.07688 7.27603C4.29917 4.96973 0.816677 5.76104 0.385575 3.71851ZM29.6534 24.4955C29.3368 26.3081 28.0569 28.6956 29.9093 30.1023C32.1793 31.0289 34.4898 30.0144 36.3758 28.7361C36.4365 26.7951 36.4567 24.8472 36.4499 22.9061C34.1058 21.9052 31.243 22.4598 29.6534 24.4955Z" fill="#303030"/>
<path d="M55.1896 4.03058C58.571 3.36101 62.0737 3.50304 65.4956 3.73976C65.8796 3.9156 66.6475 4.2673 67.0314 4.44315C65.5562 5.03156 64.0272 5.47794 62.5318 6.03253C64.5526 12.7418 66.8765 19.3834 69.4496 25.8965C71.073 21.994 72.5482 18.0104 73.7202 13.9524C73.6327 11.3823 72.3057 9.00841 71.6994 6.52626C70.3388 6.0393 69.1936 5.26827 68.9646 3.72623C72.6088 3.55715 76.2597 3.55038 79.9038 3.67212C79.5064 5.50499 77.3442 5.31562 75.9633 5.91755C76.4954 9.21131 77.7281 12.3157 78.752 15.4674C79.9038 18.8761 80.8671 22.3457 82.248 25.6733C84.5988 19.4037 86.7543 13.0461 88.6606 6.63447C88.0813 4.61899 84.8817 5.95814 84.6392 3.69241C87.6367 3.61125 90.6949 3.3069 93.6452 4.04411C92.5607 5.09919 91.0384 5.87021 90.5736 7.41902C88.6202 12.9785 86.8217 18.5853 84.8278 24.1313C83.5817 27.4385 82.8542 30.9758 80.9951 34.026C78.4825 28.5815 77.1421 22.6974 75.128 17.0703C74.6363 17.6925 74.1513 18.3351 73.8819 19.0926C72.1036 23.881 70.5947 28.7844 68.5942 33.485C67.3682 33.7893 67.2806 32.3555 66.863 31.5642C64.0137 23.5969 61.2722 15.5891 58.4161 7.62868C58.0119 5.92432 56.402 5.09243 55.1896 4.03058Z" fill="#303030"/>
<path d="M42.1691 12.8754C44.7759 10.6908 46.6754 7.85697 49.0465 5.44922C49.2351 7.38354 49.2823 9.33138 49.2823 11.2725C51.2626 11.2657 53.2497 11.3198 55.2301 11.3604C55.1964 11.7932 55.1156 12.6454 55.0752 13.0783C53.1352 13.1189 51.202 13.1797 49.262 13.1933C49.2553 17.5353 49.2284 21.8774 49.2351 26.2127C49.1745 27.6262 49.5786 28.9857 50.0165 30.3045C52.2057 30.8659 54.3477 30.2098 56.4493 29.6417C55.0146 32.5026 51.5725 34.2137 48.5009 33.0234C46.0625 32.5094 45.18 29.7905 45.207 27.5789C45.1666 22.8513 45.2339 18.117 45.207 13.3826C44.1899 13.2203 43.1795 13.0512 42.1691 12.8754Z" fill="#303030"/>
<path d="M92.2305 13.1935C95.3021 9.94033 100.967 9.75772 104.079 13.0379C105.884 14.8979 106.033 17.61 106.147 20.0583C101.506 20.1327 96.8649 20.0313 92.2305 20.1259C92.4663 24.1907 93.827 29.4526 98.5489 30.1695C101.883 31.0758 104.045 28.012 106.585 26.5308C105.958 28.5057 105.069 30.5483 103.325 31.7792C99.1147 34.9377 92.2575 33.328 90.102 28.4449C87.8387 23.5955 88.4853 17.1433 92.2305 13.1935ZM94.6824 13.6534C93.3554 14.9993 92.9041 16.8931 92.3114 18.6312C95.7063 18.7868 99.1012 18.7868 102.489 18.6312C102.052 16.7916 101.971 14.6409 100.502 13.2679C98.8924 11.7056 96.1711 12.1519 94.6824 13.6534Z" fill="#303030"/>
</svg>
