<svg width="52" height="43" viewBox="0 0 52 43" fill="none" xmlns="http://www.w3.org/2000/svg">
<path d="M35.0093 19.4873C36.2775 19.1222 37.5456 18.937 38.7792 18.937C40.6841 18.937 42.2736 19.3723 43.5061 19.9054C42.3179 15.5554 39.4635 8.04964 33.7774 7.20438C33.2508 7.12607 32.8193 6.7453 32.6756 6.23275L31.4328 1.78773C31.3281 1.41182 31.3902 1.00945 31.6046 0.683226C31.819 0.357006 32.1636 0.139346 32.5498 0.0864158C32.9694 0.0291653 33.3972 0 33.8211 0C40.6463 0 47.4056 7.12391 50.2578 17.3242C51.9321 23.3085 52.423 32.3055 48.2989 37.9684C45.9911 41.1372 42.6241 42.8293 38.2915 42.9984C38.2737 42.9989 38.2564 42.9995 38.2386 42.9995C32.8927 42.9995 28.1523 39.3992 26.7103 34.245C25.8488 31.1637 26.2382 27.9323 27.8077 25.1438C29.3605 22.3866 31.9178 20.3769 35.0093 19.4873Z" fill="#E9E9EB"/>
<path d="M1.54614 25.1443C3.09891 22.3866 5.65625 20.3769 8.74775 19.4873C10.0159 19.1222 11.284 18.937 12.5171 18.937C14.422 18.937 16.012 19.3723 17.2445 19.9054C16.0563 15.5554 13.2019 8.04964 7.51525 7.20438C6.98866 7.12607 6.55767 6.7453 6.41346 6.23275L5.17071 1.78773C5.06593 1.41182 5.12804 1.00945 5.34246 0.683226C5.55633 0.357006 5.90091 0.139346 6.28762 0.0864158C6.70673 0.0291653 7.13449 0 7.559 0C14.3842 0 21.1434 7.12391 23.9962 17.3242C25.67 23.3085 26.1609 32.3055 22.0362 37.9695C19.7289 41.1377 16.3614 42.8304 12.0294 42.9989C12.0115 42.9995 11.9942 43 11.9759 43C6.63058 43 1.88964 39.3997 0.447592 34.2455C-0.412777 31.1643 -0.022831 27.9323 1.54614 25.1443Z" fill="#E9E9EB"/>
</svg>
