<svg width="90" height="14" viewBox="0 0 90 14" fill="none" xmlns="http://www.w3.org/2000/svg">
<g clip-path="url(#clip0_241_502)">
<path d="M81.9019 0.120059C82.0854 -0.0388765 82.3964 -0.0295639 82.5622 0.151412C82.6351 0.241123 82.6752 0.351633 82.7283 0.453452C83.368 1.74729 84.0016 3.04485 84.6467 4.3362C86.0833 4.54356 87.5196 4.75403 88.9559 4.96139C89.117 4.98436 89.3002 4.99429 89.4172 5.12312C89.5923 5.2923 89.5867 5.599 89.4095 5.76445C88.3224 6.82423 87.2365 7.88556 86.1482 8.94409C86.2099 9.40973 86.3043 9.87101 86.3788 10.3348C86.5241 11.1829 86.6697 12.0309 86.815 12.879C86.8476 13.0609 86.8715 13.2447 86.9183 13.4238C86.9894 13.6637 86.8066 13.9369 86.5613 13.9735C86.4595 13.9872 86.3521 13.9794 86.2596 13.9316C84.9111 13.2251 83.5661 12.5118 82.2164 11.8077C80.9551 12.4652 79.6985 13.1314 78.4392 13.7923C78.27 13.8761 78.1024 14.0083 77.9015 13.9757C77.6507 13.9515 77.4682 13.6864 77.5225 13.4424C77.751 12.0874 77.9869 10.7337 78.2172 9.37931C78.2417 9.23434 78.2734 9.09092 78.2846 8.94409C77.2059 7.89673 76.1327 6.84347 75.054 5.79611C74.9531 5.70361 74.8796 5.57261 74.8867 5.4323C74.8839 5.21314 75.0652 5.01478 75.2822 4.99057C76.7831 4.77172 78.2846 4.5535 79.7861 4.3362C80.4377 3.03119 81.0784 1.71997 81.7247 0.411855C81.7771 0.311279 81.8156 0.197975 81.9019 0.120059ZM80.483 4.97381C80.4134 5.1076 80.271 5.18613 80.1244 5.20259C78.8561 5.3848 77.5883 5.57168 76.3199 5.75358C76.6828 6.13137 77.069 6.48649 77.4409 6.85527C77.9832 7.3895 78.532 7.91691 79.0749 8.45053C79.173 8.54148 79.2379 8.67341 79.2329 8.80875C79.019 10.1045 78.7816 11.3967 78.5748 12.6934C79.7262 12.0964 80.8701 11.4843 82.0205 10.8855C82.158 10.8119 82.3222 10.8299 82.4545 10.9056C83.5891 11.5013 84.7209 12.1023 85.8579 12.6934C85.8061 12.3084 85.7285 11.9269 85.6667 11.5436C85.5121 10.6405 85.3572 9.73753 85.2023 8.83452C85.1741 8.62902 85.3265 8.46791 85.4677 8.3425C85.8856 7.93243 86.3074 7.52671 86.7252 7.11633C87.1844 6.65877 87.6612 6.2186 88.1128 5.7539C86.8444 5.57168 85.5767 5.3848 84.308 5.20228C84.1618 5.18613 84.019 5.10729 83.9498 4.97381C83.3656 3.81159 82.8046 2.63696 82.2164 1.4766C81.6278 2.63696 81.0672 3.81159 80.483 4.97381Z" fill="#006BE5"/>
</g>
<g clip-path="url(#clip1_241_502)">
<path d="M63.0927 0.245429C63.223 -0.0327082 63.648 -0.0699588 63.8473 0.151061C63.9069 0.221837 63.9414 0.309066 63.983 0.390706C64.6314 1.70627 65.2787 3.02246 65.9299 4.33647C67.3765 4.54321 68.8221 4.75709 70.2684 4.96476C70.4211 4.98525 70.5921 5.00108 70.702 5.12277C70.8774 5.29164 70.8718 5.59864 70.6946 5.7641C69.6205 6.81146 68.5471 7.85975 67.4724 8.90618C67.4181 8.94219 67.4392 9.00955 67.4451 9.06295C67.6934 10.4862 67.929 11.9117 68.1817 13.334C68.2581 13.5253 68.2106 13.7602 68.0414 13.8863C67.898 14.003 67.6841 14.0067 67.5242 13.922C66.1838 13.2158 64.8431 12.5099 63.5015 11.8058C62.2278 12.4735 60.956 13.1444 59.6833 13.8136C59.5368 13.8878 59.3909 13.9965 59.2171 13.9778C58.9535 13.9723 58.7496 13.6963 58.8079 13.4411C59.056 11.9713 59.3117 10.5021 59.5619 9.03253C59.5697 8.9872 59.574 8.93505 59.5306 8.90618C58.4655 7.87062 57.4048 6.83102 56.3391 5.79607C56.2379 5.70357 56.165 5.57257 56.1718 5.43226C56.1687 5.21279 56.3506 5.01443 56.5673 4.98991C58.0691 4.77199 59.5706 4.5519 61.0728 4.33647C61.7489 2.97403 62.4178 1.60818 63.0927 0.245429ZM63.5952 1.67057C63.608 2.95541 63.5974 4.24055 63.6008 5.52538C63.6024 7.29975 63.5977 9.07412 63.603 10.8482C63.6493 10.8662 63.6952 10.8845 63.7396 10.9062C64.8748 11.5007 66.0066 12.1013 67.1424 12.6939C67.1344 12.6191 67.1244 12.5446 67.1114 12.4708C66.9037 11.2672 66.6995 10.0634 66.4912 8.86024C66.4629 8.70876 66.5321 8.5523 66.6433 8.45017C67.0707 8.02893 67.5028 7.61266 67.9318 7.19328C68.4173 6.70933 68.9199 6.24246 69.3995 5.75292C68.1674 5.57785 66.9366 5.39501 65.7049 5.21838C65.5605 5.20131 65.401 5.17771 65.2991 5.06255C65.1961 4.93962 65.1455 4.78348 65.0701 4.64379C64.5749 3.65448 64.1003 2.65461 63.5952 1.67057Z" fill="#006BE5"/>
</g>
<g clip-path="url(#clip2_241_502)">
<path d="M44.3781 0.2453C44.5082 -0.0328377 44.9334 -0.0697778 45.1327 0.150932C45.1827 0.209291 45.2137 0.280998 45.2482 0.349291C45.9026 1.67883 46.5582 3.00805 47.215 4.33696C48.7147 4.55022 50.2134 4.77124 51.7124 4.98885C51.9325 5.00965 52.1197 5.20925 52.1166 5.43182C52.1234 5.57213 52.0505 5.70344 51.9493 5.79563C50.8836 6.83058 49.8226 7.87049 48.7578 8.90605C48.7038 8.94237 48.7243 9.00942 48.7305 9.06313C48.878 9.91058 49.0211 10.7586 49.1676 11.6064C49.2747 12.2037 49.3625 12.8046 49.483 13.3991C49.5776 13.6648 49.3532 13.9802 49.0713 13.9786C48.8975 13.9957 48.7519 13.888 48.6051 13.8135C47.3327 13.1436 46.0599 12.4743 44.7869 11.8051C43.4456 12.51 42.1046 13.2153 40.7642 13.9215C40.585 14.0209 40.3389 13.992 40.2023 13.8346C40.0943 13.7238 40.0679 13.5593 40.0971 13.4115C40.3451 11.9622 40.5928 10.5125 40.8433 9.06313C40.8489 9.00973 40.8703 8.94206 40.8157 8.90605C39.746 7.86521 38.6791 6.82095 37.609 5.78011C37.4461 5.63608 37.4054 5.37377 37.5299 5.19279C37.605 5.07359 37.7382 5.00064 37.8766 4.98543C39.371 4.77093 40.8644 4.54898 42.3588 4.33696C43.0333 2.97359 43.7039 1.60867 44.3781 0.2453Z" fill="#006BE5"/>
</g>
<g clip-path="url(#clip3_241_502)">
<path d="M25.6632 0.2453C25.7933 -0.0328377 26.2186 -0.0697778 26.4179 0.150932C26.4679 0.209291 26.4989 0.280998 26.5334 0.349291C27.1877 1.67883 27.8433 3.00805 28.5002 4.33696C29.9998 4.55022 31.4985 4.77124 32.9976 4.98885C33.2177 5.00965 33.4048 5.20925 33.4017 5.43182C33.4086 5.57213 33.3356 5.70344 33.2344 5.79563C32.1687 6.83058 31.1077 7.87049 30.043 8.90605C29.989 8.94237 30.0095 9.00942 30.0157 9.06313C30.1631 9.91058 30.3062 10.7586 30.4527 11.6064C30.5598 12.2037 30.6477 12.8046 30.7681 13.3991C30.8628 13.6648 30.6384 13.9802 30.3565 13.9786C30.1827 13.9957 30.0371 13.888 29.8902 13.8135C28.6178 13.1436 27.3451 12.4743 26.0721 11.8051C24.7307 12.51 23.3897 13.2153 22.0493 13.9215C21.8702 14.0209 21.624 13.992 21.4875 13.8346C21.3794 13.7238 21.353 13.5593 21.3822 13.4115C21.6302 11.9622 21.878 10.5125 22.1285 9.06313C22.1341 9.00973 22.1555 8.94206 22.1008 8.90605C21.0311 7.86521 19.9642 6.82095 18.8942 5.78011C18.7312 5.63608 18.6906 5.37377 18.815 5.19279C18.8902 5.07359 19.0233 5.00064 19.1618 4.98543C20.6561 4.77093 22.1496 4.54898 23.644 4.33696C24.3185 2.97359 24.989 1.60867 25.6632 0.2453Z" fill="#006BE5"/>
</g>
<g clip-path="url(#clip4_241_502)">
<path d="M6.9484 0.2453C7.07846 -0.0328377 7.50374 -0.0697778 7.70303 0.150932C7.75301 0.209291 7.78405 0.280998 7.81851 0.349291C8.47288 1.67883 9.12849 3.00805 9.78534 4.33696C11.285 4.55022 12.7837 4.77124 14.2827 4.98885C14.5028 5.00965 14.69 5.20925 14.6869 5.43182C14.6937 5.57213 14.6208 5.70344 14.5196 5.79563C13.4539 6.83058 12.3929 7.87049 11.3281 8.90605C11.2741 8.94237 11.2946 9.00942 11.3008 9.06313C11.4483 9.91058 11.5914 10.7586 11.7379 11.6064C11.845 12.2037 11.9328 12.8046 12.0533 13.3991C12.148 13.6648 11.9235 13.9802 11.6417 13.9786C11.4678 13.9957 11.3222 13.888 11.1754 13.8135C9.90299 13.1436 8.63026 12.4743 7.35722 11.8051C6.01589 12.51 4.67487 13.2153 3.33447 13.9215C3.15536 14.0209 2.9092 13.992 2.77261 13.8346C2.66458 13.7238 2.6382 13.5593 2.66738 13.4115C2.9154 11.9622 3.16312 10.5125 3.41363 9.06313C3.41922 9.00973 3.44064 8.94206 3.386 8.90605C2.31629 7.86521 1.24937 6.82095 0.179351 5.78011C0.0163803 5.63608 -0.0242849 5.37377 0.100194 5.19279C0.175316 5.07359 0.308487 5.00064 0.446935 4.98543C1.9413 4.77093 3.43474 4.54898 4.92911 4.33696C5.60365 2.97359 6.27416 1.60867 6.9484 0.2453Z" fill="#006BE5"/>
</g>
<defs>
<clipPath id="clip0_241_502">
<rect width="14.714" height="14" fill="white" transform="translate(74.8594)"/>
</clipPath>
<clipPath id="clip1_241_502">
<rect width="14.714" height="14" fill="white" transform="translate(56.1445)"/>
</clipPath>
<clipPath id="clip2_241_502">
<rect width="14.714" height="14" fill="white" transform="translate(37.4297)"/>
</clipPath>
<clipPath id="clip3_241_502">
<rect width="14.714" height="14" fill="white" transform="translate(18.7148)"/>
</clipPath>
<clipPath id="clip4_241_502">
<rect width="14.714" height="14" fill="white"/>
</clipPath>
</defs>
</svg>
