<svg width="56" height="56" viewBox="0 0 56 56" fill="none" xmlns="http://www.w3.org/2000/svg">
<g clip-path="url(#clip0_113_1562)">
<path d="M3.92195 0.42667C4.36865 0.34792 4.82421 0.378545 5.27534 0.375264C20.6835 0.37417 36.0905 0.376358 51.4987 0.37417C53.4085 0.39167 55.2108 1.72058 55.7739 3.51979C56.0787 4.3937 55.9822 5.32667 55.9955 6.23339C55.9966 21.2178 55.9944 36.2021 55.9966 51.1865C55.9734 52.4717 55.3615 53.7306 54.3595 54.5531C53.4861 55.3067 52.3067 55.6687 51.1551 55.6271C35.5685 55.6217 19.9819 55.6282 4.39525 55.6239C2.69604 55.5615 1.09881 54.4809 0.408262 52.9518C0.113422 52.2967 -0.0206964 51.5748 0.00258042 50.8606C0.00812252 35.4726 0.000363574 20.0857 0.00590568 4.69886C0.0757362 2.59776 1.80598 0.695733 3.92195 0.42667ZM4.17135 2.95214C3.41873 3.12495 2.78361 3.73745 2.61734 4.48558C2.54419 4.88151 2.57522 5.28729 2.56968 5.68761C2.57079 20.7814 2.56968 35.874 2.57079 50.9678C2.50761 51.9215 3.22476 52.8446 4.16802 53.0459C4.60807 53.1235 5.05698 53.0864 5.50034 53.094C20.7932 53.0918 36.085 53.0973 51.3768 53.0907C52.4608 53.1214 53.4584 52.1567 53.4273 51.0826C53.4329 35.7329 53.4295 20.3832 53.4295 5.03245C53.5105 3.92558 52.5195 2.87776 51.3889 2.90839C35.9819 2.90292 20.5749 2.90948 5.16782 2.9062C4.83529 2.90948 4.49944 2.89089 4.17135 2.95214Z" fill="#006BE5"/>
<path d="M26.0703 7.22317C33.5189 6.72332 41.1227 8.97973 47.0472 13.4663C47.5515 13.8939 47.5981 14.6989 47.1791 15.1999C44.3537 18.9044 41.5306 22.6111 38.7097 26.3179C38.4902 26.6022 38.2907 26.9402 37.9338 27.0704C37.507 27.2815 36.9783 27.2049 36.6059 26.9194C34.2627 25.1825 31.3675 24.1708 28.4346 24.1085C25.208 23.9838 21.9703 25.0119 19.391 26.9205C18.8523 27.358 17.9789 27.2475 17.5721 26.6875C14.801 23.0465 12.0267 19.4075 9.2556 15.7675C8.98182 15.3891 8.60496 15.0369 8.54511 14.5535C8.4786 14.0996 8.69585 13.6369 9.0705 13.3722C13.9608 9.7366 19.9519 7.53926 26.0703 7.22317ZM18.4067 11.2897C16.007 12.1024 13.748 13.2782 11.6376 14.6596C13.9431 17.7133 16.273 20.7496 18.5896 23.7957C18.6705 23.9072 18.7437 24.0243 18.8102 24.1446C19.2979 24.0133 19.6936 23.6633 20.1503 23.4511C22.0545 22.4941 24.135 21.8225 26.2765 21.6825C26.813 21.6158 27.3517 21.56 27.8915 21.5218C28.6363 21.5108 29.3723 21.6585 30.1161 21.6946C32.4792 21.979 34.7836 22.7632 36.8109 23.9991C36.9262 24.0724 37.0526 24.1216 37.19 24.1468C37.2532 24.0286 37.3241 23.9149 37.4028 23.8066C39.7227 20.7572 42.0538 17.7155 44.3626 14.6585C43.2331 13.9399 42.0903 13.2366 40.8788 12.6591C33.9834 9.24004 25.6791 8.75551 18.4067 11.2897Z" fill="#006BE5"/>
<line x1="36.3648" y1="16.5234" x2="33.687" y2="20.0399" stroke="#006BE5" stroke-width="2.58" stroke-linecap="round"/>
</g>
<defs>
<clipPath id="clip0_113_1562">
<rect width="56" height="56" fill="white"/>
</clipPath>
</defs>
</svg>
