<svg width="40" height="40" viewBox="0 0 40 40" fill="none" xmlns="http://www.w3.org/2000/svg">
<g clip-path="url(#clip0_111_1133)">
<path d="M32.9229 3.26352C31.8029 1.6932 30.6985 0.446016 30.6521 0.393672C30.4297 0.143281 30.1108 0 29.7758 0C29.4409 0 29.122 0.143281 28.8996 0.39375C28.8531 0.446016 27.7487 1.6932 26.6289 3.26352C25.0067 5.53805 24.2183 7.26164 24.2183 8.53266C24.2183 11.5972 26.7114 14.0903 29.7759 14.0903C32.8405 14.0903 35.3337 11.5971 35.3337 8.53266C35.3336 7.26164 34.545 5.53813 32.9229 3.26352ZM29.7758 11.7466C28.0037 11.7466 26.5619 10.3048 26.5619 8.53273C26.5619 8.26648 26.7035 7.19906 28.5255 4.64055C28.9654 4.02297 29.4087 3.45195 29.776 2.99633C30.1394 3.44727 30.5778 4.01188 31.0146 4.62445C32.8473 7.19422 32.9897 8.26562 32.9897 8.53273C32.9898 10.3048 31.548 11.7466 29.7758 11.7466Z" fill="#006BE5" stroke="white" stroke-width="0.3"/>
<path d="M17.9117 7.63648C17.6892 7.38219 17.3678 7.23633 17.0299 7.23633C16.692 7.23633 16.3705 7.38219 16.148 7.63648C16.0321 7.76898 13.2768 10.9266 10.4753 14.9132C6.62088 20.3982 4.6665 24.623 4.6665 27.4703C4.6665 34.3792 10.2128 39.9999 17.0299 39.9999C23.847 39.9999 29.3932 34.3792 29.3932 27.4704C29.3932 24.6231 27.4388 20.3983 23.5844 14.9133C20.783 10.9266 18.0278 7.76898 17.9117 7.63648ZM17.0299 37.6562C11.505 37.6562 7.01025 33.0869 7.01025 27.4704C7.01025 23.1008 13.5838 14.3355 17.0299 10.2131C20.476 14.3356 27.0495 23.1008 27.0495 27.4704C27.0495 33.0869 22.5547 37.6562 17.0299 37.6562Z" fill="#006BE5" stroke="white" stroke-width="0.3"/>
<path d="M15.858 23.2678V24.7902H14.3357C13.6885 24.7902 13.1638 25.3149 13.1638 25.962C13.1638 26.6092 13.6885 27.1339 14.3357 27.1339H15.858V28.6563C15.858 29.3034 16.3826 29.8281 17.0298 29.8281C17.677 29.8281 18.2017 29.3034 18.2017 28.6563V27.1339H19.724C20.3712 27.1339 20.8959 26.6092 20.8959 25.962C20.8959 25.3149 20.3712 24.7902 19.724 24.7902H18.2017V23.2678C18.2017 22.6206 17.677 22.0959 17.0298 22.0959C16.3826 22.0959 15.858 22.6206 15.858 23.2678Z" fill="#006BE5" stroke="white" stroke-width="0.3"/>
</g>
<defs>
<clipPath id="clip0_111_1133">
<rect width="40" height="40" fill="white"/>
</clipPath>
</defs>
</svg>
