<svg width="40" height="40" viewBox="0 0 40 40" fill="none" xmlns="http://www.w3.org/2000/svg">
<path d="M28.1876 20.3992C25.8626 20.3992 23.9712 18.5075 23.9712 16.1822C23.9712 15.7721 24.3039 15.4397 24.7137 15.4397C25.1238 15.4397 25.4562 15.7721 25.4562 16.1822C25.4562 17.6887 26.6814 18.9142 28.1876 18.9142C29.6936 18.9142 30.9187 17.6887 30.9187 16.1822C30.9187 15.7721 31.2511 15.4397 31.6613 15.4397C32.0714 15.4397 32.4038 15.7721 32.4038 16.1822C32.4038 18.5075 30.5124 20.3992 28.1876 20.3992Z" fill="#006BE5" stroke="#006BE5" stroke-width="0.3"/>
<path d="M11.8038 20.3992C9.47905 20.3992 7.58765 18.5075 7.58765 16.1822C7.58765 15.7721 7.92004 15.4397 8.33017 15.4397C8.7403 15.4397 9.0727 15.7721 9.0727 16.1822C9.0727 17.6887 10.2979 18.9142 11.8038 18.9142C13.31 18.9142 14.5352 17.6887 14.5352 16.1822C14.5352 15.7721 14.8676 15.4397 15.2777 15.4397C15.6878 15.4397 16.0202 15.7721 16.0202 16.1822C16.0202 18.5075 14.1288 20.3992 11.8038 20.3992Z" fill="#006BE5" stroke="#006BE5" stroke-width="0.3"/>
<path d="M19.9953 31.2838C16.8376 31.2838 13.8927 29.5836 12.3099 26.847C12.1045 26.4919 12.2258 26.0377 12.5808 25.8324C12.9358 25.627 13.39 25.7485 13.5954 26.1033C14.9137 28.3828 17.366 29.7988 19.9953 29.7988C22.6246 29.7988 25.0773 28.3828 26.3955 26.1033C26.6009 25.7482 27.0548 25.627 27.4098 25.8324C27.7648 26.0377 27.8864 26.4919 27.681 26.847C26.0982 29.5839 23.1534 31.2838 19.9953 31.2838Z" fill="#006BE5" stroke="#006BE5" stroke-width="0.3"/>
<path d="M26.2229 11.3889H24.4484L26.4283 7.88455C26.5234 7.71168 26.5736 7.54461 26.5736 7.40191C26.5736 7.1252 26.3833 6.94653 26.0883 6.94653H23.2073C22.9129 6.94653 22.7072 7.21657 22.7072 7.60349C22.7072 7.98433 22.9175 8.26045 23.2073 8.26045H24.683L22.7046 11.7619C22.6098 11.9258 22.5579 12.0981 22.5579 12.2475C22.5579 12.5282 22.7438 12.7028 23.0428 12.7028H26.2229C26.5359 12.7028 26.723 12.3687 26.723 12.0459C26.723 11.7231 26.5359 11.3889 26.2229 11.3889Z" fill="#006BE5" stroke="#006BE5" stroke-width="0.3"/>
<path d="M30.2984 11.4709H29.2791L30.4245 9.97109C30.5646 9.7872 30.6415 9.57749 30.6415 9.38026C30.6415 9.01625 30.3784 8.85034 30.1339 8.85034H27.9023C27.6299 8.85034 27.4243 9.11342 27.4243 9.46263C27.4243 9.81011 27.6343 10.0822 27.9023 10.0822H28.7434L27.6044 11.582C27.4962 11.7233 27.3721 11.9156 27.3721 12.1505C27.3721 12.4255 27.5359 12.7031 27.902 12.7031H30.2981C30.5704 12.7031 30.7761 12.4397 30.7761 12.0908C30.7761 11.743 30.5664 11.4709 30.2984 11.4709Z" fill="#006BE5" stroke="#006BE5" stroke-width="0.3"/>
<path d="M19.9955 39.0087C14.9193 39.0087 10.1469 37.0315 6.55754 33.4412C2.96789 29.851 0.991211 25.0774 0.991211 20.0001C0.991211 14.9228 2.96789 10.1495 6.55754 6.55894C10.1469 2.96872 14.9193 0.991455 19.9955 0.991455C23.8801 0.991455 27.6157 2.156 30.7984 4.35892C31.1354 4.59241 31.2195 5.05504 30.9863 5.39207C30.7528 5.7294 30.2902 5.81351 29.9532 5.58003C27.0199 3.54968 23.5767 2.4765 19.9955 2.4765C10.3354 2.4765 2.47626 10.3374 2.47626 20.0001C2.47626 29.6628 10.3354 37.5237 19.9955 37.5237C29.6559 37.5237 37.515 29.6628 37.515 20.0001C37.515 16.4882 36.4804 13.1004 34.5234 10.2028C34.2937 9.86317 34.3834 9.40142 34.723 9.17199C35.0629 8.94227 35.5244 9.03189 35.7541 9.37154C37.8776 12.5157 39.0001 16.1909 39.0001 20.0001C39.0001 25.0774 37.0231 29.8507 33.4337 33.4412C29.8444 37.0315 25.0719 39.0087 19.9955 39.0087Z" fill="#006BE5" stroke="#006BE5" stroke-width="0.3"/>
<path d="M32.9829 7.90131C32.6673 7.90131 32.3828 7.69538 32.2804 7.3975C32.1841 7.11731 32.2705 6.79593 32.4936 6.60073C32.7367 6.38784 33.1004 6.35883 33.3751 6.5288C33.6315 6.68775 33.7669 6.99578 33.713 7.29221C33.6494 7.64085 33.3371 7.90131 32.9829 7.90131Z" fill="#006BE5" stroke="#006BE5" stroke-width="0.3"/>
</svg>
