<svg width="40" height="40" viewBox="0 0 40 40" fill="none" xmlns="http://www.w3.org/2000/svg">
<g clip-path="url(#clip0_111_1147)">
<path d="M2.18832 24.3965L2.18851 24.3964C2.31192 24.3461 2.44253 24.3211 2.57321 24.3211C2.70836 24.3211 2.84348 24.348 2.97034 24.4017L2.97052 24.4018L6.47572 25.881C6.47574 25.881 6.47575 25.881 6.47577 25.881C6.9955 26.1006 7.2392 26.6999 7.01968 27.2198L7.01966 27.2198C6.80042 27.7397 6.20088 27.9833 5.68081 27.764L4.82363 27.4021L4.47634 27.2554L4.62795 27.6006C7.31196 33.7106 13.3849 37.7281 20.1422 37.7281C27.8681 37.7281 34.6148 32.504 36.549 25.0241C36.6682 24.5636 37.0828 24.2576 37.5375 24.2576C37.622 24.2576 37.7083 24.2683 37.7943 24.2904C38.3405 24.4318 38.6689 24.9893 38.5276 25.5355L38.6728 25.5731L38.5276 25.5356C36.3602 33.9178 28.7997 39.7719 20.1422 39.7719C12.5276 39.7719 5.68877 35.2186 2.70697 28.307L2.5677 27.9841L2.43104 28.3081L2.03555 29.2455C1.816 29.7653 1.2167 30.009 0.696735 29.7898C0.176738 29.5702 -0.0667594 28.9706 0.152505 28.4509L2.18832 24.3965ZM2.18832 24.3965C1.93722 24.4984 1.7371 24.696 1.63169 24.9457C1.63169 24.9457 1.63169 24.9457 1.63168 24.9457L0.152508 28.4509L2.18832 24.3965Z" fill="#006BE5" stroke="white" stroke-width="0.3"/>
<path d="M2.01198 15.6991L2.04941 15.5538C2.59592 15.6947 3.15339 15.3667 3.29467 14.8202L3.29467 14.8202C5.22891 7.34031 11.9757 2.11613 19.7018 2.11613C26.566 2.11613 32.7239 6.26231 35.3408 12.5362L35.482 12.8748L35.144 12.7321L34.1628 12.318L34.2212 12.1798L34.1628 12.318C33.6428 12.0984 33.0433 12.342 32.8241 12.8619L32.824 12.8619C32.6045 13.3819 32.8483 13.9815 33.3679 14.2007L33.3096 14.3389L33.368 14.2007L36.8732 15.6802L36.8732 15.6802C37.1227 15.7856 37.404 15.7875 37.6552 15.6856C37.9063 15.5834 38.1067 15.3859 38.212 15.136L38.212 15.136L39.6912 11.6311C39.6912 11.6311 39.6912 11.6311 39.6912 11.6311C39.9105 11.111 39.667 10.5118 39.147 10.2922L39.1469 10.2922C39.0172 10.2373 38.8824 10.2116 38.7503 10.2116C38.3513 10.2116 37.9728 10.4463 37.8082 10.8364L37.67 10.7781L37.8082 10.8364L37.463 11.6543L37.3251 11.9812L37.1867 11.6545C34.2321 4.67715 27.3591 0.0723753 19.7018 0.0723753C11.044 0.0723753 3.48347 5.92642 1.31614 14.3087L1.31613 14.3087C1.17483 14.8551 1.50321 15.4126 2.04954 15.5539L2.01198 15.6991ZM2.01198 15.6991C2.6385 15.8605 3.27785 15.4846 3.4399 14.8577L2.01198 15.6991Z" fill="#006BE5" stroke="white" stroke-width="0.3"/>
<path d="M17.6227 7.16415L17.6231 7.16403C17.7358 7.12318 17.8527 7.10372 17.9687 7.10372C18.2677 7.10372 18.5585 7.23498 18.7564 7.47441L18.872 7.37883L18.7564 7.47441L28.5733 19.3491C28.8255 19.6543 28.8788 20.0774 28.7104 20.4356L17.6227 7.16415ZM17.6227 7.16415C17.2172 7.30998 16.9468 7.69446 16.9471 8.12551V8.1256V18.7503V18.9003M17.6227 7.16415L16.9471 18.9003M22.6896 32.7587C22.2845 32.9044 21.831 32.7803 21.556 32.4481L22.6896 32.7587ZM22.6896 32.7587C23.0952 32.6125 23.3656 32.228 23.3656 31.7969V21.1722V21.0222H23.5156H27.7859C28.1815 21.0222 28.5415 20.7937 28.7103 20.4357L22.6896 32.7587ZM16.9471 18.9003H16.7971M16.9471 18.9003H16.7971M16.7971 18.9003H12.5268C12.1311 18.9003 11.7708 19.1289 11.602 19.4871L16.7971 18.9003ZM11.7391 20.5734L21.5559 32.448L11.602 19.4871C11.4336 19.8451 11.4868 20.2684 11.739 20.5733L11.7391 20.5734ZM14.9002 21.1896L14.6972 20.9441H15.0158H17.9687C18.5328 20.9441 18.9906 20.4866 18.9906 19.9222V11.3821V10.9653L19.2562 11.2866L25.4119 18.7329L25.6149 18.9784H25.2963H22.3437C21.7792 18.9784 21.3218 19.4359 21.3218 20.0003V28.5404V28.9572L21.0562 28.6359L14.9002 21.1896Z" fill="#006BE5" stroke="white" stroke-width="0.3"/>
</g>
<defs>
<clipPath id="clip0_111_1147">
<rect width="40" height="40" fill="white" transform="matrix(1 0 0 -1 0 40)"/>
</clipPath>
</defs>
</svg>
