<?xml version="1.0" standalone="no"?>
<!DOCTYPE svg PUBLIC "-//W3C//DTD SVG 20010904//EN"
 "http://www.w3.org/TR/2001/REC-SVG-20010904/DTD/svg10.dtd">
<svg version="1.0" xmlns="http://www.w3.org/2000/svg"
 width="896.000000pt" height="896.000000pt" viewBox="0 0 896.000000 896.000000"
 preserveAspectRatio="xMidYMid meet">
<metadata>
Created by potrace 1.14, written by Peter Selinger 2001-2017
</metadata>
<g transform="translate(0.000000,896.000000) scale(0.100000,-0.100000)"
fill="#000000" stroke="none">
<path d="M1678 8955 c-2 -3 -18 -7 -34 -9 -167 -26 -380 -163 -504 -326 -14
-17 -29 -37 -35 -43 -30 -35 -65 -87 -65 -96 0 -6 -4 -11 -8 -11 -15 0 -140
-261 -168 -350 -14 -47 -30 -90 -35 -96 -5 -6 -6 -13 -4 -16 3 -3 1 -16 -4
-30 -5 -14 -12 -41 -15 -61 -3 -20 -10 -57 -16 -82 -6 -25 -10 -48 -9 -52 1
-5 0 -10 -1 -13 -6 -16 -13 -155 -13 -280 -1 -235 16 -416 54 -581 6 -26 12
-55 14 -65 2 -11 4 -20 5 -21 2 -2 3 -6 4 -10 11 -49 76 -211 109 -273 39 -74
82 -140 89 -140 4 0 8 -6 8 -13 0 -7 13 -28 30 -47 16 -19 29 -40 30 -47 0 -6
6 -13 13 -15 9 -4 13 -51 14 -184 2 -199 4 -2038 2 -2051 -1 -4 0 -37 1 -73 2
-58 3 -62 13 -37 6 15 14 27 19 27 4 0 8 9 8 20 0 11 5 20 10 20 6 0 10 6 10
13 0 11 113 197 138 228 7 8 39 49 71 91 33 42 83 101 111 130 28 29 54 58 58
63 6 9 188 163 217 183 62 43 138 91 170 107 22 10 51 27 65 36 14 9 27 17 30
17 3 0 16 5 30 11 14 6 43 18 65 27 22 10 42 18 45 19 23 7 97 29 105 31 6 1
28 7 50 13 l40 11 0 637 0 638 61 85 c126 175 204 338 248 519 38 157 43 190
61 411 6 75 7 341 1 415 -6 76 -13 122 -32 210 -9 39 -18 79 -20 91 -24 125
-162 434 -232 519 -5 6 -17 24 -28 40 -49 76 -161 194 -244 256 -69 52 -193
117 -250 131 -19 5 -44 11 -55 14 -28 8 -220 15 -227 9z"/>
<path d="M6237 7704 c-1 -2 -54 -5 -117 -8 -63 -3 -115 -5 -115 -6 0 -1 -25
-3 -55 -5 -30 -2 -77 -6 -105 -10 -27 -3 -68 -7 -90 -10 -73 -7 -128 -15 -215
-30 -32 -6 -61 -11 -115 -19 -11 -1 -29 -6 -40 -9 -11 -3 -36 -8 -55 -11 -46
-7 -78 -14 -100 -21 -10 -3 -28 -8 -39 -10 -89 -17 -391 -114 -468 -150 -17
-8 -33 -15 -36 -15 -3 0 -36 -14 -74 -32 -37 -17 -70 -32 -73 -33 -23 -5 -277
-150 -290 -164 -12 -14 -70 -51 -79 -51 -5 0 -11 -4 -13 -8 -1 -5 -26 -26 -53
-48 -162 -127 -329 -307 -441 -476 -24 -37 -44 -72 -44 -78 0 -5 -4 -10 -10
-10 -5 0 -10 -6 -10 -13 0 -7 -10 -28 -23 -47 -28 -42 -97 -203 -97 -224 0 -9
-5 -16 -12 -16 -6 0 -9 -2 -6 -6 3 -3 -1 -26 -9 -52 -60 -188 -71 -377 -38
-592 11 -69 47 -199 70 -255 54 -132 61 -145 80 -146 154 -10 309 70 465 238
99 108 314 403 293 403 -5 0 -3 4 3 8 15 9 49 72 155 280 48 94 84 172 81 172
-4 0 -2 4 4 8 5 4 20 30 33 57 23 49 89 165 100 175 4 3 25 30 48 60 90 119
197 213 336 294 27 15 50 26 52 24 2 -2 -23 -30 -55 -63 -33 -33 -59 -63 -60
-67 0 -5 -15 -29 -34 -55 -27 -39 -95 -162 -101 -183 -1 -3 -10 -23 -19 -45
-67 -151 -85 -198 -126 -335 -18 -58 -35 -112 -38 -120 -3 -8 -6 -19 -8 -25
-23 -91 -117 -381 -140 -432 -8 -17 -14 -36 -14 -42 0 -6 -4 -19 -10 -29 -5
-9 -19 -39 -30 -67 -31 -72 -99 -206 -121 -237 -10 -14 -19 -29 -19 -32 0 -10
-96 -131 -134 -170 -72 -75 -161 -132 -247 -159 -46 -15 -94 -29 -106 -32 -46
-10 -61 -13 -124 -29 -35 -9 -73 -18 -84 -21 -239 -54 -453 -169 -635 -342
-50 -47 -89 -88 -87 -90 2 -2 44 -6 93 -8 132 -7 215 -13 254 -19 19 -2 58 -7
85 -11 52 -7 85 -12 120 -19 11 -2 40 -7 65 -11 65 -11 66 -11 175 -39 107
-27 241 -69 290 -91 17 -7 50 -21 75 -31 66 -26 224 -110 292 -155 33 -21 63
-39 68 -39 5 0 10 -3 12 -7 2 -5 32 -30 68 -58 123 -93 235 -207 369 -371 13
-16 54 -76 92 -134 38 -58 74 -110 79 -117 6 -7 10 -15 10 -18 0 -3 17 -36 38
-73 21 -37 50 -95 65 -130 16 -34 38 -84 50 -110 12 -26 22 -49 22 -52 1 -3 9
-22 18 -44 9 -21 17 -41 17 -43 0 -3 7 -21 16 -41 17 -39 20 -46 54 -132 11
-30 25 -64 30 -75 5 -11 30 -69 56 -130 25 -60 57 -129 69 -152 13 -22 21 -44
18 -47 -4 -3 -1 -6 6 -6 7 0 10 -4 6 -9 -3 -5 -1 -12 5 -16 6 -3 17 -21 25
-38 8 -18 23 -45 32 -62 100 -169 158 -255 213 -319 45 -52 143 -146 153 -146
4 0 7 -4 7 -10 0 -14 -16 -13 -32 2 -7 7 -18 14 -24 15 -51 10 -288 179 -384
275 -75 74 -173 185 -179 202 -2 6 -11 17 -18 25 -24 23 -95 135 -203 320 -56
96 -106 179 -111 185 -5 6 -39 56 -76 111 -316 473 -757 905 -1103 1079 -96
49 -229 106 -246 106 -1 0 -5 -17 -9 -37 -5 -21 -9 -42 -11 -48 -1 -5 -4 -21
-7 -35 -20 -100 -24 -118 -27 -125 -1 -3 -3 -8 -4 -12 -23 -95 -27 -115 -33
-168 -9 -79 -8 -303 1 -375 5 -36 10 -78 12 -95 2 -16 8 -61 14 -100 6 -38 13
-83 15 -100 4 -31 10 -58 22 -110 4 -16 6 -34 5 -38 -1 -4 2 -16 7 -26 6 -10
13 -33 16 -52 8 -45 46 -159 85 -254 42 -103 188 -366 220 -395 3 -3 25 -32
50 -65 25 -33 48 -61 53 -63 4 -2 7 -9 7 -15 0 -7 15 -29 33 -49 17 -20 48
-56 67 -79 75 -92 300 -307 333 -318 7 -2 19 -11 27 -20 8 -9 42 -34 75 -55
33 -22 72 -48 87 -58 34 -23 268 -138 268 -132 0 2 14 -3 31 -12 17 -8 38 -17
47 -20 10 -2 71 -22 137 -45 66 -22 127 -42 136 -44 9 -2 63 -18 120 -35 122
-38 415 -120 444 -126 11 -2 38 -7 60 -13 41 -9 130 -28 175 -36 14 -3 35 -7
48 -10 63 -14 60 -14 197 -35 33 -5 74 -12 90 -14 46 -8 115 -16 170 -22 28
-2 64 -6 80 -9 17 -2 64 -7 105 -10 41 -3 92 -8 114 -10 235 -27 1108 -20
1271 10 11 2 39 4 63 4 25 1 42 6 42 13 0 6 -3 8 -7 5 -3 -4 -12 -2 -19 3 -6
6 -16 10 -20 8 -5 -1 -18 3 -29 9 -11 6 -23 11 -27 12 -5 1 -9 1 -10 2 -2 0
-10 2 -19 4 -41 8 -339 154 -339 166 0 5 -5 9 -10 9 -11 0 -97 54 -139 86
-111 89 -157 129 -226 199 -105 106 -134 139 -181 205 -21 30 -42 56 -46 58
-5 2 -8 10 -8 17 0 7 -3 15 -7 17 -14 5 -103 147 -103 162 0 8 -4 16 -9 18 -9
3 -151 281 -151 296 0 4 -9 24 -20 45 -11 20 -20 39 -20 42 1 3 -8 26 -20 51
-11 26 -20 49 -20 51 0 2 -11 29 -25 59 -14 30 -25 58 -25 63 0 5 -12 35 -27
67 -15 33 -27 61 -28 64 -3 9 -17 44 -35 85 -10 22 -30 69 -45 105 -15 36 -45
102 -66 147 -22 46 -39 85 -39 88 0 3 -47 99 -104 213 -137 274 -138 276 -145
282 -4 3 -28 43 -55 90 -50 86 -175 281 -187 290 -3 3 -12 16 -19 29 -7 13
-21 34 -31 45 -11 12 -44 54 -75 94 -30 39 -60 72 -66 72 -6 0 -9 3 -5 6 3 3
-4 16 -16 29 -12 12 -40 42 -63 66 -72 78 -205 198 -264 239 -19 13 -37 27
-40 30 -24 29 -288 180 -315 180 -7 0 -18 7 -25 15 -7 9 -15 14 -17 11 -2 -2
-54 21 -116 51 -136 66 -156 75 -232 108 -33 14 -68 30 -77 35 -10 6 -24 10
-32 10 -32 0 -23 18 17 38 112 54 166 82 215 111 29 17 55 31 57 31 9 0 169
111 229 158 211 169 361 331 491 532 38 58 79 121 92 141 13 19 23 42 23 51 0
9 4 18 9 20 8 3 64 115 119 238 40 90 176 453 187 500 8 30 97 278 141 390
186 470 380 677 744 794 58 19 68 25 45 26 -16 1 -48 3 -70 5 -194 13 -330 18
-503 19 -112 1 -204 1 -205 0z"/>
<path d="M3067 4904 c-3 -3 -63 -7 -134 -10 -160 -4 -271 -11 -280 -17 -5 -3
-34 -8 -67 -12 -61 -7 -85 -11 -126 -21 -14 -3 -34 -7 -45 -9 -38 -7 -170 -47
-180 -55 -5 -4 -25 -11 -42 -15 -18 -3 -33 -11 -33 -17 0 -6 -3 -9 -6 -5 -6 6
-174 -79 -184 -93 -3 -4 -15 -12 -27 -19 -79 -41 -263 -205 -373 -331 -40 -46
-157 -204 -177 -240 -51 -90 -68 -116 -81 -132 -8 -10 -12 -18 -8 -18 5 0 -4
-20 -18 -45 -15 -25 -24 -45 -20 -45 3 0 2 -6 -4 -13 -20 -24 -81 -210 -98
-297 -3 -19 -8 -46 -11 -60 -3 -14 -7 -90 -9 -170 -2 -80 -4 -147 -5 -150 -1
-3 -1 -8 0 -12 0 -4 1 -72 2 -152 l0 -143 -54 -84 c-49 -75 -88 -151 -127
-244 -6 -16 -20 -68 -31 -115 -17 -80 -18 -148 -19 -1207 l0 -1123 80 0 c76 0
80 1 81 23 1 12 3 49 4 82 2 33 6 114 9 180 3 66 8 165 11 220 2 55 7 154 10
220 4 66 8 163 11 215 2 52 6 140 9 195 12 276 18 322 46 377 21 40 60 59 88
41 9 -5 24 -25 33 -44 27 -54 33 -99 43 -319 3 -74 8 -173 10 -220 5 -82 12
-247 20 -415 6 -128 17 -355 20 -420 2 -33 4 -77 4 -97 l1 -38 100 0 c73 0
100 3 101 13 2 23 7 131 13 267 4 74 9 176 11 225 3 50 7 144 10 210 24 526
32 671 41 720 2 17 15 50 27 75 21 43 23 45 73 47 44 3 54 0 66 -19 33 -51 45
-111 53 -263 10 -191 20 -409 30 -635 2 -52 7 -142 9 -200 3 -58 8 -157 11
-220 5 -110 11 -193 14 -215 0 -5 16 -9 33 -8 18 1 63 2 99 2 l66 1 2 58 c2
31 4 93 6 137 2 44 6 132 9 195 7 126 13 271 21 455 3 66 7 156 10 200 2 44 7
134 10 200 8 188 21 252 58 293 59 64 119 -7 132 -157 2 -20 4 -36 5 -36 1 0
3 -36 5 -80 9 -189 16 -335 20 -405 2 -41 7 -138 10 -215 6 -154 12 -275 20
-435 3 -58 7 -127 8 -155 l2 -50 80 0 80 0 -1 1135 -1 1135 -22 80 c-12 44
-23 85 -24 90 -2 6 -13 32 -25 59 -12 27 -22 52 -22 56 0 5 -3 10 -7 12 -5 2
-16 19 -26 38 -9 19 -36 65 -60 101 l-42 66 1 249 c1 231 7 354 20 396 3 9 7
27 9 40 4 20 27 124 30 138 44 175 149 415 241 554 65 97 67 101 114 157 170
204 405 372 628 448 94 32 225 67 288 77 48 7 66 21 22 17 -52 -6 -658 -4
-667 1 -5 3 -11 3 -14 0z"/>
</g>
</svg>
