<svg width="442" height="88" viewBox="0 0 442 88" fill="none" xmlns="http://www.w3.org/2000/svg">
<path d="M31.1468 4.58C31.1468 2.48 29.8168 2.06 27.7868 2.06C23.3068 2.06 17.7068 6.4 13.9968 10.53C6.8568 18.44 0.136797 29.92 0.136797 43.22C0.136797 47.28 1.3968 55.4 6.2268 55.4C17.5668 55.4 35.4868 33.84 35.4868 18.65C35.4868 16.06 34.9268 13.75 33.8068 11.65C33.0368 10.18 30.5868 9.2 30.5868 7.94C30.5868 6.54 31.1468 5.63 31.1468 4.58ZM26.3168 5.56C27.4368 5.56 27.6468 6.4 27.6468 6.96C27.6468 8.57 25.1268 8.99 23.9368 9.62C18.6168 12.49 15.3968 21.31 15.3968 30.97C15.3968 32.72 15.6768 33.91 16.8668 33.91C18.6168 33.91 20.1568 30.9 20.9268 29.85C23.4468 26.42 25.1268 22.85 26.9468 18.58C27.5068 17.18 28.5568 12.77 29.6768 12.77C31.4968 12.77 31.9868 16.06 31.9868 17.88C31.9868 30.48 17.4268 51.34 7.4868 51.34C4.8268 51.34 4.1268 47.63 4.1268 43.36C4.1268 32.65 8.6768 21.8 16.0968 13.26C17.8468 11.23 19.8068 9.2 22.0468 7.66C23.3768 6.75 25.4768 5.56 26.3168 5.56ZM19.5968 24.88C19.5268 24.6 19.5268 24.32 19.5268 23.9C19.5268 20.47 21.9768 12.42 25.3368 12.42C25.5468 12.42 25.9668 12.56 25.9668 12.77C25.9668 14.24 24.3568 17.46 23.3068 19.42C22.1868 21.38 21.2068 23.55 19.5968 24.88ZM63.8554 7.03C63.0154 7.03 61.7554 7.73 60.4254 9.41C53.2854 18.3 41.4554 31.46 32.0054 41.19C30.6054 42.59 32.2854 44.69 33.7554 43.36C35.2254 42.03 43.1354 33.42 46.6354 29.01C46.9854 28.52 47.3354 28.31 47.4754 28.31C47.5454 28.31 47.6154 28.31 47.6154 28.45C47.6154 28.59 47.4754 28.94 47.1954 29.43C41.3854 38.53 39.2854 45.32 39.2854 48.47C39.2854 51.76 40.6854 54.07 43.7654 54.07C48.2454 54.07 55.5954 46.93 59.1654 43.5C60.7054 42.03 58.8154 40.07 57.2054 41.61C55.3154 43.43 47.9654 50.5 44.7454 50.5C43.3454 50.5 42.9254 49.52 42.9254 48.05C42.9254 39.86 55.5254 21.1 63.6454 10.95C64.5554 9.83 64.9054 8.85 64.9054 8.15C64.9054 7.45 64.4854 7.03 63.8554 7.03ZM74.9302 13.82C73.8102 13.82 72.6202 14.87 72.6202 16.2C72.6202 16.9 72.8302 17.53 72.8302 18.16C72.8302 19.49 72.5502 20.54 72.5502 21.17C72.5502 21.73 72.9702 21.87 73.3202 21.87C75.1402 21.87 76.6102 17.18 76.6102 15.78C76.6102 14.66 76.0502 13.82 74.9302 13.82ZM59.1802 43.43C61.3502 41.61 65.2702 37.48 67.7202 35.52C68.2102 35.03 68.5602 34.82 68.7702 34.82C68.9802 34.82 69.0502 35.03 69.0502 35.24C69.0502 35.8 68.2802 37.34 67.8602 38.18C65.9702 42.1 63.1702 46.86 62.5402 49.66C62.4002 50.29 62.3302 50.99 62.3302 51.62C62.3302 53.3 63.3102 54.21 64.7802 54.21C66.7402 54.21 68.4902 52.53 69.6102 51.69C72.3402 49.52 75.9102 45.95 78.6402 43.43C80.2502 41.96 78.2202 40 76.8902 41.33C74.9302 43.29 71.7102 46.51 69.7502 48.05C69.2602 48.47 67.7902 49.73 66.8802 49.73C66.3902 49.73 66.2502 49.24 66.2502 48.96C66.2502 47.77 67.5102 45.67 67.9302 44.69C69.7502 40.98 71.0802 38.53 72.8302 35.45C73.6702 33.98 74.6502 31.88 74.6502 30.48C74.6502 29.57 74.3002 28.87 73.1102 28.87C69.7502 28.87 66.8102 32.72 64.6402 34.61C63.7302 35.38 60.9302 38.46 57.6402 41.19C56.3102 42.24 57.6402 44.13 59.1802 43.43ZM101.553 44.27C102.953 45.25 104.913 45.81 107.083 45.81C109.743 45.81 112.543 44.97 114.643 43.29C114.993 43.01 115.133 42.66 115.133 42.31C115.133 41.47 114.363 40.7 113.663 40.7C113.453 40.7 113.243 40.77 113.103 40.91C111.843 41.96 109.533 42.8 107.643 42.8C106.453 42.8 104.633 42.24 104.633 41.26C104.633 41.19 104.703 41.05 104.703 40.98C104.843 40.49 106.103 39.02 107.013 37.9C109.043 35.45 111.003 32.16 111.003 28.52C111.003 25.72 108.483 25.02 107.363 25.02C101.693 25.02 99.2426 32.65 99.2426 36.92C99.2426 38.74 99.5226 40.42 99.9426 41.61C98.0526 44.76 90.4226 50.85 87.6226 50.85C87.1326 50.85 87.0626 50.43 87.0626 50.15C87.0626 47.07 93.2926 34.82 94.0626 31.25C94.2026 30.62 94.2726 30.06 94.2726 29.57C94.2726 27.54 93.1526 26.56 91.8226 26.56C90.7726 26.56 89.5126 27.19 88.4626 28.52C85.8726 31.81 80.1326 39.02 77.0526 41.33C76.6326 41.61 76.4926 42.03 76.4926 42.38C76.4926 43.08 77.0526 43.71 77.8926 43.71C78.2426 43.71 78.6626 43.57 79.0826 43.22C81.4626 41.26 88.4626 32.86 89.2326 32.86C89.3726 32.86 89.3726 33 89.3726 33.07C89.3726 34.75 83.0726 46.16 83.0726 51.69C83.0726 53.44 83.7026 54.63 85.3826 54.63C90.0726 54.63 98.1226 47.84 101.553 44.27ZM106.943 28.1C107.643 28.1 107.923 28.52 107.923 29.22C107.923 31.88 103.863 37.62 103.163 37.48C102.883 37.41 102.883 36.92 102.883 36.22C102.883 33.42 104.423 28.1 106.943 28.1ZM130.028 13.82C128.908 13.82 127.718 14.87 127.718 16.2C127.718 16.9 127.928 17.53 127.928 18.16C127.928 19.49 127.648 20.54 127.648 21.17C127.648 21.73 128.068 21.87 128.418 21.87C130.238 21.87 131.708 17.18 131.708 15.78C131.708 14.66 131.148 13.82 130.028 13.82ZM114.278 43.43C116.448 41.61 120.368 37.48 122.818 35.52C123.308 35.03 123.658 34.82 123.868 34.82C124.078 34.82 124.148 35.03 124.148 35.24C124.148 35.8 123.378 37.34 122.958 38.18C121.068 42.1 118.268 46.86 117.638 49.66C117.498 50.29 117.428 50.99 117.428 51.62C117.428 53.3 118.408 54.21 119.878 54.21C121.838 54.21 123.588 52.53 124.708 51.69C127.438 49.52 131.008 45.95 133.738 43.43C135.348 41.96 133.318 40 131.988 41.33C130.028 43.29 126.808 46.51 124.848 48.05C124.358 48.47 122.888 49.73 121.978 49.73C121.488 49.73 121.348 49.24 121.348 48.96C121.348 47.77 122.608 45.67 123.028 44.69C124.848 40.98 126.178 38.53 127.928 35.45C128.768 33.98 129.748 31.88 129.748 30.48C129.748 29.57 129.398 28.87 128.208 28.87C124.848 28.87 121.908 32.72 119.738 34.61C118.828 35.38 116.028 38.46 112.738 41.19C111.408 42.24 112.738 44.13 114.278 43.43ZM133.76 43.71L133.69 43.92C132.99 45.53 132.5 47.35 132.5 49.03C132.5 52.18 133.97 54.91 137.89 54.91C141.53 54.91 146.71 50.92 149.09 48.12C149.16 47.98 149.37 47.84 149.37 47.91C150 49.03 149.02 54.56 153.99 54.56C154.76 54.56 155.67 54.35 156.72 54C160.71 52.6 170.44 43.36 170.44 42.17C170.44 41.54 169.74 40.84 169.11 40.84C168.2 40.84 161.41 48.33 158.54 49.94C157.28 50.64 156.09 51.06 155.11 51.06C153.78 51.06 152.87 50.22 152.87 48.4C152.87 46.86 153.43 44.69 154.83 41.75C157.28 36.57 162.32 33.21 162.32 30.48C162.32 29.36 161.76 28.87 160.85 28.87C157.63 28.87 153.64 36.57 152.52 39.23C150.91 43.01 143.77 51.27 139.01 51.27C136.98 51.27 136.28 50.01 136.28 48.33C136.28 45.32 138.66 40.77 140.48 39.09C142.02 37.62 147.62 35.45 150.98 33C152.03 32.23 153.5 31.18 153.5 29.99C153.5 29.29 152.94 28.52 152.03 28.52C147.13 28.52 142.72 32.65 138.24 36.22C136.91 37.27 134.39 39.3 132.36 41.19C131.87 41.61 131.66 42.1 131.66 42.45C131.66 43.43 132.99 44.06 133.76 43.71ZM210.498 30.13C211.338 27.75 213.438 23.34 214.768 21.8C216.378 20.05 218.268 19.14 220.718 17.6C223.028 16.13 225.058 12.98 225.058 10.74C225.058 9.27 224.218 8.22 222.118 8.22C214.628 8.22 206.508 31.53 199.718 43.71C197.968 46.86 195.658 51.13 193.138 51.13C191.598 51.13 191.038 50.22 191.038 49.24C191.038 45.18 195.588 44.69 195.588 42.38C195.588 41.47 195.098 40.77 193.978 40.77C191.038 40.77 188.028 45.74 188.028 48.75C188.028 52.04 189.988 54.28 192.718 54.28C198.598 54.28 203.988 43.64 206.368 38.81C207.278 36.85 208.468 34.12 209.518 32.3C210.288 33 210.148 34.47 212.178 34.47C212.738 34.47 213.158 34.33 213.578 34.33C216.378 34.33 217.778 44.48 220.368 48.19C221.978 50.57 224.008 51.41 226.108 51.41C231.988 51.41 237.588 45.18 239.688 43.36C240.108 42.94 240.318 42.59 240.318 42.17C240.318 41.4 239.688 40.84 238.988 40.84C238.708 40.84 238.428 40.91 238.218 41.12C235.978 43.15 231.358 48.05 226.878 48.05C220.718 48.05 221.628 34.75 216.728 32.65C216.588 32.58 216.378 32.44 216.378 32.3C216.378 32.02 217.008 31.53 219.388 30.9C227.788 28.59 236.748 21.17 236.748 12.14C236.748 5.98 231.848 1.64 223.728 1.64C211.548 1.64 199.718 13.05 199.718 21.87C199.718 24.25 200.838 26.77 204.408 26.77C206.228 26.77 207.278 25.37 207.278 24.32C207.278 23.34 206.578 23.13 205.808 23.13C205.458 23.13 205.038 23.2 204.758 23.2C203.498 23.2 203.078 22.71 203.078 21.03C203.078 14.38 213.298 4.58 223.378 4.58C227.438 4.58 233.038 6.82 233.038 12C233.038 20.05 224.988 25.3 218.268 28.31C215.958 29.36 213.578 30.13 210.498 30.13ZM216.728 17.25C217.078 15.71 219.318 12.28 220.928 12.28C221.348 12.28 221.488 12.49 221.488 12.63C221.488 13.68 218.058 16.83 216.728 17.25ZM257.427 31.11C257.427 28.52 255.397 27.05 253.157 27.05C245.457 27.05 237.057 38.88 237.057 45.6C237.057 49.94 239.577 54.35 244.897 54.35C251.967 54.35 257.147 49.31 262.887 43.43C264.287 41.96 262.397 40.07 261.067 41.4C257.357 45.11 250.777 51.2 246.227 51.2C243.777 51.2 240.837 49.87 240.837 45.81C240.837 45.32 240.907 44.83 240.977 44.27C241.117 43.57 243.707 42.94 245.247 42.1C250.497 39.16 257.427 36.64 257.427 31.11ZM252.387 30.2C253.087 30.2 253.367 31.11 253.367 31.67C253.367 34.68 245.807 39.79 243.567 39.79C243.147 39.79 242.937 39.65 242.937 39.3C242.937 39.16 243.007 39.02 243.077 38.81C243.987 36.36 249.167 30.2 252.387 30.2ZM288.373 33.56C289.213 32.37 291.103 29.71 291.103 28.66C291.103 27.89 290.333 27.12 289.493 27.12C286.903 27.12 284.523 33.14 283.473 34.54C280.183 39.02 269.473 47.35 265.623 47.35C264.293 47.35 263.593 46.79 263.593 45.32C263.593 41.19 272.343 31.81 272.343 29.64C272.343 28.87 271.713 28.17 270.593 28.17C267.513 28.17 260.443 40.28 260.443 44.27C260.443 49.03 261.913 50.5 264.853 50.5C266.743 50.5 269.263 49.45 271.993 47.91C272.833 47.42 275.773 45.6 276.053 45.6C276.193 45.6 276.263 45.74 276.263 45.88C276.263 46.44 275.073 48.05 275.003 48.12C265.273 61.84 247.633 84.03 231.533 84.03C226.353 84.03 221.523 83.05 217.113 78.99C216.623 78.5 215.993 78.99 215.993 79.55C216.133 84.17 223.553 87.04 229.083 87.04C252.603 87.04 271.503 58.55 284.873 38.74L288.373 33.56ZM337.264 43.08C338.034 41.61 336.354 40.14 335.164 41.33C332.434 44.06 327.884 48.12 325.084 49.8C324.384 50.22 322.984 50.99 321.934 50.99C321.164 50.99 320.674 50.57 320.674 49.52C320.744 46.23 327.674 39.16 327.674 33.28C327.674 30.27 325.154 29.15 322.634 29.15C318.994 29.15 315.564 31.81 313.184 33.84C310.734 35.94 307.654 39.3 305.694 40.07C305.414 38.6 306.884 36.85 307.444 35.52C308.004 34.33 309.474 31.04 309.474 28.66C309.474 27.26 308.704 26.07 307.374 26.07C305.274 26.07 302.754 29.22 301.984 30.2C299.814 32.86 295.474 38.32 291.974 41.19C290.644 42.31 292.254 44.55 293.654 43.36C296.594 40.91 299.534 37.48 301.564 35.1C302.544 34.05 303.594 32.58 304.924 32.3C303.314 38.46 299.814 44.13 296.244 48.82C295.614 49.66 293.514 51.76 293.514 53.16C293.514 53.86 294.074 54.28 294.634 54.28C296.384 54.28 298.134 51.69 299.114 50.64C303.804 45.74 307.514 41.89 312.764 37.9C314.864 36.29 320.114 32.23 322.354 32.23C322.984 32.23 323.334 32.58 323.334 33.35C323.334 35.94 318.434 44.13 317.524 46.3C317.034 47.49 316.404 49.31 316.404 50.92C316.404 53.16 318.084 54.56 320.044 54.56C322.004 54.56 324.314 53.58 325.784 52.74C329.214 50.78 334.604 45.6 337.264 43.08ZM354.006 28.52C352.676 28.52 351.766 29.43 351.766 30.62C351.766 31.74 352.606 32.3 353.586 32.65C354.846 33.07 355.126 33.98 355.126 34.96C355.126 41.12 347.566 51.48 341.476 51.48C339.726 51.48 338.606 50.01 338.606 48.19C338.606 43.01 341.406 40 343.926 38.18C345.186 37.27 349.456 34.19 349.456 31.39C349.456 30.41 349.036 29.99 348.406 29.99C347.496 29.99 346.236 30.83 345.606 31.18C341.196 33.98 340.356 36.43 337.696 39.16C336.436 40.49 334.756 41.05 334.756 42.38C334.756 43.5 335.456 43.64 335.456 44.48C335.456 45.39 335.036 46.65 335.036 47.98C335.036 50.99 336.086 54.91 340.146 54.91C349.526 54.91 358.416 42.94 358.416 34.26C358.416 31.39 357.086 28.52 354.006 28.52ZM393.689 7.03C392.849 7.03 391.589 7.73 390.259 9.41C383.119 18.3 371.289 31.46 361.839 41.19C360.439 42.59 362.119 44.69 363.589 43.36C365.059 42.03 372.969 33.42 376.469 29.01C376.819 28.52 377.169 28.31 377.309 28.31C377.379 28.31 377.449 28.31 377.449 28.45C377.449 28.59 377.309 28.94 377.029 29.43C371.219 38.53 369.119 45.32 369.119 48.47C369.119 51.76 370.519 54.07 373.599 54.07C378.079 54.07 385.429 46.93 388.999 43.5C390.539 42.03 388.649 40.07 387.039 41.61C385.149 43.43 377.799 50.5 374.579 50.5C373.179 50.5 372.759 49.52 372.759 48.05C372.759 39.86 385.359 21.1 393.479 10.95C394.389 9.83 394.739 8.85 394.739 8.15C394.739 7.45 394.319 7.03 393.689 7.03ZM408.824 9.97C410.504 13.12 411.134 16.69 411.134 20.47C411.134 26.77 409.314 33 406.794 38.25C405.114 41.75 398.954 51.41 393.214 51.41C392.304 51.41 391.954 50.78 391.954 49.73C391.954 46.09 396.294 37.97 398.394 36.85C399.934 36.08 404.974 34.47 404.974 31.88C404.974 30.9 404.484 30.34 403.714 30.34C402.244 30.34 399.934 31.88 399.024 32.37C395.454 34.75 391.324 38.11 388.104 40.63C387.334 41.19 386.914 41.82 386.914 42.38C386.914 43.15 387.684 43.64 388.314 43.64C389.014 43.64 389.644 43.22 389.924 43.22C389.994 43.22 390.064 43.29 390.064 43.36C390.064 43.43 389.994 43.57 389.924 43.71C389.084 45.32 388.384 47.77 388.384 49.94C388.384 52.46 389.364 54.56 392.234 54.56C404.204 54.56 414.704 34.33 414.704 20.19C414.704 10.11 410.014 0.939999 398.464 0.939999C390.624 0.939999 385.724 4.58 382.154 8.01C381.594 8.57 378.724 11.86 378.724 13.82C378.724 14.66 379.354 15.22 380.124 15.22C381.244 15.22 382.434 13.89 383.064 12.91C386.424 8.57 391.394 4.09 398.744 4.09C403.224 4.09 407.074 6.61 408.824 9.97ZM435.188 23.48C435.188 22.15 433.858 21.87 433.018 21.87C430.708 21.87 428.748 23.2 427.838 25.16C427.348 26.21 427.278 27.75 426.788 29.01C426.298 30.27 425.108 31.6 424.058 32.72C421.748 35.31 417.548 38.81 414.958 41.19C414.468 41.61 414.258 42.1 414.258 42.52C414.258 43.15 414.818 43.64 415.448 43.64C415.798 43.64 416.218 43.5 416.568 43.22C418.668 41.47 421.258 39.16 423.148 37.41C423.848 36.78 425.458 34.89 426.368 34.89C426.858 34.89 426.928 35.94 426.998 36.15C427.208 37.27 427.278 38.81 427.348 39.51C427.418 40.42 427.488 41.47 427.488 42.45C427.488 43.36 427.418 44.13 427.208 44.69C426.788 45.67 424.128 46.44 423.148 46.79C420.278 47.91 415.798 50.85 415.798 54.91C415.798 58.06 418.668 59.39 421.398 59.39C423.708 59.39 425.738 58.62 427.348 57.29C428.818 56.03 429.938 54.21 430.428 51.97C430.708 50.78 430.358 49.17 431.128 47.91C431.548 47.28 433.368 46.93 433.928 46.79C435.118 46.51 439.318 44.97 441.068 43.29C441.348 43.01 441.488 42.73 441.488 42.38C441.488 41.61 440.928 40.84 440.158 40.84C439.808 40.84 439.388 41.05 438.898 41.47C437.498 42.8 434.068 44.34 432.178 44.34C431.198 44.34 430.988 43.64 430.848 43.01C430.498 41.4 430.568 39.37 430.428 37.97C430.288 36.43 430.008 34.68 430.008 33.07C430.008 32.23 430.078 31.46 430.288 30.83C431.268 27.96 435.188 26.56 435.188 23.48ZM427.138 48.4C427.488 48.4 427.558 49.45 427.558 49.73C427.558 51.48 426.928 54.21 425.108 55.47C423.988 56.17 422.798 56.52 421.748 56.52C420.208 56.52 419.018 55.82 419.018 54.56C419.018 53.58 419.788 52.18 421.818 50.57C422.518 50.01 426.088 48.4 427.138 48.4Z" fill="#617781"/>
</svg>
