<svg width="159" height="155" viewBox="0 0 159 155" fill="none" xmlns="http://www.w3.org/2000/svg">
<g clip-path="url(#clip0_57_149)">
<path d="M130.164 0.797378C132.239 0.129532 134.603 0.353809 136.513 1.40542C138.903 3.04014 139.812 5.94079 141.087 8.39786C143.132 12.0311 145.826 15.2458 148.561 18.3856C151.156 21.8744 153.24 25.7519 154.52 29.9135C155.775 32.7244 155.895 35.8792 157.2 38.6652C157.889 40.3299 158.804 41.9845 158.874 43.8236C158.494 46.0913 156.13 47.0233 154.66 48.5085C151.076 51.3991 148.646 55.3614 145.417 58.5909C142.042 61.985 138.798 65.8924 134.188 67.6218C132.669 68.2747 131.184 69.0771 129.524 69.3064C127.034 69.6702 124.435 69.5007 122.05 70.4178C120.621 70.9261 119.976 72.4413 119.361 73.7022C117.906 77.0763 116.406 80.4405 115.306 83.9491C114.681 86.2368 114.197 88.6191 112.892 90.6425C111.397 92.9451 109.912 95.2626 108.163 97.3858C107.218 98.577 105.833 99.3594 104.998 100.64C102.913 104.707 102.473 109.337 100.829 113.564C100.149 115.343 98.839 116.813 98.2341 118.627C97.8642 120.088 98.2341 121.603 98.1591 123.088C98.1692 125.844 96.5294 128.301 96.5894 131.067C96.5194 132.961 97.2093 134.75 97.5143 136.594C97.8492 138.548 96.7494 140.576 97.5992 142.47C98.749 145.525 99.4989 148.715 100.769 151.73C95.8495 153.32 90.7153 154.457 85.5362 154.596L86.601 155H74.9829C72.8032 154.581 70.5786 154.512 68.394 154.143C60.1353 152.822 52.0716 150.106 44.8078 145.959C45.6576 142.964 48.6571 141.115 49.1421 138C49.567 135.672 50.7518 133.519 50.7868 131.127C50.9218 128.69 50.5818 126.188 51.3817 123.83C51.9316 122.305 51.8516 120.681 51.7016 119.091C51.4667 116.434 52.5065 113.818 52.0466 111.161C51.7166 109.003 51.2117 106.86 51.1467 104.667C51.1117 102.509 49.8969 100.655 48.9021 98.8261C44.9727 91.8088 41.7982 84.2233 40.7684 76.2041C40.5984 73.8467 40.7284 70.7866 38.4938 69.3213C33.6746 68.4192 28.6854 69.411 23.8711 68.3644C19.5568 67.2081 16.0424 64.148 13.3278 60.7141C11.4481 57.9081 8.78857 55.7551 6.7539 53.0688C5.30913 51.0951 2.45959 50.7762 1.26978 48.5633C-0.244973 46.2557 0.769863 43.4398 0.84985 40.908C1.1698 34.6033 3.86436 28.7572 6.89387 23.3197C8.13867 21.2564 9.93338 19.5768 11.0532 17.4287C11.7781 16.0532 12.6329 14.7524 13.5528 13.5014C15.3175 11.0194 16.1374 8.05895 17.2572 5.27294C17.7421 4.30108 18.207 3.12487 19.3069 2.7112C22.3114 1.34063 25.8508 0.632908 29.0453 1.76426C31.4799 2.56667 34.8294 2.95542 35.6642 5.83114C36.2841 9.00091 35.7192 12.2903 34.9693 15.3754C33.9695 16.417 32.3598 16.4718 31.015 16.3123C29.7102 16.2525 29.5702 14.7225 29.0503 13.8254C27.2056 13.8303 25.4009 13.4466 23.6212 13.013C22.3314 15.48 21.6765 18.2311 20.9666 20.9075C20.2167 27.7255 20.8366 34.6482 19.8518 41.4463C20.8616 41.8001 21.9214 41.9995 22.9963 41.845C26.2108 41.2319 29.5602 40.1953 32.8197 41.1323C35.9742 42.0842 37.349 45.7125 40.5584 46.5647C43.7129 47.6961 46.8224 45.3885 50.0169 46.1112C53.6713 46.5847 56.3959 49.2511 59.5704 50.8459C61.2751 51.768 62.6249 53.2681 64.4446 53.9808C66.6492 54.1852 69.2338 53.3827 70.5986 51.5885C71.4985 47.8606 71.2935 43.5844 68.9789 40.3847C67.5841 38.4609 66.4043 36.2929 66.1393 33.8956C65.9493 31.8522 64.1846 30.058 64.8395 27.9299C66.0243 23.853 65.1195 19.5668 65.2445 15.4053C65.8344 12.9233 68.5289 12.2355 70.1187 10.5659C72.1383 8.47262 75.0229 7.08709 77.9924 7.46088C80.782 7.87455 83.8465 8.044 86.1511 9.85316C88.1808 11.3234 90.1704 12.9183 91.6202 14.9916C93.5099 17.2094 93.08 20.2646 93.2149 22.9559C93.13 24.7451 94.9247 26.0908 94.4947 27.9149C94.2298 29.8786 94.3998 31.902 93.8998 33.8308C93.4199 35.7945 90.9203 36.6218 90.9403 38.7599C90.8303 42.0144 90.4004 45.4733 91.8802 48.5085C92.63 50.0485 93.3449 51.8726 94.9697 52.675C96.7144 52.9143 98.2391 51.8926 99.5989 50.9506C104.908 47.1977 111.472 45.1493 117.996 45.5131C120.89 45.9118 122.7 43.1956 124.715 41.6057C127.334 38.9892 131.669 38.6602 134.878 40.3548C136.593 41.1472 139.642 41.8699 140.732 39.9112C140.452 36.8212 139.158 33.9554 138.598 30.9252C138.028 27.7754 137.333 24.6305 137.338 21.4159C137.318 18.9239 136.178 16.6512 135.708 14.244C135.338 13.0479 135.208 11.458 133.943 10.83C132.544 10.3964 131.039 11.0194 130.099 12.081C127.899 14.4284 124.45 14.543 121.455 14.7922C119.991 14.9567 117.906 14.6676 117.591 12.9233C117.711 10.8051 117.641 8.67696 117.801 6.55879C117.876 5.32278 118.891 4.41571 120.021 4.05686C123.36 2.84577 126.765 1.81908 130.164 0.797378Z" fill="#131313"/>
<path d="M91.6203 14.9917C96.6944 16.0433 101.744 17.3292 106.533 19.3526C117.601 23.7883 127.244 31.2792 134.878 40.3549C131.669 38.6604 127.334 38.9893 124.715 41.6059C122.7 43.1957 120.891 45.912 117.996 45.5133C111.472 45.1494 104.908 47.1978 99.599 50.9507C98.2392 51.8927 96.7144 52.9144 94.9697 52.6752C93.345 51.8727 92.6301 50.0486 91.8802 48.5086C90.4004 45.4734 90.8304 42.0145 90.9404 38.76C90.9204 36.6219 93.42 35.7946 93.8999 33.8309C94.3998 31.9022 94.2298 29.8787 94.4948 27.915C94.9247 26.0909 93.13 24.7452 93.215 22.956C93.08 20.2647 93.5099 17.2095 91.6203 14.9917Z" fill="#EEEEEE"/>
<path d="M38.8537 26.7636C46.7374 21.1916 55.831 17.4586 65.2445 15.4053C65.1195 19.5668 66.0243 23.853 64.8395 27.9299C64.1846 30.058 65.9493 31.8522 66.1393 33.8956C66.4043 36.2929 67.5841 38.4609 68.9789 40.3847C71.2935 43.5844 71.4985 47.8606 70.5986 51.5886C69.2338 53.3828 66.6492 54.1852 64.4446 53.9808C62.6249 53.2681 61.2751 51.768 59.5704 50.846C56.3959 49.2511 53.6713 46.5847 50.0169 46.1112C46.8224 45.3886 43.7129 47.6961 40.5584 46.5648C37.349 45.7125 35.9742 42.0842 32.8197 41.1323C29.5602 40.1953 26.2108 41.232 22.9963 41.845C27.5205 36.0985 32.8147 30.9252 38.8537 26.7636Z" fill="#EEEEEE"/>
<path d="M134.188 67.6219C138.798 65.8925 142.042 61.9851 145.417 58.5911C153.76 78.9803 151.496 103.242 139.617 121.802C130.774 135.966 116.706 146.692 100.769 151.731C99.4989 148.715 98.749 145.526 97.5992 142.47C96.7494 140.577 97.8492 138.548 97.5142 136.594C97.2093 134.75 96.5194 132.961 96.5894 131.067C96.5294 128.301 98.1691 125.844 98.1591 123.088C98.2341 121.603 97.8642 120.088 98.2341 118.627C98.839 116.813 100.149 115.343 100.829 113.564C102.473 109.337 102.913 104.707 104.998 100.64C105.833 99.3595 107.218 98.5771 108.163 97.3859C109.912 95.2628 111.397 92.9452 112.892 90.6427C114.197 88.6192 114.681 86.2369 115.306 83.9493C116.406 80.4406 117.906 77.0764 119.361 73.7023C119.976 72.4414 120.621 70.9263 122.05 70.4179C124.435 69.5009 127.034 69.6703 129.524 69.3065C131.184 69.0772 132.669 68.2748 134.188 67.6219Z" fill="#EEEEEE"/>
<path d="M15.0925 113.957C7.26879 97.2811 6.41893 77.48 12.9329 60.2456L13.3278 60.7141C16.0424 64.148 19.5568 67.2081 23.8711 68.3644C28.6853 69.411 33.6745 68.4192 38.4938 69.3213C40.7284 70.7866 40.5984 73.8467 40.7684 76.2041C41.7982 84.2233 44.9727 91.8088 48.9021 98.8262C49.8969 100.655 51.1117 102.509 51.1467 104.667C51.2117 106.86 51.7166 109.003 52.0466 111.161C52.5065 113.818 51.4667 116.434 51.7016 119.091C51.8516 120.681 51.9316 122.305 51.3817 123.831C50.5818 126.188 50.9218 128.69 50.7868 131.127C50.7518 133.519 49.567 135.672 49.1421 138C48.6571 141.115 45.6576 142.964 44.8077 145.959C31.9098 138.683 21.2665 127.414 15.0925 113.957Z" fill="#EEEEEE"/>
</g>
<defs>
<clipPath id="clip0_57_149">
<rect width="158.974" height="155" fill="white"/>
</clipPath>
</defs>
</svg>
