<svg width="143" height="155" viewBox="0 0 143 155" fill="none" xmlns="http://www.w3.org/2000/svg">
<g clip-path="url(#clip0_60_2)">
<path d="M60.6743 5.76506C62.5725 2.90506 65.9663 1.64506 69.073 0.53006C71.7568 -0.49994 74.793 0.31006 77.0488 1.93506C78.6953 3.12006 80.3519 4.32506 81.7366 5.81506C83.9369 8.26006 84.6419 11.6251 84.8634 14.8101C84.9188 16.6901 84.657 18.5651 84.1937 20.3851C84.7678 20.7401 85.3619 21.0751 86.0064 21.2951C85.9359 24.0551 86.1323 27.7451 83.1968 29.1801C82.7788 28.5851 82.3609 27.9951 81.938 27.4051C81.1676 31.7401 81.4798 36.1851 82.1243 40.5101C83.7355 42.2151 86.0467 42.9551 88.0557 44.0851C91.0164 45.6851 94.4051 46.1951 97.4313 47.6451C100.493 49.1651 103.786 50.1101 106.993 51.2651C110.206 53.6951 113.685 55.8651 116.344 58.9401C117.98 60.6651 118.982 62.8501 120.422 64.7251C120.483 65.175 120.548 65.6251 120.608 66.0751C121.857 67.1001 123.242 67.94 124.667 68.7001C126.409 69.9901 128.03 71.44 129.571 72.9601C129.496 73.3201 129.334 74.0301 129.259 74.3901C132.33 78.605 136.107 82.5151 137.784 87.5501C138.509 90.0001 138.73 92.7101 137.643 95.0951C135.533 99.745 132.33 103.79 129.203 107.795C126.162 111.885 122.607 115.555 119.068 119.22C116.485 121.83 113.65 124.23 111.49 127.225C110.291 128.91 109.395 130.785 108.207 132.48C106.847 134.455 104.601 135.53 102.99 137.265C101.48 138.88 100.191 140.675 98.8009 142.39C99.4655 144.525 99.9086 146.73 100.13 148.955L99.6569 149.265C94.2944 151.665 88.5542 153.225 82.7436 154.12C78.0155 154.51 73.2623 154.295 68.5191 154.355C65.7699 154.395 63.0156 154.33 60.2765 154.11C54.3249 153.2 48.4689 151.54 42.9755 149.09C42.6633 148.92 42.044 148.585 41.7318 148.42C42.2253 146.73 42.6986 145.035 43.2776 143.37C42.3562 141.085 41.4045 138.815 40.6945 136.455C40.4176 135.095 39.0883 134.485 38.0813 133.73C36.2485 132.495 35.4277 130.37 34.0984 128.69C32.0793 126.19 30.1408 123.61 27.6131 121.58C21.7974 115.65 16.2234 109.46 11.2134 102.835C8.67565 99.58 5.89117 96.1951 5.07547 92.0501C5.84082 85.9551 9.80857 80.91 13.6202 76.2951C13.4641 75.91 13.308 75.5301 13.1519 75.1501C17.2305 71.8351 21.1579 68.3351 25.3019 65.1051C27.3311 62.4451 28.8115 59.3751 31.1478 56.9351C33.3431 54.5151 36.2636 52.9401 38.8768 51.0251C40.7046 49.6001 43.2424 50.0801 45.186 48.8951C50.4679 46.1201 56.6813 45.2051 61.5605 41.6851C61.9633 36.7251 61.6159 31.7451 60.5887 26.8801C59.9341 27.3751 58.7005 28.3701 58.1214 27.2501C56.9583 25.0601 56.4397 22.4701 56.8123 20.0101C57.1093 19.3751 57.9704 19.5151 58.5343 19.2651C58.1768 17.8201 57.9553 16.3351 57.9905 14.8401C58.1567 11.6651 58.7911 8.41006 60.6743 5.76506ZM102.859 88.5101C100.588 94.5101 98.7505 100.69 97.668 107.02C96.7516 111.17 96.3135 115.42 95.1806 119.53C94.8986 120.525 95.1655 121.555 95.2611 122.56C97.7435 122.19 100.211 121.73 102.718 121.56C104.35 121.565 105.1 119.885 106.177 118.955C109.511 116.07 112.195 112.54 114.924 109.11C117.597 105.13 119.017 100.425 121.958 96.6C123.061 95.04 124.395 93.0601 123.816 91.1101C121.988 89.5601 120.044 88.1451 118.277 86.5251C117.633 86.3601 116.968 86.2701 116.359 86.0051C114.647 85.085 114.939 82.4701 113.091 81.7301C111.026 80.9651 108.871 80.3801 106.998 79.1951C104.899 81.94 104.043 85.3351 102.859 88.5101ZM30.468 84.1651C27.6634 84.98 26.9736 89.275 23.5799 88.7001C21.9736 89.64 20.2214 90.62 19.6172 92.5001C20.9565 95.5301 22.8951 98.225 24.7229 100.975C26.9232 104.195 28.0864 108.025 30.6191 111.04C33.8718 114.79 37.1749 118.555 41.0873 121.645C43.6553 121.91 46.2585 122.075 48.8466 122.27C47.5676 114.815 45.8909 107.425 44.8838 99.92C43.9221 95.36 42.0087 91.065 40.9463 86.5301C40.4226 84.05 39.0178 81.8701 37.3663 79.9801C34.612 80.5801 33.0209 83.1501 30.468 84.1651ZM43.5445 134.93C43.6754 136.315 43.907 137.69 44.1487 139.06C44.8788 138.285 44.7378 137.14 44.9795 136.185C44.5566 135.705 44.0933 135.26 43.5445 134.93ZM97.7234 139.39C98.5844 138.19 99.6871 137.055 99.9439 135.55C98.8966 136.58 96.9932 137.65 97.7234 139.39Z" fill="#131313"/>
<path d="M13.7361 42.7113C24.2395 28.3163 40.3925 18.1363 57.9905 14.8413C57.9553 16.3363 58.1768 17.8213 58.5343 19.2663C57.9704 19.5163 57.1094 19.3763 56.8123 20.0113C56.4397 22.4713 56.9583 25.0613 58.1214 27.2513C58.7005 28.3713 59.9341 27.3763 60.5887 26.8813C61.6159 31.7463 61.9633 36.7263 61.5605 41.6863C56.6814 45.2063 50.4679 46.1213 45.186 48.8963C43.2424 50.0813 40.7046 49.6013 38.8769 51.0263C36.2636 52.9413 33.3432 54.5163 31.1478 56.9363C28.8115 59.3763 27.3311 62.4463 25.3019 65.1063C21.158 68.3363 17.2305 71.8363 13.152 75.1513C13.3081 75.5313 13.4642 75.9113 13.6202 76.2963C9.80859 80.9113 5.84085 85.9563 5.07549 92.0513C5.8912 96.1963 8.67567 99.5813 11.2134 102.836C16.2235 109.461 21.7974 115.651 27.6131 121.581C30.1408 123.611 32.0793 126.191 34.0985 128.691C35.4277 130.371 36.2485 132.496 38.0813 133.731C39.0883 134.486 40.4176 135.096 40.6946 136.456C41.4045 138.816 42.3562 141.086 43.2776 143.371C42.6986 145.036 42.2253 146.731 41.7318 148.421C42.044 148.586 42.6633 148.921 42.9755 149.091C26.8981 142.096 13.4994 129.136 6.3494 113.191C2.28599 104.456 0.362535 94.8763 0 85.2963V83.1813C0.12588 80.9413 0.372606 78.7113 0.513592 76.4713C1.85296 64.3313 6.45514 52.5563 13.7361 42.7113Z" fill="#EEEEEE"/>
<path d="M84.8634 14.8101C104.667 18.4501 122.577 30.8801 132.859 48.0701C139.234 58.4801 142.522 70.5651 143 82.7051V85.7901C142.552 95.9451 140.296 106.085 135.714 115.215C128.302 130.37 115.201 142.575 99.6569 149.265L100.13 148.955C99.9086 146.73 99.4656 144.525 98.8009 142.39C100.191 140.675 101.48 138.88 102.99 137.265C104.601 135.53 106.847 134.455 108.207 132.48C109.395 130.785 110.291 128.91 111.49 127.225C113.65 124.23 116.485 121.83 119.068 119.22C122.607 115.555 126.162 111.885 129.204 107.795C132.33 103.79 135.533 99.7451 137.643 95.0951C138.73 92.7101 138.509 90.0001 137.784 87.5501C136.107 82.5151 132.33 78.6051 129.259 74.3901C129.334 74.0301 129.496 73.3201 129.571 72.9601C128.03 71.4401 126.409 69.9901 124.667 68.7001C123.242 67.9401 121.857 67.1001 120.608 66.0751C120.548 65.6251 120.483 65.1751 120.422 64.7251C118.982 62.8501 117.98 60.6651 116.344 58.9401C113.685 55.8651 110.206 53.6951 106.993 51.2651C103.786 50.1101 100.493 49.1651 97.4313 47.6451C94.4052 46.1951 91.0165 45.6851 88.0558 44.0851C86.0467 42.9551 83.7356 42.2151 82.1243 40.5101C81.4798 36.1851 81.1676 31.7401 81.938 27.4051C82.3609 27.9951 82.7789 28.5851 83.1968 29.1801C86.1323 27.7451 85.9359 24.0551 86.0064 21.2951C85.3619 21.0751 84.7678 20.7401 84.1938 20.3851C84.657 18.5651 84.9188 16.6901 84.8634 14.8101Z" fill="#EEEEEE"/>
<path d="M102.859 88.5101C104.043 85.3351 104.899 81.9401 106.998 79.1951C108.871 80.3801 111.026 80.9651 113.091 81.7301C114.939 82.4701 114.647 85.0851 116.359 86.0051C116.968 86.2701 117.633 86.3601 118.277 86.5251C120.044 88.1451 121.988 89.5601 123.816 91.1101C124.395 93.0601 123.061 95.0401 121.958 96.6001C119.017 100.425 117.597 105.13 114.924 109.11C112.195 112.54 109.511 116.07 106.177 118.955C105.1 119.885 104.35 121.565 102.718 121.56C100.211 121.73 97.7435 122.19 95.2612 122.56C95.1655 121.555 94.8986 120.525 95.1806 119.53C96.3135 115.42 96.7516 111.17 97.668 107.02C98.7506 100.69 100.588 94.5101 102.859 88.5101Z" fill="#EEEEEE"/>
<path d="M30.4681 84.165C33.0209 83.15 34.612 80.58 37.3663 79.98C39.0179 81.87 40.4227 84.05 40.9463 86.53C42.0088 91.065 43.9222 95.36 44.8839 99.92C45.8909 107.425 47.5676 114.815 48.8466 122.27C46.2585 122.075 43.6553 121.91 41.0873 121.645C37.175 118.555 33.8719 114.79 30.6191 111.04C28.0864 108.025 26.9233 104.195 24.7229 100.975C22.8951 98.225 20.9566 95.53 19.6172 92.5C20.2214 90.62 21.9737 89.64 23.5799 88.7C26.9736 89.275 27.6635 84.98 30.4681 84.165Z" fill="#EEEEEE"/>
<path d="M43.5445 134.93C44.0933 135.26 44.5566 135.705 44.9795 136.185C44.7378 137.14 44.8788 138.285 44.1487 139.06C43.907 137.69 43.6754 136.315 43.5445 134.93Z" fill="#EEEEEE"/>
<path d="M97.7234 139.39C96.9933 137.65 98.8966 136.58 99.9439 135.55C99.6871 137.055 98.5844 138.19 97.7234 139.39Z" fill="#EEEEEE"/>
<path d="M60.2766 154.11C63.0157 154.33 65.77 154.395 68.5192 154.355C73.2624 154.295 78.0156 154.51 82.7437 154.12C80.0649 154.585 77.3207 154.46 74.6521 155H69.3349C66.3289 154.565 63.2725 154.6 60.2766 154.11Z" fill="#EEEEEE"/>
</g>
<defs>
<clipPath id="clip0_60_2">
<rect width="143" height="155" fill="white"/>
</clipPath>
</defs>
</svg>
