<svg width="189" height="155" viewBox="0 0 189 155" fill="none" xmlns="http://www.w3.org/2000/svg">
<g clip-path="url(#clip0_60_13)">
<path d="M84.3473 3.90273C85.5515 2.53954 86.9074 1.25208 88.572 0.46951C91.2586 1.02488 93.9301 -0.055571 96.6318 0.378631C100.118 0.69166 103.209 2.81723 105.294 5.53352C105.688 6.65436 105.845 7.85094 106.341 8.9415C107.054 10.3703 106.928 12.0364 107.571 13.4905C108.405 15.4495 109.746 17.4034 109.412 19.6451C109.144 21.5687 108.567 23.9164 106.437 24.5324C105.107 27.8646 105.299 31.5099 104.828 35.0037C106.376 35.6702 107.641 36.8869 109.296 37.3211C111.051 37.7705 112.468 39.068 114.3 39.3003C115.468 39.4417 116.288 40.3555 117.33 40.7948C118.362 40.7039 119.374 40.4363 120.417 40.3555C121.09 40.8452 121.56 41.547 122.091 42.1832C123.139 42.4407 124.368 42.4104 125.193 43.2132C128.977 47.1513 133.789 50.9935 134.351 56.8299C135.894 57.9912 136.81 59.6472 137.093 61.5405C138.666 64.2719 139.906 67.4729 142.679 69.2451C143.518 68.205 144.293 67.1094 145.213 66.1299C146.033 65.2161 147.303 64.9132 148.204 64.1053C151.027 61.0811 152.757 57.249 155.413 54.0985C156.572 52.7303 157.361 51.0995 157.771 49.3627C158.707 48.9537 159.658 48.5902 160.62 48.2519C162.117 45.5306 165.365 45.4094 168.047 44.7935C170.511 44.329 172.403 42.168 175.019 42.3195C175.864 44.9601 173.091 46.1011 171.336 47.2472C175.439 47.9439 179.836 48.8426 183.838 47.2119C185.224 46.7423 186.96 45.884 188.214 47.121V47.5249C185.214 50.3926 181.44 52.6091 177.321 53.3614C174.71 54.3408 171.842 53.5936 169.185 54.3005C167.349 55.9161 166.205 58.1325 166.099 60.5863C165.037 62.7119 163.332 64.4436 162.32 66.5995C161.495 68.2757 160.943 70.1135 159.744 71.5726C158.469 73.1327 156.941 74.4706 155.59 75.9601C152.6 79.2418 150.157 82.9628 147.323 86.3708C146.286 87.6027 144.96 88.9457 143.19 88.6983C139.096 88.7135 135.98 85.775 133.071 83.2961C129.311 80.0648 125.694 76.6265 122.623 72.7237C122.774 74.9553 121.479 77.0001 121.747 79.2267C121.935 81.1149 121.206 82.9679 121.596 84.8562C122.005 86.9262 120.654 88.6983 119.764 90.4351C120.553 92.697 120.27 95.1003 120.229 97.443C120.138 99.1899 121.039 100.78 121.165 102.497C121.1 104.042 120.579 105.531 120.538 107.081C120.639 108.328 121.353 109.414 121.671 110.615C121.702 111.797 121.292 112.938 121.246 114.119C121.661 115.563 122.926 116.644 123.144 118.158C123.351 119.623 122.582 120.955 122.005 122.238C122.628 124.459 122.876 126.762 123.29 129.029C124.09 132.755 126.291 136.036 126.938 139.813C127.763 142.751 125.679 145.811 127.257 148.633C127.045 148.785 126.625 149.083 126.412 149.229C119.688 152.183 112.443 154.026 105.117 154.621L105.724 155H96.9708C96.2929 153.293 95.5997 151.587 94.7497 149.961C93.9908 151.329 93.2774 152.728 92.5286 154.106C92.4375 154.258 92.2554 154.556 92.1643 154.707C81.7568 153.955 71.5366 150.739 62.5054 145.538C63.1125 142.095 63.7298 138.647 64.4938 135.234C64.858 133.537 65.9155 132.053 66.1128 130.316C66.0622 127.822 67.5193 125.621 67.4232 123.111C66.9223 121.819 65.9357 120.622 66.0976 119.153C66.0622 117.411 67.6054 116.346 68.6527 115.195C68.1062 112.847 68.9208 110.555 69.4774 108.303C69.9783 106.359 69.1586 104.415 69.1991 102.462C69.2497 100.235 69.5634 98.0185 70.0339 95.8425C70.4235 94.0148 71.2027 92.2527 71.2077 90.3645C70.8536 88.6781 69.872 87.113 70.0643 85.3358C69.9833 83.7505 70.55 81.9581 69.4875 80.5848C67.8128 77.9645 67.0083 74.8897 66.7807 71.8099C61.3619 76.1721 54.9565 79.0146 48.7435 82.0439C46.0315 83.397 42.7176 84.1342 39.8235 82.8972C37.8807 82.0338 36.8789 80.0446 35.9327 78.2674C33.7167 73.7537 30.4027 69.861 28.4801 65.1959C27.0229 61.7071 24.3515 58.7535 23.633 54.9619C23.2586 53.1847 22.5908 51.4983 21.9988 49.7868C21.3664 47.9136 21.3967 45.7022 20.0104 44.1573C17.7286 42.6426 14.9458 43.9705 12.6083 44.647C10.7515 43.4404 9.11726 41.749 6.90119 41.1886C4.54851 40.5575 1.98333 40.3202 0 38.75V38.5329C1.38631 38.0684 2.69673 37.3716 4.11845 37.0182C5.64137 37.3211 7.09345 37.9775 8.66696 37.9876C12.0619 38.1037 15.381 37.205 18.7607 37.0031C17.2783 35.9882 15.0167 35.4127 14.6777 33.378C14.8952 32.7873 15.2949 31.6311 16.1652 32.1814C17.678 32.5752 18.9479 33.5294 20.3393 34.211C22.4339 35.2663 24.8271 35.5742 26.8711 36.7506C28.0449 37.4423 28.4295 38.9115 29.5729 39.6386C30.1699 40.0475 30.7872 40.4211 31.3994 40.8099C31.5057 44.132 33.656 46.8433 34.8753 49.8171C36.2515 52.5132 37.6935 55.1739 39.2366 57.7741C39.7932 58.9303 41.2705 59.0413 42.0649 59.9552C42.4443 60.8034 42.4949 61.7778 42.9452 62.5957C43.7649 63.5601 44.706 64.4285 45.4295 65.4786C46.8259 64.7163 48.1515 63.8075 48.9509 62.3887C50.489 59.9552 53.3527 58.486 54.2179 55.6334C55.0375 55.1386 55.9583 54.7094 56.444 53.836C58.5741 50.4633 61.5187 47.6864 64.7771 45.4094C65.9256 44.743 66.3101 43.3596 67.2866 42.5366C67.9443 42.5467 68.597 42.6123 69.2446 42.7285C69.6342 42.264 69.9125 41.0472 70.7676 41.4309C73.0494 42.2842 75.5792 41.3451 77.3298 39.79C78.5592 38.7146 80.3452 38.8307 81.7214 38.0128C83.4771 37.0182 85.1619 35.862 87.1553 35.3824C86.8821 33.4739 87.0238 31.4342 86.1687 29.662C85.3592 28.0716 83.047 28.6068 82.0705 27.1426C80.7399 25.2796 80.7601 22.8663 80.4818 20.6851C80.3351 18.9029 79.814 17.1863 79.2878 15.4899C78.9488 12.4706 79.9405 9.59785 80.669 6.71495C81.8327 5.70013 83.3304 5.10436 84.3473 3.90273Z" fill="#131313"/>
<path d="M107.571 13.4905C107.55 13.344 107.505 13.0512 107.485 12.9048C114.968 13.6419 122.243 15.9745 129.038 19.1351C142.238 25.3149 153.258 35.7357 160.62 48.2519C159.658 48.5901 158.707 48.9536 157.771 49.3626C157.361 51.0994 156.572 52.7302 155.413 54.0984C152.757 57.2489 151.027 61.081 148.204 64.1053C147.303 64.9131 146.033 65.216 145.213 66.1299C144.293 67.1093 143.518 68.2049 142.679 69.245C139.906 67.4729 138.666 64.2719 137.093 61.5405C136.81 59.6471 135.894 57.9911 134.351 56.8299C133.789 50.9934 128.977 47.1512 125.193 43.2131C124.368 42.4103 123.139 42.4406 122.091 42.1831C121.56 41.547 121.09 40.8452 120.417 40.3554C119.374 40.4362 118.362 40.7038 117.33 40.7947C116.288 40.3554 115.468 39.4416 114.3 39.3002C112.468 39.068 111.051 37.7704 109.296 37.3211C107.641 36.8869 106.376 35.6701 104.828 35.0036C105.299 31.5098 105.107 27.8646 106.437 24.5323C108.567 23.9163 109.144 21.5686 109.412 19.645C109.746 17.4033 108.405 15.4494 107.571 13.4905Z" fill="#EEEEEE"/>
<path d="M34.8753 49.8169C44.0786 32.8578 60.3196 19.7509 79.0449 14.8081C79.1057 14.9798 79.2271 15.318 79.2878 15.4897C79.814 17.1861 80.3351 18.9027 80.4818 20.685C80.7601 22.8661 80.7399 25.2794 82.0705 27.1425C83.047 28.6066 85.3592 28.0715 86.1687 29.6619C87.0238 31.434 86.8821 33.4737 87.1554 35.3822C85.1619 35.8619 83.4771 37.018 81.7214 38.0127C80.3452 38.8306 78.5592 38.7145 77.3298 39.7899C75.5792 41.3449 73.0494 42.284 70.7676 41.4307C69.9125 41.047 69.6342 42.2638 69.2446 42.7283C68.597 42.6122 67.9443 42.5465 67.2866 42.5364C66.3101 43.3594 65.9256 44.7428 64.7771 45.4092C61.5187 47.6863 58.5741 50.4632 56.444 53.8358C55.9583 54.7092 55.0375 55.1384 54.2179 55.6332C53.3527 58.4858 50.489 59.955 48.9509 62.3886C48.1515 63.8073 46.8259 64.7161 45.4295 65.4785C44.706 64.4283 43.7649 63.5599 42.9452 62.5956C42.4949 61.7776 42.4443 60.8032 42.0649 59.955C41.2705 59.0412 39.7932 58.9301 39.2366 57.7739C37.6935 55.1737 36.2515 52.513 34.8753 49.8169Z" fill="#EEEEEE"/>
<path d="M162.32 66.5994C163.332 64.4435 165.037 62.7118 166.099 60.5862C173.071 80.5342 170.395 103.517 159.031 121.344C151.34 133.679 139.734 143.433 126.412 149.229C126.625 149.083 127.045 148.785 127.257 148.633C125.679 145.811 127.763 142.751 126.938 139.813C126.291 136.036 124.09 132.755 123.29 129.029C122.876 126.762 122.628 124.459 122.005 122.238C122.582 120.955 123.351 119.622 123.144 118.158C122.926 116.644 121.661 115.563 121.246 114.119C121.292 112.938 121.702 111.797 121.671 110.615C121.353 109.414 120.639 108.328 120.538 107.081C120.579 105.531 121.1 104.042 121.165 102.497C121.039 100.78 120.138 99.1898 120.229 97.4429C120.27 95.1002 120.553 92.6969 119.764 90.435C120.654 88.6982 122.005 86.9261 121.596 84.8561C121.206 82.9678 121.935 81.1148 121.747 79.2266C121.479 77 122.774 74.9552 122.623 72.7236C125.694 76.6264 129.311 80.0647 133.071 83.2959C135.98 85.7749 139.096 88.7134 143.19 88.6982C144.96 88.9456 146.286 87.6026 147.323 86.3707C150.157 82.9627 152.6 79.2417 155.59 75.96C156.941 74.4705 158.469 73.1326 159.744 71.5725C160.943 70.1134 161.495 68.2756 162.32 66.5994Z" fill="#EEEEEE"/>
<path d="M28.48 65.1958C30.4027 69.8609 33.7166 73.7536 35.9327 78.2673C36.8789 80.0445 37.8806 82.0337 39.8235 82.8971C42.7175 84.1341 46.0315 83.3969 48.7434 82.0438C54.9565 79.0145 61.3619 76.172 66.7806 71.8098C67.0083 74.8896 67.8128 77.9644 69.4875 80.5847C70.55 81.958 69.9833 83.7504 70.0643 85.3357C69.872 87.1129 70.8536 88.678 71.2077 90.3644C71.2027 92.2526 70.4235 94.0147 70.0339 95.8424C69.5634 98.0184 69.2497 100.235 69.1991 102.461C69.1586 104.415 69.9783 106.359 69.4774 108.303C68.9208 110.555 68.1062 112.847 68.6527 115.195C67.6054 116.346 66.0622 117.411 66.0976 119.153C65.9357 120.622 66.9223 121.819 67.4232 123.111C67.5193 125.621 66.0622 127.822 66.1128 130.316C65.9155 132.053 64.858 133.537 64.4937 135.234C63.7298 138.647 63.1125 142.095 62.5053 145.538C49.9375 138.273 39.5199 127.272 33.3169 114.134C26.4512 99.831 24.5539 83.1849 28.1967 67.7354C28.3738 66.8973 28.6065 66.0541 28.48 65.1958Z" fill="#EEEEEE"/>
<path d="M92.5285 154.106C93.2773 152.728 93.9907 151.329 94.7496 149.961C95.5996 151.587 96.2928 153.293 96.9708 155H96.4142C95.0228 154.864 93.6365 154.732 92.2452 154.626L92.5285 154.106Z" fill="#EEEEEE"/>
</g>
<defs>
<clipPath id="clip0_60_13">
<rect width="188.214" height="155" fill="white"/>
</clipPath>
</defs>
</svg>
