<svg width="142" height="155" viewBox="0 0 142 155" fill="none" xmlns="http://www.w3.org/2000/svg">
<g clip-path="url(#clip0_124_143)">
<path d="M64.9475 0H71.2149C73.1996 0.725 76.3184 0.385 77.2585 2.75C78.2831 5.31 79.074 7.96 79.7605 10.625C79.7306 12.035 79.7903 13.445 79.8202 14.85C83.496 16.625 87.6395 16.78 91.6288 17.035C88.7637 19.52 84.7296 19.525 81.2477 20.555C81.1532 22.07 81.1085 23.62 80.626 25.07C79.9893 26.885 78.3577 28.175 77.8653 30.055C77.5121 31.46 77.0346 32.83 76.2686 34.06C76.7014 36.955 77.0147 40.645 80.0241 42.06C82.4067 43.55 85.043 42.13 87.5351 41.925C93.6135 42.125 99.0999 45.51 103.383 49.645C102.676 53.15 100.403 55.92 98.5727 58.88C99.1895 64.795 99.095 70.75 99.5078 76.675C99.6173 80.085 99.1945 83.63 100.537 86.865C102.428 91.57 103.144 96.66 103.348 101.705C103.612 101.835 104.144 102.1 104.407 102.235C105.089 109.935 106.889 117.46 108.417 125.02C109.163 127.625 107.074 129.855 105.89 131.98C104.363 132.755 102.632 133.08 100.94 133.25C99.3686 133.195 98.2543 131.8 97.7171 130.43C98.2146 130.45 99.2193 130.495 99.7217 130.52C99.5427 129.68 99.3785 128.84 99.2293 128C99.5626 127.91 100.229 127.73 100.567 127.64C99.9654 126.17 99.1945 124.68 99.3288 123.04C99.3337 120.875 100.189 118.66 99.3536 116.555C98.3638 113.785 96.4985 111.46 95.0759 108.92C95.5186 107.63 96.782 106.395 96.2199 104.955C95.2699 101.49 94.2701 98.04 93.3648 94.565C92.7281 92.075 91.8228 89.605 91.8178 87C91.9024 81.28 91.8626 75.53 91.1562 69.845C89.7784 74.645 88.0424 79.445 87.8882 84.49C87.6097 88.735 88.7836 92.88 89.5794 97.005C90.3106 102.315 89.5844 107.695 90.1266 113.02C90.3604 118.895 89.8779 124.835 88.3558 130.525C86.2617 138.355 84.2571 146.205 82.1481 154.03C81.2378 154.175 80.3325 154.34 79.4272 154.505C79.0591 154.57 78.3229 154.695 77.9548 154.755L78.5567 155H64.0024C60.605 154.24 57.0982 154.03 53.7606 153.005C53.5666 152.895 53.1786 152.67 52.9846 152.56C52.333 140.595 50.1792 128.785 48.3288 116.965C48.1945 115.865 47.8563 114.81 47.4882 113.775C46.7072 117.32 45.9412 120.89 45.5184 124.5C45.2797 127.375 46.5481 130.115 46.3193 132.995C46.1054 136.315 46.6525 139.64 46.3839 142.95L45.7771 143.15C43.9068 141.34 43.8023 138.61 43.3348 136.21C42.2803 137.755 42.897 139.725 43.4243 141.355C45.0757 143.055 47.1649 144.295 48.7516 146.08C45.7821 145.935 41.9967 145.87 40.2458 143.005C38.9973 141.165 38.2512 139.04 37.5349 136.95C36.8236 135.16 37.5449 133.3 37.7886 131.505C38.3954 128.35 37.9428 125.125 38.2114 121.94C38.4949 118.505 38.6392 115.055 38.9625 111.62C39.2609 111.53 39.8628 111.35 40.1613 111.26C40.7432 108.045 41.1859 104.805 41.4794 101.55C41.9271 96.555 42.9965 91.65 43.9317 86.73C44.5684 81.175 44.3694 75.57 44.4241 69.99C44.4092 68.73 44.4838 67.445 44.1605 66.22C42.0912 64.33 38.7685 64.12 37.3061 61.53C36.3212 59.76 35.2965 57.97 34.7295 56.02C36.7689 52.345 40.3055 49.83 43.3895 47.09C46.1153 44.935 49.06 41.955 52.8702 42.75C52.9697 41.375 52.7857 39.92 53.303 38.615C53.9795 37.635 54.9842 36.92 55.5762 35.88C55.8895 34.415 55.3026 32.95 55.3175 31.475C55.5861 30.045 56.5909 28.88 56.9042 27.46C57.2475 25.855 57.153 24.205 57.1828 22.575C53.7258 22.27 50.224 22.445 46.8018 21.78C49.8211 20.095 53.2731 19.45 56.4814 18.22C56.4516 17.12 56.4168 16.02 56.4019 14.925C56.4566 13.06 57.5111 11.385 57.4365 9.5C57.6454 7.125 57.2276 4.46 58.5109 2.335C60.5055 0.37 63.6542 0.845 66.1661 0.31L64.9475 0ZM52.3728 73.045C51.9898 77.695 51.9202 82.365 51.7311 87.03C51.6466 89.575 50.7015 92.03 50.8756 94.59C51.945 93.005 52.7906 91.285 53.8302 89.68C54.7057 88.25 55.6806 86.745 55.6707 85.005C55.6756 82.765 54.9345 80.62 54.5465 78.435C54.0839 76.56 53.9297 74.395 52.3728 73.045Z" fill="#131313"/>
<path d="M79.7604 10.625C80.0141 11.76 79.8599 12.93 79.8748 14.08C97.737 16.395 114.53 25.875 125.771 40.025C135.332 51.86 140.788 66.895 141.266 82.12V85.925C140.932 99.6 136.6 113.16 128.806 124.385C119.578 137.815 105.631 147.91 89.9823 152.295C86.5103 153.23 82.9986 154.08 79.4271 154.505C80.3324 154.34 81.2377 154.175 82.148 154.03C84.257 146.205 86.2616 138.355 88.3557 130.525C89.8778 124.835 90.3603 118.895 90.1265 113.02C89.5844 107.695 90.3106 102.315 89.5794 97.005C88.7835 92.88 87.6096 88.735 87.8882 84.49C88.0424 79.445 89.7783 74.645 91.1562 69.845C91.8625 75.53 91.9023 81.28 91.8177 87C91.8227 89.605 92.728 92.075 93.3647 94.565C94.27 98.04 95.2698 101.49 96.2199 104.955C96.7819 106.395 95.5185 107.63 95.0758 108.92C96.4984 111.46 98.3637 113.785 99.3536 116.555C100.189 118.66 99.3337 120.875 99.3287 123.04C99.1944 124.68 99.9654 126.17 100.567 127.64C100.229 127.73 99.5625 127.91 99.2292 128C99.3785 128.84 99.5426 129.68 99.7217 130.52C99.2193 130.495 98.2145 130.45 97.7171 130.43C98.2543 131.8 99.3685 133.195 100.94 133.25C102.632 133.08 104.363 132.755 105.89 131.98C107.073 129.855 109.163 127.625 108.416 125.02C106.889 117.46 105.089 109.935 104.407 102.235C104.144 102.1 103.611 101.835 103.348 101.705C103.144 96.66 102.428 91.57 100.537 86.865C99.1944 83.63 99.6172 80.085 99.5078 76.675C99.0949 70.75 99.1894 64.795 98.5726 58.88C100.403 55.92 102.676 53.15 103.383 49.645C99.0999 45.51 93.6134 42.125 87.535 41.925C85.043 42.13 82.4067 43.55 80.024 42.06C77.0147 40.645 76.7013 36.955 76.2686 34.06C77.0346 32.83 77.5121 31.46 77.8653 30.055C78.3577 28.175 79.9892 26.885 80.6259 25.07C81.1084 23.62 81.1532 22.07 81.2477 20.555C84.7296 19.525 88.7636 19.52 91.6287 17.035C87.6395 16.78 83.496 16.625 79.8201 14.85C79.7903 13.445 79.7306 12.035 79.7604 10.625Z" fill="#EEEEEE"/>
<path d="M13.5396 42.605C23.7565 28.455 39.3604 18.4 56.4019 14.925C56.4168 16.02 56.4516 17.12 56.4815 18.22C53.2731 19.45 49.8211 20.095 46.8018 21.78C50.224 22.445 53.7258 22.27 57.1828 22.575C57.153 24.205 57.2475 25.855 56.9043 27.46C56.5909 28.88 55.5861 30.045 55.3175 31.475C55.3026 32.95 55.8895 34.4151 55.5762 35.8801C54.9842 36.9201 53.9795 37.6351 53.303 38.6151C52.7857 39.9201 52.9697 41.375 52.8702 42.75C49.06 41.955 46.1153 44.935 43.3895 47.09C40.3055 49.8301 36.7689 52.3451 34.7295 56.0201C35.2966 57.9701 36.3212 59.76 37.3061 61.53C38.7685 64.12 42.0912 64.3301 44.1605 66.2201C44.4838 67.445 44.4092 68.73 44.4241 69.99C44.3694 75.57 44.5684 81.175 43.9317 86.73C42.9965 91.65 41.9271 96.555 41.4794 101.55C41.186 104.805 40.7432 108.045 40.1613 111.26C39.8628 111.35 39.261 111.53 38.9625 111.62C38.6392 115.055 38.4949 118.505 38.2114 121.94C37.9428 125.125 38.3955 128.35 37.7886 131.505C37.5449 133.3 36.8236 135.16 37.5349 136.95C38.2512 139.04 38.9973 141.165 40.2458 143.005C41.9967 145.87 45.7821 145.935 48.7516 146.08C47.1649 144.295 45.0757 143.055 43.4243 141.355C42.8971 139.725 42.2803 137.755 43.3348 136.21C43.8024 138.61 43.9068 141.34 45.7771 143.15L46.3839 142.95C46.6525 139.64 46.1054 136.315 46.3193 132.995C46.5481 130.115 45.2797 127.375 45.5184 124.5C45.9412 120.89 46.7073 117.32 47.4882 113.775C47.8563 114.81 48.1945 115.865 48.3288 116.965C50.1792 128.785 52.333 140.595 52.9846 152.56C53.1786 152.67 53.5666 152.895 53.7606 153.005C37.6294 148.99 22.9955 139.16 13.3108 125.57C5.07363 114.23 0.452648 100.36 0 86.345V82.145C0.457622 68 5.16317 54 13.5396 42.605Z" fill="#EEEEEE"/>
<path d="M52.3728 73.0449C53.9297 74.3949 54.0839 76.5599 54.5465 78.4349C54.9345 80.6199 55.6757 82.7649 55.6707 85.0049C55.6806 86.7449 54.7057 88.2499 53.8303 89.6799C52.7907 91.2849 51.945 93.0049 50.8756 94.5899C50.7015 92.0299 51.6466 89.5749 51.7312 87.0299C51.9202 82.3649 51.9898 77.6949 52.3728 73.0449Z" fill="#EEEEEE"/>
</g>
<defs>
<clipPath id="clip0_124_143">
<rect width="141.266" height="155" fill="white"/>
</clipPath>
</defs>
</svg>
