<svg width="142" height="155" viewBox="0 0 142 155" fill="none" xmlns="http://www.w3.org/2000/svg">
<g clip-path="url(#clip0_124_150)">
<path d="M69.8043 0H65.4431C63.8313 0.88 61.8603 1.735 61.3463 3.7C60.6427 6.03 59.4901 8.185 58.7565 10.5L59.021 10.985L59.7296 10.855C59.6996 13.095 58.8663 15.225 58.7965 17.465C58.537 19.31 59.2206 21.1 59.2206 22.935C58.8963 24.27 57.8384 25.485 58.1677 26.935C58.7466 29.475 60.2835 32.05 59.4801 34.7C58.5719 35.735 57.3643 36.77 55.9073 36.765C52.8784 37.03 49.615 37.305 47.0651 39.13C45.2288 40.92 44.7548 43.545 43.7767 45.815C40.6281 49.785 38.3377 54.355 35.4136 58.49C31.4366 64.265 27.275 69.96 24.2062 76.295C23.7272 77.36 23.1683 78.605 23.7521 79.75C24.3709 80.76 25.4936 81.285 26.5116 81.805C33.8118 85.14 41.0971 88.53 48.2976 92.09C50.0391 92.805 51.0621 94.58 52.8734 95.18C53.6319 94.94 54.3953 94.725 55.1638 94.525C52.5291 102.58 49.7447 110.62 48.128 118.96C46.2268 129.17 45.1939 139.54 44.8147 149.91C44.9743 150.03 45.2987 150.275 45.4584 150.395C51.1369 152.57 57.1248 154.195 63.2126 154.56L62.9381 155H78.2223C79.3949 154.275 80.832 154.5 82.1294 154.215C88.5365 153.115 94.8787 151.33 100.727 148.445C100.597 140.49 100.537 132.52 99.7289 124.6C98.0373 108.905 93.9606 93.405 94.5893 77.525C95.5923 84.385 96.5903 91.295 98.8457 97.88C101.505 104.92 104.759 111.72 107.568 118.705C108.826 121.48 107.853 124.575 107.982 127.5C108.062 131.165 109.988 134.425 110.652 137.975C110.697 138.68 111.091 139.27 111.765 139.515C112.453 139.405 112.763 138.625 112.718 138C112.568 136.295 111.914 134.67 111.914 132.945C113.656 134.205 113.696 136.585 114.03 138.52C113.736 139.67 112.927 140.595 112.294 141.575C111.675 142.68 111.011 143.82 110.956 145.125C112.388 145.66 113.371 144.445 114.29 143.58C115.293 142.565 116.42 141.65 117.224 140.465C117.633 139.42 117.548 138.25 117.887 137.18C117.513 135.475 117.962 133.655 117.274 132.015C115.856 128.205 113.706 124.605 113.242 120.5C111.73 116.275 111.246 111.795 110.362 107.415C109.3 102.005 108.551 96.53 107.179 91.185C106.151 87.12 104.265 83.255 103.901 79.035C103.257 72.7 103.471 66.33 103.087 59.985C102.878 58.61 103.302 57.305 103.716 56.015C104.15 51.585 102.354 47.37 100.208 43.615C98.6012 40.92 95.1232 40.7 92.4087 39.85C91.7999 38.97 91.0514 38.115 90.8618 37.03C90.8269 35.705 91.1862 34.345 90.6672 33.065C89.5644 29.61 88.4966 26.14 87.4936 22.655C87.2142 21.485 86.4307 20.545 85.9367 19.47C85.5026 17.71 86.0515 15.91 86.0216 14.13C84.5895 9.81 82.4588 5.475 78.8011 2.615C77.7832 1.87 76.7203 0.87 75.373 0.925C73.392 0.96 71.421 0.78 69.465 0.46L69.8043 0ZM54.3305 59.56C56.0869 64.465 57.6089 69.53 60.3533 74C61.5709 75.76 60.9671 78.025 61.3264 80.025C59.9641 81.92 58.1228 83.47 56.4961 85.15C55.3534 86.12 54.046 87.43 52.4293 87.245C46.5013 83.985 40.3037 80.85 35.4835 75.99C35.8078 75.375 36.1521 74.765 36.5862 74.225C40.6481 69.135 44.5352 63.84 49.4703 59.55C49.7397 59.745 50.2736 60.13 50.5431 60.325C51.7307 59.76 53.0431 59.665 54.3305 59.56Z" fill="#131313"/>
<path d="M58.7964 17.465C58.8662 15.225 59.6996 13.095 59.7295 10.855L59.0209 10.985C59.6397 12.15 59.0359 13.45 58.8712 14.655C57.1597 14.655 55.523 15.205 53.8663 15.56C37.8187 19.43 23.3229 29.22 13.5975 42.565C5.18945 53.955 0.463982 67.95 -8.39233e-05 82.1V85.985C0.364182 101.095 5.69843 116.035 15.0745 127.885C22.9487 137.955 33.6072 145.7 45.4583 150.395C45.2986 150.275 44.9742 150.03 44.8146 149.91C45.1938 139.54 46.2267 129.17 48.1279 118.96C49.7446 110.62 52.529 102.58 55.1637 94.525C54.3952 94.725 53.6318 94.94 52.8733 95.18C51.062 94.58 50.039 92.805 48.2975 92.09C41.0971 88.53 33.8118 85.14 26.5115 81.805C25.4935 81.285 24.3708 80.76 23.752 79.75C23.1682 78.605 23.7271 77.36 24.2061 76.295C27.2749 69.96 31.4365 64.265 35.4135 58.49C38.3376 54.355 40.628 49.785 43.7767 45.815C44.7547 43.545 45.2287 40.92 47.065 39.13C49.6149 37.305 52.8783 37.03 55.9072 36.765C57.3643 36.77 58.5718 35.735 59.48 34.7C60.2834 32.05 58.7465 29.475 58.1676 26.935C57.8383 25.485 58.8962 24.27 59.2205 22.935C59.2205 21.1 58.5369 19.31 58.7964 17.465Z" fill="#EEEEEE"/>
<path d="M86.4307 15.2749C86.291 14.8949 86.1562 14.5149 86.0215 14.1299C86.0515 15.9099 85.5026 17.7099 85.9367 19.4699C86.4307 20.5449 87.2141 21.4849 87.4935 22.6549C88.4965 26.1399 89.5644 29.6099 90.6672 33.0649C91.1861 34.3449 90.8268 35.7049 90.8618 37.0299C91.0514 38.1149 91.7999 38.9699 92.4086 39.8499C95.1232 40.6999 98.6012 40.9199 100.208 43.6149C102.354 47.3699 104.15 51.5849 103.716 56.0149C103.302 57.3049 102.878 58.6099 103.087 59.9849C103.471 66.3299 103.257 72.6999 103.9 79.0349C104.265 83.2549 106.151 87.1199 107.179 91.1849C108.551 96.5299 109.3 102.005 110.362 107.415C111.246 111.795 111.73 116.275 113.242 120.5C113.706 124.605 115.856 128.205 117.274 132.015C117.962 133.655 117.513 135.475 117.887 137.18C128.935 127.37 136.884 114.055 140.028 99.5849C141.046 95.2649 141.47 90.8349 141.714 86.4149V82.0749C141.225 67.3499 136.091 52.8149 127.064 41.1699C117.069 28.1799 102.473 18.6899 86.4307 15.2749Z" fill="#EEEEEE"/>
<path d="M54.3304 59.5601C53.043 59.6651 51.7306 59.7601 50.543 60.3251C50.2736 60.1301 49.7397 59.745 49.4702 59.55C44.5351 63.84 40.648 69.135 36.5862 74.225C36.1521 74.765 35.8077 75.375 35.4834 75.99C40.3037 80.85 46.5012 83.9851 52.4292 87.2451C54.046 87.4301 55.3533 86.1201 56.496 85.1501C58.1228 83.4701 59.964 81.9201 61.3263 80.0251C60.967 78.0251 61.5708 75.7601 60.3533 74.0001C57.6088 69.5301 56.0869 64.4651 54.3304 59.5601Z" fill="#EEEEEE"/>
<path d="M98.8456 97.8799C96.5902 91.2949 95.5922 84.3849 94.5892 77.5249C93.9605 93.4049 98.0373 108.905 99.7289 124.6C100.537 132.52 100.597 140.49 100.727 148.445C104.759 146.475 108.731 144.32 112.294 141.575C112.927 140.595 113.736 139.67 114.03 138.52C113.696 136.585 113.656 134.205 111.914 132.945C111.914 134.67 112.568 136.295 112.718 138C112.763 138.625 112.453 139.405 111.765 139.515C111.091 139.27 110.697 138.68 110.652 137.975C109.988 134.425 108.062 131.165 107.982 127.5C107.852 124.575 108.826 121.48 107.568 118.705C104.759 111.72 101.505 104.92 98.8456 97.8799Z" fill="#EEEEEE"/>
</g>
<defs>
<clipPath id="clip0_124_150">
<rect width="141.714" height="155" fill="white" transform="matrix(-1 0 0 1 141.714 0)"/>
</clipPath>
</defs>
</svg>
