<svg width="143" height="155" viewBox="0 0 143 155" fill="none" xmlns="http://www.w3.org/2000/svg">
<g clip-path="url(#clip0_124_158)">
<path d="M59.2795 3.37011C61.916 1.47011 65.2518 0.840107 68.4265 0.495107C70.7611 0.205107 72.8089 1.58011 74.756 2.65011C76.7534 3.67011 76.8289 6.19511 78.0868 7.84011C79.3899 9.63011 80.3358 11.7551 79.8679 14.0151C79.415 15.5251 78.3937 16.8351 78.1622 18.4151C77.7497 20.9851 77.4981 23.6251 76.5119 26.0601C75.8528 27.6151 74.5648 28.7701 73.6843 30.1901C73.629 31.2651 73.8956 32.3251 74.0818 33.3801C74.7208 33.2901 75.3598 33.2001 76.0038 33.1151C76.849 33.8851 77.6742 34.6851 78.5094 35.4701C80.8188 35.7751 82.3584 37.6501 84.2653 38.7751C85.1558 39.4401 86.3986 39.8901 86.7759 41.0301C87.3092 42.6201 88.069 44.1351 89.1859 45.4051C92.7884 49.5751 95.8475 54.1601 98.8109 58.7901C99.5656 60.0801 100.587 61.3951 100.421 62.9751C100.174 66.1501 98.5493 69.0301 96.6173 71.5051C94.2626 74.4951 91.7066 77.3201 89.1105 80.1101C90.0111 83.1001 91.3796 86.2301 94.0563 88.0601C97.7795 90.2901 100.149 94.0301 102.786 97.3501C103.908 99.4151 104.758 101.635 106.086 103.6C106.866 104.495 106.116 105.58 105.477 106.295C103.641 108.32 101.568 110.17 99.2386 111.63C98.1015 112.365 96.6927 112.27 95.3997 112.405C95.6814 113.215 95.9783 114.025 96.2298 114.845C98.9065 125.53 102.086 136.09 104.964 146.725C100.285 149.27 95.2689 151.29 90.0765 152.515C86.1923 143.99 81.9609 135.625 77.6993 127.28C76.0289 124.41 75.0478 120.99 72.3158 118.87C71.5007 120.46 71.5711 122.27 71.5007 124C71.4051 127.68 70.8164 131.325 70.746 135.01C70.6001 141.675 70.9825 148.335 71.0227 155H66.2329C63.1185 154.405 59.9235 154.31 56.8594 153.475C56.2859 147.73 55.7928 141.975 55.0129 136.255C54.0721 131.255 52.1803 126.495 50.9979 121.555C49.8256 117.615 50.1929 113.48 50.2432 109.435C47.6973 107.985 46.6508 104.7 43.6521 104.005C45.4936 101.76 47.1137 99.3251 48.3414 96.6951C45.1313 94.4001 41.2069 92.7151 39.0937 89.2301C37.7202 86.8651 36.1151 84.3351 36.1655 81.5201C37.9365 73.0751 40.5427 64.6851 40.5075 55.9801C40.7138 52.3351 40.5377 48.6151 41.4081 45.0451C42.2584 41.8751 45.3427 40.2401 47.481 38.0501C48.3363 35.6001 48.5829 32.9151 50.0067 30.6751C51.6671 28.3001 51.5816 25.3151 52.0947 22.5851C52.4721 20.5401 52.4973 18.4601 52.6532 16.3951C52.3564 16.3851 51.7526 16.3601 51.4558 16.3501C51.8784 16.1551 52.3061 15.9751 52.7438 15.8101C53.423 14.5501 54.2079 13.3551 55.018 12.1751C56.9148 9.48011 56.9299 5.79511 59.2795 3.37011ZM85.8451 57.6651C85.8552 62.7851 83.3496 68.4001 86.2275 73.1501C88.6023 70.4551 89.5784 66.9151 91.3897 63.8751C89.5985 61.7701 88.0539 59.3601 85.8451 57.6651ZM49.5388 60.3651C48.2709 65.5901 47.2797 70.9001 45.5137 75.9901C44.6433 77.9051 43.9087 79.9001 43.798 82.0201C45.3879 83.5951 46.4043 85.6851 48.2357 87.0251C49.4986 88.0001 50.7816 89.0651 52.3413 89.5251C53.6746 87.7901 54.6054 85.7951 55.8431 83.9951C56.6582 82.8251 57.9412 82.0301 58.6204 80.7551C58.9173 79.8451 58.5349 78.8851 58.2582 78.0201C57.423 75.8501 56.6179 73.6701 55.7274 71.5251C54.9677 69.6651 52.9803 68.5001 52.6079 66.4601C52.2457 64.2401 51.5614 61.6451 49.5388 60.3651Z" fill="#131313"/>
<path d="M79.8678 14.0149C87.5708 15.0349 95.1531 17.1049 102.172 20.4599C118.529 28.1299 131.716 42.2399 138.136 59.0499C141.084 66.5599 142.483 74.5849 142.891 82.6149V85.9099C142.423 96.0199 140.179 106.115 135.615 115.205C129.085 128.59 118.091 139.645 104.964 146.725C102.086 136.09 98.9065 125.53 96.2298 114.845C95.9782 114.025 95.6814 113.215 95.3996 112.405C96.6927 112.27 98.1015 112.365 99.2386 111.63C101.568 110.17 103.641 108.32 105.477 106.295C106.116 105.58 106.866 104.495 106.086 103.6C104.758 101.635 103.908 99.4149 102.786 97.3499C100.149 94.0299 97.7795 90.2899 94.0563 88.0599C91.3796 86.2299 90.0111 83.0999 89.1104 80.1099C91.7066 77.3199 94.2626 74.4949 96.6172 71.5049C98.5493 69.0299 100.174 66.1499 100.421 62.9749C100.587 61.3949 99.5656 60.0799 98.8109 58.7899C95.8474 54.1599 92.7884 49.5749 89.1859 45.4049C88.0689 44.1349 87.3092 42.6199 86.7759 41.0299C86.3985 39.8899 85.1558 39.4399 84.2652 38.7749C82.3584 37.6499 80.8188 35.7749 78.5094 35.4699C77.6742 34.6849 76.849 33.8849 76.0037 33.1149C75.3597 33.1999 74.7208 33.2899 74.0818 33.3799C73.8956 32.3249 73.6289 31.2649 73.6843 30.1899C74.5648 28.7699 75.8528 27.6149 76.5119 26.0599C77.4981 23.6249 77.7496 20.9849 78.1622 18.4149C78.3936 16.8349 79.415 15.5249 79.8678 14.0149Z" fill="#EEEEEE"/>
<path d="M13.1419 43.5199C22.3443 30.4999 36.1151 20.8499 51.4557 16.3499C51.7526 16.3599 52.3563 16.3849 52.6532 16.3949C52.4972 18.4599 52.4721 20.5399 52.0947 22.5849C51.5815 25.3149 51.667 28.2999 50.0067 30.6749C48.5828 32.9149 48.3363 35.5999 47.4809 38.0499C45.3426 40.2399 42.2584 41.8749 41.4081 45.0449C40.5377 48.6149 40.7138 52.3349 40.5075 55.9799C40.5427 64.6849 37.9365 73.0749 36.1654 81.5199C36.1151 84.3349 37.7201 86.8649 39.0937 89.2299C41.2068 92.7149 45.1313 94.3999 48.3413 96.6949C47.1137 99.3249 45.4936 101.76 43.6521 104.005C46.6508 104.7 47.6973 107.985 50.2432 109.435C50.1929 113.48 49.8256 117.615 50.9979 121.555C52.1802 126.495 54.072 131.255 55.0129 136.255C55.7928 141.975 56.2858 147.73 56.8594 153.475C41.1364 150.19 26.626 141.545 16.4022 129.22C7.61748 118.71 1.99745 105.615 0.513199 92.0299C0.372321 89.8199 0.130815 87.6199 0 85.4099V83.1099C0.306913 79.2099 0.483011 75.2949 1.25784 71.4549C3.11441 61.4349 7.18478 51.8149 13.1419 43.5199Z" fill="#EEEEEE"/>
<path d="M85.845 57.6648C88.0538 59.3598 89.5984 61.7698 91.3896 63.8748C89.5783 66.9148 88.6022 70.4548 86.2274 73.1498C83.3495 68.3998 85.8551 62.7848 85.845 57.6648Z" fill="#EEEEEE"/>
<path d="M49.5388 60.365C51.5614 61.645 52.2456 64.24 52.6079 66.46C52.9802 68.5 54.9676 69.665 55.7273 71.525C56.6179 73.67 57.4229 75.85 58.2581 78.02C58.5348 78.885 58.9172 79.845 58.6204 80.755C57.9411 82.03 56.6581 82.825 55.843 83.995C54.6053 85.795 53.6745 87.79 52.3412 89.525C50.7815 89.065 49.4985 88 48.2356 87.025C46.4042 85.685 45.3879 83.595 43.798 82.02C43.9087 79.9 44.6432 77.905 45.5137 75.99C47.2797 70.9 48.2709 65.59 49.5388 60.365Z" fill="#EEEEEE"/>
<path d="M71.5006 124C71.5711 122.27 71.5006 120.46 72.3157 118.87C75.0477 120.99 76.0288 124.41 77.6993 127.28C81.9608 135.625 86.1922 143.99 90.0764 152.515C84.1293 154.07 78.0062 154.76 71.8729 155H71.0226C70.9824 148.335 70.6 141.675 70.7459 135.01C70.8164 131.325 71.405 127.68 71.5006 124Z" fill="#EEEEEE"/>
</g>
<defs>
<clipPath id="clip0_124_158">
<rect width="142.891" height="155" fill="white"/>
</clipPath>
</defs>
</svg>
